<?xml version="1.0" encoding="utf-8" standalone="no"?>
<!DOCTYPE svg PUBLIC "-//W3C//DTD SVG 1.1//EN"
  "http://www.w3.org/Graphics/SVG/1.1/DTD/svg11.dtd">
<svg xmlns:xlink="http://www.w3.org/1999/xlink" width="165.6pt" height="64.8pt" viewBox="0 0 165.6 64.8" xmlns="http://www.w3.org/2000/svg" version="1.1">
 <metadata>
  <rdf:RDF xmlns:dc="http://purl.org/dc/elements/1.1/" xmlns:cc="http://creativecommons.org/ns#" xmlns:rdf="http://www.w3.org/1999/02/22-rdf-syntax-ns#">
   <cc:Work>
    <dc:type rdf:resource="http://purl.org/dc/dcmitype/StillImage"/>
    <dc:date>2024-03-05T09:43:35.495840</dc:date>
    <dc:format>image/svg+xml</dc:format>
    <dc:creator>
     <cc:Agent>
      <dc:title>Matplotlib v3.7.4, https://matplotlib.org/</dc:title>
     </cc:Agent>
    </dc:creator>
   </cc:Work>
  </rdf:RDF>
 </metadata>
 <defs>
  <style type="text/css">*{stroke-linejoin: round; stroke-linecap: butt}</style>
 </defs>
 <g id="figure_1">
  <g id="patch_1">
   <path d="M 0 64.8 
L 165.6 64.8 
L 165.6 0 
L 0 0 
z
" style="fill: #ffffff"/>
  </g>
  <g id="axes_1">
   <g id="patch_2">
    <path d="M 20.7 57.672 
L 149.04 57.672 
L 149.04 7.776 
L 20.7 7.776 
z
" style="fill: #ffffff"/>
   </g>
   <g id="PolyCollection_1">
    <defs>
     <path id="m476465b963" d="M 60.411131 -9.396 
L 45.158869 -9.396 
L 44.605743 -9.854182 
L 44.027924 -10.312364 
L 43.425162 -10.770545 
L 42.797436 -11.228727 
L 42.145014 -11.686909 
L 41.468524 -12.145091 
L 40.76901 -12.603273 
L 40.047991 -13.061455 
L 39.3075 -13.519636 
L 38.55012 -13.977818 
L 37.778998 -14.436 
L 36.997842 -14.894182 
L 36.210905 -15.352364 
L 35.422939 -15.810545 
L 34.639147 -16.268727 
L 33.865099 -16.726909 
L 33.106647 -17.185091 
L 32.36982 -17.643273 
L 31.66071 -18.101455 
L 30.985355 -18.559636 
L 30.349613 -19.017818 
L 29.759044 -19.476 
L 29.218794 -19.934182 
L 28.733487 -20.392364 
L 28.307132 -20.850545 
L 27.943039 -21.308727 
L 27.643757 -21.766909 
L 27.411027 -22.225091 
L 27.245756 -22.683273 
L 27.148004 -23.141455 
L 27.117 -23.599636 
L 27.151164 -24.057818 
L 27.248153 -24.516 
L 27.404918 -24.974182 
L 27.617775 -25.432364 
L 27.882479 -25.890545 
L 28.194314 -26.348727 
L 28.54818 -26.806909 
L 28.938685 -27.265091 
L 29.360239 -27.723273 
L 29.807137 -28.181455 
L 30.273648 -28.639636 
L 30.75409 -29.097818 
L 31.242901 -29.556 
L 31.734706 -30.014182 
L 32.224366 -30.472364 
L 32.707029 -30.930545 
L 33.178171 -31.388727 
L 33.633621 -31.846909 
L 34.069592 -32.305091 
L 34.4827 -32.763273 
L 34.869978 -33.221455 
L 35.228887 -33.679636 
L 35.557328 -34.137818 
L 35.853643 -34.596 
L 36.116628 -35.054182 
L 36.345529 -35.512364 
L 36.540046 -35.970545 
L 36.700335 -36.428727 
L 36.827 -36.886909 
L 36.921088 -37.345091 
L 36.984077 -37.803273 
L 37.017858 -38.261455 
L 37.024709 -38.719636 
L 37.007266 -39.177818 
L 36.96848 -39.636 
L 36.911572 -40.094182 
L 36.83998 -40.552364 
L 36.757299 -41.010545 
L 36.667214 -41.468727 
L 36.573438 -41.926909 
L 36.479642 -42.385091 
L 36.389391 -42.843273 
L 36.306085 -43.301455 
L 36.232907 -43.759636 
L 36.172779 -44.217818 
L 36.128328 -44.676 
L 36.10187 -45.134182 
L 36.095398 -45.592364 
L 36.110588 -46.050545 
L 36.148812 -46.508727 
L 36.211167 -46.966909 
L 36.298498 -47.425091 
L 36.411441 -47.883273 
L 36.550455 -48.341455 
L 36.715856 -48.799636 
L 36.907846 -49.257818 
L 37.126539 -49.716 
L 37.37197 -50.174182 
L 37.644098 -50.632364 
L 37.942804 -51.090545 
L 38.267868 -51.548727 
L 38.618948 -52.006909 
L 38.995545 -52.465091 
L 39.396972 -52.923273 
L 39.822311 -53.381455 
L 40.270387 -53.839636 
L 40.739732 -54.297818 
L 41.228572 -54.756 
L 64.341428 -54.756 
L 64.341428 -54.756 
L 64.830268 -54.297818 
L 65.299613 -53.839636 
L 65.747689 -53.381455 
L 66.173028 -52.923273 
L 66.574455 -52.465091 
L 66.951052 -52.006909 
L 67.302132 -51.548727 
L 67.627196 -51.090545 
L 67.925902 -50.632364 
L 68.19803 -50.174182 
L 68.443461 -49.716 
L 68.662154 -49.257818 
L 68.854144 -48.799636 
L 69.019545 -48.341455 
L 69.158559 -47.883273 
L 69.271502 -47.425091 
L 69.358833 -46.966909 
L 69.421188 -46.508727 
L 69.459412 -46.050545 
L 69.474602 -45.592364 
L 69.46813 -45.134182 
L 69.441672 -44.676 
L 69.397221 -44.217818 
L 69.337093 -43.759636 
L 69.263915 -43.301455 
L 69.180609 -42.843273 
L 69.090358 -42.385091 
L 68.996562 -41.926909 
L 68.902786 -41.468727 
L 68.812701 -41.010545 
L 68.73002 -40.552364 
L 68.658428 -40.094182 
L 68.60152 -39.636 
L 68.562734 -39.177818 
L 68.545291 -38.719636 
L 68.552142 -38.261455 
L 68.585923 -37.803273 
L 68.648912 -37.345091 
L 68.743 -36.886909 
L 68.869665 -36.428727 
L 69.029954 -35.970545 
L 69.224471 -35.512364 
L 69.453372 -35.054182 
L 69.716357 -34.596 
L 70.012672 -34.137818 
L 70.341113 -33.679636 
L 70.700022 -33.221455 
L 71.0873 -32.763273 
L 71.500408 -32.305091 
L 71.936379 -31.846909 
L 72.391829 -31.388727 
L 72.862971 -30.930545 
L 73.345634 -30.472364 
L 73.835294 -30.014182 
L 74.327099 -29.556 
L 74.81591 -29.097818 
L 75.296352 -28.639636 
L 75.762863 -28.181455 
L 76.209761 -27.723273 
L 76.631315 -27.265091 
L 77.02182 -26.806909 
L 77.375686 -26.348727 
L 77.687521 -25.890545 
L 77.952225 -25.432364 
L 78.165082 -24.974182 
L 78.321847 -24.516 
L 78.418836 -24.057818 
L 78.453 -23.599636 
L 78.421996 -23.141455 
L 78.324244 -22.683273 
L 78.158973 -22.225091 
L 77.926243 -21.766909 
L 77.626961 -21.308727 
L 77.262868 -20.850545 
L 76.836513 -20.392364 
L 76.351206 -19.934182 
L 75.810956 -19.476 
L 75.220387 -19.017818 
L 74.584645 -18.559636 
L 73.90929 -18.101455 
L 73.20018 -17.643273 
L 72.463353 -17.185091 
L 71.704901 -16.726909 
L 70.930853 -16.268727 
L 70.147061 -15.810545 
L 69.359095 -15.352364 
L 68.572158 -14.894182 
L 67.791002 -14.436 
L 67.01988 -13.977818 
L 66.2625 -13.519636 
L 65.522009 -13.061455 
L 64.80099 -12.603273 
L 64.101476 -12.145091 
L 63.424986 -11.686909 
L 62.772564 -11.228727 
L 62.144838 -10.770545 
L 61.542076 -10.312364 
L 60.964257 -9.854182 
L 60.411131 -9.396 
z
" style="stroke: #404040; stroke-width: 1.25"/>
    </defs>
    <g clip-path="url(#pc633c9111f)">
     <use xlink:href="#m476465b963" x="0" y="64.8" style="fill: #cb5e28; stroke: #404040; stroke-width: 1.25"/>
    </g>
   </g>
   <g id="PolyCollection_2">
    <defs>
     <path id="m81b8d640cc" d="M 121.925053 -9.396 
L 111.984947 -9.396 
L 111.516322 -9.854182 
L 111.018907 -10.312364 
L 110.492147 -10.770545 
L 109.935718 -11.228727 
L 109.3496 -11.686909 
L 108.73414 -12.145091 
L 108.090117 -12.603273 
L 107.41879 -13.061455 
L 106.721936 -13.519636 
L 106.001867 -13.977818 
L 105.261424 -14.436 
L 104.50395 -14.894182 
L 103.733243 -15.352364 
L 102.953484 -15.810545 
L 102.16915 -16.268727 
L 101.384914 -16.726909 
L 100.605538 -17.185091 
L 99.83577 -17.643273 
L 99.080238 -18.101455 
L 98.343365 -18.559636 
L 97.629294 -19.017818 
L 96.941833 -19.476 
L 96.284424 -19.934182 
L 95.660125 -20.392364 
L 95.071616 -20.850545 
L 94.521213 -21.308727 
L 94.010892 -21.766909 
L 93.542308 -22.225091 
L 93.116818 -22.683273 
L 92.735486 -23.141455 
L 92.399078 -23.599636 
L 92.10804 -24.057818 
L 91.862454 -24.516 
L 91.661994 -24.974182 
L 91.505856 -25.432364 
L 91.392704 -25.890545 
L 91.320607 -26.348727 
L 91.287 -26.806909 
L 91.288669 -27.265091 
L 91.321763 -27.723273 
L 91.38184 -28.181455 
L 91.46396 -28.639636 
L 91.562812 -29.097818 
L 91.672872 -29.556 
L 91.788593 -30.014182 
L 91.904617 -30.472364 
L 92.01599 -30.930545 
L 92.118368 -31.388727 
L 92.208217 -31.846909 
L 92.28297 -32.305091 
L 92.341151 -32.763273 
L 92.382448 -33.221455 
L 92.407736 -33.679636 
L 92.41904 -34.137818 
L 92.41945 -34.596 
L 92.412986 -35.054182 
L 92.404431 -35.512364 
L 92.399122 -35.970545 
L 92.402738 -36.428727 
L 92.42107 -36.886909 
L 92.459806 -37.345091 
L 92.524329 -37.803273 
L 92.619534 -38.261455 
L 92.749687 -38.719636 
L 92.918309 -39.177818 
L 93.128101 -39.636 
L 93.380906 -40.094182 
L 93.677697 -40.552364 
L 94.018602 -41.010545 
L 94.40295 -41.468727 
L 94.82933 -41.926909 
L 95.295671 -42.385091 
L 95.799324 -42.843273 
L 96.337151 -43.301455 
L 96.905614 -43.759636 
L 97.500861 -44.217818 
L 98.118814 -44.676 
L 98.755249 -45.134182 
L 99.405875 -45.592364 
L 100.066413 -46.050545 
L 100.732674 -46.508727 
L 101.400625 -46.966909 
L 102.066464 -47.425091 
L 102.726686 -47.883273 
L 103.378139 -48.341455 
L 104.018079 -48.799636 
L 104.644203 -49.257818 
L 105.254685 -49.716 
L 105.848176 -50.174182 
L 106.423805 -50.632364 
L 106.981148 -51.090545 
L 107.520188 -51.548727 
L 108.041257 -52.006909 
L 108.54496 -52.465091 
L 109.032098 -52.923273 
L 109.503582 -53.381455 
L 109.960345 -53.839636 
L 110.403261 -54.297818 
L 110.833077 -54.756 
L 123.076923 -54.756 
L 123.076923 -54.756 
L 123.506739 -54.297818 
L 123.949655 -53.839636 
L 124.406418 -53.381455 
L 124.877902 -52.923273 
L 125.36504 -52.465091 
L 125.868743 -52.006909 
L 126.389812 -51.548727 
L 126.928852 -51.090545 
L 127.486195 -50.632364 
L 128.061824 -50.174182 
L 128.655315 -49.716 
L 129.265797 -49.257818 
L 129.891921 -48.799636 
L 130.531861 -48.341455 
L 131.183314 -47.883273 
L 131.843536 -47.425091 
L 132.509375 -46.966909 
L 133.177326 -46.508727 
L 133.843587 -46.050545 
L 134.504125 -45.592364 
L 135.154751 -45.134182 
L 135.791186 -44.676 
L 136.409139 -44.217818 
L 137.004386 -43.759636 
L 137.572849 -43.301455 
L 138.110676 -42.843273 
L 138.614329 -42.385091 
L 139.08067 -41.926909 
L 139.50705 -41.468727 
L 139.891398 -41.010545 
L 140.232303 -40.552364 
L 140.529094 -40.094182 
L 140.781899 -39.636 
L 140.991691 -39.177818 
L 141.160313 -38.719636 
L 141.290466 -38.261455 
L 141.385671 -37.803273 
L 141.450194 -37.345091 
L 141.48893 -36.886909 
L 141.507262 -36.428727 
L 141.510878 -35.970545 
L 141.505569 -35.512364 
L 141.497014 -35.054182 
L 141.49055 -34.596 
L 141.49096 -34.137818 
L 141.502264 -33.679636 
L 141.527552 -33.221455 
L 141.568849 -32.763273 
L 141.62703 -32.305091 
L 141.701783 -31.846909 
L 141.791632 -31.388727 
L 141.89401 -30.930545 
L 142.005383 -30.472364 
L 142.121407 -30.014182 
L 142.237128 -29.556 
L 142.347188 -29.097818 
L 142.44604 -28.639636 
L 142.52816 -28.181455 
L 142.588237 -27.723273 
L 142.621331 -27.265091 
L 142.623 -26.806909 
L 142.589393 -26.348727 
L 142.517296 -25.890545 
L 142.404144 -25.432364 
L 142.248006 -24.974182 
L 142.047546 -24.516 
L 141.80196 -24.057818 
L 141.510922 -23.599636 
L 141.174514 -23.141455 
L 140.793182 -22.683273 
L 140.367692 -22.225091 
L 139.899108 -21.766909 
L 139.388787 -21.308727 
L 138.838384 -20.850545 
L 138.249875 -20.392364 
L 137.625576 -19.934182 
L 136.968167 -19.476 
L 136.280706 -19.017818 
L 135.566635 -18.559636 
L 134.829762 -18.101455 
L 134.07423 -17.643273 
L 133.304462 -17.185091 
L 132.525086 -16.726909 
L 131.74085 -16.268727 
L 130.956516 -15.810545 
L 130.176757 -15.352364 
L 129.40605 -14.894182 
L 128.648576 -14.436 
L 127.908133 -13.977818 
L 127.188064 -13.519636 
L 126.49121 -13.061455 
L 125.819883 -12.603273 
L 125.17586 -12.145091 
L 124.5604 -11.686909 
L 123.974282 -11.228727 
L 123.417853 -10.770545 
L 122.891093 -10.312364 
L 122.393678 -9.854182 
L 121.925053 -9.396 
z
" style="stroke: #404040; stroke-width: 1.25"/>
    </defs>
    <g clip-path="url(#pc633c9111f)">
     <use xlink:href="#m81b8d640cc" x="0" y="64.8" style="fill: #3f955a; stroke: #404040; stroke-width: 1.25"/>
    </g>
   </g>
   <g id="matplotlib.axis_1">
    <g id="xtick_1">
     <g id="line2d_1">
      <defs>
       <path id="mca30b9db51" d="M 0 0 
L 0 3.5 
" style="stroke: #000000; stroke-width: 0.8"/>
      </defs>
      <g>
       <use xlink:href="#mca30b9db51" x="52.785" y="57.672" style="stroke: #000000; stroke-width: 0.8"/>
      </g>
     </g>
     <g id="text_1">
      <!-- C1 -->
      <g transform="translate(47.446875 70.75075) scale(0.08 -0.08)">
       <defs>
        <path id="DejaVuSans-43" d="M 4122 4306 
L 4122 3641 
Q 3803 3938 3442 4084 
Q 3081 4231 2675 4231 
Q 1875 4231 1450 3742 
Q 1025 3253 1025 2328 
Q 1025 1406 1450 917 
Q 1875 428 2675 428 
Q 3081 428 3442 575 
Q 3803 722 4122 1019 
L 4122 359 
Q 3791 134 3420 21 
Q 3050 -91 2638 -91 
Q 1578 -91 968 557 
Q 359 1206 359 2328 
Q 359 3453 968 4101 
Q 1578 4750 2638 4750 
Q 3056 4750 3426 4639 
Q 3797 4528 4122 4306 
z
" transform="scale(0.015625)"/>
        <path id="DejaVuSans-31" d="M 794 531 
L 1825 531 
L 1825 4091 
L 703 3866 
L 703 4441 
L 1819 4666 
L 2450 4666 
L 2450 531 
L 3481 531 
L 3481 0 
L 794 0 
L 794 531 
z
" transform="scale(0.015625)"/>
       </defs>
       <use xlink:href="#DejaVuSans-43"/>
       <use xlink:href="#DejaVuSans-31" x="69.824219"/>
      </g>
     </g>
    </g>
    <g id="xtick_2">
     <g id="line2d_2">
      <g>
       <use xlink:href="#mca30b9db51" x="116.955" y="57.672" style="stroke: #000000; stroke-width: 0.8"/>
      </g>
     </g>
     <g id="text_2">
      <!-- C2 -->
      <g transform="translate(111.616875 70.75075) scale(0.08 -0.08)">
       <defs>
        <path id="DejaVuSans-32" d="M 1228 531 
L 3431 531 
L 3431 0 
L 469 0 
L 469 531 
Q 828 903 1448 1529 
Q 2069 2156 2228 2338 
Q 2531 2678 2651 2914 
Q 2772 3150 2772 3378 
Q 2772 3750 2511 3984 
Q 2250 4219 1831 4219 
Q 1534 4219 1204 4116 
Q 875 4013 500 3803 
L 500 4441 
Q 881 4594 1212 4672 
Q 1544 4750 1819 4750 
Q 2544 4750 2975 4387 
Q 3406 4025 3406 3419 
Q 3406 3131 3298 2873 
Q 3191 2616 2906 2266 
Q 2828 2175 2409 1742 
Q 1991 1309 1228 531 
z
" transform="scale(0.015625)"/>
       </defs>
       <use xlink:href="#DejaVuSans-43"/>
       <use xlink:href="#DejaVuSans-32" x="69.824219"/>
      </g>
     </g>
    </g>
   </g>
   <g id="matplotlib.axis_2">
    <g id="ytick_1">
     <g id="line2d_3">
      <defs>
       <path id="mc43b34a7e9" d="M 0 0 
L -3.5 0 
" style="stroke: #000000; stroke-width: 0.8"/>
      </defs>
      <g>
       <use xlink:href="#mc43b34a7e9" x="20.7" y="55.404" style="stroke: #000000; stroke-width: 0.8"/>
      </g>
     </g>
     <g id="text_3">
      <!-- 0 -->
      <g transform="translate(8.61 58.443375) scale(0.08 -0.08)">
       <defs>
        <path id="DejaVuSans-30" d="M 2034 4250 
Q 1547 4250 1301 3770 
Q 1056 3291 1056 2328 
Q 1056 1369 1301 889 
Q 1547 409 2034 409 
Q 2525 409 2770 889 
Q 3016 1369 3016 2328 
Q 3016 3291 2770 3770 
Q 2525 4250 2034 4250 
z
M 2034 4750 
Q 2819 4750 3233 4129 
Q 3647 3509 3647 2328 
Q 3647 1150 3233 529 
Q 2819 -91 2034 -91 
Q 1250 -91 836 529 
Q 422 1150 422 2328 
Q 422 3509 836 4129 
Q 1250 4750 2034 4750 
z
" transform="scale(0.015625)"/>
       </defs>
       <use xlink:href="#DejaVuSans-30"/>
      </g>
     </g>
    </g>
    <g id="ytick_2">
     <g id="line2d_4">
      <g>
       <use xlink:href="#mc43b34a7e9" x="20.7" y="27.054" style="stroke: #000000; stroke-width: 0.8"/>
      </g>
     </g>
     <g id="text_4">
      <!-- 10 -->
      <g transform="translate(3.52 30.093375) scale(0.08 -0.08)">
       <use xlink:href="#DejaVuSans-31"/>
       <use xlink:href="#DejaVuSans-30" x="63.623047"/>
      </g>
     </g>
    </g>
    <g id="text_5">
     <!-- SOFA -->
     <g transform="translate(-2.351719 44.379) rotate(-90) scale(0.09 -0.09)">
      <defs>
       <path id="DejaVuSans-53" d="M 3425 4513 
L 3425 3897 
Q 3066 4069 2747 4153 
Q 2428 4238 2131 4238 
Q 1616 4238 1336 4038 
Q 1056 3838 1056 3469 
Q 1056 3159 1242 3001 
Q 1428 2844 1947 2747 
L 2328 2669 
Q 3034 2534 3370 2195 
Q 3706 1856 3706 1288 
Q 3706 609 3251 259 
Q 2797 -91 1919 -91 
Q 1588 -91 1214 -16 
Q 841 59 441 206 
L 441 856 
Q 825 641 1194 531 
Q 1563 422 1919 422 
Q 2459 422 2753 634 
Q 3047 847 3047 1241 
Q 3047 1584 2836 1778 
Q 2625 1972 2144 2069 
L 1759 2144 
Q 1053 2284 737 2584 
Q 422 2884 422 3419 
Q 422 4038 858 4394 
Q 1294 4750 2059 4750 
Q 2388 4750 2728 4690 
Q 3069 4631 3425 4513 
z
" transform="scale(0.015625)"/>
       <path id="DejaVuSans-4f" d="M 2522 4238 
Q 1834 4238 1429 3725 
Q 1025 3213 1025 2328 
Q 1025 1447 1429 934 
Q 1834 422 2522 422 
Q 3209 422 3611 934 
Q 4013 1447 4013 2328 
Q 4013 3213 3611 3725 
Q 3209 4238 2522 4238 
z
M 2522 4750 
Q 3503 4750 4090 4092 
Q 4678 3434 4678 2328 
Q 4678 1225 4090 567 
Q 3503 -91 2522 -91 
Q 1538 -91 948 565 
Q 359 1222 359 2328 
Q 359 3434 948 4092 
Q 1538 4750 2522 4750 
z
" transform="scale(0.015625)"/>
       <path id="DejaVuSans-46" d="M 628 4666 
L 3309 4666 
L 3309 4134 
L 1259 4134 
L 1259 2759 
L 3109 2759 
L 3109 2228 
L 1259 2228 
L 1259 0 
L 628 0 
L 628 4666 
z
" transform="scale(0.015625)"/>
       <path id="DejaVuSans-41" d="M 2188 4044 
L 1331 1722 
L 3047 1722 
L 2188 4044 
z
M 1831 4666 
L 2547 4666 
L 4325 0 
L 3669 0 
L 3244 1197 
L 1141 1197 
L 716 0 
L 50 0 
L 1831 4666 
z
" transform="scale(0.015625)"/>
      </defs>
      <use xlink:href="#DejaVuSans-53"/>
      <use xlink:href="#DejaVuSans-4f" x="63.476562"/>
      <use xlink:href="#DejaVuSans-46" x="142.1875"/>
      <use xlink:href="#DejaVuSans-41" x="190.582031"/>
     </g>
    </g>
   </g>
   <g id="patch_3">
    <path d="M 20.7 57.672 
L 20.7 7.776 
" style="fill: none; stroke: #000000; stroke-width: 0.8; stroke-linejoin: miter; stroke-linecap: square"/>
   </g>
   <g id="patch_4">
    <path d="M 149.04 57.672 
L 149.04 7.776 
" style="fill: none; stroke: #000000; stroke-width: 0.8; stroke-linejoin: miter; stroke-linecap: square"/>
   </g>
   <g id="patch_5">
    <path d="M 20.7 57.672 
L 149.04 57.672 
" style="fill: none; stroke: #000000; stroke-width: 0.8; stroke-linejoin: miter; stroke-linecap: square"/>
   </g>
   <g id="patch_6">
    <path d="M 20.7 7.776 
L 149.04 7.776 
" style="fill: none; stroke: #000000; stroke-width: 0.8; stroke-linejoin: miter; stroke-linecap: square"/>
   </g>
   <g id="PathCollection_1">
    <defs>
     <path id="C0_0_0dfbf64058" d="M 0 2.5 
C 0.663008 2.5 1.29895 2.236584 1.767767 1.767767 
C 2.236584 1.29895 2.5 0.663008 2.5 -0 
C 2.5 -0.663008 2.236584 -1.29895 1.767767 -1.767767 
C 1.29895 -2.236584 0.663008 -2.5 0 -2.5 
C -0.663008 -2.5 -1.29895 -2.236584 -1.767767 -1.767767 
C -2.236584 -1.29895 -2.5 -0.663008 -2.5 0 
C -2.5 0.663008 -2.236584 1.29895 -1.767767 1.767767 
C -1.29895 2.236584 -0.663008 2.5 0 2.5 
z
"/>
    </defs>
    <g clip-path="url(#pc633c9111f)">
     <use xlink:href="#C0_0_0dfbf64058" x="48.460482" y="35.559" style="fill: #fdd0a2"/>
    </g>
    <g clip-path="url(#pc633c9111f)">
     <use xlink:href="#C0_0_0dfbf64058" x="48.460482" y="24.219" style="fill: #fdd0a2"/>
    </g>
    <g clip-path="url(#pc633c9111f)">
     <use xlink:href="#C0_0_0dfbf64058" x="57.109518" y="12.879" style="fill: #fdd0a2"/>
    </g>
    <g clip-path="url(#pc633c9111f)">
     <use xlink:href="#C0_0_0dfbf64058" x="43.210482" y="12.879" style="fill: #fdd0a2"/>
    </g>
    <g clip-path="url(#pc633c9111f)">
     <use xlink:href="#C0_0_0dfbf64058" x="52.785" y="27.054" style="fill: #fdd0a2"/>
    </g>
    <g clip-path="url(#pc633c9111f)">
     <use xlink:href="#C0_0_0dfbf64058" x="44.135963" y="27.054" style="fill: #fdd0a2"/>
    </g>
    <g clip-path="url(#pc633c9111f)">
     <use xlink:href="#C0_0_0dfbf64058" x="52.785" y="38.394" style="fill: #fdd0a2"/>
    </g>
    <g clip-path="url(#pc633c9111f)">
     <use xlink:href="#C0_0_0dfbf64058" x="33.635963" y="38.394" style="fill: #fdd0a2"/>
    </g>
    <g clip-path="url(#pc633c9111f)">
     <use xlink:href="#C0_0_0dfbf64058" x="47.535" y="55.404" style="fill: #fdd0a2"/>
    </g>
    <g clip-path="url(#pc633c9111f)">
     <use xlink:href="#C0_0_0dfbf64058" x="33.635963" y="10.044" style="fill: #fdd0a2"/>
    </g>
    <g clip-path="url(#pc633c9111f)">
     <use xlink:href="#C0_0_0dfbf64058" x="61.434037" y="10.044" style="fill: #fdd0a2"/>
    </g>
    <g clip-path="url(#pc633c9111f)">
     <use xlink:href="#C0_0_0dfbf64058" x="52.785" y="15.714" style="fill: #fdd0a2"/>
    </g>
    <g clip-path="url(#pc633c9111f)">
     <use xlink:href="#C0_0_0dfbf64058" x="52.785" y="10.044" style="fill: #fdd0a2"/>
    </g>
    <g clip-path="url(#pc633c9111f)">
     <use xlink:href="#C0_0_0dfbf64058" x="38.885963" y="10.044" style="fill: #fdd0a2"/>
    </g>
    <g clip-path="url(#pc633c9111f)">
     <use xlink:href="#C0_0_0dfbf64058" x="71.934037" y="38.394" style="fill: #fdd0a2"/>
    </g>
    <g clip-path="url(#pc633c9111f)">
     <use xlink:href="#C0_0_0dfbf64058" x="67.609518" y="41.229" style="fill: #fdd0a2"/>
    </g>
    <g clip-path="url(#pc633c9111f)">
     <use xlink:href="#C0_0_0dfbf64058" x="27.117" y="41.229" style="fill: #fdd0a2"/>
    </g>
    <g clip-path="url(#pc633c9111f)">
     <use xlink:href="#C0_0_0dfbf64058" x="67.609518" y="18.549" style="fill: #fdd0a2"/>
    </g>
    <g clip-path="url(#pc633c9111f)">
     <use xlink:href="#C0_0_0dfbf64058" x="48.460482" y="18.549" style="fill: #fdd0a2"/>
    </g>
    <g clip-path="url(#pc633c9111f)">
     <use xlink:href="#C0_0_0dfbf64058" x="57.109518" y="29.889" style="fill: #fdd0a2"/>
    </g>
    <g clip-path="url(#pc633c9111f)">
     <use xlink:href="#C0_0_0dfbf64058" x="48.460482" y="12.879" style="fill: #fdd0a2"/>
    </g>
    <g clip-path="url(#pc633c9111f)">
     <use xlink:href="#C0_0_0dfbf64058" x="71.934037" y="10.044" style="fill: #fdd0a2"/>
    </g>
    <g clip-path="url(#pc633c9111f)">
     <use xlink:href="#C0_0_0dfbf64058" x="66.684037" y="10.044" style="fill: #fdd0a2"/>
    </g>
    <g clip-path="url(#pc633c9111f)">
     <use xlink:href="#C0_0_0dfbf64058" x="71.934037" y="44.064" style="fill: #fdd0a2"/>
    </g>
    <g clip-path="url(#pc633c9111f)">
     <use xlink:href="#C0_0_0dfbf64058" x="78.109518" y="18.549" style="fill: #fdd0a2"/>
    </g>
    <g clip-path="url(#pc633c9111f)">
     <use xlink:href="#C0_0_0dfbf64058" x="29.311445" y="18.549" style="fill: #fdd0a2"/>
    </g>
    <g clip-path="url(#pc633c9111f)">
     <use xlink:href="#C0_0_0dfbf64058" x="37.960482" y="46.899" style="fill: #fdd0a2"/>
    </g>
    <g clip-path="url(#pc633c9111f)">
     <use xlink:href="#C0_0_0dfbf64058" x="38.885963" y="21.384" style="fill: #fdd0a2"/>
    </g>
    <g clip-path="url(#pc633c9111f)">
     <use xlink:href="#C0_0_0dfbf64058" x="66.684037" y="27.054" style="fill: #fdd0a2"/>
    </g>
    <g clip-path="url(#pc633c9111f)">
     <use xlink:href="#C0_0_0dfbf64058" x="63.285" y="21.384" style="fill: #fdd0a2"/>
    </g>
    <g clip-path="url(#pc633c9111f)">
     <use xlink:href="#C0_0_0dfbf64058" x="57.109518" y="35.559" style="fill: #fdd0a2"/>
    </g>
    <g clip-path="url(#pc633c9111f)">
     <use xlink:href="#C0_0_0dfbf64058" x="57.109518" y="41.229" style="fill: #fdd0a2"/>
    </g>
    <g clip-path="url(#pc633c9111f)">
     <use xlink:href="#C0_0_0dfbf64058" x="62.359518" y="41.229" style="fill: #fdd0a2"/>
    </g>
    <g clip-path="url(#pc633c9111f)">
     <use xlink:href="#C0_0_0dfbf64058" x="52.785" y="44.064" style="fill: #fdd0a2"/>
    </g>
    <g clip-path="url(#pc633c9111f)">
     <use xlink:href="#C0_0_0dfbf64058" x="33.635963" y="44.064" style="fill: #fdd0a2"/>
    </g>
    <g clip-path="url(#pc633c9111f)">
     <use xlink:href="#C0_0_0dfbf64058" x="52.785" y="21.384" style="fill: #fdd0a2"/>
    </g>
    <g clip-path="url(#pc633c9111f)">
     <use xlink:href="#C0_0_0dfbf64058" x="27.117" y="38.394" style="fill: #fdd0a2"/>
    </g>
    <g clip-path="url(#pc633c9111f)">
     <use xlink:href="#C0_0_0dfbf64058" x="77.184037" y="38.394" style="fill: #fdd0a2"/>
    </g>
    <g clip-path="url(#pc633c9111f)">
     <use xlink:href="#C0_0_0dfbf64058" x="58.035" y="21.384" style="fill: #fdd0a2"/>
    </g>
    <g clip-path="url(#pc633c9111f)">
     <use xlink:href="#C0_0_0dfbf64058" x="44.135963" y="21.384" style="fill: #fdd0a2"/>
    </g>
    <g clip-path="url(#pc633c9111f)">
     <use xlink:href="#C0_0_0dfbf64058" x="43.210482" y="35.559" style="fill: #fdd0a2"/>
    </g>
    <g clip-path="url(#pc633c9111f)">
     <use xlink:href="#C0_0_0dfbf64058" x="62.359518" y="35.559" style="fill: #fdd0a2"/>
    </g>
    <g clip-path="url(#pc633c9111f)">
     <use xlink:href="#C0_0_0dfbf64058" x="43.210482" y="52.569" style="fill: #fdd0a2"/>
    </g>
    <g clip-path="url(#pc633c9111f)">
     <use xlink:href="#C0_0_0dfbf64058" x="28.385963" y="38.394" style="fill: #fdd0a2"/>
    </g>
    <g clip-path="url(#pc633c9111f)">
     <use xlink:href="#C0_0_0dfbf64058" x="38.885963" y="32.724" style="fill: #fdd0a2"/>
    </g>
    <g clip-path="url(#pc633c9111f)">
     <use xlink:href="#C0_0_0dfbf64058" x="43.210482" y="46.899" style="fill: #fdd0a2"/>
    </g>
    <g clip-path="url(#pc633c9111f)">
     <use xlink:href="#C0_0_0dfbf64058" x="62.359518" y="29.889" style="fill: #fdd0a2"/>
    </g>
    <g clip-path="url(#pc633c9111f)">
     <use xlink:href="#C0_0_0dfbf64058" x="48.460482" y="29.889" style="fill: #fdd0a2"/>
    </g>
    <g clip-path="url(#pc633c9111f)">
     <use xlink:href="#C0_0_0dfbf64058" x="66.684037" y="32.724" style="fill: #fdd0a2"/>
    </g>
    <g clip-path="url(#pc633c9111f)">
     <use xlink:href="#C0_0_0dfbf64058" x="52.785" y="32.724" style="fill: #fdd0a2"/>
    </g>
    <g clip-path="url(#pc633c9111f)">
     <use xlink:href="#C0_0_0dfbf64058" x="62.359518" y="46.899" style="fill: #fdd0a2"/>
    </g>
    <g clip-path="url(#pc633c9111f)">
     <use xlink:href="#C0_0_0dfbf64058" x="67.609518" y="46.899" style="fill: #fdd0a2"/>
    </g>
    <g clip-path="url(#pc633c9111f)">
     <use xlink:href="#C0_0_0dfbf64058" x="58.035" y="55.404" style="fill: #fdd0a2"/>
    </g>
    <g clip-path="url(#pc633c9111f)">
     <use xlink:href="#C0_0_0dfbf64058" x="52.785" y="55.404" style="fill: #fdd0a2"/>
    </g>
    <g clip-path="url(#pc633c9111f)">
     <use xlink:href="#C0_0_0dfbf64058" x="72.859518" y="18.549" style="fill: #fdd0a2"/>
    </g>
    <g clip-path="url(#pc633c9111f)">
     <use xlink:href="#C0_0_0dfbf64058" x="43.210482" y="41.229" style="fill: #fdd0a2"/>
    </g>
    <g clip-path="url(#pc633c9111f)">
     <use xlink:href="#C0_0_0dfbf64058" x="48.460482" y="41.229" style="fill: #fdd0a2"/>
    </g>
    <g clip-path="url(#pc633c9111f)">
     <use xlink:href="#C0_0_0dfbf64058" x="28.385963" y="44.064" style="fill: #fdd0a2"/>
    </g>
    <g clip-path="url(#pc633c9111f)">
     <use xlink:href="#C0_0_0dfbf64058" x="77.184037" y="44.064" style="fill: #fdd0a2"/>
    </g>
    <g clip-path="url(#pc633c9111f)">
     <use xlink:href="#C0_0_0dfbf64058" x="57.109518" y="46.899" style="fill: #fdd0a2"/>
    </g>
    <g clip-path="url(#pc633c9111f)">
     <use xlink:href="#C0_0_0dfbf64058" x="48.460482" y="46.899" style="fill: #fdd0a2"/>
    </g>
    <g clip-path="url(#pc633c9111f)">
     <use xlink:href="#C0_0_0dfbf64058" x="34.561445" y="18.549" style="fill: #fdd0a2"/>
    </g>
    <g clip-path="url(#pc633c9111f)">
     <use xlink:href="#C0_0_0dfbf64058" x="27.117" y="44.064" style="fill: #fdd0a2"/>
    </g>
    <g clip-path="url(#pc633c9111f)">
     <use xlink:href="#C0_0_0dfbf64058" x="78.453" y="44.064" style="fill: #fdd0a2"/>
    </g>
    <g clip-path="url(#pc633c9111f)">
     <use xlink:href="#C0_0_0dfbf64058" x="52.785" y="49.734" style="fill: #fdd0a2"/>
    </g>
    <g clip-path="url(#pc633c9111f)">
     <use xlink:href="#C0_0_0dfbf64058" x="37.960482" y="41.229" style="fill: #fdd0a2"/>
    </g>
   </g>
   <g id="PathCollection_2">
    <defs>
     <path id="C1_0_92252306e1" d="M 0 2.5 
C 0.663008 2.5 1.29895 2.236584 1.767767 1.767767 
C 2.236584 1.29895 2.5 0.663008 2.5 -0 
C 2.5 -0.663008 2.236584 -1.29895 1.767767 -1.767767 
C 1.29895 -2.236584 0.663008 -2.5 0 -2.5 
C -0.663008 -2.5 -1.29895 -2.236584 -1.767767 -1.767767 
C -2.236584 -1.29895 -2.5 -0.663008 -2.5 0 
C -2.5 0.663008 -2.236584 1.29895 -1.767767 1.767767 
C -1.29895 2.236584 -0.663008 2.5 0 2.5 
z
"/>
    </defs>
    <g clip-path="url(#pc633c9111f)">
     <use xlink:href="#C1_0_92252306e1" x="93.481445" y="35.559" style="fill: #c7e9c0"/>
    </g>
    <g clip-path="url(#pc633c9111f)">
     <use xlink:href="#C1_0_92252306e1" x="121.279518" y="24.219" style="fill: #c7e9c0"/>
    </g>
    <g clip-path="url(#pc633c9111f)">
     <use xlink:href="#C1_0_92252306e1" x="126.529518" y="24.219" style="fill: #c7e9c0"/>
    </g>
    <g clip-path="url(#pc633c9111f)">
     <use xlink:href="#C1_0_92252306e1" x="102.130482" y="24.219" style="fill: #c7e9c0"/>
    </g>
    <g clip-path="url(#pc633c9111f)">
     <use xlink:href="#C1_0_92252306e1" x="112.630482" y="29.889" style="fill: #c7e9c0"/>
    </g>
    <g clip-path="url(#pc633c9111f)">
     <use xlink:href="#C1_0_92252306e1" x="121.279518" y="29.889" style="fill: #c7e9c0"/>
    </g>
    <g clip-path="url(#pc633c9111f)">
     <use xlink:href="#C1_0_92252306e1" x="116.955" y="55.404" style="fill: #c7e9c0"/>
    </g>
    <g clip-path="url(#pc633c9111f)">
     <use xlink:href="#C1_0_92252306e1" x="116.955" y="15.714" style="fill: #c7e9c0"/>
    </g>
    <g clip-path="url(#pc633c9111f)">
     <use xlink:href="#C1_0_92252306e1" x="97.805963" y="38.394" style="fill: #c7e9c0"/>
    </g>
    <g clip-path="url(#pc633c9111f)">
     <use xlink:href="#C1_0_92252306e1" x="136.104037" y="38.394" style="fill: #c7e9c0"/>
    </g>
    <g clip-path="url(#pc633c9111f)">
     <use xlink:href="#C1_0_92252306e1" x="103.055963" y="38.394" style="fill: #c7e9c0"/>
    </g>
    <g clip-path="url(#pc633c9111f)">
     <use xlink:href="#C1_0_92252306e1" x="130.854037" y="38.394" style="fill: #c7e9c0"/>
    </g>
    <g clip-path="url(#pc633c9111f)">
     <use xlink:href="#C1_0_92252306e1" x="108.305963" y="38.394" style="fill: #c7e9c0"/>
    </g>
    <g clip-path="url(#pc633c9111f)">
     <use xlink:href="#C1_0_92252306e1" x="107.380482" y="29.889" style="fill: #c7e9c0"/>
    </g>
    <g clip-path="url(#pc633c9111f)">
     <use xlink:href="#C1_0_92252306e1" x="112.630482" y="12.879" style="fill: #c7e9c0"/>
    </g>
    <g clip-path="url(#pc633c9111f)">
     <use xlink:href="#C1_0_92252306e1" x="116.955" y="44.064" style="fill: #c7e9c0"/>
    </g>
    <g clip-path="url(#pc633c9111f)">
     <use xlink:href="#C1_0_92252306e1" x="97.805963" y="44.064" style="fill: #c7e9c0"/>
    </g>
    <g clip-path="url(#pc633c9111f)">
     <use xlink:href="#C1_0_92252306e1" x="126.529518" y="29.889" style="fill: #c7e9c0"/>
    </g>
    <g clip-path="url(#pc633c9111f)">
     <use xlink:href="#C1_0_92252306e1" x="102.130482" y="29.889" style="fill: #c7e9c0"/>
    </g>
    <g clip-path="url(#pc633c9111f)">
     <use xlink:href="#C1_0_92252306e1" x="130.854037" y="44.064" style="fill: #c7e9c0"/>
    </g>
    <g clip-path="url(#pc633c9111f)">
     <use xlink:href="#C1_0_92252306e1" x="121.279518" y="46.899" style="fill: #c7e9c0"/>
    </g>
    <g clip-path="url(#pc633c9111f)">
     <use xlink:href="#C1_0_92252306e1" x="130.854037" y="21.384" style="fill: #c7e9c0"/>
    </g>
    <g clip-path="url(#pc633c9111f)">
     <use xlink:href="#C1_0_92252306e1" x="116.955" y="27.054" style="fill: #c7e9c0"/>
    </g>
    <g clip-path="url(#pc633c9111f)">
     <use xlink:href="#C1_0_92252306e1" x="136.104037" y="21.384" style="fill: #c7e9c0"/>
    </g>
    <g clip-path="url(#pc633c9111f)">
     <use xlink:href="#C1_0_92252306e1" x="112.630482" y="24.219" style="fill: #c7e9c0"/>
    </g>
    <g clip-path="url(#pc633c9111f)">
     <use xlink:href="#C1_0_92252306e1" x="107.380482" y="24.219" style="fill: #c7e9c0"/>
    </g>
    <g clip-path="url(#pc633c9111f)">
     <use xlink:href="#C1_0_92252306e1" x="142.623" y="35.559" style="fill: #c7e9c0"/>
    </g>
    <g clip-path="url(#pc633c9111f)">
     <use xlink:href="#C1_0_92252306e1" x="122.205" y="10.044" style="fill: #c7e9c0"/>
    </g>
    <g clip-path="url(#pc633c9111f)">
     <use xlink:href="#C1_0_92252306e1" x="116.955" y="10.044" style="fill: #c7e9c0"/>
    </g>
    <g clip-path="url(#pc633c9111f)">
     <use xlink:href="#C1_0_92252306e1" x="107.380482" y="18.549" style="fill: #c7e9c0"/>
    </g>
    <g clip-path="url(#pc633c9111f)">
     <use xlink:href="#C1_0_92252306e1" x="112.630482" y="18.549" style="fill: #c7e9c0"/>
    </g>
    <g clip-path="url(#pc633c9111f)">
     <use xlink:href="#C1_0_92252306e1" x="97.805963" y="27.054" style="fill: #c7e9c0"/>
    </g>
    <g clip-path="url(#pc633c9111f)">
     <use xlink:href="#C1_0_92252306e1" x="141.354037" y="27.054" style="fill: #c7e9c0"/>
    </g>
    <g clip-path="url(#pc633c9111f)">
     <use xlink:href="#C1_0_92252306e1" x="116.955" y="21.384" style="fill: #c7e9c0"/>
    </g>
    <g clip-path="url(#pc633c9111f)">
     <use xlink:href="#C1_0_92252306e1" x="112.630482" y="35.559" style="fill: #c7e9c0"/>
    </g>
    <g clip-path="url(#pc633c9111f)">
     <use xlink:href="#C1_0_92252306e1" x="121.279518" y="35.559" style="fill: #c7e9c0"/>
    </g>
    <g clip-path="url(#pc633c9111f)">
     <use xlink:href="#C1_0_92252306e1" x="130.854037" y="27.054" style="fill: #c7e9c0"/>
    </g>
    <g clip-path="url(#pc633c9111f)">
     <use xlink:href="#C1_0_92252306e1" x="136.104037" y="27.054" style="fill: #c7e9c0"/>
    </g>
    <g clip-path="url(#pc633c9111f)">
     <use xlink:href="#C1_0_92252306e1" x="112.630482" y="52.569" style="fill: #c7e9c0"/>
    </g>
    <g clip-path="url(#pc633c9111f)">
     <use xlink:href="#C1_0_92252306e1" x="116.955" y="38.394" style="fill: #c7e9c0"/>
    </g>
    <g clip-path="url(#pc633c9111f)">
     <use xlink:href="#C1_0_92252306e1" x="116.955" y="32.724" style="fill: #c7e9c0"/>
    </g>
    <g clip-path="url(#pc633c9111f)">
     <use xlink:href="#C1_0_92252306e1" x="103.055963" y="44.064" style="fill: #c7e9c0"/>
    </g>
    <g clip-path="url(#pc633c9111f)">
     <use xlink:href="#C1_0_92252306e1" x="136.104037" y="44.064" style="fill: #c7e9c0"/>
    </g>
    <g clip-path="url(#pc633c9111f)">
     <use xlink:href="#C1_0_92252306e1" x="107.380482" y="46.899" style="fill: #c7e9c0"/>
    </g>
    <g clip-path="url(#pc633c9111f)">
     <use xlink:href="#C1_0_92252306e1" x="140.428555" y="35.559" style="fill: #c7e9c0"/>
    </g>
    <g clip-path="url(#pc633c9111f)">
     <use xlink:href="#C1_0_92252306e1" x="126.529518" y="35.559" style="fill: #c7e9c0"/>
    </g>
    <g clip-path="url(#pc633c9111f)">
     <use xlink:href="#C1_0_92252306e1" x="126.529518" y="41.229" style="fill: #c7e9c0"/>
    </g>
    <g clip-path="url(#pc633c9111f)">
     <use xlink:href="#C1_0_92252306e1" x="121.279518" y="41.229" style="fill: #c7e9c0"/>
    </g>
    <g clip-path="url(#pc633c9111f)">
     <use xlink:href="#C1_0_92252306e1" x="121.279518" y="18.549" style="fill: #c7e9c0"/>
    </g>
    <g clip-path="url(#pc633c9111f)">
     <use xlink:href="#C1_0_92252306e1" x="126.529518" y="18.549" style="fill: #c7e9c0"/>
    </g>
    <g clip-path="url(#pc633c9111f)">
     <use xlink:href="#C1_0_92252306e1" x="116.955" y="49.734" style="fill: #c7e9c0"/>
    </g>
    <g clip-path="url(#pc633c9111f)">
     <use xlink:href="#C1_0_92252306e1" x="112.630482" y="41.229" style="fill: #c7e9c0"/>
    </g>
    <g clip-path="url(#pc633c9111f)">
     <use xlink:href="#C1_0_92252306e1" x="126.529518" y="46.899" style="fill: #c7e9c0"/>
    </g>
    <g clip-path="url(#pc633c9111f)">
     <use xlink:href="#C1_0_92252306e1" x="112.630482" y="46.899" style="fill: #c7e9c0"/>
    </g>
   </g>
  </g>
 </g>
 <defs>
  <clipPath id="pc633c9111f">
   <rect x="20.7" y="7.776" width="128.34" height="49.896"/>
  </clipPath>
 </defs>
</svg>
