<?xml version="1.0" encoding="utf-8" standalone="no"?>
<!DOCTYPE svg PUBLIC "-//W3C//DTD SVG 1.1//EN"
  "http://www.w3.org/Graphics/SVG/1.1/DTD/svg11.dtd">
<svg xmlns:xlink="http://www.w3.org/1999/xlink" width="216pt" height="90pt" viewBox="0 0 216 90" xmlns="http://www.w3.org/2000/svg" version="1.1">
 <metadata>
  <rdf:RDF xmlns:dc="http://purl.org/dc/elements/1.1/" xmlns:cc="http://creativecommons.org/ns#" xmlns:rdf="http://www.w3.org/1999/02/22-rdf-syntax-ns#">
   <cc:Work>
    <dc:type rdf:resource="http://purl.org/dc/dcmitype/StillImage"/>
    <dc:date>2024-03-06T13:48:00.327553</dc:date>
    <dc:format>image/svg+xml</dc:format>
    <dc:creator>
     <cc:Agent>
      <dc:title>Matplotlib v3.7.4, https://matplotlib.org/</dc:title>
     </cc:Agent>
    </dc:creator>
   </cc:Work>
  </rdf:RDF>
 </metadata>
 <defs>
  <style type="text/css">*{stroke-linejoin: round; stroke-linecap: butt}</style>
 </defs>
 <g id="figure_1">
  <g id="patch_1">
   <path d="M 0 90 
L 216 90 
L 216 0 
L 0 0 
z
" style="fill: #ffffff"/>
  </g>
  <g id="axes_1">
   <g id="patch_2">
    <path d="M 27 80.1 
L 194.4 80.1 
L 194.4 10.8 
L 27 10.8 
z
" style="fill: #ffffff"/>
   </g>
   <g id="PolyCollection_1">
    <defs>
     <path id="mbb799e0eee" d="M 60.336002 -16.9875 
L 49.463998 -16.9875 
L 48.975648 -17.584091 
L 48.459421 -18.180682 
L 47.915712 -18.777273 
L 47.345245 -19.373864 
L 46.749093 -19.970455 
L 46.128704 -20.567045 
L 45.48591 -21.163636 
L 44.822942 -21.760227 
L 44.142423 -22.356818 
L 43.447361 -22.953409 
L 42.741131 -23.55 
L 42.027449 -24.146591 
L 41.310335 -24.743182 
L 40.594068 -25.339773 
L 39.883138 -25.936364 
L 39.18218 -26.532955 
L 38.495916 -27.129545 
L 37.829078 -27.726136 
L 37.186341 -28.322727 
L 36.57224 -28.919318 
L 35.991101 -29.515909 
L 35.446957 -30.1125 
L 34.94348 -30.709091 
L 34.483913 -31.305682 
L 34.071 -31.902273 
L 33.706939 -32.498864 
L 33.393331 -33.095455 
L 33.131148 -33.692045 
L 32.920711 -34.288636 
L 32.761679 -34.885227 
L 32.653063 -35.481818 
L 32.593241 -36.078409 
L 32.58 -36.675 
L 32.61059 -37.271591 
L 32.681787 -37.868182 
L 32.789979 -38.464773 
L 32.931252 -39.061364 
L 33.101493 -39.657955 
L 33.296492 -40.254545 
L 33.512051 -40.851136 
L 33.744088 -41.447727 
L 33.988738 -42.044318 
L 34.242444 -42.640909 
L 34.502041 -43.2375 
L 34.764818 -43.834091 
L 35.02857 -44.430682 
L 35.291628 -45.027273 
L 35.552875 -45.623864 
L 35.811734 -46.220455 
L 36.068145 -46.817045 
L 36.322519 -47.413636 
L 36.575684 -48.010227 
L 36.828807 -48.606818 
L 37.083316 -49.203409 
L 37.340811 -49.8 
L 37.602969 -50.396591 
L 37.871455 -50.993182 
L 38.147832 -51.589773 
L 38.433482 -52.186364 
L 38.729528 -52.782955 
L 39.03678 -53.379545 
L 39.355682 -53.976136 
L 39.686282 -54.572727 
L 40.028214 -55.169318 
L 40.380698 -55.765909 
L 40.742548 -56.3625 
L 41.112206 -56.959091 
L 41.487777 -57.555682 
L 41.867081 -58.152273 
L 42.247715 -58.748864 
L 42.627122 -59.345455 
L 43.00266 -59.942045 
L 43.371679 -60.538636 
L 43.731598 -61.135227 
L 44.07998 -61.731818 
L 44.414599 -62.328409 
L 44.733506 -62.925 
L 45.035089 -63.521591 
L 45.318114 -64.118182 
L 45.581772 -64.714773 
L 45.825697 -65.311364 
L 46.049983 -65.907955 
L 46.255187 -66.504545 
L 46.442314 -67.101136 
L 46.612794 -67.697727 
L 46.768445 -68.294318 
L 46.911424 -68.890909 
L 47.04417 -69.4875 
L 47.169333 -70.084091 
L 47.289707 -70.680682 
L 47.408144 -71.277273 
L 47.527477 -71.873864 
L 47.650438 -72.470455 
L 47.779582 -73.067045 
L 47.917213 -73.663636 
L 48.065321 -74.260227 
L 48.225526 -74.856818 
L 48.39904 -75.453409 
L 48.58663 -76.05 
L 61.21337 -76.05 
L 61.21337 -76.05 
L 61.40096 -75.453409 
L 61.574474 -74.856818 
L 61.734679 -74.260227 
L 61.882787 -73.663636 
L 62.020418 -73.067045 
L 62.149562 -72.470455 
L 62.272523 -71.873864 
L 62.391856 -71.277273 
L 62.510293 -70.680682 
L 62.630667 -70.084091 
L 62.75583 -69.4875 
L 62.888576 -68.890909 
L 63.031555 -68.294318 
L 63.187206 -67.697727 
L 63.357686 -67.101136 
L 63.544813 -66.504545 
L 63.750017 -65.907955 
L 63.974303 -65.311364 
L 64.218228 -64.714773 
L 64.481886 -64.118182 
L 64.764911 -63.521591 
L 65.066494 -62.925 
L 65.385401 -62.328409 
L 65.72002 -61.731818 
L 66.068402 -61.135227 
L 66.428321 -60.538636 
L 66.79734 -59.942045 
L 67.172878 -59.345455 
L 67.552285 -58.748864 
L 67.932919 -58.152273 
L 68.312223 -57.555682 
L 68.687794 -56.959091 
L 69.057452 -56.3625 
L 69.419302 -55.765909 
L 69.771786 -55.169318 
L 70.113718 -54.572727 
L 70.444318 -53.976136 
L 70.76322 -53.379545 
L 71.070472 -52.782955 
L 71.366518 -52.186364 
L 71.652168 -51.589773 
L 71.928545 -50.993182 
L 72.197031 -50.396591 
L 72.459189 -49.8 
L 72.716684 -49.203409 
L 72.971193 -48.606818 
L 73.224316 -48.010227 
L 73.477481 -47.413636 
L 73.731855 -46.817045 
L 73.988266 -46.220455 
L 74.247125 -45.623864 
L 74.508372 -45.027273 
L 74.77143 -44.430682 
L 75.035182 -43.834091 
L 75.297959 -43.2375 
L 75.557556 -42.640909 
L 75.811262 -42.044318 
L 76.055912 -41.447727 
L 76.287949 -40.851136 
L 76.503508 -40.254545 
L 76.698507 -39.657955 
L 76.868748 -39.061364 
L 77.010021 -38.464773 
L 77.118213 -37.868182 
L 77.18941 -37.271591 
L 77.22 -36.675 
L 77.206759 -36.078409 
L 77.146937 -35.481818 
L 77.038321 -34.885227 
L 76.879289 -34.288636 
L 76.668852 -33.692045 
L 76.406669 -33.095455 
L 76.093061 -32.498864 
L 75.729 -31.902273 
L 75.316087 -31.305682 
L 74.85652 -30.709091 
L 74.353043 -30.1125 
L 73.808899 -29.515909 
L 73.22776 -28.919318 
L 72.613659 -28.322727 
L 71.970922 -27.726136 
L 71.304084 -27.129545 
L 70.61782 -26.532955 
L 69.916862 -25.936364 
L 69.205932 -25.339773 
L 68.489665 -24.743182 
L 67.772551 -24.146591 
L 67.058869 -23.55 
L 66.352639 -22.953409 
L 65.657577 -22.356818 
L 64.977058 -21.760227 
L 64.31409 -21.163636 
L 63.671296 -20.567045 
L 63.050907 -19.970455 
L 62.454755 -19.373864 
L 61.884288 -18.777273 
L 61.340579 -18.180682 
L 60.824352 -17.584091 
L 60.336002 -16.9875 
z
" style="stroke: #3f3f3f; stroke-width: 1.25"/>
    </defs>
    <g clip-path="url(#pa894301632)">
     <use xlink:href="#mbb799e0eee" x="0" y="90" style="fill: #c03d3e; stroke: #3f3f3f; stroke-width: 1.25"/>
    </g>
   </g>
   <g id="PolyCollection_2">
    <defs>
     <path id="m3c22068738" d="M 115.755674 -13.05 
L 105.644326 -13.05 
L 105.251084 -13.686364 
L 104.83946 -14.322727 
L 104.410076 -14.959091 
L 103.9638 -15.595455 
L 103.501769 -16.231818 
L 103.025387 -16.868182 
L 102.536332 -17.504545 
L 102.036547 -18.140909 
L 101.528229 -18.777273 
L 101.013801 -19.413636 
L 100.495888 -20.05 
L 99.977276 -20.686364 
L 99.46087 -21.322727 
L 98.949643 -21.959091 
L 98.446582 -22.595455 
L 97.954631 -23.231818 
L 97.476631 -23.868182 
L 97.015263 -24.504545 
L 96.57299 -25.140909 
L 96.152002 -25.777273 
L 95.754173 -26.413636 
L 95.381012 -27.05 
L 95.033635 -27.686364 
L 94.712737 -28.322727 
L 94.418578 -28.959091 
L 94.150976 -29.595455 
L 93.909313 -30.231818 
L 93.692553 -30.868182 
L 93.499263 -31.504545 
L 93.327649 -32.140909 
L 93.175603 -32.777273 
L 93.040751 -33.413636 
L 92.92051 -34.05 
L 92.812153 -34.686364 
L 92.712873 -35.322727 
L 92.619849 -35.959091 
L 92.530316 -36.595455 
L 92.441628 -37.231818 
L 92.351321 -37.868182 
L 92.257171 -38.504545 
L 92.157239 -39.140909 
L 92.04992 -39.777273 
L 91.933966 -40.413636 
L 91.808519 -41.05 
L 91.673114 -41.686364 
L 91.527681 -42.322727 
L 91.372537 -42.959091 
L 91.208363 -43.595455 
L 91.036174 -44.231818 
L 90.857278 -44.868182 
L 90.673228 -45.504545 
L 90.485775 -46.140909 
L 90.296803 -46.777273 
L 90.108283 -47.413636 
L 89.922202 -48.05 
L 89.740521 -48.686364 
L 89.565112 -49.322727 
L 89.397723 -49.959091 
L 89.239931 -50.595455 
L 89.093122 -51.231818 
L 88.95846 -51.868182 
L 88.836885 -52.504545 
L 88.729108 -53.140909 
L 88.635618 -53.777273 
L 88.556702 -54.413636 
L 88.492464 -55.05 
L 88.442864 -55.686364 
L 88.407745 -56.322727 
L 88.386878 -56.959091 
L 88.38 -57.595455 
L 88.386858 -58.231818 
L 88.407246 -58.868182 
L 88.441045 -59.504545 
L 88.488255 -60.140909 
L 88.54902 -60.777273 
L 88.623652 -61.413636 
L 88.712646 -62.05 
L 88.816682 -62.686364 
L 88.936624 -63.322727 
L 89.073513 -63.959091 
L 89.228546 -64.595455 
L 89.403048 -65.231818 
L 89.598442 -65.868182 
L 89.816208 -66.504545 
L 90.057837 -67.140909 
L 90.324783 -67.777273 
L 90.618409 -68.413636 
L 90.939939 -69.05 
L 91.290396 -69.686364 
L 91.670561 -70.322727 
L 92.080918 -70.959091 
L 92.521616 -71.595455 
L 92.992434 -72.231818 
L 93.492752 -72.868182 
L 94.021536 -73.504545 
L 94.577329 -74.140909 
L 95.158255 -74.777273 
L 95.762036 -75.413636 
L 96.386013 -76.05 
L 125.013987 -76.05 
L 125.013987 -76.05 
L 125.637964 -75.413636 
L 126.241745 -74.777273 
L 126.822671 -74.140909 
L 127.378464 -73.504545 
L 127.907248 -72.868182 
L 128.407566 -72.231818 
L 128.878384 -71.595455 
L 129.319082 -70.959091 
L 129.729439 -70.322727 
L 130.109604 -69.686364 
L 130.460061 -69.05 
L 130.781591 -68.413636 
L 131.075217 -67.777273 
L 131.342163 -67.140909 
L 131.583792 -66.504545 
L 131.801558 -65.868182 
L 131.996952 -65.231818 
L 132.171454 -64.595455 
L 132.326487 -63.959091 
L 132.463376 -63.322727 
L 132.583318 -62.686364 
L 132.687354 -62.05 
L 132.776348 -61.413636 
L 132.85098 -60.777273 
L 132.911745 -60.140909 
L 132.958955 -59.504545 
L 132.992754 -58.868182 
L 133.013142 -58.231818 
L 133.02 -57.595455 
L 133.013122 -56.959091 
L 132.992255 -56.322727 
L 132.957136 -55.686364 
L 132.907536 -55.05 
L 132.843298 -54.413636 
L 132.764382 -53.777273 
L 132.670892 -53.140909 
L 132.563115 -52.504545 
L 132.44154 -51.868182 
L 132.306878 -51.231818 
L 132.160069 -50.595455 
L 132.002277 -49.959091 
L 131.834888 -49.322727 
L 131.659479 -48.686364 
L 131.477798 -48.05 
L 131.291717 -47.413636 
L 131.103197 -46.777273 
L 130.914225 -46.140909 
L 130.726772 -45.504545 
L 130.542722 -44.868182 
L 130.363826 -44.231818 
L 130.191637 -43.595455 
L 130.027463 -42.959091 
L 129.872319 -42.322727 
L 129.726886 -41.686364 
L 129.591481 -41.05 
L 129.466034 -40.413636 
L 129.35008 -39.777273 
L 129.242761 -39.140909 
L 129.142829 -38.504545 
L 129.048679 -37.868182 
L 128.958372 -37.231818 
L 128.869684 -36.595455 
L 128.780151 -35.959091 
L 128.687127 -35.322727 
L 128.587847 -34.686364 
L 128.47949 -34.05 
L 128.359249 -33.413636 
L 128.224397 -32.777273 
L 128.072351 -32.140909 
L 127.900737 -31.504545 
L 127.707447 -30.868182 
L 127.490687 -30.231818 
L 127.249024 -29.595455 
L 126.981422 -28.959091 
L 126.687263 -28.322727 
L 126.366365 -27.686364 
L 126.018988 -27.05 
L 125.645827 -26.413636 
L 125.247998 -25.777273 
L 124.82701 -25.140909 
L 124.384737 -24.504545 
L 123.923369 -23.868182 
L 123.445369 -23.231818 
L 122.953418 -22.595455 
L 122.450357 -21.959091 
L 121.93913 -21.322727 
L 121.422724 -20.686364 
L 120.904112 -20.05 
L 120.386199 -19.413636 
L 119.871771 -18.777273 
L 119.363453 -18.140909 
L 118.863668 -17.504545 
L 118.374613 -16.868182 
L 117.898231 -16.231818 
L 117.4362 -15.595455 
L 116.989924 -14.959091 
L 116.56054 -14.322727 
L 116.148916 -13.686364 
L 115.755674 -13.05 
z
" style="stroke: #3f3f3f; stroke-width: 1.25"/>
    </defs>
    <g clip-path="url(#pa894301632)">
     <use xlink:href="#m3c22068738" x="0" y="90" style="fill: #3274a1; stroke: #3f3f3f; stroke-width: 1.25"/>
    </g>
   </g>
   <g id="PolyCollection_3">
    <defs>
     <path id="m411d57aca8" d="M 174.402257 -13.05 
L 158.597743 -13.05 
L 158.074179 -13.686364 
L 157.535676 -14.322727 
L 156.982602 -14.959091 
L 156.415434 -15.595455 
L 155.834806 -16.231818 
L 155.241563 -16.868182 
L 154.636803 -17.504545 
L 154.02193 -18.140909 
L 153.398681 -18.777273 
L 152.769159 -19.413636 
L 152.135847 -20.05 
L 151.5016 -20.686364 
L 150.869637 -21.322727 
L 150.243507 -21.959091 
L 149.627042 -22.595455 
L 149.024299 -23.231818 
L 148.43949 -23.868182 
L 147.876902 -24.504545 
L 147.340817 -25.140909 
L 146.835423 -25.777273 
L 146.364733 -26.413636 
L 145.932504 -27.05 
L 145.542168 -27.686364 
L 145.196772 -28.322727 
L 144.898923 -28.959091 
L 144.650758 -29.595455 
L 144.453913 -30.231818 
L 144.309514 -30.868182 
L 144.218175 -31.504545 
L 144.18 -32.140909 
L 144.194602 -32.777273 
L 144.261121 -33.413636 
L 144.37824 -34.05 
L 144.544216 -34.686364 
L 144.756895 -35.322727 
L 145.013739 -35.959091 
L 145.311838 -36.595455 
L 145.647935 -37.231818 
L 146.018439 -37.868182 
L 146.419441 -38.504545 
L 146.846736 -39.140909 
L 147.295844 -39.777273 
L 147.762035 -40.413636 
L 148.240367 -41.05 
L 148.725725 -41.686364 
L 149.212872 -42.322727 
L 149.696512 -42.959091 
L 150.171355 -43.595455 
L 150.632198 -44.231818 
L 151.07401 -44.868182 
L 151.492022 -45.504545 
L 151.881822 -46.140909 
L 152.239448 -46.777273 
L 152.561484 -47.413636 
L 152.845142 -48.05 
L 153.088348 -48.686364 
L 153.289803 -49.322727 
L 153.449041 -49.959091 
L 153.566464 -50.595455 
L 153.643359 -51.231818 
L 153.681898 -51.868182 
L 153.685106 -52.504545 
L 153.656824 -53.140909 
L 153.601629 -53.777273 
L 153.524749 -54.413636 
L 153.431949 -55.05 
L 153.329402 -55.686364 
L 153.223547 -56.322727 
L 153.120932 -56.959091 
L 153.028056 -57.595455 
L 152.951203 -58.231818 
L 152.896288 -58.868182 
L 152.868702 -59.504545 
L 152.87318 -60.140909 
L 152.91368 -60.777273 
L 152.993291 -61.413636 
L 153.114166 -62.05 
L 153.27748 -62.686364 
L 153.483427 -63.322727 
L 153.731237 -63.959091 
L 154.019232 -64.595455 
L 154.344906 -65.231818 
L 154.705023 -65.868182 
L 155.095746 -66.504545 
L 155.51277 -67.140909 
L 155.951465 -67.777273 
L 156.407027 -68.413636 
L 156.874618 -69.05 
L 157.349503 -69.686364 
L 157.827166 -70.322727 
L 158.303418 -70.959091 
L 158.774475 -71.595455 
L 159.237016 -72.231818 
L 159.688223 -72.868182 
L 160.125793 -73.504545 
L 160.547932 -74.140909 
L 160.953327 -74.777273 
L 161.341109 -75.413636 
L 161.710803 -76.05 
L 171.289197 -76.05 
L 171.289197 -76.05 
L 171.658891 -75.413636 
L 172.046673 -74.777273 
L 172.452068 -74.140909 
L 172.874207 -73.504545 
L 173.311777 -72.868182 
L 173.762984 -72.231818 
L 174.225525 -71.595455 
L 174.696582 -70.959091 
L 175.172834 -70.322727 
L 175.650497 -69.686364 
L 176.125382 -69.05 
L 176.592973 -68.413636 
L 177.048535 -67.777273 
L 177.48723 -67.140909 
L 177.904254 -66.504545 
L 178.294977 -65.868182 
L 178.655094 -65.231818 
L 178.980768 -64.595455 
L 179.268763 -63.959091 
L 179.516573 -63.322727 
L 179.72252 -62.686364 
L 179.885834 -62.05 
L 180.006709 -61.413636 
L 180.08632 -60.777273 
L 180.12682 -60.140909 
L 180.131298 -59.504545 
L 180.103712 -58.868182 
L 180.048797 -58.231818 
L 179.971944 -57.595455 
L 179.879068 -56.959091 
L 179.776453 -56.322727 
L 179.670598 -55.686364 
L 179.568051 -55.05 
L 179.475251 -54.413636 
L 179.398371 -53.777273 
L 179.343176 -53.140909 
L 179.314894 -52.504545 
L 179.318102 -51.868182 
L 179.356641 -51.231818 
L 179.433536 -50.595455 
L 179.550959 -49.959091 
L 179.710197 -49.322727 
L 179.911652 -48.686364 
L 180.154858 -48.05 
L 180.438516 -47.413636 
L 180.760552 -46.777273 
L 181.118178 -46.140909 
L 181.507978 -45.504545 
L 181.92599 -44.868182 
L 182.367802 -44.231818 
L 182.828645 -43.595455 
L 183.303488 -42.959091 
L 183.787128 -42.322727 
L 184.274275 -41.686364 
L 184.759633 -41.05 
L 185.237965 -40.413636 
L 185.704156 -39.777273 
L 186.153264 -39.140909 
L 186.580559 -38.504545 
L 186.981561 -37.868182 
L 187.352065 -37.231818 
L 187.688162 -36.595455 
L 187.986261 -35.959091 
L 188.243105 -35.322727 
L 188.455784 -34.686364 
L 188.62176 -34.05 
L 188.738879 -33.413636 
L 188.805398 -32.777273 
L 188.82 -32.140909 
L 188.781825 -31.504545 
L 188.690486 -30.868182 
L 188.546087 -30.231818 
L 188.349242 -29.595455 
L 188.101077 -28.959091 
L 187.803228 -28.322727 
L 187.457832 -27.686364 
L 187.067496 -27.05 
L 186.635267 -26.413636 
L 186.164577 -25.777273 
L 185.659183 -25.140909 
L 185.123098 -24.504545 
L 184.56051 -23.868182 
L 183.975701 -23.231818 
L 183.372958 -22.595455 
L 182.756493 -21.959091 
L 182.130363 -21.322727 
L 181.4984 -20.686364 
L 180.864153 -20.05 
L 180.230841 -19.413636 
L 179.601319 -18.777273 
L 178.97807 -18.140909 
L 178.363197 -17.504545 
L 177.758437 -16.868182 
L 177.165194 -16.231818 
L 176.584566 -15.595455 
L 176.017398 -14.959091 
L 175.464324 -14.322727 
L 174.925821 -13.686364 
L 174.402257 -13.05 
z
" style="stroke: #3f3f3f; stroke-width: 1.25"/>
    </defs>
    <g clip-path="url(#pa894301632)">
     <use xlink:href="#m411d57aca8" x="0" y="90" style="fill: #9372b2; stroke: #3f3f3f; stroke-width: 1.25"/>
    </g>
   </g>
   <g id="matplotlib.axis_1">
    <g id="xtick_1">
     <g id="line2d_1">
      <defs>
       <path id="m1ac60f0b7a" d="M 0 0 
L 0 3.5 
" style="stroke: #000000; stroke-width: 0.8"/>
      </defs>
      <g>
       <use xlink:href="#m1ac60f0b7a" x="54.9" y="80.1" style="stroke: #000000; stroke-width: 0.8"/>
      </g>
     </g>
     <g id="text_1">
      <!-- Cluster 1 -->
      <g transform="translate(36.886875 93.17875) scale(0.08 -0.08)">
       <defs>
        <path id="DejaVuSans-43" d="M 4122 4306 
L 4122 3641 
Q 3803 3938 3442 4084 
Q 3081 4231 2675 4231 
Q 1875 4231 1450 3742 
Q 1025 3253 1025 2328 
Q 1025 1406 1450 917 
Q 1875 428 2675 428 
Q 3081 428 3442 575 
Q 3803 722 4122 1019 
L 4122 359 
Q 3791 134 3420 21 
Q 3050 -91 2638 -91 
Q 1578 -91 968 557 
Q 359 1206 359 2328 
Q 359 3453 968 4101 
Q 1578 4750 2638 4750 
Q 3056 4750 3426 4639 
Q 3797 4528 4122 4306 
z
" transform="scale(0.015625)"/>
        <path id="DejaVuSans-6c" d="M 603 4863 
L 1178 4863 
L 1178 0 
L 603 0 
L 603 4863 
z
" transform="scale(0.015625)"/>
        <path id="DejaVuSans-75" d="M 544 1381 
L 544 3500 
L 1119 3500 
L 1119 1403 
Q 1119 906 1312 657 
Q 1506 409 1894 409 
Q 2359 409 2629 706 
Q 2900 1003 2900 1516 
L 2900 3500 
L 3475 3500 
L 3475 0 
L 2900 0 
L 2900 538 
Q 2691 219 2414 64 
Q 2138 -91 1772 -91 
Q 1169 -91 856 284 
Q 544 659 544 1381 
z
M 1991 3584 
L 1991 3584 
z
" transform="scale(0.015625)"/>
        <path id="DejaVuSans-73" d="M 2834 3397 
L 2834 2853 
Q 2591 2978 2328 3040 
Q 2066 3103 1784 3103 
Q 1356 3103 1142 2972 
Q 928 2841 928 2578 
Q 928 2378 1081 2264 
Q 1234 2150 1697 2047 
L 1894 2003 
Q 2506 1872 2764 1633 
Q 3022 1394 3022 966 
Q 3022 478 2636 193 
Q 2250 -91 1575 -91 
Q 1294 -91 989 -36 
Q 684 19 347 128 
L 347 722 
Q 666 556 975 473 
Q 1284 391 1588 391 
Q 1994 391 2212 530 
Q 2431 669 2431 922 
Q 2431 1156 2273 1281 
Q 2116 1406 1581 1522 
L 1381 1569 
Q 847 1681 609 1914 
Q 372 2147 372 2553 
Q 372 3047 722 3315 
Q 1072 3584 1716 3584 
Q 2034 3584 2315 3537 
Q 2597 3491 2834 3397 
z
" transform="scale(0.015625)"/>
        <path id="DejaVuSans-74" d="M 1172 4494 
L 1172 3500 
L 2356 3500 
L 2356 3053 
L 1172 3053 
L 1172 1153 
Q 1172 725 1289 603 
Q 1406 481 1766 481 
L 2356 481 
L 2356 0 
L 1766 0 
Q 1100 0 847 248 
Q 594 497 594 1153 
L 594 3053 
L 172 3053 
L 172 3500 
L 594 3500 
L 594 4494 
L 1172 4494 
z
" transform="scale(0.015625)"/>
        <path id="DejaVuSans-65" d="M 3597 1894 
L 3597 1613 
L 953 1613 
Q 991 1019 1311 708 
Q 1631 397 2203 397 
Q 2534 397 2845 478 
Q 3156 559 3463 722 
L 3463 178 
Q 3153 47 2828 -22 
Q 2503 -91 2169 -91 
Q 1331 -91 842 396 
Q 353 884 353 1716 
Q 353 2575 817 3079 
Q 1281 3584 2069 3584 
Q 2775 3584 3186 3129 
Q 3597 2675 3597 1894 
z
M 3022 2063 
Q 3016 2534 2758 2815 
Q 2500 3097 2075 3097 
Q 1594 3097 1305 2825 
Q 1016 2553 972 2059 
L 3022 2063 
z
" transform="scale(0.015625)"/>
        <path id="DejaVuSans-72" d="M 2631 2963 
Q 2534 3019 2420 3045 
Q 2306 3072 2169 3072 
Q 1681 3072 1420 2755 
Q 1159 2438 1159 1844 
L 1159 0 
L 581 0 
L 581 3500 
L 1159 3500 
L 1159 2956 
Q 1341 3275 1631 3429 
Q 1922 3584 2338 3584 
Q 2397 3584 2469 3576 
Q 2541 3569 2628 3553 
L 2631 2963 
z
" transform="scale(0.015625)"/>
        <path id="DejaVuSans-20" transform="scale(0.015625)"/>
        <path id="DejaVuSans-31" d="M 794 531 
L 1825 531 
L 1825 4091 
L 703 3866 
L 703 4441 
L 1819 4666 
L 2450 4666 
L 2450 531 
L 3481 531 
L 3481 0 
L 794 0 
L 794 531 
z
" transform="scale(0.015625)"/>
       </defs>
       <use xlink:href="#DejaVuSans-43"/>
       <use xlink:href="#DejaVuSans-6c" x="69.824219"/>
       <use xlink:href="#DejaVuSans-75" x="97.607422"/>
       <use xlink:href="#DejaVuSans-73" x="160.986328"/>
       <use xlink:href="#DejaVuSans-74" x="213.085938"/>
       <use xlink:href="#DejaVuSans-65" x="252.294922"/>
       <use xlink:href="#DejaVuSans-72" x="313.818359"/>
       <use xlink:href="#DejaVuSans-20" x="354.931641"/>
       <use xlink:href="#DejaVuSans-31" x="386.71875"/>
      </g>
     </g>
    </g>
    <g id="xtick_2">
     <g id="line2d_2">
      <g>
       <use xlink:href="#m1ac60f0b7a" x="110.7" y="80.1" style="stroke: #000000; stroke-width: 0.8"/>
      </g>
     </g>
     <g id="text_2">
      <!-- Cluster 2 -->
      <g transform="translate(92.686875 93.17875) scale(0.08 -0.08)">
       <defs>
        <path id="DejaVuSans-32" d="M 1228 531 
L 3431 531 
L 3431 0 
L 469 0 
L 469 531 
Q 828 903 1448 1529 
Q 2069 2156 2228 2338 
Q 2531 2678 2651 2914 
Q 2772 3150 2772 3378 
Q 2772 3750 2511 3984 
Q 2250 4219 1831 4219 
Q 1534 4219 1204 4116 
Q 875 4013 500 3803 
L 500 4441 
Q 881 4594 1212 4672 
Q 1544 4750 1819 4750 
Q 2544 4750 2975 4387 
Q 3406 4025 3406 3419 
Q 3406 3131 3298 2873 
Q 3191 2616 2906 2266 
Q 2828 2175 2409 1742 
Q 1991 1309 1228 531 
z
" transform="scale(0.015625)"/>
       </defs>
       <use xlink:href="#DejaVuSans-43"/>
       <use xlink:href="#DejaVuSans-6c" x="69.824219"/>
       <use xlink:href="#DejaVuSans-75" x="97.607422"/>
       <use xlink:href="#DejaVuSans-73" x="160.986328"/>
       <use xlink:href="#DejaVuSans-74" x="213.085938"/>
       <use xlink:href="#DejaVuSans-65" x="252.294922"/>
       <use xlink:href="#DejaVuSans-72" x="313.818359"/>
       <use xlink:href="#DejaVuSans-20" x="354.931641"/>
       <use xlink:href="#DejaVuSans-32" x="386.71875"/>
      </g>
     </g>
    </g>
    <g id="xtick_3">
     <g id="line2d_3">
      <g>
       <use xlink:href="#m1ac60f0b7a" x="166.5" y="80.1" style="stroke: #000000; stroke-width: 0.8"/>
      </g>
     </g>
     <g id="text_3">
      <!-- Cluster 3 -->
      <g transform="translate(148.486875 93.17875) scale(0.08 -0.08)">
       <defs>
        <path id="DejaVuSans-33" d="M 2597 2516 
Q 3050 2419 3304 2112 
Q 3559 1806 3559 1356 
Q 3559 666 3084 287 
Q 2609 -91 1734 -91 
Q 1441 -91 1130 -33 
Q 819 25 488 141 
L 488 750 
Q 750 597 1062 519 
Q 1375 441 1716 441 
Q 2309 441 2620 675 
Q 2931 909 2931 1356 
Q 2931 1769 2642 2001 
Q 2353 2234 1838 2234 
L 1294 2234 
L 1294 2753 
L 1863 2753 
Q 2328 2753 2575 2939 
Q 2822 3125 2822 3475 
Q 2822 3834 2567 4026 
Q 2313 4219 1838 4219 
Q 1578 4219 1281 4162 
Q 984 4106 628 3988 
L 628 4550 
Q 988 4650 1302 4700 
Q 1616 4750 1894 4750 
Q 2613 4750 3031 4423 
Q 3450 4097 3450 3541 
Q 3450 3153 3228 2886 
Q 3006 2619 2597 2516 
z
" transform="scale(0.015625)"/>
       </defs>
       <use xlink:href="#DejaVuSans-43"/>
       <use xlink:href="#DejaVuSans-6c" x="69.824219"/>
       <use xlink:href="#DejaVuSans-75" x="97.607422"/>
       <use xlink:href="#DejaVuSans-73" x="160.986328"/>
       <use xlink:href="#DejaVuSans-74" x="213.085938"/>
       <use xlink:href="#DejaVuSans-65" x="252.294922"/>
       <use xlink:href="#DejaVuSans-72" x="313.818359"/>
       <use xlink:href="#DejaVuSans-20" x="354.931641"/>
       <use xlink:href="#DejaVuSans-33" x="386.71875"/>
      </g>
     </g>
    </g>
   </g>
   <g id="matplotlib.axis_2">
    <g id="ytick_1">
     <g id="line2d_4">
      <defs>
       <path id="mac2d9cd548" d="M 0 0 
L -3.5 0 
" style="stroke: #000000; stroke-width: 0.8"/>
      </defs>
      <g>
       <use xlink:href="#mac2d9cd548" x="27" y="76.95" style="stroke: #000000; stroke-width: 0.8"/>
      </g>
     </g>
     <g id="text_4">
      <!-- 0 -->
      <g transform="translate(14.91 79.989375) scale(0.08 -0.08)">
       <defs>
        <path id="DejaVuSans-30" d="M 2034 4250 
Q 1547 4250 1301 3770 
Q 1056 3291 1056 2328 
Q 1056 1369 1301 889 
Q 1547 409 2034 409 
Q 2525 409 2770 889 
Q 3016 1369 3016 2328 
Q 3016 3291 2770 3770 
Q 2525 4250 2034 4250 
z
M 2034 4750 
Q 2819 4750 3233 4129 
Q 3647 3509 3647 2328 
Q 3647 1150 3233 529 
Q 2819 -91 2034 -91 
Q 1250 -91 836 529 
Q 422 1150 422 2328 
Q 422 3509 836 4129 
Q 1250 4750 2034 4750 
z
" transform="scale(0.015625)"/>
       </defs>
       <use xlink:href="#DejaVuSans-30"/>
      </g>
     </g>
    </g>
    <g id="ytick_2">
     <g id="line2d_5">
      <g>
       <use xlink:href="#mac2d9cd548" x="27" y="57.2625" style="stroke: #000000; stroke-width: 0.8"/>
      </g>
     </g>
     <g id="text_5">
      <!-- 5 -->
      <g transform="translate(14.91 60.301875) scale(0.08 -0.08)">
       <defs>
        <path id="DejaVuSans-35" d="M 691 4666 
L 3169 4666 
L 3169 4134 
L 1269 4134 
L 1269 2991 
Q 1406 3038 1543 3061 
Q 1681 3084 1819 3084 
Q 2600 3084 3056 2656 
Q 3513 2228 3513 1497 
Q 3513 744 3044 326 
Q 2575 -91 1722 -91 
Q 1428 -91 1123 -41 
Q 819 9 494 109 
L 494 744 
Q 775 591 1075 516 
Q 1375 441 1709 441 
Q 2250 441 2565 725 
Q 2881 1009 2881 1497 
Q 2881 1984 2565 2268 
Q 2250 2553 1709 2553 
Q 1456 2553 1204 2497 
Q 953 2441 691 2322 
L 691 4666 
z
" transform="scale(0.015625)"/>
       </defs>
       <use xlink:href="#DejaVuSans-35"/>
      </g>
     </g>
    </g>
    <g id="ytick_3">
     <g id="line2d_6">
      <g>
       <use xlink:href="#mac2d9cd548" x="27" y="37.575" style="stroke: #000000; stroke-width: 0.8"/>
      </g>
     </g>
     <g id="text_6">
      <!-- 10 -->
      <g transform="translate(9.82 40.614375) scale(0.08 -0.08)">
       <use xlink:href="#DejaVuSans-31"/>
       <use xlink:href="#DejaVuSans-30" x="63.623047"/>
      </g>
     </g>
    </g>
    <g id="ytick_4">
     <g id="line2d_7">
      <g>
       <use xlink:href="#mac2d9cd548" x="27" y="17.8875" style="stroke: #000000; stroke-width: 0.8"/>
      </g>
     </g>
     <g id="text_7">
      <!-- 15 -->
      <g transform="translate(9.82 20.926875) scale(0.08 -0.08)">
       <use xlink:href="#DejaVuSans-31"/>
       <use xlink:href="#DejaVuSans-35" x="63.623047"/>
      </g>
     </g>
    </g>
    <g id="text_8">
     <!-- SOFA -->
     <g transform="translate(3.948281 57.105) rotate(-90) scale(0.09 -0.09)">
      <defs>
       <path id="DejaVuSans-53" d="M 3425 4513 
L 3425 3897 
Q 3066 4069 2747 4153 
Q 2428 4238 2131 4238 
Q 1616 4238 1336 4038 
Q 1056 3838 1056 3469 
Q 1056 3159 1242 3001 
Q 1428 2844 1947 2747 
L 2328 2669 
Q 3034 2534 3370 2195 
Q 3706 1856 3706 1288 
Q 3706 609 3251 259 
Q 2797 -91 1919 -91 
Q 1588 -91 1214 -16 
Q 841 59 441 206 
L 441 856 
Q 825 641 1194 531 
Q 1563 422 1919 422 
Q 2459 422 2753 634 
Q 3047 847 3047 1241 
Q 3047 1584 2836 1778 
Q 2625 1972 2144 2069 
L 1759 2144 
Q 1053 2284 737 2584 
Q 422 2884 422 3419 
Q 422 4038 858 4394 
Q 1294 4750 2059 4750 
Q 2388 4750 2728 4690 
Q 3069 4631 3425 4513 
z
" transform="scale(0.015625)"/>
       <path id="DejaVuSans-4f" d="M 2522 4238 
Q 1834 4238 1429 3725 
Q 1025 3213 1025 2328 
Q 1025 1447 1429 934 
Q 1834 422 2522 422 
Q 3209 422 3611 934 
Q 4013 1447 4013 2328 
Q 4013 3213 3611 3725 
Q 3209 4238 2522 4238 
z
M 2522 4750 
Q 3503 4750 4090 4092 
Q 4678 3434 4678 2328 
Q 4678 1225 4090 567 
Q 3503 -91 2522 -91 
Q 1538 -91 948 565 
Q 359 1222 359 2328 
Q 359 3434 948 4092 
Q 1538 4750 2522 4750 
z
" transform="scale(0.015625)"/>
       <path id="DejaVuSans-46" d="M 628 4666 
L 3309 4666 
L 3309 4134 
L 1259 4134 
L 1259 2759 
L 3109 2759 
L 3109 2228 
L 1259 2228 
L 1259 0 
L 628 0 
L 628 4666 
z
" transform="scale(0.015625)"/>
       <path id="DejaVuSans-41" d="M 2188 4044 
L 1331 1722 
L 3047 1722 
L 2188 4044 
z
M 1831 4666 
L 2547 4666 
L 4325 0 
L 3669 0 
L 3244 1197 
L 1141 1197 
L 716 0 
L 50 0 
L 1831 4666 
z
" transform="scale(0.015625)"/>
      </defs>
      <use xlink:href="#DejaVuSans-53"/>
      <use xlink:href="#DejaVuSans-4f" x="63.476562"/>
      <use xlink:href="#DejaVuSans-46" x="142.1875"/>
      <use xlink:href="#DejaVuSans-41" x="190.582031"/>
     </g>
    </g>
   </g>
   <g id="patch_3">
    <path d="M 27 80.1 
L 27 10.8 
" style="fill: none; stroke: #000000; stroke-width: 0.8; stroke-linejoin: miter; stroke-linecap: square"/>
   </g>
   <g id="patch_4">
    <path d="M 194.4 80.1 
L 194.4 10.8 
" style="fill: none; stroke: #000000; stroke-width: 0.8; stroke-linejoin: miter; stroke-linecap: square"/>
   </g>
   <g id="patch_5">
    <path d="M 27 80.1 
L 194.4 80.1 
" style="fill: none; stroke: #000000; stroke-width: 0.8; stroke-linejoin: miter; stroke-linecap: square"/>
   </g>
   <g id="patch_6">
    <path d="M 27 10.8 
L 194.4 10.8 
" style="fill: none; stroke: #000000; stroke-width: 0.8; stroke-linejoin: miter; stroke-linecap: square"/>
   </g>
   <g id="PathCollection_1">
    <defs>
     <path id="C0_0_25e368c443" d="M 0 2.5 
C 0.663008 2.5 1.29895 2.236584 1.767767 1.767767 
C 2.236584 1.29895 2.5 0.663008 2.5 -0 
C 2.5 -0.663008 2.236584 -1.29895 1.767767 -1.767767 
C 1.29895 -2.236584 0.663008 -2.5 0 -2.5 
C -0.663008 -2.5 -1.29895 -2.236584 -1.767767 -1.767767 
C -2.236584 -1.29895 -2.5 -0.663008 -2.5 0 
C -2.5 0.663008 -2.236584 1.29895 -1.767767 1.767767 
C -1.29895 2.236584 -0.663008 2.5 0 2.5 
z
"/>
    </defs>
    <g clip-path="url(#pa894301632)">
     <use xlink:href="#C0_0_25e368c443" x="66.621304" y="49.3875" style="fill: #ff9896"/>
    </g>
    <g clip-path="url(#pa894301632)">
     <use xlink:href="#C0_0_25e368c443" x="54.9" y="33.6375" style="fill: #ff9896"/>
    </g>
    <g clip-path="url(#pa894301632)">
     <use xlink:href="#C0_0_25e368c443" x="49.65" y="33.6375" style="fill: #ff9896"/>
    </g>
    <g clip-path="url(#pa894301632)">
     <use xlink:href="#C0_0_25e368c443" x="61.371304" y="33.6375" style="fill: #ff9896"/>
    </g>
    <g clip-path="url(#pa894301632)">
     <use xlink:href="#C0_0_25e368c443" x="61.371304" y="41.5125" style="fill: #ff9896"/>
    </g>
    <g clip-path="url(#pa894301632)">
     <use xlink:href="#C0_0_25e368c443" x="58.135652" y="13.95" style="fill: #ff9896"/>
    </g>
    <g clip-path="url(#pa894301632)">
     <use xlink:href="#C0_0_25e368c443" x="69.856956" y="53.325" style="fill: #ff9896"/>
    </g>
    <g clip-path="url(#pa894301632)">
     <use xlink:href="#C0_0_25e368c443" x="41.164348" y="53.325" style="fill: #ff9896"/>
    </g>
    <g clip-path="url(#pa894301632)">
     <use xlink:href="#C0_0_25e368c443" x="63.385652" y="53.325" style="fill: #ff9896"/>
    </g>
    <g clip-path="url(#pa894301632)">
     <use xlink:href="#C0_0_25e368c443" x="66.621304" y="57.2625" style="fill: #ff9896"/>
    </g>
    <g clip-path="url(#pa894301632)">
     <use xlink:href="#C0_0_25e368c443" x="35.914348" y="53.325" style="fill: #ff9896"/>
    </g>
    <g clip-path="url(#pa894301632)">
     <use xlink:href="#C0_0_25e368c443" x="44.4" y="41.5125" style="fill: #ff9896"/>
    </g>
    <g clip-path="url(#pa894301632)">
     <use xlink:href="#C0_0_25e368c443" x="54.9" y="17.8875" style="fill: #ff9896"/>
    </g>
    <g clip-path="url(#pa894301632)">
     <use xlink:href="#C0_0_25e368c443" x="63.385652" y="61.2" style="fill: #ff9896"/>
    </g>
    <g clip-path="url(#pa894301632)">
     <use xlink:href="#C0_0_25e368c443" x="46.414348" y="61.2" style="fill: #ff9896"/>
    </g>
    <g clip-path="url(#pa894301632)">
     <use xlink:href="#C0_0_25e368c443" x="49.65" y="41.5125" style="fill: #ff9896"/>
    </g>
    <g clip-path="url(#pa894301632)">
     <use xlink:href="#C0_0_25e368c443" x="54.9" y="41.5125" style="fill: #ff9896"/>
    </g>
    <g clip-path="url(#pa894301632)">
     <use xlink:href="#C0_0_25e368c443" x="44.4" y="33.6375" style="fill: #ff9896"/>
    </g>
    <g clip-path="url(#pa894301632)">
     <use xlink:href="#C0_0_25e368c443" x="51.664348" y="13.95" style="fill: #ff9896"/>
    </g>
    <g clip-path="url(#pa894301632)">
     <use xlink:href="#C0_0_25e368c443" x="46.414348" y="13.95" style="fill: #ff9896"/>
    </g>
    <g clip-path="url(#pa894301632)">
     <use xlink:href="#C0_0_25e368c443" x="49.65" y="25.7625" style="fill: #ff9896"/>
    </g>
    <g clip-path="url(#pa894301632)">
     <use xlink:href="#C0_0_25e368c443" x="58.135652" y="37.575" style="fill: #ff9896"/>
    </g>
    <g clip-path="url(#pa894301632)">
     <use xlink:href="#C0_0_25e368c443" x="49.65" y="49.3875" style="fill: #ff9896"/>
    </g>
    <g clip-path="url(#pa894301632)">
     <use xlink:href="#C0_0_25e368c443" x="46.414348" y="53.325" style="fill: #ff9896"/>
    </g>
    <g clip-path="url(#pa894301632)">
     <use xlink:href="#C0_0_25e368c443" x="64.606956" y="37.575" style="fill: #ff9896"/>
    </g>
    <g clip-path="url(#pa894301632)">
     <use xlink:href="#C0_0_25e368c443" x="54.9" y="73.0125" style="fill: #ff9896"/>
    </g>
    <g clip-path="url(#pa894301632)">
     <use xlink:href="#C0_0_25e368c443" x="58.135652" y="53.325" style="fill: #ff9896"/>
    </g>
    <g clip-path="url(#pa894301632)">
     <use xlink:href="#C0_0_25e368c443" x="58.135652" y="45.45" style="fill: #ff9896"/>
    </g>
    <g clip-path="url(#pa894301632)">
     <use xlink:href="#C0_0_25e368c443" x="41.164348" y="61.2" style="fill: #ff9896"/>
    </g>
    <g clip-path="url(#pa894301632)">
     <use xlink:href="#C0_0_25e368c443" x="58.135652" y="61.2" style="fill: #ff9896"/>
    </g>
    <g clip-path="url(#pa894301632)">
     <use xlink:href="#C0_0_25e368c443" x="49.65" y="65.1375" style="fill: #ff9896"/>
    </g>
    <g clip-path="url(#pa894301632)">
     <use xlink:href="#C0_0_25e368c443" x="54.9" y="49.3875" style="fill: #ff9896"/>
    </g>
    <g clip-path="url(#pa894301632)">
     <use xlink:href="#C0_0_25e368c443" x="49.65" y="57.2625" style="fill: #ff9896"/>
    </g>
    <g clip-path="url(#pa894301632)">
     <use xlink:href="#C0_0_25e368c443" x="54.9" y="57.2625" style="fill: #ff9896"/>
    </g>
    <g clip-path="url(#pa894301632)">
     <use xlink:href="#C0_0_25e368c443" x="54.9" y="25.7625" style="fill: #ff9896"/>
    </g>
    <g clip-path="url(#pa894301632)">
     <use xlink:href="#C0_0_25e368c443" x="54.9" y="65.1375" style="fill: #ff9896"/>
    </g>
   </g>
   <g id="PathCollection_2">
    <defs>
     <path id="C1_0_b8a3b3db8c" d="M 0 2.5 
C 0.663008 2.5 1.29895 2.236584 1.767767 1.767767 
C 2.236584 1.29895 2.5 0.663008 2.5 -0 
C 2.5 -0.663008 2.236584 -1.29895 1.767767 -1.767767 
C 1.29895 -2.236584 0.663008 -2.5 0 -2.5 
C -0.663008 -2.5 -1.29895 -2.236584 -1.767767 -1.767767 
C -2.236584 -1.29895 -2.5 -0.663008 -2.5 0 
C -2.5 0.663008 -2.236584 1.29895 -1.767767 1.767767 
C -1.29895 2.236584 -0.663008 2.5 0 2.5 
z
"/>
    </defs>
    <g clip-path="url(#pa894301632)">
     <use xlink:href="#C1_0_b8a3b3db8c" x="102.214348" y="17.8875" style="fill: #aec7e8"/>
    </g>
    <g clip-path="url(#pa894301632)">
     <use xlink:href="#C1_0_b8a3b3db8c" x="119.185652" y="17.8875" style="fill: #aec7e8"/>
    </g>
    <g clip-path="url(#pa894301632)">
     <use xlink:href="#C1_0_b8a3b3db8c" x="113.935652" y="37.575" style="fill: #aec7e8"/>
    </g>
    <g clip-path="url(#pa894301632)">
     <use xlink:href="#C1_0_b8a3b3db8c" x="107.464348" y="37.575" style="fill: #aec7e8"/>
    </g>
    <g clip-path="url(#pa894301632)">
     <use xlink:href="#C1_0_b8a3b3db8c" x="102.214348" y="53.325" style="fill: #aec7e8"/>
    </g>
    <g clip-path="url(#pa894301632)">
     <use xlink:href="#C1_0_b8a3b3db8c" x="110.7" y="76.95" style="fill: #aec7e8"/>
    </g>
    <g clip-path="url(#pa894301632)">
     <use xlink:href="#C1_0_b8a3b3db8c" x="122.421304" y="13.95" style="fill: #aec7e8"/>
    </g>
    <g clip-path="url(#pa894301632)">
     <use xlink:href="#C1_0_b8a3b3db8c" x="115.95" y="21.825" style="fill: #aec7e8"/>
    </g>
    <g clip-path="url(#pa894301632)">
     <use xlink:href="#C1_0_b8a3b3db8c" x="110.7" y="21.825" style="fill: #aec7e8"/>
    </g>
    <g clip-path="url(#pa894301632)">
     <use xlink:href="#C1_0_b8a3b3db8c" x="115.95" y="13.95" style="fill: #aec7e8"/>
    </g>
    <g clip-path="url(#pa894301632)">
     <use xlink:href="#C1_0_b8a3b3db8c" x="105.45" y="57.2625" style="fill: #aec7e8"/>
    </g>
    <g clip-path="url(#pa894301632)">
     <use xlink:href="#C1_0_b8a3b3db8c" x="119.185652" y="53.325" style="fill: #aec7e8"/>
    </g>
    <g clip-path="url(#pa894301632)">
     <use xlink:href="#C1_0_b8a3b3db8c" x="107.464348" y="17.8875" style="fill: #aec7e8"/>
    </g>
    <g clip-path="url(#pa894301632)">
     <use xlink:href="#C1_0_b8a3b3db8c" x="110.7" y="13.95" style="fill: #aec7e8"/>
    </g>
    <g clip-path="url(#pa894301632)">
     <use xlink:href="#C1_0_b8a3b3db8c" x="96.964348" y="25.7625" style="fill: #aec7e8"/>
    </g>
    <g clip-path="url(#pa894301632)">
     <use xlink:href="#C1_0_b8a3b3db8c" x="119.185652" y="25.7625" style="fill: #aec7e8"/>
    </g>
    <g clip-path="url(#pa894301632)">
     <use xlink:href="#C1_0_b8a3b3db8c" x="105.45" y="65.1375" style="fill: #aec7e8"/>
    </g>
    <g clip-path="url(#pa894301632)">
     <use xlink:href="#C1_0_b8a3b3db8c" x="105.45" y="29.7" style="fill: #aec7e8"/>
    </g>
    <g clip-path="url(#pa894301632)">
     <use xlink:href="#C1_0_b8a3b3db8c" x="115.95" y="29.7" style="fill: #aec7e8"/>
    </g>
    <g clip-path="url(#pa894301632)">
     <use xlink:href="#C1_0_b8a3b3db8c" x="100.993044" y="37.575" style="fill: #aec7e8"/>
    </g>
    <g clip-path="url(#pa894301632)">
     <use xlink:href="#C1_0_b8a3b3db8c" x="100.2" y="29.7" style="fill: #aec7e8"/>
    </g>
    <g clip-path="url(#pa894301632)">
     <use xlink:href="#C1_0_b8a3b3db8c" x="124.435652" y="37.575" style="fill: #aec7e8"/>
    </g>
    <g clip-path="url(#pa894301632)">
     <use xlink:href="#C1_0_b8a3b3db8c" x="110.7" y="29.7" style="fill: #aec7e8"/>
    </g>
    <g clip-path="url(#pa894301632)">
     <use xlink:href="#C1_0_b8a3b3db8c" x="119.185652" y="37.575" style="fill: #aec7e8"/>
    </g>
    <g clip-path="url(#pa894301632)">
     <use xlink:href="#C1_0_b8a3b3db8c" x="113.935652" y="45.45" style="fill: #aec7e8"/>
    </g>
    <g clip-path="url(#pa894301632)">
     <use xlink:href="#C1_0_b8a3b3db8c" x="110.7" y="49.3875" style="fill: #aec7e8"/>
    </g>
    <g clip-path="url(#pa894301632)">
     <use xlink:href="#C1_0_b8a3b3db8c" x="104.228696" y="41.5125" style="fill: #aec7e8"/>
    </g>
    <g clip-path="url(#pa894301632)">
     <use xlink:href="#C1_0_b8a3b3db8c" x="110.7" y="41.5125" style="fill: #aec7e8"/>
    </g>
    <g clip-path="url(#pa894301632)">
     <use xlink:href="#C1_0_b8a3b3db8c" x="107.464348" y="45.45" style="fill: #aec7e8"/>
    </g>
    <g clip-path="url(#pa894301632)">
     <use xlink:href="#C1_0_b8a3b3db8c" x="115.95" y="57.2625" style="fill: #aec7e8"/>
    </g>
    <g clip-path="url(#pa894301632)">
     <use xlink:href="#C1_0_b8a3b3db8c" x="100.2" y="65.1375" style="fill: #aec7e8"/>
    </g>
    <g clip-path="url(#pa894301632)">
     <use xlink:href="#C1_0_b8a3b3db8c" x="115.95" y="65.1375" style="fill: #aec7e8"/>
    </g>
    <g clip-path="url(#pa894301632)">
     <use xlink:href="#C1_0_b8a3b3db8c" x="119.185652" y="61.2" style="fill: #aec7e8"/>
    </g>
    <g clip-path="url(#pa894301632)">
     <use xlink:href="#C1_0_b8a3b3db8c" x="110.7" y="57.2625" style="fill: #aec7e8"/>
    </g>
    <g clip-path="url(#pa894301632)">
     <use xlink:href="#C1_0_b8a3b3db8c" x="110.7" y="65.1375" style="fill: #aec7e8"/>
    </g>
   </g>
   <g id="PathCollection_3">
    <defs>
     <path id="C2_0_0db1fc195f" d="M 0 2.5 
C 0.663008 2.5 1.29895 2.236584 1.767767 1.767767 
C 2.236584 1.29895 2.5 0.663008 2.5 -0 
C 2.5 -0.663008 2.236584 -1.29895 1.767767 -1.767767 
C 1.29895 -2.236584 0.663008 -2.5 0 -2.5 
C -0.663008 -2.5 -1.29895 -2.236584 -1.767767 -1.767767 
C -2.236584 -1.29895 -2.5 -0.663008 -2.5 0 
C -2.5 0.663008 -2.236584 1.29895 -1.767767 1.767767 
C -1.29895 2.236584 -0.663008 2.5 0 2.5 
z
"/>
    </defs>
    <g clip-path="url(#pa894301632)">
     <use xlink:href="#C2_0_0db1fc195f" x="174.985652" y="49.3875" style="fill: #c5b0d5"/>
    </g>
    <g clip-path="url(#pa894301632)">
     <use xlink:href="#C2_0_0db1fc195f" x="163.264348" y="33.6375" style="fill: #c5b0d5"/>
    </g>
    <g clip-path="url(#pa894301632)">
     <use xlink:href="#C2_0_0db1fc195f" x="161.25" y="53.325" style="fill: #c5b0d5"/>
    </g>
    <g clip-path="url(#pa894301632)">
     <use xlink:href="#C2_0_0db1fc195f" x="169.735652" y="41.5125" style="fill: #c5b0d5"/>
    </g>
    <g clip-path="url(#pa894301632)">
     <use xlink:href="#C2_0_0db1fc195f" x="171.75" y="76.95" style="fill: #c5b0d5"/>
    </g>
    <g clip-path="url(#pa894301632)">
     <use xlink:href="#C2_0_0db1fc195f" x="166.5" y="13.95" style="fill: #c5b0d5"/>
    </g>
    <g clip-path="url(#pa894301632)">
     <use xlink:href="#C2_0_0db1fc195f" x="166.5" y="53.325" style="fill: #c5b0d5"/>
    </g>
    <g clip-path="url(#pa894301632)">
     <use xlink:href="#C2_0_0db1fc195f" x="151.543044" y="25.7625" style="fill: #c5b0d5"/>
    </g>
    <g clip-path="url(#pa894301632)">
     <use xlink:href="#C2_0_0db1fc195f" x="176.206956" y="25.7625" style="fill: #c5b0d5"/>
    </g>
    <g clip-path="url(#pa894301632)">
     <use xlink:href="#C2_0_0db1fc195f" x="163.264348" y="41.5125" style="fill: #c5b0d5"/>
    </g>
    <g clip-path="url(#pa894301632)">
     <use xlink:href="#C2_0_0db1fc195f" x="161.25" y="13.95" style="fill: #c5b0d5"/>
    </g>
    <g clip-path="url(#pa894301632)">
     <use xlink:href="#C2_0_0db1fc195f" x="183.471304" y="61.2" style="fill: #c5b0d5"/>
    </g>
    <g clip-path="url(#pa894301632)">
     <use xlink:href="#C2_0_0db1fc195f" x="144.278696" y="61.2" style="fill: #c5b0d5"/>
    </g>
    <g clip-path="url(#pa894301632)">
     <use xlink:href="#C2_0_0db1fc195f" x="152.764348" y="65.1375" style="fill: #c5b0d5"/>
    </g>
    <g clip-path="url(#pa894301632)">
     <use xlink:href="#C2_0_0db1fc195f" x="166.5" y="37.575" style="fill: #c5b0d5"/>
    </g>
    <g clip-path="url(#pa894301632)">
     <use xlink:href="#C2_0_0db1fc195f" x="160.028696" y="29.7" style="fill: #c5b0d5"/>
    </g>
    <g clip-path="url(#pa894301632)">
     <use xlink:href="#C2_0_0db1fc195f" x="169.735652" y="33.6375" style="fill: #c5b0d5"/>
    </g>
    <g clip-path="url(#pa894301632)">
     <use xlink:href="#C2_0_0db1fc195f" x="181.456956" y="49.3875" style="fill: #c5b0d5"/>
    </g>
    <g clip-path="url(#pa894301632)">
     <use xlink:href="#C2_0_0db1fc195f" x="152.764348" y="49.3875" style="fill: #c5b0d5"/>
    </g>
    <g clip-path="url(#pa894301632)">
     <use xlink:href="#C2_0_0db1fc195f" x="169.735652" y="57.2625" style="fill: #c5b0d5"/>
    </g>
    <g clip-path="url(#pa894301632)">
     <use xlink:href="#C2_0_0db1fc195f" x="158.014348" y="57.2625" style="fill: #c5b0d5"/>
    </g>
    <g clip-path="url(#pa894301632)">
     <use xlink:href="#C2_0_0db1fc195f" x="149.528696" y="61.2" style="fill: #c5b0d5"/>
    </g>
    <g clip-path="url(#pa894301632)">
     <use xlink:href="#C2_0_0db1fc195f" x="161.25" y="61.2" style="fill: #c5b0d5"/>
    </g>
    <g clip-path="url(#pa894301632)">
     <use xlink:href="#C2_0_0db1fc195f" x="146.293044" y="25.7625" style="fill: #c5b0d5"/>
    </g>
    <g clip-path="url(#pa894301632)">
     <use xlink:href="#C2_0_0db1fc195f" x="154.778696" y="29.7" style="fill: #c5b0d5"/>
    </g>
    <g clip-path="url(#pa894301632)">
     <use xlink:href="#C2_0_0db1fc195f" x="172.971304" y="29.7" style="fill: #c5b0d5"/>
    </g>
    <g clip-path="url(#pa894301632)">
     <use xlink:href="#C2_0_0db1fc195f" x="146.293044" y="49.3875" style="fill: #c5b0d5"/>
    </g>
    <g clip-path="url(#pa894301632)">
     <use xlink:href="#C2_0_0db1fc195f" x="149.528696" y="53.325" style="fill: #c5b0d5"/>
    </g>
    <g clip-path="url(#pa894301632)">
     <use xlink:href="#C2_0_0db1fc195f" x="166.5" y="29.7" style="fill: #c5b0d5"/>
    </g>
    <g clip-path="url(#pa894301632)">
     <use xlink:href="#C2_0_0db1fc195f" x="169.735652" y="49.3875" style="fill: #c5b0d5"/>
    </g>
    <g clip-path="url(#pa894301632)">
     <use xlink:href="#C2_0_0db1fc195f" x="158.014348" y="49.3875" style="fill: #c5b0d5"/>
    </g>
    <g clip-path="url(#pa894301632)">
     <use xlink:href="#C2_0_0db1fc195f" x="158.014348" y="73.0125" style="fill: #c5b0d5"/>
    </g>
    <g clip-path="url(#pa894301632)">
     <use xlink:href="#C2_0_0db1fc195f" x="178.221304" y="53.325" style="fill: #c5b0d5"/>
    </g>
    <g clip-path="url(#pa894301632)">
     <use xlink:href="#C2_0_0db1fc195f" x="174.985652" y="65.1375" style="fill: #c5b0d5"/>
    </g>
    <g clip-path="url(#pa894301632)">
     <use xlink:href="#C2_0_0db1fc195f" x="166.5" y="45.45" style="fill: #c5b0d5"/>
    </g>
    <g clip-path="url(#pa894301632)">
     <use xlink:href="#C2_0_0db1fc195f" x="158.014348" y="65.1375" style="fill: #c5b0d5"/>
    </g>
    <g clip-path="url(#pa894301632)">
     <use xlink:href="#C2_0_0db1fc195f" x="169.735652" y="65.1375" style="fill: #c5b0d5"/>
    </g>
    <g clip-path="url(#pa894301632)">
     <use xlink:href="#C2_0_0db1fc195f" x="161.25" y="76.95" style="fill: #c5b0d5"/>
    </g>
    <g clip-path="url(#pa894301632)">
     <use xlink:href="#C2_0_0db1fc195f" x="166.5" y="76.95" style="fill: #c5b0d5"/>
    </g>
    <g clip-path="url(#pa894301632)">
     <use xlink:href="#C2_0_0db1fc195f" x="163.264348" y="25.7625" style="fill: #c5b0d5"/>
    </g>
    <g clip-path="url(#pa894301632)">
     <use xlink:href="#C2_0_0db1fc195f" x="169.735652" y="25.7625" style="fill: #c5b0d5"/>
    </g>
    <g clip-path="url(#pa894301632)">
     <use xlink:href="#C2_0_0db1fc195f" x="152.764348" y="57.2625" style="fill: #c5b0d5"/>
    </g>
    <g clip-path="url(#pa894301632)">
     <use xlink:href="#C2_0_0db1fc195f" x="178.221304" y="61.2" style="fill: #c5b0d5"/>
    </g>
    <g clip-path="url(#pa894301632)">
     <use xlink:href="#C2_0_0db1fc195f" x="166.5" y="61.2" style="fill: #c5b0d5"/>
    </g>
    <g clip-path="url(#pa894301632)">
     <use xlink:href="#C2_0_0db1fc195f" x="181.456956" y="25.7625" style="fill: #c5b0d5"/>
    </g>
    <g clip-path="url(#pa894301632)">
     <use xlink:href="#C2_0_0db1fc195f" x="188.721304" y="61.2" style="fill: #c5b0d5"/>
    </g>
    <g clip-path="url(#pa894301632)">
     <use xlink:href="#C2_0_0db1fc195f" x="161.25" y="69.075" style="fill: #c5b0d5"/>
    </g>
    <g clip-path="url(#pa894301632)">
     <use xlink:href="#C2_0_0db1fc195f" x="166.5" y="69.075" style="fill: #c5b0d5"/>
    </g>
    <g clip-path="url(#pa894301632)">
     <use xlink:href="#C2_0_0db1fc195f" x="174.985652" y="57.2625" style="fill: #c5b0d5"/>
    </g>
   </g>
  </g>
 </g>
 <defs>
  <clipPath id="pa894301632">
   <rect x="27" y="10.8" width="167.4" height="69.3"/>
  </clipPath>
 </defs>
</svg>
