<?xml version="1.0" encoding="utf-8" standalone="no"?>
<!DOCTYPE svg PUBLIC "-//W3C//DTD SVG 1.1//EN"
  "http://www.w3.org/Graphics/SVG/1.1/DTD/svg11.dtd">
<svg xmlns:xlink="http://www.w3.org/1999/xlink" width="216pt" height="144pt" viewBox="0 0 216 144" xmlns="http://www.w3.org/2000/svg" version="1.1">
 <metadata>
  <rdf:RDF xmlns:dc="http://purl.org/dc/elements/1.1/" xmlns:cc="http://creativecommons.org/ns#" xmlns:rdf="http://www.w3.org/1999/02/22-rdf-syntax-ns#">
   <cc:Work>
    <dc:type rdf:resource="http://purl.org/dc/dcmitype/StillImage"/>
    <dc:date>2024-03-05T10:18:48.279875</dc:date>
    <dc:format>image/svg+xml</dc:format>
    <dc:creator>
     <cc:Agent>
      <dc:title>Matplotlib v3.7.4, https://matplotlib.org/</dc:title>
     </cc:Agent>
    </dc:creator>
   </cc:Work>
  </rdf:RDF>
 </metadata>
 <defs>
  <style type="text/css">*{stroke-linejoin: round; stroke-linecap: butt}</style>
 </defs>
 <g id="figure_1">
  <g id="patch_1">
   <path d="M 0 144 
L 216 144 
L 216 0 
L 0 0 
z
" style="fill: #ffffff"/>
  </g>
  <g id="axes_1">
   <g id="patch_2">
    <path d="M 27 128.16 
L 194.4 128.16 
L 194.4 17.28 
L 27 17.28 
z
" style="fill: #ffffff"/>
   </g>
   <g id="PolyCollection_1">
    <defs>
     <path id="m28916f11ec" d="M 43.74 -26.813382 
L 42.956365 -26.813382 
L 42.751377 -27.420251 
L 42.506064 -28.02712 
L 42.216203 -28.633989 
L 41.87807 -29.240857 
L 41.488706 -29.847726 
L 41.046187 -30.454595 
L 40.549896 -31.061464 
L 40.000758 -31.668332 
L 39.401441 -32.275201 
L 38.756477 -32.88207 
L 38.072311 -33.488939 
L 37.357239 -34.095808 
L 36.62125 -34.702676 
L 35.875756 -35.309545 
L 35.133226 -35.916414 
L 34.406733 -36.523283 
L 33.709449 -37.130151 
L 33.054108 -37.73702 
L 32.452474 -38.343889 
L 31.914854 -38.950758 
L 31.44969 -39.557626 
L 31.063247 -40.164495 
L 30.759443 -40.771364 
L 30.53981 -41.378233 
L 30.403596 -41.985102 
L 30.348 -42.59197 
L 30.368516 -43.198839 
L 30.459351 -43.805708 
L 30.613889 -44.412577 
L 30.825146 -45.019445 
L 31.086205 -45.626314 
L 31.390557 -46.233183 
L 31.732364 -46.840052 
L 32.106598 -47.44692 
L 32.509068 -48.053789 
L 32.936337 -48.660658 
L 33.385548 -49.267527 
L 33.854196 -49.874396 
L 34.339861 -50.481264 
L 34.839953 -51.088133 
L 35.351488 -51.695002 
L 35.870932 -52.301871 
L 36.394121 -52.908739 
L 36.916274 -53.515608 
L 37.432091 -54.122477 
L 37.935931 -54.729346 
L 38.42204 -55.336214 
L 38.884819 -55.943083 
L 39.3191 -56.549952 
L 39.720398 -57.156821 
L 40.085126 -57.76369 
L 40.410753 -58.370558 
L 40.69589 -58.977427 
L 40.940308 -59.584296 
L 41.144883 -60.191165 
L 41.311488 -60.798033 
L 41.442833 -61.404902 
L 41.542277 -62.011771 
L 41.61363 -62.61864 
L 41.660949 -63.225508 
L 41.688363 -63.832377 
L 41.699907 -64.439246 
L 41.69941 -65.046115 
L 41.690397 -65.652984 
L 41.676042 -66.259852 
L 41.659142 -66.866721 
L 41.642126 -67.47359 
L 41.627069 -68.080459 
L 41.615732 -68.687327 
L 41.609592 -69.294196 
L 41.609884 -69.901065 
L 41.617626 -70.507934 
L 41.63364 -71.114802 
L 41.658562 -71.721671 
L 41.692844 -72.32854 
L 41.736749 -72.935409 
L 41.790334 -73.542278 
L 41.853444 -74.149146 
L 41.925698 -74.756015 
L 42.006486 -75.362884 
L 42.094973 -75.969753 
L 42.190113 -76.576621 
L 42.290672 -77.18349 
L 42.395266 -77.790359 
L 42.502405 -78.397228 
L 42.610546 -79.004097 
L 42.718144 -79.610965 
L 42.823714 -80.217834 
L 42.925878 -80.824703 
L 43.023414 -81.431572 
L 43.11529 -82.03844 
L 43.200691 -82.645309 
L 43.279035 -83.252178 
L 43.349968 -83.859047 
L 43.413361 -84.465915 
L 43.469284 -85.072784 
L 43.517984 -85.679653 
L 43.559853 -86.286522 
L 43.59539 -86.893391 
L 43.74 -86.893391 
L 43.74 -86.893391 
L 43.74 -86.286522 
L 43.74 -85.679653 
L 43.74 -85.072784 
L 43.74 -84.465915 
L 43.74 -83.859047 
L 43.74 -83.252178 
L 43.74 -82.645309 
L 43.74 -82.03844 
L 43.74 -81.431572 
L 43.74 -80.824703 
L 43.74 -80.217834 
L 43.74 -79.610965 
L 43.74 -79.004097 
L 43.74 -78.397228 
L 43.74 -77.790359 
L 43.74 -77.18349 
L 43.74 -76.576621 
L 43.74 -75.969753 
L 43.74 -75.362884 
L 43.74 -74.756015 
L 43.74 -74.149146 
L 43.74 -73.542278 
L 43.74 -72.935409 
L 43.74 -72.32854 
L 43.74 -71.721671 
L 43.74 -71.114802 
L 43.74 -70.507934 
L 43.74 -69.901065 
L 43.74 -69.294196 
L 43.74 -68.687327 
L 43.74 -68.080459 
L 43.74 -67.47359 
L 43.74 -66.866721 
L 43.74 -66.259852 
L 43.74 -65.652984 
L 43.74 -65.046115 
L 43.74 -64.439246 
L 43.74 -63.832377 
L 43.74 -63.225508 
L 43.74 -62.61864 
L 43.74 -62.011771 
L 43.74 -61.404902 
L 43.74 -60.798033 
L 43.74 -60.191165 
L 43.74 -59.584296 
L 43.74 -58.977427 
L 43.74 -58.370558 
L 43.74 -57.76369 
L 43.74 -57.156821 
L 43.74 -56.549952 
L 43.74 -55.943083 
L 43.74 -55.336214 
L 43.74 -54.729346 
L 43.74 -54.122477 
L 43.74 -53.515608 
L 43.74 -52.908739 
L 43.74 -52.301871 
L 43.74 -51.695002 
L 43.74 -51.088133 
L 43.74 -50.481264 
L 43.74 -49.874396 
L 43.74 -49.267527 
L 43.74 -48.660658 
L 43.74 -48.053789 
L 43.74 -47.44692 
L 43.74 -46.840052 
L 43.74 -46.233183 
L 43.74 -45.626314 
L 43.74 -45.019445 
L 43.74 -44.412577 
L 43.74 -43.805708 
L 43.74 -43.198839 
L 43.74 -42.59197 
L 43.74 -41.985102 
L 43.74 -41.378233 
L 43.74 -40.771364 
L 43.74 -40.164495 
L 43.74 -39.557626 
L 43.74 -38.950758 
L 43.74 -38.343889 
L 43.74 -37.73702 
L 43.74 -37.130151 
L 43.74 -36.523283 
L 43.74 -35.916414 
L 43.74 -35.309545 
L 43.74 -34.702676 
L 43.74 -34.095808 
L 43.74 -33.488939 
L 43.74 -32.88207 
L 43.74 -32.275201 
L 43.74 -31.668332 
L 43.74 -31.061464 
L 43.74 -30.454595 
L 43.74 -29.847726 
L 43.74 -29.240857 
L 43.74 -28.633989 
L 43.74 -28.02712 
L 43.74 -27.420251 
L 43.74 -26.813382 
z
" style="stroke: #595959; stroke-width: 1.25"/>
    </defs>
    <g clip-path="url(#pd401fce21f)">
     <use xlink:href="#m28916f11ec" x="0" y="144" style="fill: #72b6a1; stroke: #595959; stroke-width: 1.25"/>
    </g>
   </g>
   <g id="PolyCollection_2">
    <defs>
     <path id="m3740ec7b3e" d="M 44.421852 -33.323682 
L 43.74 -33.323682 
L 43.74 -33.615323 
L 43.74 -33.906965 
L 43.74 -34.198606 
L 43.74 -34.490247 
L 43.74 -34.781889 
L 43.74 -35.07353 
L 43.74 -35.365172 
L 43.74 -35.656813 
L 43.74 -35.948454 
L 43.74 -36.240096 
L 43.74 -36.531737 
L 43.74 -36.823378 
L 43.74 -37.11502 
L 43.74 -37.406661 
L 43.74 -37.698302 
L 43.74 -37.989944 
L 43.74 -38.281585 
L 43.74 -38.573226 
L 43.74 -38.864868 
L 43.74 -39.156509 
L 43.74 -39.44815 
L 43.74 -39.739792 
L 43.74 -40.031433 
L 43.74 -40.323074 
L 43.74 -40.614716 
L 43.74 -40.906357 
L 43.74 -41.197998 
L 43.74 -41.48964 
L 43.74 -41.781281 
L 43.74 -42.072922 
L 43.74 -42.364564 
L 43.74 -42.656205 
L 43.74 -42.947846 
L 43.74 -43.239488 
L 43.74 -43.531129 
L 43.74 -43.82277 
L 43.74 -44.114412 
L 43.74 -44.406053 
L 43.74 -44.697694 
L 43.74 -44.989336 
L 43.74 -45.280977 
L 43.74 -45.572618 
L 43.74 -45.86426 
L 43.74 -46.155901 
L 43.74 -46.447542 
L 43.74 -46.739184 
L 43.74 -47.030825 
L 43.74 -47.322466 
L 43.74 -47.614108 
L 43.74 -47.905749 
L 43.74 -48.19739 
L 43.74 -48.489032 
L 43.74 -48.780673 
L 43.74 -49.072314 
L 43.74 -49.363956 
L 43.74 -49.655597 
L 43.74 -49.947238 
L 43.74 -50.23888 
L 43.74 -50.530521 
L 43.74 -50.822162 
L 43.74 -51.113804 
L 43.74 -51.405445 
L 43.74 -51.697086 
L 43.74 -51.988728 
L 43.74 -52.280369 
L 43.74 -52.57201 
L 43.74 -52.863652 
L 43.74 -53.155293 
L 43.74 -53.446935 
L 43.74 -53.738576 
L 43.74 -54.030217 
L 43.74 -54.321859 
L 43.74 -54.6135 
L 43.74 -54.905141 
L 43.74 -55.196783 
L 43.74 -55.488424 
L 43.74 -55.780065 
L 43.74 -56.071707 
L 43.74 -56.363348 
L 43.74 -56.654989 
L 43.74 -56.946631 
L 43.74 -57.238272 
L 43.74 -57.529913 
L 43.74 -57.821555 
L 43.74 -58.113196 
L 43.74 -58.404837 
L 43.74 -58.696479 
L 43.74 -58.98812 
L 43.74 -59.279761 
L 43.74 -59.571403 
L 43.74 -59.863044 
L 43.74 -60.154685 
L 43.74 -60.446327 
L 43.74 -60.737968 
L 43.74 -61.029609 
L 43.74 -61.321251 
L 43.74 -61.612892 
L 43.74 -61.904533 
L 43.74 -62.196175 
L 43.840426 -62.196175 
L 43.840426 -62.196175 
L 43.869415 -61.904533 
L 43.90393 -61.612892 
L 43.944112 -61.321251 
L 43.989812 -61.029609 
L 44.040535 -60.737968 
L 44.095396 -60.446327 
L 44.153111 -60.154685 
L 44.212015 -59.863044 
L 44.270129 -59.571403 
L 44.325253 -59.279761 
L 44.375099 -58.98812 
L 44.417447 -58.696479 
L 44.450305 -58.404837 
L 44.472067 -58.113196 
L 44.481639 -57.821555 
L 44.478534 -57.529913 
L 44.462911 -57.238272 
L 44.43556 -56.946631 
L 44.397841 -56.654989 
L 44.351565 -56.363348 
L 44.298857 -56.071707 
L 44.24199 -55.780065 
L 44.183226 -55.488424 
L 44.124674 -55.196783 
L 44.068167 -54.905141 
L 44.015192 -54.6135 
L 43.966838 -54.321859 
L 43.923797 -54.030217 
L 43.88639 -53.738576 
L 43.85462 -53.446935 
L 43.828233 -53.155293 
L 43.806794 -52.863652 
L 43.789758 -52.57201 
L 43.776528 -52.280369 
L 43.766515 -51.988728 
L 43.759176 -51.697086 
L 43.754048 -51.405445 
L 43.750768 -51.113804 
L 43.74909 -50.822162 
L 43.748894 -50.530521 
L 43.750202 -50.23888 
L 43.753184 -49.947238 
L 43.758175 -49.655597 
L 43.765689 -49.363956 
L 43.776438 -49.072314 
L 43.791354 -48.780673 
L 43.811613 -48.489032 
L 43.838654 -48.19739 
L 43.874203 -47.905749 
L 43.920296 -47.614108 
L 43.979298 -47.322466 
L 44.05392 -47.030825 
L 44.14724 -46.739184 
L 44.262714 -46.447542 
L 44.404184 -46.155901 
L 44.575881 -45.86426 
L 44.782395 -45.572618 
L 45.028627 -45.280977 
L 45.319686 -44.989336 
L 45.660729 -44.697694 
L 46.056719 -44.406053 
L 46.512101 -44.114412 
L 47.030388 -43.82277 
L 47.613666 -43.531129 
L 48.262043 -43.239488 
L 48.973079 -42.947846 
L 49.741256 -42.656205 
L 50.557542 -42.364564 
L 51.409121 -42.072922 
L 52.27936 -41.781281 
L 53.148048 -41.48964 
L 53.991961 -41.197998 
L 54.785732 -40.906357 
L 55.503015 -40.614716 
L 56.11787 -40.323074 
L 56.606264 -40.031433 
L 56.947601 -39.739792 
L 57.126109 -39.44815 
L 57.132 -39.156509 
L 56.962254 -38.864868 
L 56.620973 -38.573226 
L 56.119241 -38.281585 
L 55.474505 -37.989944 
L 54.709529 -37.698302 
L 53.850992 -37.406661 
L 52.927875 -37.11502 
L 51.969767 -36.823378 
L 51.005226 -36.531737 
L 50.060333 -36.240096 
L 49.157547 -35.948454 
L 48.314902 -35.656813 
L 47.545609 -35.365172 
L 46.85802 -35.07353 
L 46.255922 -34.781889 
L 45.739091 -34.490247 
L 45.304014 -34.198606 
L 44.9447 -33.906965 
L 44.653499 -33.615323 
L 44.421852 -33.323682 
z
" style="stroke: #595959; stroke-width: 1.25"/>
    </defs>
    <g clip-path="url(#pd401fce21f)">
     <use xlink:href="#m3740ec7b3e" x="0" y="144" style="fill: #e99675; stroke: #595959; stroke-width: 1.25"/>
    </g>
   </g>
   <g id="PolyCollection_3">
    <defs>
     <path id="ma1b3c8f834" d="M 77.22 -27.418331 
L 76.495887 -27.418331 
L 76.299319 -28.090899 
L 76.063213 -28.763467 
L 75.783586 -29.436035 
L 75.457074 -30.108603 
L 75.081206 -30.781171 
L 74.654676 -31.453739 
L 74.177578 -32.126308 
L 73.651601 -32.798876 
L 73.080137 -33.471444 
L 72.468307 -34.144012 
L 71.82288 -34.81658 
L 71.15208 -35.489148 
L 70.4653 -36.161716 
L 69.772721 -36.834285 
L 69.084882 -37.506853 
L 68.412219 -38.179421 
L 67.764613 -38.851989 
L 67.150988 -39.524557 
L 66.578997 -40.197125 
L 66.054804 -40.869693 
L 65.582992 -41.542262 
L 65.166596 -42.21483 
L 64.807243 -42.887398 
L 64.505384 -43.559966 
L 64.260574 -44.232534 
L 64.071781 -44.905102 
L 63.937671 -45.57767 
L 63.856845 -46.250238 
L 63.828 -46.922807 
L 63.850005 -47.595375 
L 63.921887 -48.267943 
L 64.042739 -48.940511 
L 64.211576 -49.613079 
L 64.42716 -50.285647 
L 64.68783 -50.958215 
L 64.991359 -51.630784 
L 65.334869 -52.303352 
L 65.714808 -52.97592 
L 66.127001 -53.648488 
L 66.566764 -54.321056 
L 67.02906 -54.993624 
L 67.508691 -55.666192 
L 68.000479 -56.33876 
L 68.49944 -57.011329 
L 69.000903 -57.683897 
L 69.500595 -58.356465 
L 69.994661 -59.029033 
L 70.479651 -59.701601 
L 70.95246 -60.374169 
L 71.410268 -61.046737 
L 71.850469 -61.719306 
L 72.270627 -62.391874 
L 72.668463 -63.064442 
L 73.041872 -63.73701 
L 73.388976 -64.409578 
L 73.70821 -65.082146 
L 73.998406 -65.754714 
L 74.25889 -66.427283 
L 74.489546 -67.099851 
L 74.69086 -67.772419 
L 74.863918 -68.444987 
L 75.010364 -69.117555 
L 75.132314 -69.790123 
L 75.232249 -70.462691 
L 75.312881 -71.135259 
L 75.377021 -71.807828 
L 75.427453 -72.480396 
L 75.46683 -73.152964 
L 75.49761 -73.825532 
L 75.522007 -74.4981 
L 75.541993 -75.170668 
L 75.55931 -75.843236 
L 75.575509 -76.515805 
L 75.591992 -77.188373 
L 75.610048 -77.860941 
L 75.630878 -78.533509 
L 75.655604 -79.206077 
L 75.68525 -79.878645 
L 75.720715 -80.551213 
L 75.762723 -81.223782 
L 75.811775 -81.89635 
L 75.868096 -82.568918 
L 75.931601 -83.241486 
L 76.001878 -83.914054 
L 76.078183 -84.586622 
L 76.159478 -85.25919 
L 76.244477 -85.931758 
L 76.331715 -86.604327 
L 76.419632 -87.276895 
L 76.506658 -87.949463 
L 76.591299 -88.622031 
L 76.672209 -89.294599 
L 76.748248 -89.967167 
L 76.818526 -90.639735 
L 76.882421 -91.312304 
L 76.939581 -91.984872 
L 76.989907 -92.65744 
L 77.033524 -93.330008 
L 77.070746 -94.002576 
L 77.22 -94.002576 
L 77.22 -94.002576 
L 77.22 -93.330008 
L 77.22 -92.65744 
L 77.22 -91.984872 
L 77.22 -91.312304 
L 77.22 -90.639735 
L 77.22 -89.967167 
L 77.22 -89.294599 
L 77.22 -88.622031 
L 77.22 -87.949463 
L 77.22 -87.276895 
L 77.22 -86.604327 
L 77.22 -85.931758 
L 77.22 -85.25919 
L 77.22 -84.586622 
L 77.22 -83.914054 
L 77.22 -83.241486 
L 77.22 -82.568918 
L 77.22 -81.89635 
L 77.22 -81.223782 
L 77.22 -80.551213 
L 77.22 -79.878645 
L 77.22 -79.206077 
L 77.22 -78.533509 
L 77.22 -77.860941 
L 77.22 -77.188373 
L 77.22 -76.515805 
L 77.22 -75.843236 
L 77.22 -75.170668 
L 77.22 -74.4981 
L 77.22 -73.825532 
L 77.22 -73.152964 
L 77.22 -72.480396 
L 77.22 -71.807828 
L 77.22 -71.135259 
L 77.22 -70.462691 
L 77.22 -69.790123 
L 77.22 -69.117555 
L 77.22 -68.444987 
L 77.22 -67.772419 
L 77.22 -67.099851 
L 77.22 -66.427283 
L 77.22 -65.754714 
L 77.22 -65.082146 
L 77.22 -64.409578 
L 77.22 -63.73701 
L 77.22 -63.064442 
L 77.22 -62.391874 
L 77.22 -61.719306 
L 77.22 -61.046737 
L 77.22 -60.374169 
L 77.22 -59.701601 
L 77.22 -59.029033 
L 77.22 -58.356465 
L 77.22 -57.683897 
L 77.22 -57.011329 
L 77.22 -56.33876 
L 77.22 -55.666192 
L 77.22 -54.993624 
L 77.22 -54.321056 
L 77.22 -53.648488 
L 77.22 -52.97592 
L 77.22 -52.303352 
L 77.22 -51.630784 
L 77.22 -50.958215 
L 77.22 -50.285647 
L 77.22 -49.613079 
L 77.22 -48.940511 
L 77.22 -48.267943 
L 77.22 -47.595375 
L 77.22 -46.922807 
L 77.22 -46.250238 
L 77.22 -45.57767 
L 77.22 -44.905102 
L 77.22 -44.232534 
L 77.22 -43.559966 
L 77.22 -42.887398 
L 77.22 -42.21483 
L 77.22 -41.542262 
L 77.22 -40.869693 
L 77.22 -40.197125 
L 77.22 -39.524557 
L 77.22 -38.851989 
L 77.22 -38.179421 
L 77.22 -37.506853 
L 77.22 -36.834285 
L 77.22 -36.161716 
L 77.22 -35.489148 
L 77.22 -34.81658 
L 77.22 -34.144012 
L 77.22 -33.471444 
L 77.22 -32.798876 
L 77.22 -32.126308 
L 77.22 -31.453739 
L 77.22 -30.781171 
L 77.22 -30.108603 
L 77.22 -29.436035 
L 77.22 -28.763467 
L 77.22 -28.090899 
L 77.22 -27.418331 
z
" style="stroke: #595959; stroke-width: 1.25"/>
    </defs>
    <g clip-path="url(#pd401fce21f)">
     <use xlink:href="#ma1b3c8f834" x="0" y="144" style="fill: #72b6a1; stroke: #595959; stroke-width: 1.25"/>
    </g>
   </g>
   <g id="PolyCollection_4">
    <defs>
     <path id="mff58b34ca8" d="M 77.854379 -29.222161 
L 77.22 -29.222161 
L 77.22 -30.128723 
L 77.22 -31.035286 
L 77.22 -31.941848 
L 77.22 -32.84841 
L 77.22 -33.754973 
L 77.22 -34.661535 
L 77.22 -35.568098 
L 77.22 -36.47466 
L 77.22 -37.381223 
L 77.22 -38.287785 
L 77.22 -39.194348 
L 77.22 -40.10091 
L 77.22 -41.007473 
L 77.22 -41.914035 
L 77.22 -42.820598 
L 77.22 -43.72716 
L 77.22 -44.633723 
L 77.22 -45.540285 
L 77.22 -46.446848 
L 77.22 -47.35341 
L 77.22 -48.259973 
L 77.22 -49.166535 
L 77.22 -50.073098 
L 77.22 -50.97966 
L 77.22 -51.886223 
L 77.22 -52.792785 
L 77.22 -53.699347 
L 77.22 -54.60591 
L 77.22 -55.512472 
L 77.22 -56.419035 
L 77.22 -57.325597 
L 77.22 -58.23216 
L 77.22 -59.138722 
L 77.22 -60.045285 
L 77.22 -60.951847 
L 77.22 -61.85841 
L 77.22 -62.764972 
L 77.22 -63.671535 
L 77.22 -64.578097 
L 77.22 -65.48466 
L 77.22 -66.391222 
L 77.22 -67.297785 
L 77.22 -68.204347 
L 77.22 -69.11091 
L 77.22 -70.017472 
L 77.22 -70.924035 
L 77.22 -71.830597 
L 77.22 -72.737159 
L 77.22 -73.643722 
L 77.22 -74.550284 
L 77.22 -75.456847 
L 77.22 -76.363409 
L 77.22 -77.269972 
L 77.22 -78.176534 
L 77.22 -79.083097 
L 77.22 -79.989659 
L 77.22 -80.896222 
L 77.22 -81.802784 
L 77.22 -82.709347 
L 77.22 -83.615909 
L 77.22 -84.522472 
L 77.22 -85.429034 
L 77.22 -86.335597 
L 77.22 -87.242159 
L 77.22 -88.148722 
L 77.22 -89.055284 
L 77.22 -89.961847 
L 77.22 -90.868409 
L 77.22 -91.774972 
L 77.22 -92.681534 
L 77.22 -93.588096 
L 77.22 -94.494659 
L 77.22 -95.401221 
L 77.22 -96.307784 
L 77.22 -97.214346 
L 77.22 -98.120909 
L 77.22 -99.027471 
L 77.22 -99.934034 
L 77.22 -100.840596 
L 77.22 -101.747159 
L 77.22 -102.653721 
L 77.22 -103.560284 
L 77.22 -104.466846 
L 77.22 -105.373409 
L 77.22 -106.279971 
L 77.22 -107.186534 
L 77.22 -108.093096 
L 77.22 -108.999659 
L 77.22 -109.906221 
L 77.22 -110.812784 
L 77.22 -111.719346 
L 77.22 -112.625908 
L 77.22 -113.532471 
L 77.22 -114.439033 
L 77.22 -115.345596 
L 77.22 -116.252158 
L 77.22 -117.158721 
L 77.22 -118.065283 
L 77.22 -118.971846 
L 77.496712 -118.971846 
L 77.496712 -118.971846 
L 77.565058 -118.065283 
L 77.646513 -117.158721 
L 77.742633 -116.252158 
L 77.854948 -115.345596 
L 77.984912 -114.439033 
L 78.13385 -113.532471 
L 78.302907 -112.625908 
L 78.492994 -111.719346 
L 78.704739 -110.812784 
L 78.938448 -109.906221 
L 79.194069 -108.999659 
L 79.471183 -108.093096 
L 79.768988 -107.186534 
L 80.086318 -106.279971 
L 80.421668 -105.373409 
L 80.77324 -104.466846 
L 81.138996 -103.560284 
L 81.516732 -102.653721 
L 81.904154 -101.747159 
L 82.298963 -100.840596 
L 82.698937 -99.934034 
L 83.102008 -99.027471 
L 83.506326 -98.120909 
L 83.910313 -97.214346 
L 84.312688 -96.307784 
L 84.712467 -95.401221 
L 85.108948 -94.494659 
L 85.501648 -93.588096 
L 85.890235 -92.681534 
L 86.274426 -91.774972 
L 86.653873 -90.868409 
L 87.02805 -89.961847 
L 87.396136 -89.055284 
L 87.756924 -88.148722 
L 88.108753 -87.242159 
L 88.449475 -86.335597 
L 88.776473 -85.429034 
L 89.086721 -84.522472 
L 89.376888 -83.615909 
L 89.643495 -82.709347 
L 89.883087 -81.802784 
L 90.092437 -80.896222 
L 90.268743 -79.989659 
L 90.409819 -79.083097 
L 90.514248 -78.176534 
L 90.581501 -77.269972 
L 90.612 -76.363409 
L 90.607122 -75.456847 
L 90.569151 -74.550284 
L 90.501175 -73.643722 
L 90.406939 -72.737159 
L 90.290673 -71.830597 
L 90.156899 -70.924035 
L 90.010231 -70.017472 
L 89.855187 -69.11091 
L 89.696021 -68.204347 
L 89.536571 -67.297785 
L 89.38014 -66.391222 
L 89.229401 -65.48466 
L 89.08633 -64.578097 
L 88.952156 -63.671535 
L 88.827337 -62.764972 
L 88.711543 -61.85841 
L 88.60366 -60.951847 
L 88.501811 -60.045285 
L 88.403395 -59.138722 
L 88.30514 -58.23216 
L 88.203201 -57.325597 
L 88.093267 -56.419035 
L 87.970714 -55.512472 
L 87.830784 -54.60591 
L 87.66879 -53.699347 
L 87.480337 -52.792785 
L 87.261554 -51.886223 
L 87.009317 -50.97966 
L 86.721451 -50.073098 
L 86.396898 -49.166535 
L 86.035828 -48.259973 
L 85.639701 -47.35341 
L 85.211254 -46.446848 
L 84.754422 -45.540285 
L 84.274196 -44.633723 
L 83.776424 -43.72716 
L 83.267571 -42.820598 
L 82.754443 -41.914035 
L 82.243915 -41.007473 
L 81.742648 -40.10091 
L 81.256845 -39.194348 
L 80.792034 -38.287785 
L 80.352902 -37.381223 
L 79.94318 -36.47466 
L 79.565585 -35.568098 
L 79.221815 -34.661535 
L 78.912594 -33.754973 
L 78.637751 -32.84841 
L 78.396336 -31.941848 
L 78.186758 -31.035286 
L 78.006922 -30.128723 
L 77.854379 -29.222161 
z
" style="stroke: #595959; stroke-width: 1.25"/>
    </defs>
    <g clip-path="url(#pd401fce21f)">
     <use xlink:href="#mff58b34ca8" x="0" y="144" style="fill: #e99675; stroke: #595959; stroke-width: 1.25"/>
    </g>
   </g>
   <g id="PolyCollection_5">
    <defs>
     <path id="m28a25495aa" d="M 110.7 -29.735846 
L 110.111865 -29.735846 
L 109.969069 -30.62942 
L 109.800534 -31.522995 
L 109.603901 -32.416569 
L 109.377109 -33.310143 
L 109.118518 -34.203717 
L 108.827017 -35.097291 
L 108.50213 -35.990865 
L 108.144093 -36.884439 
L 107.75391 -37.778014 
L 107.333362 -38.671588 
L 106.884994 -39.565162 
L 106.412043 -40.458736 
L 105.918339 -41.35231 
L 105.408173 -42.245884 
L 104.886126 -43.139458 
L 104.356905 -44.033033 
L 103.825158 -44.926607 
L 103.295315 -45.820181 
L 102.771447 -46.713755 
L 102.257173 -47.607329 
L 101.755602 -48.500903 
L 101.26934 -49.394477 
L 100.800542 -50.288052 
L 100.351021 -51.181626 
L 99.922391 -52.0752 
L 99.516244 -52.968774 
L 99.134333 -53.862348 
L 98.778747 -54.755922 
L 98.452062 -55.649496 
L 98.157442 -56.543071 
L 97.898674 -57.436645 
L 97.680137 -58.330219 
L 97.506687 -59.223793 
L 97.383458 -60.117367 
L 97.315609 -61.010941 
L 97.308 -61.904515 
L 97.364846 -62.79809 
L 97.489365 -63.691664 
L 97.683438 -64.585238 
L 97.947337 -65.478812 
L 98.279511 -66.372386 
L 98.676481 -67.26596 
L 99.132843 -68.159534 
L 99.641377 -69.053109 
L 100.19328 -69.946683 
L 100.778487 -70.840257 
L 101.386062 -71.733831 
L 102.004656 -72.627405 
L 102.622959 -73.520979 
L 103.230158 -74.414553 
L 103.81634 -75.308128 
L 104.372837 -76.201702 
L 104.892476 -77.095276 
L 105.369744 -77.98885 
L 105.800845 -78.882424 
L 106.183668 -79.775998 
L 106.517676 -80.669572 
L 106.803727 -81.563147 
L 107.04385 -82.456721 
L 107.240998 -83.350295 
L 107.398802 -84.243869 
L 107.521329 -85.137443 
L 107.61288 -86.031017 
L 107.677816 -86.924591 
L 107.720435 -87.818166 
L 107.744877 -88.71174 
L 107.755083 -89.605314 
L 107.754773 -90.498888 
L 107.747452 -91.392462 
L 107.73642 -92.286036 
L 107.724789 -93.17961 
L 107.715492 -94.073185 
L 107.711278 -94.966759 
L 107.714689 -95.860333 
L 107.728027 -96.753907 
L 107.753297 -97.647481 
L 107.792152 -98.541055 
L 107.845825 -99.434629 
L 107.915076 -100.328204 
L 108.000146 -101.221778 
L 108.100731 -102.115352 
L 108.215982 -103.008926 
L 108.344533 -103.9025 
L 108.484553 -104.796074 
L 108.633827 -105.689649 
L 108.789852 -106.583223 
L 108.949952 -107.476797 
L 109.111396 -108.370371 
L 109.271517 -109.263945 
L 109.427814 -110.157519 
L 109.578052 -111.051093 
L 109.720328 -111.944668 
L 109.853122 -112.838242 
L 109.975319 -113.731816 
L 110.086214 -114.62539 
L 110.185488 -115.518964 
L 110.273175 -116.412538 
L 110.349608 -117.306112 
L 110.415369 -118.199687 
L 110.7 -118.199687 
L 110.7 -118.199687 
L 110.7 -117.306112 
L 110.7 -116.412538 
L 110.7 -115.518964 
L 110.7 -114.62539 
L 110.7 -113.731816 
L 110.7 -112.838242 
L 110.7 -111.944668 
L 110.7 -111.051093 
L 110.7 -110.157519 
L 110.7 -109.263945 
L 110.7 -108.370371 
L 110.7 -107.476797 
L 110.7 -106.583223 
L 110.7 -105.689649 
L 110.7 -104.796074 
L 110.7 -103.9025 
L 110.7 -103.008926 
L 110.7 -102.115352 
L 110.7 -101.221778 
L 110.7 -100.328204 
L 110.7 -99.434629 
L 110.7 -98.541055 
L 110.7 -97.647481 
L 110.7 -96.753907 
L 110.7 -95.860333 
L 110.7 -94.966759 
L 110.7 -94.073185 
L 110.7 -93.17961 
L 110.7 -92.286036 
L 110.7 -91.392462 
L 110.7 -90.498888 
L 110.7 -89.605314 
L 110.7 -88.71174 
L 110.7 -87.818166 
L 110.7 -86.924591 
L 110.7 -86.031017 
L 110.7 -85.137443 
L 110.7 -84.243869 
L 110.7 -83.350295 
L 110.7 -82.456721 
L 110.7 -81.563147 
L 110.7 -80.669572 
L 110.7 -79.775998 
L 110.7 -78.882424 
L 110.7 -77.98885 
L 110.7 -77.095276 
L 110.7 -76.201702 
L 110.7 -75.308128 
L 110.7 -74.414553 
L 110.7 -73.520979 
L 110.7 -72.627405 
L 110.7 -71.733831 
L 110.7 -70.840257 
L 110.7 -69.946683 
L 110.7 -69.053109 
L 110.7 -68.159534 
L 110.7 -67.26596 
L 110.7 -66.372386 
L 110.7 -65.478812 
L 110.7 -64.585238 
L 110.7 -63.691664 
L 110.7 -62.79809 
L 110.7 -61.904515 
L 110.7 -61.010941 
L 110.7 -60.117367 
L 110.7 -59.223793 
L 110.7 -58.330219 
L 110.7 -57.436645 
L 110.7 -56.543071 
L 110.7 -55.649496 
L 110.7 -54.755922 
L 110.7 -53.862348 
L 110.7 -52.968774 
L 110.7 -52.0752 
L 110.7 -51.181626 
L 110.7 -50.288052 
L 110.7 -49.394477 
L 110.7 -48.500903 
L 110.7 -47.607329 
L 110.7 -46.713755 
L 110.7 -45.820181 
L 110.7 -44.926607 
L 110.7 -44.033033 
L 110.7 -43.139458 
L 110.7 -42.245884 
L 110.7 -41.35231 
L 110.7 -40.458736 
L 110.7 -39.565162 
L 110.7 -38.671588 
L 110.7 -37.778014 
L 110.7 -36.884439 
L 110.7 -35.990865 
L 110.7 -35.097291 
L 110.7 -34.203717 
L 110.7 -33.310143 
L 110.7 -32.416569 
L 110.7 -31.522995 
L 110.7 -30.62942 
L 110.7 -29.735846 
z
" style="stroke: #595959; stroke-width: 1.25"/>
    </defs>
    <g clip-path="url(#pd401fce21f)">
     <use xlink:href="#m28a25495aa" x="0" y="144" style="fill: #72b6a1; stroke: #595959; stroke-width: 1.25"/>
    </g>
   </g>
   <g id="PolyCollection_6">
    <defs>
     <path id="m0ce6d73b67" d="M 111.34157 -37.958541 
L 110.7 -37.958541 
L 110.7 -38.216412 
L 110.7 -38.474283 
L 110.7 -38.732154 
L 110.7 -38.990025 
L 110.7 -39.247896 
L 110.7 -39.505767 
L 110.7 -39.763638 
L 110.7 -40.02151 
L 110.7 -40.279381 
L 110.7 -40.537252 
L 110.7 -40.795123 
L 110.7 -41.052994 
L 110.7 -41.310865 
L 110.7 -41.568736 
L 110.7 -41.826607 
L 110.7 -42.084478 
L 110.7 -42.34235 
L 110.7 -42.600221 
L 110.7 -42.858092 
L 110.7 -43.115963 
L 110.7 -43.373834 
L 110.7 -43.631705 
L 110.7 -43.889576 
L 110.7 -44.147447 
L 110.7 -44.405318 
L 110.7 -44.66319 
L 110.7 -44.921061 
L 110.7 -45.178932 
L 110.7 -45.436803 
L 110.7 -45.694674 
L 110.7 -45.952545 
L 110.7 -46.210416 
L 110.7 -46.468287 
L 110.7 -46.726159 
L 110.7 -46.98403 
L 110.7 -47.241901 
L 110.7 -47.499772 
L 110.7 -47.757643 
L 110.7 -48.015514 
L 110.7 -48.273385 
L 110.7 -48.531256 
L 110.7 -48.789127 
L 110.7 -49.046999 
L 110.7 -49.30487 
L 110.7 -49.562741 
L 110.7 -49.820612 
L 110.7 -50.078483 
L 110.7 -50.336354 
L 110.7 -50.594225 
L 110.7 -50.852096 
L 110.7 -51.109967 
L 110.7 -51.367839 
L 110.7 -51.62571 
L 110.7 -51.883581 
L 110.7 -52.141452 
L 110.7 -52.399323 
L 110.7 -52.657194 
L 110.7 -52.915065 
L 110.7 -53.172936 
L 110.7 -53.430807 
L 110.7 -53.688679 
L 110.7 -53.94655 
L 110.7 -54.204421 
L 110.7 -54.462292 
L 110.7 -54.720163 
L 110.7 -54.978034 
L 110.7 -55.235905 
L 110.7 -55.493776 
L 110.7 -55.751647 
L 110.7 -56.009519 
L 110.7 -56.26739 
L 110.7 -56.525261 
L 110.7 -56.783132 
L 110.7 -57.041003 
L 110.7 -57.298874 
L 110.7 -57.556745 
L 110.7 -57.814616 
L 110.7 -58.072487 
L 110.7 -58.330359 
L 110.7 -58.58823 
L 110.7 -58.846101 
L 110.7 -59.103972 
L 110.7 -59.361843 
L 110.7 -59.619714 
L 110.7 -59.877585 
L 110.7 -60.135456 
L 110.7 -60.393327 
L 110.7 -60.651199 
L 110.7 -60.90907 
L 110.7 -61.166941 
L 110.7 -61.424812 
L 110.7 -61.682683 
L 110.7 -61.940554 
L 110.7 -62.198425 
L 110.7 -62.456296 
L 110.7 -62.714167 
L 110.7 -62.972039 
L 110.7 -63.22991 
L 110.7 -63.487781 
L 110.954428 -63.487781 
L 110.954428 -63.487781 
L 111.016133 -63.22991 
L 111.088666 -62.972039 
L 111.17283 -62.714167 
L 111.269219 -62.456296 
L 111.378158 -62.198425 
L 111.499639 -61.940554 
L 111.633275 -61.682683 
L 111.778273 -61.424812 
L 111.933417 -61.166941 
L 112.097088 -60.90907 
L 112.26731 -60.651199 
L 112.441823 -60.393327 
L 112.618189 -60.135456 
L 112.793922 -59.877585 
L 112.966637 -59.619714 
L 113.13421 -59.361843 
L 113.294941 -59.103972 
L 113.4477 -58.846101 
L 113.592063 -58.58823 
L 113.728408 -58.330359 
L 113.857975 -58.072487 
L 113.982882 -57.814616 
L 114.106086 -57.556745 
L 114.231302 -57.298874 
L 114.362874 -57.041003 
L 114.505605 -56.783132 
L 114.664554 -56.525261 
L 114.844812 -56.26739 
L 115.051265 -56.009519 
L 115.288355 -55.751647 
L 115.55985 -55.493776 
L 115.868627 -55.235905 
L 116.21649 -54.978034 
L 116.60401 -54.720163 
L 117.03041 -54.462292 
L 117.493493 -54.204421 
L 117.989616 -53.94655 
L 118.513717 -53.688679 
L 119.059387 -53.430807 
L 119.619007 -53.172936 
L 120.183924 -52.915065 
L 120.744681 -52.657194 
L 121.291298 -52.399323 
L 121.813576 -52.141452 
L 122.301443 -51.883581 
L 122.745301 -51.62571 
L 123.136389 -51.367839 
L 123.46712 -51.109967 
L 123.731398 -50.852096 
L 123.924879 -50.594225 
L 124.045177 -50.336354 
L 124.092 -50.078483 
L 124.067187 -49.820612 
L 123.974671 -49.562741 
L 123.820339 -49.30487 
L 123.611807 -49.046999 
L 123.358111 -48.789127 
L 123.069329 -48.531256 
L 122.756147 -48.273385 
L 122.429394 -48.015514 
L 122.099565 -47.757643 
L 121.77635 -47.499772 
L 121.468203 -47.241901 
L 121.181968 -46.98403 
L 120.922583 -46.726159 
L 120.692878 -46.468287 
L 120.493481 -46.210416 
L 120.322843 -45.952545 
L 120.177373 -45.694674 
L 120.051683 -45.436803 
L 119.938936 -45.178932 
L 119.831264 -44.921061 
L 119.720245 -44.66319 
L 119.597404 -44.405318 
L 119.454712 -44.147447 
L 119.285049 -43.889576 
L 119.082609 -43.631705 
L 118.843212 -43.373834 
L 118.564525 -43.115963 
L 118.246154 -42.858092 
L 117.889634 -42.600221 
L 117.4983 -42.34235 
L 117.077063 -42.084478 
L 116.632104 -41.826607 
L 116.170521 -41.568736 
L 115.69994 -41.310865 
L 115.228123 -41.052994 
L 114.762609 -40.795123 
L 114.310383 -40.537252 
L 113.877618 -40.279381 
L 113.469474 -40.02151 
L 113.089981 -39.763638 
L 112.741991 -39.505767 
L 112.427193 -39.247896 
L 112.146189 -38.990025 
L 111.898616 -38.732154 
L 111.683291 -38.474283 
L 111.49838 -38.216412 
L 111.34157 -37.958541 
z
" style="stroke: #595959; stroke-width: 1.25"/>
    </defs>
    <g clip-path="url(#pd401fce21f)">
     <use xlink:href="#m0ce6d73b67" x="0" y="144" style="fill: #e99675; stroke: #595959; stroke-width: 1.25"/>
    </g>
   </g>
   <g id="PolyCollection_7">
    <defs>
     <path id="mf0fd10587e" d="M 144.18 -21.400459 
L 143.563165 -21.400459 
L 143.394142 -22.322703 
L 143.188981 -23.244946 
L 142.942912 -24.16719 
L 142.651323 -25.089434 
L 142.309991 -26.011677 
L 141.915347 -26.933921 
L 141.464772 -27.856165 
L 140.956895 -28.778409 
L 140.391885 -29.700652 
L 139.77172 -30.622896 
L 139.100404 -31.54514 
L 138.384112 -32.467383 
L 137.631257 -33.389627 
L 136.852437 -34.311871 
L 136.060284 -35.234114 
L 135.269176 -36.156358 
L 134.494846 -37.078602 
L 133.753879 -38.000845 
L 133.063129 -38.923089 
L 132.439076 -39.845333 
L 131.897155 -40.767576 
L 131.451105 -41.68982 
L 131.112361 -42.612064 
L 130.889533 -43.534307 
L 130.788 -44.456551 
L 130.809655 -45.378795 
L 130.952799 -46.301039 
L 131.212215 -47.223282 
L 131.579391 -48.145526 
L 132.042911 -49.06777 
L 132.588957 -49.990013 
L 133.201927 -50.912257 
L 133.865102 -51.834501 
L 134.56135 -52.756744 
L 135.273812 -53.678988 
L 135.986539 -54.601232 
L 136.685055 -55.523475 
L 137.356812 -56.445719 
L 137.991516 -57.367963 
L 138.581337 -58.290206 
L 139.120965 -59.21245 
L 139.607559 -60.134694 
L 140.040563 -61.056938 
L 140.421444 -61.979181 
L 140.753341 -62.901425 
L 141.040684 -63.823669 
L 141.288776 -64.745912 
L 141.503388 -65.668156 
L 141.690371 -66.5904 
L 141.855326 -67.512643 
L 142.003311 -68.434887 
L 142.138639 -69.357131 
L 142.264729 -70.279374 
L 142.384039 -71.201618 
L 142.498064 -72.123862 
L 142.607391 -73.046105 
L 142.711808 -73.968349 
L 142.810442 -74.890593 
L 142.901934 -75.812836 
L 142.984611 -76.73508 
L 143.056675 -77.657324 
L 143.116375 -78.579568 
L 143.162167 -79.501811 
L 143.192848 -80.424055 
L 143.207671 -81.346299 
L 143.206426 -82.268542 
L 143.189488 -83.190786 
L 143.157839 -84.11303 
L 143.113051 -85.035273 
L 143.057251 -85.957517 
L 142.993039 -86.879761 
L 142.9234 -87.802004 
L 142.851579 -88.724248 
L 142.780951 -89.646492 
L 142.714872 -90.568735 
L 142.656535 -91.490979 
L 142.608828 -92.413223 
L 142.574207 -93.335466 
L 142.554587 -94.25771 
L 142.551265 -95.179954 
L 142.564875 -96.102198 
L 142.595375 -97.024441 
L 142.642072 -97.946685 
L 142.703682 -98.868929 
L 142.77842 -99.791172 
L 142.864104 -100.713416 
L 142.958284 -101.63566 
L 143.058372 -102.557903 
L 143.161769 -103.480147 
L 143.265981 -104.402391 
L 143.368722 -105.324634 
L 143.467991 -106.246878 
L 143.562125 -107.169122 
L 143.649835 -108.091365 
L 143.730202 -109.013609 
L 143.802674 -109.935853 
L 143.867025 -110.858097 
L 143.923318 -111.78034 
L 143.971852 -112.702584 
L 144.18 -112.702584 
L 144.18 -112.702584 
L 144.18 -111.78034 
L 144.18 -110.858097 
L 144.18 -109.935853 
L 144.18 -109.013609 
L 144.18 -108.091365 
L 144.18 -107.169122 
L 144.18 -106.246878 
L 144.18 -105.324634 
L 144.18 -104.402391 
L 144.18 -103.480147 
L 144.18 -102.557903 
L 144.18 -101.63566 
L 144.18 -100.713416 
L 144.18 -99.791172 
L 144.18 -98.868929 
L 144.18 -97.946685 
L 144.18 -97.024441 
L 144.18 -96.102198 
L 144.18 -95.179954 
L 144.18 -94.25771 
L 144.18 -93.335466 
L 144.18 -92.413223 
L 144.18 -91.490979 
L 144.18 -90.568735 
L 144.18 -89.646492 
L 144.18 -88.724248 
L 144.18 -87.802004 
L 144.18 -86.879761 
L 144.18 -85.957517 
L 144.18 -85.035273 
L 144.18 -84.11303 
L 144.18 -83.190786 
L 144.18 -82.268542 
L 144.18 -81.346299 
L 144.18 -80.424055 
L 144.18 -79.501811 
L 144.18 -78.579568 
L 144.18 -77.657324 
L 144.18 -76.73508 
L 144.18 -75.812836 
L 144.18 -74.890593 
L 144.18 -73.968349 
L 144.18 -73.046105 
L 144.18 -72.123862 
L 144.18 -71.201618 
L 144.18 -70.279374 
L 144.18 -69.357131 
L 144.18 -68.434887 
L 144.18 -67.512643 
L 144.18 -66.5904 
L 144.18 -65.668156 
L 144.18 -64.745912 
L 144.18 -63.823669 
L 144.18 -62.901425 
L 144.18 -61.979181 
L 144.18 -61.056938 
L 144.18 -60.134694 
L 144.18 -59.21245 
L 144.18 -58.290206 
L 144.18 -57.367963 
L 144.18 -56.445719 
L 144.18 -55.523475 
L 144.18 -54.601232 
L 144.18 -53.678988 
L 144.18 -52.756744 
L 144.18 -51.834501 
L 144.18 -50.912257 
L 144.18 -49.990013 
L 144.18 -49.06777 
L 144.18 -48.145526 
L 144.18 -47.223282 
L 144.18 -46.301039 
L 144.18 -45.378795 
L 144.18 -44.456551 
L 144.18 -43.534307 
L 144.18 -42.612064 
L 144.18 -41.68982 
L 144.18 -40.767576 
L 144.18 -39.845333 
L 144.18 -38.923089 
L 144.18 -38.000845 
L 144.18 -37.078602 
L 144.18 -36.156358 
L 144.18 -35.234114 
L 144.18 -34.311871 
L 144.18 -33.389627 
L 144.18 -32.467383 
L 144.18 -31.54514 
L 144.18 -30.622896 
L 144.18 -29.700652 
L 144.18 -28.778409 
L 144.18 -27.856165 
L 144.18 -26.933921 
L 144.18 -26.011677 
L 144.18 -25.089434 
L 144.18 -24.16719 
L 144.18 -23.244946 
L 144.18 -22.322703 
L 144.18 -21.400459 
z
" style="stroke: #595959; stroke-width: 1.25"/>
    </defs>
    <g clip-path="url(#pd401fce21f)">
     <use xlink:href="#mf0fd10587e" x="0" y="144" style="fill: #72b6a1; stroke: #595959; stroke-width: 1.25"/>
    </g>
   </g>
   <g id="PolyCollection_8">
    <defs>
     <path id="m8c1d58a00b" d="M 144.640113 -31.105216 
L 144.18 -31.105216 
L 144.18 -31.415026 
L 144.18 -31.724835 
L 144.18 -32.034645 
L 144.18 -32.344455 
L 144.18 -32.654265 
L 144.18 -32.964075 
L 144.18 -33.273885 
L 144.18 -33.583695 
L 144.18 -33.893505 
L 144.18 -34.203315 
L 144.18 -34.513125 
L 144.18 -34.822935 
L 144.18 -35.132745 
L 144.18 -35.442555 
L 144.18 -35.752364 
L 144.18 -36.062174 
L 144.18 -36.371984 
L 144.18 -36.681794 
L 144.18 -36.991604 
L 144.18 -37.301414 
L 144.18 -37.611224 
L 144.18 -37.921034 
L 144.18 -38.230844 
L 144.18 -38.540654 
L 144.18 -38.850464 
L 144.18 -39.160274 
L 144.18 -39.470084 
L 144.18 -39.779893 
L 144.18 -40.089703 
L 144.18 -40.399513 
L 144.18 -40.709323 
L 144.18 -41.019133 
L 144.18 -41.328943 
L 144.18 -41.638753 
L 144.18 -41.948563 
L 144.18 -42.258373 
L 144.18 -42.568183 
L 144.18 -42.877993 
L 144.18 -43.187803 
L 144.18 -43.497613 
L 144.18 -43.807422 
L 144.18 -44.117232 
L 144.18 -44.427042 
L 144.18 -44.736852 
L 144.18 -45.046662 
L 144.18 -45.356472 
L 144.18 -45.666282 
L 144.18 -45.976092 
L 144.18 -46.285902 
L 144.18 -46.595712 
L 144.18 -46.905522 
L 144.18 -47.215332 
L 144.18 -47.525142 
L 144.18 -47.834951 
L 144.18 -48.144761 
L 144.18 -48.454571 
L 144.18 -48.764381 
L 144.18 -49.074191 
L 144.18 -49.384001 
L 144.18 -49.693811 
L 144.18 -50.003621 
L 144.18 -50.313431 
L 144.18 -50.623241 
L 144.18 -50.933051 
L 144.18 -51.242861 
L 144.18 -51.552671 
L 144.18 -51.86248 
L 144.18 -52.17229 
L 144.18 -52.4821 
L 144.18 -52.79191 
L 144.18 -53.10172 
L 144.18 -53.41153 
L 144.18 -53.72134 
L 144.18 -54.03115 
L 144.18 -54.34096 
L 144.18 -54.65077 
L 144.18 -54.96058 
L 144.18 -55.27039 
L 144.18 -55.5802 
L 144.18 -55.890009 
L 144.18 -56.199819 
L 144.18 -56.509629 
L 144.18 -56.819439 
L 144.18 -57.129249 
L 144.18 -57.439059 
L 144.18 -57.748869 
L 144.18 -58.058679 
L 144.18 -58.368489 
L 144.18 -58.678299 
L 144.18 -58.988109 
L 144.18 -59.297919 
L 144.18 -59.607729 
L 144.18 -59.917538 
L 144.18 -60.227348 
L 144.18 -60.537158 
L 144.18 -60.846968 
L 144.18 -61.156778 
L 144.18 -61.466588 
L 144.18 -61.776398 
L 144.300777 -61.776398 
L 144.300777 -61.776398 
L 144.332496 -61.466588 
L 144.369792 -61.156778 
L 144.412831 -60.846968 
L 144.461552 -60.537158 
L 144.515613 -60.227348 
L 144.574358 -59.917538 
L 144.636806 -59.607729 
L 144.701656 -59.297919 
L 144.767322 -58.988109 
L 144.832001 -58.678299 
L 144.893763 -58.368489 
L 144.950664 -58.058679 
L 145.000881 -57.748869 
L 145.042839 -57.439059 
L 145.075343 -57.129249 
L 145.097684 -56.819439 
L 145.109714 -56.509629 
L 145.111883 -56.199819 
L 145.105232 -55.890009 
L 145.09133 -55.5802 
L 145.072181 -55.27039 
L 145.050077 -54.96058 
L 145.027441 -54.65077 
L 145.006648 -54.34096 
L 144.98985 -54.03115 
L 144.978824 -53.72134 
L 144.974848 -53.41153 
L 144.978627 -53.10172 
L 144.990263 -52.79191 
L 145.009288 -52.4821 
L 145.034746 -52.17229 
L 145.065324 -51.86248 
L 145.099525 -51.552671 
L 145.135853 -51.242861 
L 145.173021 -50.933051 
L 145.210138 -50.623241 
L 145.246869 -50.313431 
L 145.283563 -50.003621 
L 145.321322 -49.693811 
L 145.362008 -49.384001 
L 145.408201 -49.074191 
L 145.463088 -48.764381 
L 145.530307 -48.454571 
L 145.613764 -48.144761 
L 145.717415 -47.834951 
L 145.845057 -47.525142 
L 146.000123 -47.215332 
L 146.185509 -46.905522 
L 146.403443 -46.595712 
L 146.655393 -46.285902 
L 146.942043 -45.976092 
L 147.263308 -45.666282 
L 147.618405 -45.356472 
L 148.005964 -45.046662 
L 148.424163 -44.736852 
L 148.870872 -44.427042 
L 149.343794 -44.117232 
L 149.840569 -43.807422 
L 150.358836 -43.497613 
L 150.896225 -43.187803 
L 151.450278 -42.877993 
L 152.018281 -42.568183 
L 152.597031 -42.258373 
L 153.182544 -41.948563 
L 153.769741 -41.638753 
L 154.35215 -41.328943 
L 154.921671 -41.019133 
L 155.468458 -40.709323 
L 155.980957 -40.399513 
L 156.446132 -40.089703 
L 156.849902 -39.779893 
L 157.177765 -39.470084 
L 157.4156 -39.160274 
L 157.550559 -38.850464 
L 157.572 -38.540654 
L 157.472366 -38.230844 
L 157.247911 -37.921034 
L 156.899211 -37.611224 
L 156.431392 -37.301414 
L 155.854039 -36.991604 
L 155.180798 -36.681794 
L 154.428688 -36.371984 
L 153.617189 -36.062174 
L 152.767187 -35.752364 
L 151.899863 -35.442555 
L 151.035622 -35.132745 
L 150.193136 -34.822935 
L 149.388583 -34.513125 
L 148.635103 -34.203315 
L 147.942512 -33.893505 
L 147.317242 -33.583695 
L 146.762506 -33.273885 
L 146.278628 -32.964075 
L 145.863495 -32.654265 
L 145.513076 -32.344455 
L 145.221961 -32.034645 
L 144.98388 -31.724835 
L 144.79216 -31.415026 
L 144.640113 -31.105216 
z
" style="stroke: #595959; stroke-width: 1.25"/>
    </defs>
    <g clip-path="url(#pd401fce21f)">
     <use xlink:href="#m8c1d58a00b" x="0" y="144" style="fill: #e99675; stroke: #595959; stroke-width: 1.25"/>
    </g>
   </g>
   <g id="PolyCollection_9">
    <defs>
     <path id="mdc5458421f" d="M 177.66 -29.260732 
L 177.348825 -29.260732 
L 177.257972 -29.793146 
L 177.146512 -30.32556 
L 177.011489 -30.857974 
L 176.849941 -31.390388 
L 176.658995 -31.922802 
L 176.435968 -32.455216 
L 176.17846 -32.98763 
L 175.884451 -33.520044 
L 175.552379 -34.052458 
L 175.181208 -34.584872 
L 174.770473 -35.117286 
L 174.320328 -35.6497 
L 173.831573 -36.182114 
L 173.305687 -36.714528 
L 172.744875 -37.246942 
L 172.152115 -37.779356 
L 171.531238 -38.31177 
L 170.887002 -38.844184 
L 170.225193 -39.376598 
L 169.552692 -39.909012 
L 168.877529 -40.441426 
L 168.208875 -40.97384 
L 167.556958 -41.506254 
L 166.932885 -42.038668 
L 166.348361 -42.571082 
L 165.815309 -43.103496 
L 165.345399 -43.63591 
L 164.949527 -44.168324 
L 164.637268 -44.700738 
L 164.416371 -45.233152 
L 164.292316 -45.765566 
L 164.268 -46.29798 
L 164.343575 -46.830394 
L 164.516447 -47.362808 
L 164.781446 -47.895222 
L 165.131138 -48.427636 
L 165.556263 -48.96005 
L 166.046223 -49.492464 
L 166.589608 -50.024878 
L 167.174681 -50.557292 
L 167.789811 -51.089706 
L 168.423811 -51.62212 
L 169.066169 -52.154534 
L 169.707198 -52.686948 
L 170.338086 -53.219362 
L 170.950908 -53.751776 
L 171.538596 -54.28419 
L 172.094915 -54.816604 
L 172.614459 -55.349018 
L 173.092672 -55.881432 
L 173.52591 -56.413846 
L 173.911528 -56.94626 
L 174.247978 -57.478674 
L 174.534901 -58.011088 
L 174.773186 -58.543502 
L 174.964986 -59.075916 
L 175.113665 -59.60833 
L 175.223678 -60.140744 
L 175.300374 -60.673158 
L 175.34975 -61.205572 
L 175.378146 -61.737986 
L 175.391923 -62.2704 
L 175.397146 -62.802814 
L 175.39929 -63.335228 
L 175.403001 -63.867642 
L 175.411925 -64.400056 
L 175.428619 -64.93247 
L 175.454551 -65.464884 
L 175.490181 -65.997298 
L 175.535112 -66.529712 
L 175.58829 -67.062126 
L 175.648237 -67.59454 
L 175.713289 -68.126954 
L 175.78181 -68.659368 
L 175.852372 -69.191782 
L 175.923885 -69.724196 
L 175.995657 -70.25661 
L 176.067405 -70.789024 
L 176.139206 -71.321438 
L 176.211404 -71.853852 
L 176.2845 -72.386266 
L 176.359018 -72.91868 
L 176.435392 -73.451094 
L 176.513868 -73.983508 
L 176.594435 -74.515922 
L 176.676796 -75.048336 
L 176.760375 -75.58075 
L 176.844349 -76.113164 
L 176.92772 -76.645578 
L 177.009386 -77.177992 
L 177.088231 -77.710406 
L 177.163202 -78.24282 
L 177.233379 -78.775234 
L 177.298028 -79.307648 
L 177.356635 -79.840062 
L 177.408915 -80.372476 
L 177.454804 -80.90489 
L 177.494445 -81.437304 
L 177.528146 -81.969718 
L 177.66 -81.969718 
L 177.66 -81.969718 
L 177.66 -81.437304 
L 177.66 -80.90489 
L 177.66 -80.372476 
L 177.66 -79.840062 
L 177.66 -79.307648 
L 177.66 -78.775234 
L 177.66 -78.24282 
L 177.66 -77.710406 
L 177.66 -77.177992 
L 177.66 -76.645578 
L 177.66 -76.113164 
L 177.66 -75.58075 
L 177.66 -75.048336 
L 177.66 -74.515922 
L 177.66 -73.983508 
L 177.66 -73.451094 
L 177.66 -72.91868 
L 177.66 -72.386266 
L 177.66 -71.853852 
L 177.66 -71.321438 
L 177.66 -70.789024 
L 177.66 -70.25661 
L 177.66 -69.724196 
L 177.66 -69.191782 
L 177.66 -68.659368 
L 177.66 -68.126954 
L 177.66 -67.59454 
L 177.66 -67.062126 
L 177.66 -66.529712 
L 177.66 -65.997298 
L 177.66 -65.464884 
L 177.66 -64.93247 
L 177.66 -64.400056 
L 177.66 -63.867642 
L 177.66 -63.335228 
L 177.66 -62.802814 
L 177.66 -62.2704 
L 177.66 -61.737986 
L 177.66 -61.205572 
L 177.66 -60.673158 
L 177.66 -60.140744 
L 177.66 -59.60833 
L 177.66 -59.075916 
L 177.66 -58.543502 
L 177.66 -58.011088 
L 177.66 -57.478674 
L 177.66 -56.94626 
L 177.66 -56.413846 
L 177.66 -55.881432 
L 177.66 -55.349018 
L 177.66 -54.816604 
L 177.66 -54.28419 
L 177.66 -53.751776 
L 177.66 -53.219362 
L 177.66 -52.686948 
L 177.66 -52.154534 
L 177.66 -51.62212 
L 177.66 -51.089706 
L 177.66 -50.557292 
L 177.66 -50.024878 
L 177.66 -49.492464 
L 177.66 -48.96005 
L 177.66 -48.427636 
L 177.66 -47.895222 
L 177.66 -47.362808 
L 177.66 -46.830394 
L 177.66 -46.29798 
L 177.66 -45.765566 
L 177.66 -45.233152 
L 177.66 -44.700738 
L 177.66 -44.168324 
L 177.66 -43.63591 
L 177.66 -43.103496 
L 177.66 -42.571082 
L 177.66 -42.038668 
L 177.66 -41.506254 
L 177.66 -40.97384 
L 177.66 -40.441426 
L 177.66 -39.909012 
L 177.66 -39.376598 
L 177.66 -38.844184 
L 177.66 -38.31177 
L 177.66 -37.779356 
L 177.66 -37.246942 
L 177.66 -36.714528 
L 177.66 -36.182114 
L 177.66 -35.6497 
L 177.66 -35.117286 
L 177.66 -34.584872 
L 177.66 -34.052458 
L 177.66 -33.520044 
L 177.66 -32.98763 
L 177.66 -32.455216 
L 177.66 -31.922802 
L 177.66 -31.390388 
L 177.66 -30.857974 
L 177.66 -30.32556 
L 177.66 -29.793146 
L 177.66 -29.260732 
z
" style="stroke: #595959; stroke-width: 1.25"/>
    </defs>
    <g clip-path="url(#pd401fce21f)">
     <use xlink:href="#mdc5458421f" x="0" y="144" style="fill: #72b6a1; stroke: #595959; stroke-width: 1.25"/>
    </g>
   </g>
   <g id="PolyCollection_10">
    <defs>
     <path id="m3a82cb5ad2" d="M 178.245496 -20.88 
L 177.66 -20.88 
L 177.66 -21.898182 
L 177.66 -22.916364 
L 177.66 -23.934545 
L 177.66 -24.952727 
L 177.66 -25.970909 
L 177.66 -26.989091 
L 177.66 -28.007273 
L 177.66 -29.025455 
L 177.66 -30.043636 
L 177.66 -31.061818 
L 177.66 -32.08 
L 177.66 -33.098182 
L 177.66 -34.116364 
L 177.66 -35.134545 
L 177.66 -36.152727 
L 177.66 -37.170909 
L 177.66 -38.189091 
L 177.66 -39.207273 
L 177.66 -40.225455 
L 177.66 -41.243636 
L 177.66 -42.261818 
L 177.66 -43.28 
L 177.66 -44.298182 
L 177.66 -45.316364 
L 177.66 -46.334545 
L 177.66 -47.352727 
L 177.66 -48.370909 
L 177.66 -49.389091 
L 177.66 -50.407273 
L 177.66 -51.425455 
L 177.66 -52.443636 
L 177.66 -53.461818 
L 177.66 -54.48 
L 177.66 -55.498182 
L 177.66 -56.516364 
L 177.66 -57.534545 
L 177.66 -58.552727 
L 177.66 -59.570909 
L 177.66 -60.589091 
L 177.66 -61.607273 
L 177.66 -62.625455 
L 177.66 -63.643636 
L 177.66 -64.661818 
L 177.66 -65.68 
L 177.66 -66.698182 
L 177.66 -67.716364 
L 177.66 -68.734545 
L 177.66 -69.752727 
L 177.66 -70.770909 
L 177.66 -71.789091 
L 177.66 -72.807273 
L 177.66 -73.825455 
L 177.66 -74.843636 
L 177.66 -75.861818 
L 177.66 -76.88 
L 177.66 -77.898182 
L 177.66 -78.916364 
L 177.66 -79.934545 
L 177.66 -80.952727 
L 177.66 -81.970909 
L 177.66 -82.989091 
L 177.66 -84.007273 
L 177.66 -85.025455 
L 177.66 -86.043636 
L 177.66 -87.061818 
L 177.66 -88.08 
L 177.66 -89.098182 
L 177.66 -90.116364 
L 177.66 -91.134545 
L 177.66 -92.152727 
L 177.66 -93.170909 
L 177.66 -94.189091 
L 177.66 -95.207273 
L 177.66 -96.225455 
L 177.66 -97.243636 
L 177.66 -98.261818 
L 177.66 -99.28 
L 177.66 -100.298182 
L 177.66 -101.316364 
L 177.66 -102.334545 
L 177.66 -103.352727 
L 177.66 -104.370909 
L 177.66 -105.389091 
L 177.66 -106.407273 
L 177.66 -107.425455 
L 177.66 -108.443636 
L 177.66 -109.461818 
L 177.66 -110.48 
L 177.66 -111.498182 
L 177.66 -112.516364 
L 177.66 -113.534545 
L 177.66 -114.552727 
L 177.66 -115.570909 
L 177.66 -116.589091 
L 177.66 -117.607273 
L 177.66 -118.625455 
L 177.66 -119.643636 
L 177.66 -120.661818 
L 177.66 -121.68 
L 178.069802 -121.68 
L 178.069802 -121.68 
L 178.167717 -120.661818 
L 178.283393 -119.643636 
L 178.418595 -118.625455 
L 178.574913 -117.607273 
L 178.753674 -116.589091 
L 178.955843 -115.570909 
L 179.181922 -114.552727 
L 179.431862 -113.534545 
L 179.704979 -112.516364 
L 179.999894 -111.498182 
L 180.314498 -110.48 
L 180.645947 -109.461818 
L 180.990696 -108.443636 
L 181.344568 -107.425455 
L 181.702869 -106.407273 
L 182.060533 -105.389091 
L 182.412311 -104.370909 
L 182.752976 -103.352727 
L 183.077555 -102.334545 
L 183.381555 -101.316364 
L 183.661196 -100.298182 
L 183.91361 -99.28 
L 184.137012 -98.261818 
L 184.33083 -97.243636 
L 184.495772 -96.225455 
L 184.633841 -95.207273 
L 184.748272 -94.189091 
L 184.84342 -93.170909 
L 184.924579 -92.152727 
L 184.997747 -91.134545 
L 185.069357 -90.116364 
L 185.145974 -89.098182 
L 185.233986 -88.08 
L 185.339288 -87.061818 
L 185.467003 -86.043636 
L 185.621224 -85.025455 
L 185.804808 -84.007273 
L 186.01924 -82.989091 
L 186.264552 -81.970909 
L 186.539316 -80.952727 
L 186.840718 -79.934545 
L 187.164687 -78.916364 
L 187.506092 -77.898182 
L 187.858989 -76.88 
L 188.216898 -75.861818 
L 188.57311 -74.843636 
L 188.920987 -73.825455 
L 189.254263 -72.807273 
L 189.567296 -71.789091 
L 189.855302 -70.770909 
L 190.114508 -69.752727 
L 190.342259 -68.734545 
L 190.53705 -67.716364 
L 190.698485 -66.698182 
L 190.827179 -65.68 
L 190.924594 -64.661818 
L 190.992837 -63.643636 
L 191.034418 -62.625455 
L 191.052 -61.607273 
L 191.048147 -60.589091 
L 191.025089 -59.570909 
L 190.984522 -58.552727 
L 190.927456 -57.534545 
L 190.854115 -56.516364 
L 190.763904 -55.498182 
L 190.655438 -54.48 
L 190.526634 -53.461818 
L 190.374856 -52.443636 
L 190.197109 -51.425455 
L 189.990266 -50.407273 
L 189.751314 -49.389091 
L 189.477598 -48.370909 
L 189.16706 -47.352727 
L 188.818446 -46.334545 
L 188.431468 -45.316364 
L 188.006922 -44.298182 
L 187.546742 -43.28 
L 187.053994 -42.261818 
L 186.532811 -41.243636 
L 185.988268 -40.225455 
L 185.426212 -39.207273 
L 184.853049 -38.189091 
L 184.275513 -37.170909 
L 183.700417 -36.152727 
L 183.134414 -35.134545 
L 182.583772 -34.116364 
L 182.054169 -33.098182 
L 181.550538 -32.08 
L 181.076945 -31.061818 
L 180.636518 -30.043636 
L 180.231419 -29.025455 
L 179.86286 -28.007273 
L 179.531158 -26.989091 
L 179.235823 -25.970909 
L 178.975662 -24.952727 
L 178.748907 -23.934545 
L 178.553345 -22.916364 
L 178.386449 -21.898182 
L 178.245496 -20.88 
z
" style="stroke: #595959; stroke-width: 1.25"/>
    </defs>
    <g clip-path="url(#pd401fce21f)">
     <use xlink:href="#m3a82cb5ad2" x="0" y="144" style="fill: #e99675; stroke: #595959; stroke-width: 1.25"/>
    </g>
   </g>
   <g id="patch_3">
    <path d="M 43.74 116.19464 
L 43.74 116.19464 
L 43.74 116.19464 
L 43.74 116.19464 
z
" clip-path="url(#pd401fce21f)" style="fill: #72b6a1; stroke: #595959; stroke-width: 1.25; stroke-linejoin: miter"/>
   </g>
   <g id="patch_4">
    <path d="M 43.74 116.19464 
L 43.74 116.19464 
L 43.74 116.19464 
L 43.74 116.19464 
z
" clip-path="url(#pd401fce21f)" style="fill: #e99675; stroke: #595959; stroke-width: 1.25; stroke-linejoin: miter"/>
   </g>
   <g id="matplotlib.axis_1">
    <g id="xtick_1">
     <g id="line2d_1">
      <defs>
       <path id="m2b04befc39" d="M 0 0 
L 0 3.5 
" style="stroke: #000000; stroke-width: 0.8"/>
      </defs>
      <g>
       <use xlink:href="#m2b04befc39" x="43.74" y="128.16" style="stroke: #000000; stroke-width: 0.8"/>
      </g>
     </g>
     <g id="text_1">
      <!-- NSP3 S1717L -->
      <g transform="translate(23.248222 178.002716) rotate(-45) scale(0.08 -0.08)">
       <defs>
        <path id="DejaVuSans-4e" d="M 628 4666 
L 1478 4666 
L 3547 763 
L 3547 4666 
L 4159 4666 
L 4159 0 
L 3309 0 
L 1241 3903 
L 1241 0 
L 628 0 
L 628 4666 
z
" transform="scale(0.015625)"/>
        <path id="DejaVuSans-53" d="M 3425 4513 
L 3425 3897 
Q 3066 4069 2747 4153 
Q 2428 4238 2131 4238 
Q 1616 4238 1336 4038 
Q 1056 3838 1056 3469 
Q 1056 3159 1242 3001 
Q 1428 2844 1947 2747 
L 2328 2669 
Q 3034 2534 3370 2195 
Q 3706 1856 3706 1288 
Q 3706 609 3251 259 
Q 2797 -91 1919 -91 
Q 1588 -91 1214 -16 
Q 841 59 441 206 
L 441 856 
Q 825 641 1194 531 
Q 1563 422 1919 422 
Q 2459 422 2753 634 
Q 3047 847 3047 1241 
Q 3047 1584 2836 1778 
Q 2625 1972 2144 2069 
L 1759 2144 
Q 1053 2284 737 2584 
Q 422 2884 422 3419 
Q 422 4038 858 4394 
Q 1294 4750 2059 4750 
Q 2388 4750 2728 4690 
Q 3069 4631 3425 4513 
z
" transform="scale(0.015625)"/>
        <path id="DejaVuSans-50" d="M 1259 4147 
L 1259 2394 
L 2053 2394 
Q 2494 2394 2734 2622 
Q 2975 2850 2975 3272 
Q 2975 3691 2734 3919 
Q 2494 4147 2053 4147 
L 1259 4147 
z
M 628 4666 
L 2053 4666 
Q 2838 4666 3239 4311 
Q 3641 3956 3641 3272 
Q 3641 2581 3239 2228 
Q 2838 1875 2053 1875 
L 1259 1875 
L 1259 0 
L 628 0 
L 628 4666 
z
" transform="scale(0.015625)"/>
        <path id="DejaVuSans-33" d="M 2597 2516 
Q 3050 2419 3304 2112 
Q 3559 1806 3559 1356 
Q 3559 666 3084 287 
Q 2609 -91 1734 -91 
Q 1441 -91 1130 -33 
Q 819 25 488 141 
L 488 750 
Q 750 597 1062 519 
Q 1375 441 1716 441 
Q 2309 441 2620 675 
Q 2931 909 2931 1356 
Q 2931 1769 2642 2001 
Q 2353 2234 1838 2234 
L 1294 2234 
L 1294 2753 
L 1863 2753 
Q 2328 2753 2575 2939 
Q 2822 3125 2822 3475 
Q 2822 3834 2567 4026 
Q 2313 4219 1838 4219 
Q 1578 4219 1281 4162 
Q 984 4106 628 3988 
L 628 4550 
Q 988 4650 1302 4700 
Q 1616 4750 1894 4750 
Q 2613 4750 3031 4423 
Q 3450 4097 3450 3541 
Q 3450 3153 3228 2886 
Q 3006 2619 2597 2516 
z
" transform="scale(0.015625)"/>
        <path id="DejaVuSans-20" transform="scale(0.015625)"/>
        <path id="DejaVuSans-31" d="M 794 531 
L 1825 531 
L 1825 4091 
L 703 3866 
L 703 4441 
L 1819 4666 
L 2450 4666 
L 2450 531 
L 3481 531 
L 3481 0 
L 794 0 
L 794 531 
z
" transform="scale(0.015625)"/>
        <path id="DejaVuSans-37" d="M 525 4666 
L 3525 4666 
L 3525 4397 
L 1831 0 
L 1172 0 
L 2766 4134 
L 525 4134 
L 525 4666 
z
" transform="scale(0.015625)"/>
        <path id="DejaVuSans-4c" d="M 628 4666 
L 1259 4666 
L 1259 531 
L 3531 531 
L 3531 0 
L 628 0 
L 628 4666 
z
" transform="scale(0.015625)"/>
       </defs>
       <use xlink:href="#DejaVuSans-4e"/>
       <use xlink:href="#DejaVuSans-53" x="74.804688"/>
       <use xlink:href="#DejaVuSans-50" x="138.28125"/>
       <use xlink:href="#DejaVuSans-33" x="198.583984"/>
       <use xlink:href="#DejaVuSans-20" x="262.207031"/>
       <use xlink:href="#DejaVuSans-53" x="293.994141"/>
       <use xlink:href="#DejaVuSans-31" x="357.470703"/>
       <use xlink:href="#DejaVuSans-37" x="421.09375"/>
       <use xlink:href="#DejaVuSans-31" x="484.716797"/>
       <use xlink:href="#DejaVuSans-37" x="548.339844"/>
       <use xlink:href="#DejaVuSans-4c" x="611.962891"/>
      </g>
      <!-- G[S/L]LPINVIV -->
      <g transform="translate(28.809264 185.110553) rotate(-45) scale(0.08 -0.08)">
       <defs>
        <path id="DejaVuSans-47" d="M 3809 666 
L 3809 1919 
L 2778 1919 
L 2778 2438 
L 4434 2438 
L 4434 434 
Q 4069 175 3628 42 
Q 3188 -91 2688 -91 
Q 1594 -91 976 548 
Q 359 1188 359 2328 
Q 359 3472 976 4111 
Q 1594 4750 2688 4750 
Q 3144 4750 3555 4637 
Q 3966 4525 4313 4306 
L 4313 3634 
Q 3963 3931 3569 4081 
Q 3175 4231 2741 4231 
Q 1884 4231 1454 3753 
Q 1025 3275 1025 2328 
Q 1025 1384 1454 906 
Q 1884 428 2741 428 
Q 3075 428 3337 486 
Q 3600 544 3809 666 
z
" transform="scale(0.015625)"/>
        <path id="DejaVuSans-5b" d="M 550 4863 
L 1875 4863 
L 1875 4416 
L 1125 4416 
L 1125 -397 
L 1875 -397 
L 1875 -844 
L 550 -844 
L 550 4863 
z
" transform="scale(0.015625)"/>
        <path id="DejaVuSans-2f" d="M 1625 4666 
L 2156 4666 
L 531 -594 
L 0 -594 
L 1625 4666 
z
" transform="scale(0.015625)"/>
        <path id="DejaVuSans-5d" d="M 1947 4863 
L 1947 -844 
L 622 -844 
L 622 -397 
L 1369 -397 
L 1369 4416 
L 622 4416 
L 622 4863 
L 1947 4863 
z
" transform="scale(0.015625)"/>
        <path id="DejaVuSans-49" d="M 628 4666 
L 1259 4666 
L 1259 0 
L 628 0 
L 628 4666 
z
" transform="scale(0.015625)"/>
        <path id="DejaVuSans-56" d="M 1831 0 
L 50 4666 
L 709 4666 
L 2188 738 
L 3669 4666 
L 4325 4666 
L 2547 0 
L 1831 0 
z
" transform="scale(0.015625)"/>
       </defs>
       <use xlink:href="#DejaVuSans-47"/>
       <use xlink:href="#DejaVuSans-5b" x="77.490234"/>
       <use xlink:href="#DejaVuSans-53" x="116.503906"/>
       <use xlink:href="#DejaVuSans-2f" x="179.980469"/>
       <use xlink:href="#DejaVuSans-4c" x="213.671875"/>
       <use xlink:href="#DejaVuSans-5d" x="269.384766"/>
       <use xlink:href="#DejaVuSans-4c" x="308.398438"/>
       <use xlink:href="#DejaVuSans-50" x="364.111328"/>
       <use xlink:href="#DejaVuSans-49" x="424.414062"/>
       <use xlink:href="#DejaVuSans-4e" x="453.90625"/>
       <use xlink:href="#DejaVuSans-56" x="528.710938"/>
       <use xlink:href="#DejaVuSans-49" x="597.119141"/>
       <use xlink:href="#DejaVuSans-56" x="626.611328"/>
      </g>
     </g>
    </g>
    <g id="xtick_2">
     <g id="line2d_2">
      <g>
       <use xlink:href="#m2b04befc39" x="77.22" y="128.16" style="stroke: #000000; stroke-width: 0.8"/>
      </g>
     </g>
     <g id="text_2">
      <!-- NSP13 A52V -->
      <g transform="translate(58.029741 179.313515) rotate(-45) scale(0.08 -0.08)">
       <defs>
        <path id="DejaVuSans-41" d="M 2188 4044 
L 1331 1722 
L 3047 1722 
L 2188 4044 
z
M 1831 4666 
L 2547 4666 
L 4325 0 
L 3669 0 
L 3244 1197 
L 1141 1197 
L 716 0 
L 50 0 
L 1831 4666 
z
" transform="scale(0.015625)"/>
        <path id="DejaVuSans-35" d="M 691 4666 
L 3169 4666 
L 3169 4134 
L 1269 4134 
L 1269 2991 
Q 1406 3038 1543 3061 
Q 1681 3084 1819 3084 
Q 2600 3084 3056 2656 
Q 3513 2228 3513 1497 
Q 3513 744 3044 326 
Q 2575 -91 1722 -91 
Q 1428 -91 1123 -41 
Q 819 9 494 109 
L 494 744 
Q 775 591 1075 516 
Q 1375 441 1709 441 
Q 2250 441 2565 725 
Q 2881 1009 2881 1497 
Q 2881 1984 2565 2268 
Q 2250 2553 1709 2553 
Q 1456 2553 1204 2497 
Q 953 2441 691 2322 
L 691 4666 
z
" transform="scale(0.015625)"/>
        <path id="DejaVuSans-32" d="M 1228 531 
L 3431 531 
L 3431 0 
L 469 0 
L 469 531 
Q 828 903 1448 1529 
Q 2069 2156 2228 2338 
Q 2531 2678 2651 2914 
Q 2772 3150 2772 3378 
Q 2772 3750 2511 3984 
Q 2250 4219 1831 4219 
Q 1534 4219 1204 4116 
Q 875 4013 500 3803 
L 500 4441 
Q 881 4594 1212 4672 
Q 1544 4750 1819 4750 
Q 2544 4750 2975 4387 
Q 3406 4025 3406 3419 
Q 3406 3131 3298 2873 
Q 3191 2616 2906 2266 
Q 2828 2175 2409 1742 
Q 1991 1309 1228 531 
z
" transform="scale(0.015625)"/>
       </defs>
       <use xlink:href="#DejaVuSans-4e"/>
       <use xlink:href="#DejaVuSans-53" x="74.804688"/>
       <use xlink:href="#DejaVuSans-50" x="138.28125"/>
       <use xlink:href="#DejaVuSans-31" x="198.583984"/>
       <use xlink:href="#DejaVuSans-33" x="262.207031"/>
       <use xlink:href="#DejaVuSans-20" x="325.830078"/>
       <use xlink:href="#DejaVuSans-41" x="357.617188"/>
       <use xlink:href="#DejaVuSans-35" x="426.025391"/>
       <use xlink:href="#DejaVuSans-32" x="489.648438"/>
       <use xlink:href="#DejaVuSans-56" x="553.271484"/>
      </g>
      <!-- SVNPYVCN[A/V] -->
      <g transform="translate(59.676946 190.335189) rotate(-45) scale(0.08 -0.08)">
       <defs>
        <path id="DejaVuSans-59" d="M -13 4666 
L 666 4666 
L 1959 2747 
L 3244 4666 
L 3922 4666 
L 2272 2222 
L 2272 0 
L 1638 0 
L 1638 2222 
L -13 4666 
z
" transform="scale(0.015625)"/>
        <path id="DejaVuSans-43" d="M 4122 4306 
L 4122 3641 
Q 3803 3938 3442 4084 
Q 3081 4231 2675 4231 
Q 1875 4231 1450 3742 
Q 1025 3253 1025 2328 
Q 1025 1406 1450 917 
Q 1875 428 2675 428 
Q 3081 428 3442 575 
Q 3803 722 4122 1019 
L 4122 359 
Q 3791 134 3420 21 
Q 3050 -91 2638 -91 
Q 1578 -91 968 557 
Q 359 1206 359 2328 
Q 359 3453 968 4101 
Q 1578 4750 2638 4750 
Q 3056 4750 3426 4639 
Q 3797 4528 4122 4306 
z
" transform="scale(0.015625)"/>
       </defs>
       <use xlink:href="#DejaVuSans-53"/>
       <use xlink:href="#DejaVuSans-56" x="63.476562"/>
       <use xlink:href="#DejaVuSans-4e" x="131.884766"/>
       <use xlink:href="#DejaVuSans-50" x="206.689453"/>
       <use xlink:href="#DejaVuSans-59" x="264.742188"/>
       <use xlink:href="#DejaVuSans-56" x="325.826172"/>
       <use xlink:href="#DejaVuSans-43" x="394.234375"/>
       <use xlink:href="#DejaVuSans-4e" x="464.058594"/>
       <use xlink:href="#DejaVuSans-5b" x="538.863281"/>
       <use xlink:href="#DejaVuSans-41" x="577.876953"/>
       <use xlink:href="#DejaVuSans-2f" x="646.285156"/>
       <use xlink:href="#DejaVuSans-56" x="679.976562"/>
       <use xlink:href="#DejaVuSans-5d" x="748.384766"/>
      </g>
     </g>
    </g>
    <g id="xtick_3">
     <g id="line2d_3">
      <g>
       <use xlink:href="#m2b04befc39" x="110.7" y="128.16" style="stroke: #000000; stroke-width: 0.8"/>
      </g>
     </g>
     <g id="text_3">
      <!-- Spike D614G -->
      <g transform="translate(90.773908 180.73701) rotate(-45) scale(0.08 -0.08)">
       <defs>
        <path id="DejaVuSans-70" d="M 1159 525 
L 1159 -1331 
L 581 -1331 
L 581 3500 
L 1159 3500 
L 1159 2969 
Q 1341 3281 1617 3432 
Q 1894 3584 2278 3584 
Q 2916 3584 3314 3078 
Q 3713 2572 3713 1747 
Q 3713 922 3314 415 
Q 2916 -91 2278 -91 
Q 1894 -91 1617 61 
Q 1341 213 1159 525 
z
M 3116 1747 
Q 3116 2381 2855 2742 
Q 2594 3103 2138 3103 
Q 1681 3103 1420 2742 
Q 1159 2381 1159 1747 
Q 1159 1113 1420 752 
Q 1681 391 2138 391 
Q 2594 391 2855 752 
Q 3116 1113 3116 1747 
z
" transform="scale(0.015625)"/>
        <path id="DejaVuSans-69" d="M 603 3500 
L 1178 3500 
L 1178 0 
L 603 0 
L 603 3500 
z
M 603 4863 
L 1178 4863 
L 1178 4134 
L 603 4134 
L 603 4863 
z
" transform="scale(0.015625)"/>
        <path id="DejaVuSans-6b" d="M 581 4863 
L 1159 4863 
L 1159 1991 
L 2875 3500 
L 3609 3500 
L 1753 1863 
L 3688 0 
L 2938 0 
L 1159 1709 
L 1159 0 
L 581 0 
L 581 4863 
z
" transform="scale(0.015625)"/>
        <path id="DejaVuSans-65" d="M 3597 1894 
L 3597 1613 
L 953 1613 
Q 991 1019 1311 708 
Q 1631 397 2203 397 
Q 2534 397 2845 478 
Q 3156 559 3463 722 
L 3463 178 
Q 3153 47 2828 -22 
Q 2503 -91 2169 -91 
Q 1331 -91 842 396 
Q 353 884 353 1716 
Q 353 2575 817 3079 
Q 1281 3584 2069 3584 
Q 2775 3584 3186 3129 
Q 3597 2675 3597 1894 
z
M 3022 2063 
Q 3016 2534 2758 2815 
Q 2500 3097 2075 3097 
Q 1594 3097 1305 2825 
Q 1016 2553 972 2059 
L 3022 2063 
z
" transform="scale(0.015625)"/>
        <path id="DejaVuSans-44" d="M 1259 4147 
L 1259 519 
L 2022 519 
Q 2988 519 3436 956 
Q 3884 1394 3884 2338 
Q 3884 3275 3436 3711 
Q 2988 4147 2022 4147 
L 1259 4147 
z
M 628 4666 
L 1925 4666 
Q 3281 4666 3915 4102 
Q 4550 3538 4550 2338 
Q 4550 1131 3912 565 
Q 3275 0 1925 0 
L 628 0 
L 628 4666 
z
" transform="scale(0.015625)"/>
        <path id="DejaVuSans-36" d="M 2113 2584 
Q 1688 2584 1439 2293 
Q 1191 2003 1191 1497 
Q 1191 994 1439 701 
Q 1688 409 2113 409 
Q 2538 409 2786 701 
Q 3034 994 3034 1497 
Q 3034 2003 2786 2293 
Q 2538 2584 2113 2584 
z
M 3366 4563 
L 3366 3988 
Q 3128 4100 2886 4159 
Q 2644 4219 2406 4219 
Q 1781 4219 1451 3797 
Q 1122 3375 1075 2522 
Q 1259 2794 1537 2939 
Q 1816 3084 2150 3084 
Q 2853 3084 3261 2657 
Q 3669 2231 3669 1497 
Q 3669 778 3244 343 
Q 2819 -91 2113 -91 
Q 1303 -91 875 529 
Q 447 1150 447 2328 
Q 447 3434 972 4092 
Q 1497 4750 2381 4750 
Q 2619 4750 2861 4703 
Q 3103 4656 3366 4563 
z
" transform="scale(0.015625)"/>
        <path id="DejaVuSans-34" d="M 2419 4116 
L 825 1625 
L 2419 1625 
L 2419 4116 
z
M 2253 4666 
L 3047 4666 
L 3047 1625 
L 3713 1625 
L 3713 1100 
L 3047 1100 
L 3047 0 
L 2419 0 
L 2419 1100 
L 313 1100 
L 313 1709 
L 2253 4666 
z
" transform="scale(0.015625)"/>
       </defs>
       <use xlink:href="#DejaVuSans-53"/>
       <use xlink:href="#DejaVuSans-70" x="63.476562"/>
       <use xlink:href="#DejaVuSans-69" x="126.953125"/>
       <use xlink:href="#DejaVuSans-6b" x="154.736328"/>
       <use xlink:href="#DejaVuSans-65" x="209.021484"/>
       <use xlink:href="#DejaVuSans-20" x="270.544922"/>
       <use xlink:href="#DejaVuSans-44" x="302.332031"/>
       <use xlink:href="#DejaVuSans-36" x="379.333984"/>
       <use xlink:href="#DejaVuSans-31" x="442.957031"/>
       <use xlink:href="#DejaVuSans-34" x="506.580078"/>
       <use xlink:href="#DejaVuSans-47" x="570.203125"/>
      </g>
      <!-- YQ[D/G]VNCTEV -->
      <g transform="translate(92.469285 191.710511) rotate(-45) scale(0.08 -0.08)">
       <defs>
        <path id="DejaVuSans-51" d="M 2522 4238 
Q 1834 4238 1429 3725 
Q 1025 3213 1025 2328 
Q 1025 1447 1429 934 
Q 1834 422 2522 422 
Q 3209 422 3611 934 
Q 4013 1447 4013 2328 
Q 4013 3213 3611 3725 
Q 3209 4238 2522 4238 
z
M 3406 84 
L 4238 -825 
L 3475 -825 
L 2784 -78 
Q 2681 -84 2626 -87 
Q 2572 -91 2522 -91 
Q 1538 -91 948 567 
Q 359 1225 359 2328 
Q 359 3434 948 4092 
Q 1538 4750 2522 4750 
Q 3503 4750 4090 4092 
Q 4678 3434 4678 2328 
Q 4678 1516 4351 937 
Q 4025 359 3406 84 
z
" transform="scale(0.015625)"/>
        <path id="DejaVuSans-54" d="M -19 4666 
L 3928 4666 
L 3928 4134 
L 2272 4134 
L 2272 0 
L 1638 0 
L 1638 4134 
L -19 4134 
L -19 4666 
z
" transform="scale(0.015625)"/>
        <path id="DejaVuSans-45" d="M 628 4666 
L 3578 4666 
L 3578 4134 
L 1259 4134 
L 1259 2753 
L 3481 2753 
L 3481 2222 
L 1259 2222 
L 1259 531 
L 3634 531 
L 3634 0 
L 628 0 
L 628 4666 
z
" transform="scale(0.015625)"/>
       </defs>
       <use xlink:href="#DejaVuSans-59"/>
       <use xlink:href="#DejaVuSans-51" x="61.083984"/>
       <use xlink:href="#DejaVuSans-5b" x="139.794922"/>
       <use xlink:href="#DejaVuSans-44" x="178.808594"/>
       <use xlink:href="#DejaVuSans-2f" x="255.810547"/>
       <use xlink:href="#DejaVuSans-47" x="289.501953"/>
       <use xlink:href="#DejaVuSans-5d" x="366.992188"/>
       <use xlink:href="#DejaVuSans-56" x="406.005859"/>
       <use xlink:href="#DejaVuSans-4e" x="474.414062"/>
       <use xlink:href="#DejaVuSans-43" x="549.21875"/>
       <use xlink:href="#DejaVuSans-54" x="619.042969"/>
       <use xlink:href="#DejaVuSans-45" x="680.126953"/>
       <use xlink:href="#DejaVuSans-56" x="743.310547"/>
      </g>
     </g>
    </g>
    <g id="xtick_4">
     <g id="line2d_4">
      <g>
       <use xlink:href="#m2b04befc39" x="144.18" y="128.16" style="stroke: #000000; stroke-width: 0.8"/>
      </g>
     </g>
     <g id="text_4">
      <!-- NS3 V256A -->
      <g transform="translate(126.695194 177.015418) rotate(-45) scale(0.08 -0.08)">
       <use xlink:href="#DejaVuSans-4e"/>
       <use xlink:href="#DejaVuSans-53" x="74.804688"/>
       <use xlink:href="#DejaVuSans-33" x="138.28125"/>
       <use xlink:href="#DejaVuSans-20" x="201.904297"/>
       <use xlink:href="#DejaVuSans-56" x="233.691406"/>
       <use xlink:href="#DejaVuSans-32" x="302.099609"/>
       <use xlink:href="#DejaVuSans-35" x="365.722656"/>
       <use xlink:href="#DejaVuSans-36" x="429.345703"/>
       <use xlink:href="#DejaVuSans-41" x="492.96875"/>
      </g>
      <!-- TIDGSSGV[V/A] -->
      <g transform="translate(127.22959 189.149901) rotate(-45) scale(0.08 -0.08)">
       <use xlink:href="#DejaVuSans-54"/>
       <use xlink:href="#DejaVuSans-49" x="61.083984"/>
       <use xlink:href="#DejaVuSans-44" x="90.576172"/>
       <use xlink:href="#DejaVuSans-47" x="167.578125"/>
       <use xlink:href="#DejaVuSans-53" x="245.068359"/>
       <use xlink:href="#DejaVuSans-53" x="308.544922"/>
       <use xlink:href="#DejaVuSans-47" x="372.021484"/>
       <use xlink:href="#DejaVuSans-56" x="449.511719"/>
       <use xlink:href="#DejaVuSans-5b" x="517.919922"/>
       <use xlink:href="#DejaVuSans-56" x="556.933594"/>
       <use xlink:href="#DejaVuSans-2f" x="625.341797"/>
       <use xlink:href="#DejaVuSans-41" x="659.033203"/>
       <use xlink:href="#DejaVuSans-5d" x="727.441406"/>
      </g>
     </g>
    </g>
    <g id="xtick_5">
     <g id="line2d_5">
      <g>
       <use xlink:href="#m2b04befc39" x="177.66" y="128.16" style="stroke: #000000; stroke-width: 0.8"/>
      </g>
     </g>
     <g id="text_5">
      <!-- N P46S -->
      <g transform="translate(165.938556 171.704604) rotate(-45) scale(0.08 -0.08)">
       <use xlink:href="#DejaVuSans-4e"/>
       <use xlink:href="#DejaVuSans-20" x="74.804688"/>
       <use xlink:href="#DejaVuSans-50" x="106.591797"/>
       <use xlink:href="#DejaVuSans-34" x="166.894531"/>
       <use xlink:href="#DejaVuSans-36" x="230.517578"/>
       <use xlink:href="#DejaVuSans-53" x="294.140625"/>
      </g>
      <!-- L[P/S]NNTASWF -->
      <g transform="translate(160.257041 190.054998) rotate(-45) scale(0.08 -0.08)">
       <defs>
        <path id="DejaVuSans-57" d="M 213 4666 
L 850 4666 
L 1831 722 
L 2809 4666 
L 3519 4666 
L 4500 722 
L 5478 4666 
L 6119 4666 
L 4947 0 
L 4153 0 
L 3169 4050 
L 2175 0 
L 1381 0 
L 213 4666 
z
" transform="scale(0.015625)"/>
        <path id="DejaVuSans-46" d="M 628 4666 
L 3309 4666 
L 3309 4134 
L 1259 4134 
L 1259 2759 
L 3109 2759 
L 3109 2228 
L 1259 2228 
L 1259 0 
L 628 0 
L 628 4666 
z
" transform="scale(0.015625)"/>
       </defs>
       <use xlink:href="#DejaVuSans-4c"/>
       <use xlink:href="#DejaVuSans-5b" x="55.712891"/>
       <use xlink:href="#DejaVuSans-50" x="94.726562"/>
       <use xlink:href="#DejaVuSans-2f" x="155.029297"/>
       <use xlink:href="#DejaVuSans-53" x="188.720703"/>
       <use xlink:href="#DejaVuSans-5d" x="252.197266"/>
       <use xlink:href="#DejaVuSans-4e" x="291.210938"/>
       <use xlink:href="#DejaVuSans-4e" x="366.015625"/>
       <use xlink:href="#DejaVuSans-54" x="440.820312"/>
       <use xlink:href="#DejaVuSans-41" x="494.154297"/>
       <use xlink:href="#DejaVuSans-53" x="562.5625"/>
       <use xlink:href="#DejaVuSans-57" x="626.039062"/>
       <use xlink:href="#DejaVuSans-46" x="724.916016"/>
      </g>
     </g>
    </g>
   </g>
   <g id="matplotlib.axis_2">
    <g id="ytick_1">
     <g id="line2d_6">
      <defs>
       <path id="mf4424352d1" d="M 0 0 
L -3.5 0 
" style="stroke: #000000; stroke-width: 0.8"/>
      </defs>
      <g>
       <use xlink:href="#mf4424352d1" x="27" y="116.19464" style="stroke: #000000; stroke-width: 0.8"/>
      </g>
     </g>
     <g id="text_6">
      <!-- 0.00 -->
      <g transform="translate(2.1875 119.234015) scale(0.08 -0.08)">
       <defs>
        <path id="DejaVuSans-30" d="M 2034 4250 
Q 1547 4250 1301 3770 
Q 1056 3291 1056 2328 
Q 1056 1369 1301 889 
Q 1547 409 2034 409 
Q 2525 409 2770 889 
Q 3016 1369 3016 2328 
Q 3016 3291 2770 3770 
Q 2525 4250 2034 4250 
z
M 2034 4750 
Q 2819 4750 3233 4129 
Q 3647 3509 3647 2328 
Q 3647 1150 3233 529 
Q 2819 -91 2034 -91 
Q 1250 -91 836 529 
Q 422 1150 422 2328 
Q 422 3509 836 4129 
Q 1250 4750 2034 4750 
z
" transform="scale(0.015625)"/>
        <path id="DejaVuSans-2e" d="M 684 794 
L 1344 794 
L 1344 0 
L 684 0 
L 684 794 
z
" transform="scale(0.015625)"/>
       </defs>
       <use xlink:href="#DejaVuSans-30"/>
       <use xlink:href="#DejaVuSans-2e" x="63.623047"/>
       <use xlink:href="#DejaVuSans-30" x="95.410156"/>
       <use xlink:href="#DejaVuSans-30" x="159.033203"/>
      </g>
     </g>
    </g>
    <g id="ytick_2">
     <g id="line2d_7">
      <g>
       <use xlink:href="#mf4424352d1" x="27" y="96.827269" style="stroke: #000000; stroke-width: 0.8"/>
      </g>
     </g>
     <g id="text_7">
      <!-- 0.25 -->
      <g transform="translate(2.1875 99.866644) scale(0.08 -0.08)">
       <use xlink:href="#DejaVuSans-30"/>
       <use xlink:href="#DejaVuSans-2e" x="63.623047"/>
       <use xlink:href="#DejaVuSans-32" x="95.410156"/>
       <use xlink:href="#DejaVuSans-35" x="159.033203"/>
      </g>
     </g>
    </g>
    <g id="ytick_3">
     <g id="line2d_8">
      <g>
       <use xlink:href="#mf4424352d1" x="27" y="77.459898" style="stroke: #000000; stroke-width: 0.8"/>
      </g>
     </g>
     <g id="text_8">
      <!-- 0.50 -->
      <g transform="translate(2.1875 80.499273) scale(0.08 -0.08)">
       <use xlink:href="#DejaVuSans-30"/>
       <use xlink:href="#DejaVuSans-2e" x="63.623047"/>
       <use xlink:href="#DejaVuSans-35" x="95.410156"/>
       <use xlink:href="#DejaVuSans-30" x="159.033203"/>
      </g>
     </g>
    </g>
    <g id="ytick_4">
     <g id="line2d_9">
      <g>
       <use xlink:href="#mf4424352d1" x="27" y="58.092526" style="stroke: #000000; stroke-width: 0.8"/>
      </g>
     </g>
     <g id="text_9">
      <!-- 0.75 -->
      <g transform="translate(2.1875 61.131901) scale(0.08 -0.08)">
       <use xlink:href="#DejaVuSans-30"/>
       <use xlink:href="#DejaVuSans-2e" x="63.623047"/>
       <use xlink:href="#DejaVuSans-37" x="95.410156"/>
       <use xlink:href="#DejaVuSans-35" x="159.033203"/>
      </g>
     </g>
    </g>
    <g id="ytick_5">
     <g id="line2d_10">
      <g>
       <use xlink:href="#mf4424352d1" x="27" y="38.725155" style="stroke: #000000; stroke-width: 0.8"/>
      </g>
     </g>
     <g id="text_10">
      <!-- 1.00 -->
      <g transform="translate(2.1875 41.76453) scale(0.08 -0.08)">
       <use xlink:href="#DejaVuSans-31"/>
       <use xlink:href="#DejaVuSans-2e" x="63.623047"/>
       <use xlink:href="#DejaVuSans-30" x="95.410156"/>
       <use xlink:href="#DejaVuSans-30" x="159.033203"/>
      </g>
     </g>
    </g>
    <g id="ytick_6">
     <g id="line2d_11">
      <g>
       <use xlink:href="#mf4424352d1" x="27" y="19.357784" style="stroke: #000000; stroke-width: 0.8"/>
      </g>
     </g>
     <g id="text_11">
      <!-- 1.25 -->
      <g transform="translate(2.1875 22.397159) scale(0.08 -0.08)">
       <use xlink:href="#DejaVuSans-31"/>
       <use xlink:href="#DejaVuSans-2e" x="63.623047"/>
       <use xlink:href="#DejaVuSans-32" x="95.410156"/>
       <use xlink:href="#DejaVuSans-35" x="159.033203"/>
      </g>
     </g>
    </g>
    <g id="text_12">
     <!-- Probability -->
     <g transform="translate(-3.684219 96.506016) rotate(-90) scale(0.09 -0.09)">
      <defs>
       <path id="DejaVuSans-72" d="M 2631 2963 
Q 2534 3019 2420 3045 
Q 2306 3072 2169 3072 
Q 1681 3072 1420 2755 
Q 1159 2438 1159 1844 
L 1159 0 
L 581 0 
L 581 3500 
L 1159 3500 
L 1159 2956 
Q 1341 3275 1631 3429 
Q 1922 3584 2338 3584 
Q 2397 3584 2469 3576 
Q 2541 3569 2628 3553 
L 2631 2963 
z
" transform="scale(0.015625)"/>
       <path id="DejaVuSans-6f" d="M 1959 3097 
Q 1497 3097 1228 2736 
Q 959 2375 959 1747 
Q 959 1119 1226 758 
Q 1494 397 1959 397 
Q 2419 397 2687 759 
Q 2956 1122 2956 1747 
Q 2956 2369 2687 2733 
Q 2419 3097 1959 3097 
z
M 1959 3584 
Q 2709 3584 3137 3096 
Q 3566 2609 3566 1747 
Q 3566 888 3137 398 
Q 2709 -91 1959 -91 
Q 1206 -91 779 398 
Q 353 888 353 1747 
Q 353 2609 779 3096 
Q 1206 3584 1959 3584 
z
" transform="scale(0.015625)"/>
       <path id="DejaVuSans-62" d="M 3116 1747 
Q 3116 2381 2855 2742 
Q 2594 3103 2138 3103 
Q 1681 3103 1420 2742 
Q 1159 2381 1159 1747 
Q 1159 1113 1420 752 
Q 1681 391 2138 391 
Q 2594 391 2855 752 
Q 3116 1113 3116 1747 
z
M 1159 2969 
Q 1341 3281 1617 3432 
Q 1894 3584 2278 3584 
Q 2916 3584 3314 3078 
Q 3713 2572 3713 1747 
Q 3713 922 3314 415 
Q 2916 -91 2278 -91 
Q 1894 -91 1617 61 
Q 1341 213 1159 525 
L 1159 0 
L 581 0 
L 581 4863 
L 1159 4863 
L 1159 2969 
z
" transform="scale(0.015625)"/>
       <path id="DejaVuSans-61" d="M 2194 1759 
Q 1497 1759 1228 1600 
Q 959 1441 959 1056 
Q 959 750 1161 570 
Q 1363 391 1709 391 
Q 2188 391 2477 730 
Q 2766 1069 2766 1631 
L 2766 1759 
L 2194 1759 
z
M 3341 1997 
L 3341 0 
L 2766 0 
L 2766 531 
Q 2569 213 2275 61 
Q 1981 -91 1556 -91 
Q 1019 -91 701 211 
Q 384 513 384 1019 
Q 384 1609 779 1909 
Q 1175 2209 1959 2209 
L 2766 2209 
L 2766 2266 
Q 2766 2663 2505 2880 
Q 2244 3097 1772 3097 
Q 1472 3097 1187 3025 
Q 903 2953 641 2809 
L 641 3341 
Q 956 3463 1253 3523 
Q 1550 3584 1831 3584 
Q 2591 3584 2966 3190 
Q 3341 2797 3341 1997 
z
" transform="scale(0.015625)"/>
       <path id="DejaVuSans-6c" d="M 603 4863 
L 1178 4863 
L 1178 0 
L 603 0 
L 603 4863 
z
" transform="scale(0.015625)"/>
       <path id="DejaVuSans-74" d="M 1172 4494 
L 1172 3500 
L 2356 3500 
L 2356 3053 
L 1172 3053 
L 1172 1153 
Q 1172 725 1289 603 
Q 1406 481 1766 481 
L 2356 481 
L 2356 0 
L 1766 0 
Q 1100 0 847 248 
Q 594 497 594 1153 
L 594 3053 
L 172 3053 
L 172 3500 
L 594 3500 
L 594 4494 
L 1172 4494 
z
" transform="scale(0.015625)"/>
       <path id="DejaVuSans-79" d="M 2059 -325 
Q 1816 -950 1584 -1140 
Q 1353 -1331 966 -1331 
L 506 -1331 
L 506 -850 
L 844 -850 
Q 1081 -850 1212 -737 
Q 1344 -625 1503 -206 
L 1606 56 
L 191 3500 
L 800 3500 
L 1894 763 
L 2988 3500 
L 3597 3500 
L 2059 -325 
z
" transform="scale(0.015625)"/>
      </defs>
      <use xlink:href="#DejaVuSans-50"/>
      <use xlink:href="#DejaVuSans-72" x="58.552734"/>
      <use xlink:href="#DejaVuSans-6f" x="97.416016"/>
      <use xlink:href="#DejaVuSans-62" x="158.597656"/>
      <use xlink:href="#DejaVuSans-61" x="222.074219"/>
      <use xlink:href="#DejaVuSans-62" x="283.353516"/>
      <use xlink:href="#DejaVuSans-69" x="346.830078"/>
      <use xlink:href="#DejaVuSans-6c" x="374.613281"/>
      <use xlink:href="#DejaVuSans-69" x="402.396484"/>
      <use xlink:href="#DejaVuSans-74" x="430.179688"/>
      <use xlink:href="#DejaVuSans-79" x="469.388672"/>
     </g>
    </g>
   </g>
   <g id="patch_5">
    <path d="M 27 128.16 
L 27 17.28 
" style="fill: none; stroke: #000000; stroke-width: 0.8; stroke-linejoin: miter; stroke-linecap: square"/>
   </g>
   <g id="patch_6">
    <path d="M 194.4 128.16 
L 194.4 17.28 
" style="fill: none; stroke: #000000; stroke-width: 0.8; stroke-linejoin: miter; stroke-linecap: square"/>
   </g>
   <g id="patch_7">
    <path d="M 27 128.16 
L 194.4 128.16 
" style="fill: none; stroke: #000000; stroke-width: 0.8; stroke-linejoin: miter; stroke-linecap: square"/>
   </g>
   <g id="patch_8">
    <path d="M 27 17.28 
L 194.4 17.28 
" style="fill: none; stroke: #000000; stroke-width: 0.8; stroke-linejoin: miter; stroke-linecap: square"/>
   </g>
   <g id="legend_1">
    <g id="patch_9">
     <path d="M 33.3 50.900625 
L 81.949219 50.900625 
Q 83.749219 50.900625 83.749219 49.100625 
L 83.749219 23.58 
Q 83.749219 21.78 81.949219 21.78 
L 33.3 21.78 
Q 31.5 21.78 31.5 23.58 
L 31.5 49.100625 
Q 31.5 50.900625 33.3 50.900625 
z
" style="fill: #ffffff; opacity: 0.8; stroke: #cccccc; stroke-linejoin: miter"/>
    </g>
    <g id="patch_10">
     <path d="M 35.1 32.218594 
L 53.1 32.218594 
L 53.1 25.918594 
L 35.1 25.918594 
z
" style="fill: #72b6a1; stroke: #595959; stroke-width: 1.25; stroke-linejoin: miter"/>
    </g>
    <g id="text_13">
     <!-- WT -->
     <g transform="translate(60.3 32.218594) scale(0.09 -0.09)">
      <use xlink:href="#DejaVuSans-57"/>
      <use xlink:href="#DejaVuSans-54" x="98.876953"/>
     </g>
    </g>
    <g id="patch_11">
     <path d="M 35.1 45.428906 
L 53.1 45.428906 
L 53.1 39.128906 
L 35.1 39.128906 
z
" style="fill: #e99675; stroke: #595959; stroke-width: 1.25; stroke-linejoin: miter"/>
    </g>
    <g id="text_14">
     <!-- MUT -->
     <g transform="translate(60.3 45.428906) scale(0.09 -0.09)">
      <defs>
       <path id="DejaVuSans-4d" d="M 628 4666 
L 1569 4666 
L 2759 1491 
L 3956 4666 
L 4897 4666 
L 4897 0 
L 4281 0 
L 4281 4097 
L 3078 897 
L 2444 897 
L 1241 4097 
L 1241 0 
L 628 0 
L 628 4666 
z
" transform="scale(0.015625)"/>
       <path id="DejaVuSans-55" d="M 556 4666 
L 1191 4666 
L 1191 1831 
Q 1191 1081 1462 751 
Q 1734 422 2344 422 
Q 2950 422 3222 751 
Q 3494 1081 3494 1831 
L 3494 4666 
L 4128 4666 
L 4128 1753 
Q 4128 841 3676 375 
Q 3225 -91 2344 -91 
Q 1459 -91 1007 375 
Q 556 841 556 1753 
L 556 4666 
z
" transform="scale(0.015625)"/>
      </defs>
      <use xlink:href="#DejaVuSans-4d"/>
      <use xlink:href="#DejaVuSans-55" x="86.279297"/>
      <use xlink:href="#DejaVuSans-54" x="159.472656"/>
     </g>
    </g>
   </g>
  </g>
 </g>
 <defs>
  <clipPath id="pd401fce21f">
   <rect x="27" y="17.28" width="167.4" height="110.88"/>
  </clipPath>
 </defs>
</svg>
