<?xml version="1.0" encoding="utf-8" standalone="no"?>
<!DOCTYPE svg PUBLIC "-//W3C//DTD SVG 1.1//EN"
  "http://www.w3.org/Graphics/SVG/1.1/DTD/svg11.dtd">
<svg xmlns:xlink="http://www.w3.org/1999/xlink" width="190.8pt" height="133.2pt" viewBox="0 0 190.8 133.2" xmlns="http://www.w3.org/2000/svg" version="1.1">
 <metadata>
  <rdf:RDF xmlns:dc="http://purl.org/dc/elements/1.1/" xmlns:cc="http://creativecommons.org/ns#" xmlns:rdf="http://www.w3.org/1999/02/22-rdf-syntax-ns#">
   <cc:Work>
    <dc:type rdf:resource="http://purl.org/dc/dcmitype/StillImage"/>
    <dc:date>2024-03-05T10:06:24.521043</dc:date>
    <dc:format>image/svg+xml</dc:format>
    <dc:creator>
     <cc:Agent>
      <dc:title>Matplotlib v3.7.4, https://matplotlib.org/</dc:title>
     </cc:Agent>
    </dc:creator>
   </cc:Work>
  </rdf:RDF>
 </metadata>
 <defs>
  <style type="text/css">*{stroke-linejoin: round; stroke-linecap: butt}</style>
 </defs>
 <g id="figure_1">
  <g id="patch_1">
   <path d="M 0 133.2 
L 190.8 133.2 
L 190.8 0 
L 0 0 
z
" style="fill: #ffffff"/>
  </g>
  <g id="axes_1">
   <g id="patch_2">
    <path d="M 42.86 95.92 
L 181.08 95.92 
L 181.08 9.72 
L 42.86 9.72 
z
" style="fill: #ffffff"/>
   </g>
   <g id="PolyCollection_1">
    <path d="M 70.836723 -68.270476 
L 70.836723 178.015238 
L 161.512748 178.015238 
L 161.512748 -68.270476 
L 161.512748 -68.270476 
L 70.836723 -68.270476 
z
" clip-path="url(#pa386e12e05)" style="fill: #808080; fill-opacity: 0.2; stroke: #808080; stroke-opacity: 0.2"/>
   </g>
   <g id="matplotlib.axis_1">
    <g id="xtick_1">
     <g id="line2d_1">
      <defs>
       <path id="mfa2f8bfcb5" d="M 0 0 
L 0 3.5 
" style="stroke: #000000; stroke-width: 0.8"/>
      </defs>
      <g>
       <use xlink:href="#mfa2f8bfcb5" x="49.142727" y="95.92" style="stroke: #000000; stroke-width: 0.8"/>
      </g>
     </g>
     <g id="text_1">
      <!-- 0.00 -->
      <g transform="translate(40.236477 108.99875) scale(0.08 -0.08)">
       <defs>
        <path id="DejaVuSans-30" d="M 2034 4250 
Q 1547 4250 1301 3770 
Q 1056 3291 1056 2328 
Q 1056 1369 1301 889 
Q 1547 409 2034 409 
Q 2525 409 2770 889 
Q 3016 1369 3016 2328 
Q 3016 3291 2770 3770 
Q 2525 4250 2034 4250 
z
M 2034 4750 
Q 2819 4750 3233 4129 
Q 3647 3509 3647 2328 
Q 3647 1150 3233 529 
Q 2819 -91 2034 -91 
Q 1250 -91 836 529 
Q 422 1150 422 2328 
Q 422 3509 836 4129 
Q 1250 4750 2034 4750 
z
" transform="scale(0.015625)"/>
        <path id="DejaVuSans-2e" d="M 684 794 
L 1344 794 
L 1344 0 
L 684 0 
L 684 794 
z
" transform="scale(0.015625)"/>
       </defs>
       <use xlink:href="#DejaVuSans-30"/>
       <use xlink:href="#DejaVuSans-2e" x="63.623047"/>
       <use xlink:href="#DejaVuSans-30" x="95.410156"/>
       <use xlink:href="#DejaVuSans-30" x="159.033203"/>
      </g>
     </g>
    </g>
    <g id="xtick_2">
     <g id="line2d_2">
      <g>
       <use xlink:href="#mfa2f8bfcb5" x="80.556364" y="95.92" style="stroke: #000000; stroke-width: 0.8"/>
      </g>
     </g>
     <g id="text_2">
      <!-- 0.25 -->
      <g transform="translate(71.650114 108.99875) scale(0.08 -0.08)">
       <defs>
        <path id="DejaVuSans-32" d="M 1228 531 
L 3431 531 
L 3431 0 
L 469 0 
L 469 531 
Q 828 903 1448 1529 
Q 2069 2156 2228 2338 
Q 2531 2678 2651 2914 
Q 2772 3150 2772 3378 
Q 2772 3750 2511 3984 
Q 2250 4219 1831 4219 
Q 1534 4219 1204 4116 
Q 875 4013 500 3803 
L 500 4441 
Q 881 4594 1212 4672 
Q 1544 4750 1819 4750 
Q 2544 4750 2975 4387 
Q 3406 4025 3406 3419 
Q 3406 3131 3298 2873 
Q 3191 2616 2906 2266 
Q 2828 2175 2409 1742 
Q 1991 1309 1228 531 
z
" transform="scale(0.015625)"/>
        <path id="DejaVuSans-35" d="M 691 4666 
L 3169 4666 
L 3169 4134 
L 1269 4134 
L 1269 2991 
Q 1406 3038 1543 3061 
Q 1681 3084 1819 3084 
Q 2600 3084 3056 2656 
Q 3513 2228 3513 1497 
Q 3513 744 3044 326 
Q 2575 -91 1722 -91 
Q 1428 -91 1123 -41 
Q 819 9 494 109 
L 494 744 
Q 775 591 1075 516 
Q 1375 441 1709 441 
Q 2250 441 2565 725 
Q 2881 1009 2881 1497 
Q 2881 1984 2565 2268 
Q 2250 2553 1709 2553 
Q 1456 2553 1204 2497 
Q 953 2441 691 2322 
L 691 4666 
z
" transform="scale(0.015625)"/>
       </defs>
       <use xlink:href="#DejaVuSans-30"/>
       <use xlink:href="#DejaVuSans-2e" x="63.623047"/>
       <use xlink:href="#DejaVuSans-32" x="95.410156"/>
       <use xlink:href="#DejaVuSans-35" x="159.033203"/>
      </g>
     </g>
    </g>
    <g id="xtick_3">
     <g id="line2d_3">
      <g>
       <use xlink:href="#mfa2f8bfcb5" x="111.97" y="95.92" style="stroke: #000000; stroke-width: 0.8"/>
      </g>
     </g>
     <g id="text_3">
      <!-- 0.50 -->
      <g transform="translate(103.06375 108.99875) scale(0.08 -0.08)">
       <use xlink:href="#DejaVuSans-30"/>
       <use xlink:href="#DejaVuSans-2e" x="63.623047"/>
       <use xlink:href="#DejaVuSans-35" x="95.410156"/>
       <use xlink:href="#DejaVuSans-30" x="159.033203"/>
      </g>
     </g>
    </g>
    <g id="xtick_4">
     <g id="line2d_4">
      <g>
       <use xlink:href="#mfa2f8bfcb5" x="143.383636" y="95.92" style="stroke: #000000; stroke-width: 0.8"/>
      </g>
     </g>
     <g id="text_4">
      <!-- 0.75 -->
      <g transform="translate(134.477386 108.99875) scale(0.08 -0.08)">
       <defs>
        <path id="DejaVuSans-37" d="M 525 4666 
L 3525 4666 
L 3525 4397 
L 1831 0 
L 1172 0 
L 2766 4134 
L 525 4134 
L 525 4666 
z
" transform="scale(0.015625)"/>
       </defs>
       <use xlink:href="#DejaVuSans-30"/>
       <use xlink:href="#DejaVuSans-2e" x="63.623047"/>
       <use xlink:href="#DejaVuSans-37" x="95.410156"/>
       <use xlink:href="#DejaVuSans-35" x="159.033203"/>
      </g>
     </g>
    </g>
    <g id="xtick_5">
     <g id="line2d_5">
      <g>
       <use xlink:href="#mfa2f8bfcb5" x="174.797273" y="95.92" style="stroke: #000000; stroke-width: 0.8"/>
      </g>
     </g>
     <g id="text_5">
      <!-- 1.00 -->
      <g transform="translate(165.891023 108.99875) scale(0.08 -0.08)">
       <defs>
        <path id="DejaVuSans-31" d="M 794 531 
L 1825 531 
L 1825 4091 
L 703 3866 
L 703 4441 
L 1819 4666 
L 2450 4666 
L 2450 531 
L 3481 531 
L 3481 0 
L 794 0 
L 794 531 
z
" transform="scale(0.015625)"/>
       </defs>
       <use xlink:href="#DejaVuSans-31"/>
       <use xlink:href="#DejaVuSans-2e" x="63.623047"/>
       <use xlink:href="#DejaVuSans-30" x="95.410156"/>
       <use xlink:href="#DejaVuSans-30" x="159.033203"/>
      </g>
     </g>
    </g>
    <g id="text_6">
     <!-- FPR -->
     <g transform="translate(103.541641 121.501094) scale(0.09 -0.09)">
      <defs>
       <path id="DejaVuSans-46" d="M 628 4666 
L 3309 4666 
L 3309 4134 
L 1259 4134 
L 1259 2759 
L 3109 2759 
L 3109 2228 
L 1259 2228 
L 1259 0 
L 628 0 
L 628 4666 
z
" transform="scale(0.015625)"/>
       <path id="DejaVuSans-50" d="M 1259 4147 
L 1259 2394 
L 2053 2394 
Q 2494 2394 2734 2622 
Q 2975 2850 2975 3272 
Q 2975 3691 2734 3919 
Q 2494 4147 2053 4147 
L 1259 4147 
z
M 628 4666 
L 2053 4666 
Q 2838 4666 3239 4311 
Q 3641 3956 3641 3272 
Q 3641 2581 3239 2228 
Q 2838 1875 2053 1875 
L 1259 1875 
L 1259 0 
L 628 0 
L 628 4666 
z
" transform="scale(0.015625)"/>
       <path id="DejaVuSans-52" d="M 2841 2188 
Q 3044 2119 3236 1894 
Q 3428 1669 3622 1275 
L 4263 0 
L 3584 0 
L 2988 1197 
Q 2756 1666 2539 1819 
Q 2322 1972 1947 1972 
L 1259 1972 
L 1259 0 
L 628 0 
L 628 4666 
L 2053 4666 
Q 2853 4666 3247 4331 
Q 3641 3997 3641 3322 
Q 3641 2881 3436 2590 
Q 3231 2300 2841 2188 
z
M 1259 4147 
L 1259 2491 
L 2053 2491 
Q 2509 2491 2742 2702 
Q 2975 2913 2975 3322 
Q 2975 3731 2742 3939 
Q 2509 4147 2053 4147 
L 1259 4147 
z
" transform="scale(0.015625)"/>
      </defs>
      <use xlink:href="#DejaVuSans-46"/>
      <use xlink:href="#DejaVuSans-50" x="57.519531"/>
      <use xlink:href="#DejaVuSans-52" x="117.822266"/>
     </g>
    </g>
   </g>
   <g id="matplotlib.axis_2">
    <g id="ytick_1">
     <g id="line2d_6">
      <defs>
       <path id="m6ef3012f59" d="M 0 0 
L -3.5 0 
" style="stroke: #000000; stroke-width: 0.8"/>
      </defs>
      <g>
       <use xlink:href="#m6ef3012f59" x="42.86" y="95.92" style="stroke: #000000; stroke-width: 0.8"/>
      </g>
     </g>
     <g id="text_7">
      <!-- 0.00 -->
      <g transform="translate(18.0475 98.959375) scale(0.08 -0.08)">
       <use xlink:href="#DejaVuSans-30"/>
       <use xlink:href="#DejaVuSans-2e" x="63.623047"/>
       <use xlink:href="#DejaVuSans-30" x="95.410156"/>
       <use xlink:href="#DejaVuSans-30" x="159.033203"/>
      </g>
     </g>
    </g>
    <g id="ytick_2">
     <g id="line2d_7">
      <g>
       <use xlink:href="#m6ef3012f59" x="42.86" y="75.39619" style="stroke: #000000; stroke-width: 0.8"/>
      </g>
     </g>
     <g id="text_8">
      <!-- 0.25 -->
      <g transform="translate(18.0475 78.435565) scale(0.08 -0.08)">
       <use xlink:href="#DejaVuSans-30"/>
       <use xlink:href="#DejaVuSans-2e" x="63.623047"/>
       <use xlink:href="#DejaVuSans-32" x="95.410156"/>
       <use xlink:href="#DejaVuSans-35" x="159.033203"/>
      </g>
     </g>
    </g>
    <g id="ytick_3">
     <g id="line2d_8">
      <g>
       <use xlink:href="#m6ef3012f59" x="42.86" y="54.872381" style="stroke: #000000; stroke-width: 0.8"/>
      </g>
     </g>
     <g id="text_9">
      <!-- 0.50 -->
      <g transform="translate(18.0475 57.911756) scale(0.08 -0.08)">
       <use xlink:href="#DejaVuSans-30"/>
       <use xlink:href="#DejaVuSans-2e" x="63.623047"/>
       <use xlink:href="#DejaVuSans-35" x="95.410156"/>
       <use xlink:href="#DejaVuSans-30" x="159.033203"/>
      </g>
     </g>
    </g>
    <g id="ytick_4">
     <g id="line2d_9">
      <g>
       <use xlink:href="#m6ef3012f59" x="42.86" y="34.348571" style="stroke: #000000; stroke-width: 0.8"/>
      </g>
     </g>
     <g id="text_10">
      <!-- 0.75 -->
      <g transform="translate(18.0475 37.387946) scale(0.08 -0.08)">
       <use xlink:href="#DejaVuSans-30"/>
       <use xlink:href="#DejaVuSans-2e" x="63.623047"/>
       <use xlink:href="#DejaVuSans-37" x="95.410156"/>
       <use xlink:href="#DejaVuSans-35" x="159.033203"/>
      </g>
     </g>
    </g>
    <g id="ytick_5">
     <g id="line2d_10">
      <g>
       <use xlink:href="#m6ef3012f59" x="42.86" y="13.824762" style="stroke: #000000; stroke-width: 0.8"/>
      </g>
     </g>
     <g id="text_11">
      <!-- 1.00 -->
      <g transform="translate(18.0475 16.864137) scale(0.08 -0.08)">
       <use xlink:href="#DejaVuSans-31"/>
       <use xlink:href="#DejaVuSans-2e" x="63.623047"/>
       <use xlink:href="#DejaVuSans-30" x="95.410156"/>
       <use xlink:href="#DejaVuSans-30" x="159.033203"/>
      </g>
     </g>
    </g>
    <g id="text_12">
     <!-- TPR -->
     <g transform="translate(12.175781 61.408672) rotate(-90) scale(0.09 -0.09)">
      <defs>
       <path id="DejaVuSans-54" d="M -19 4666 
L 3928 4666 
L 3928 4134 
L 2272 4134 
L 2272 0 
L 1638 0 
L 1638 4134 
L -19 4134 
L -19 4666 
z
" transform="scale(0.015625)"/>
      </defs>
      <use xlink:href="#DejaVuSans-54"/>
      <use xlink:href="#DejaVuSans-50" x="61.083984"/>
      <use xlink:href="#DejaVuSans-52" x="121.386719"/>
     </g>
    </g>
   </g>
   <g id="line2d_11">
    <path d="M 49.142727 95.92 
L 49.142727 88.472789 
L 49.264604 88.472789 
L 49.264604 85.18898 
L 49.508356 85.18898 
L 49.508356 83.077959 
L 49.630233 83.077959 
L 49.630233 81.787891 
L 49.752109 81.787891 
L 49.752109 76.217143 
L 49.995862 76.217143 
L 49.995862 71.350068 
L 50.117738 71.350068 
L 50.117738 69.239048 
L 50.239615 69.239048 
L 50.239615 68.711293 
L 50.361491 68.711293 
L 50.361491 68.300816 
L 50.483367 68.300816 
L 50.483367 68.007619 
L 50.605244 68.007619 
L 50.605244 65.837959 
L 50.72712 65.837959 
L 50.72712 65.662041 
L 50.848997 65.662041 
L 50.848997 64.254694 
L 50.970873 64.254694 
L 50.970873 60.619048 
L 51.092749 60.619048 
L 51.092749 60.267211 
L 51.214626 60.267211 
L 51.214626 57.042041 
L 51.458378 56.983401 
L 51.458378 56.631565 
L 51.580255 56.631565 
L 51.580255 56.397007 
L 51.702131 56.397007 
L 51.702131 56.221088 
L 52.06776 56.162449 
L 52.06776 53.640952 
L 52.311513 53.640952 
L 52.311513 53.113197 
L 52.433389 53.113197 
L 52.433389 52.995918 
L 52.555266 52.995918 
L 52.555266 52.350884 
L 52.677142 52.350884 
L 52.677142 50.943537 
L 52.799019 50.943537 
L 52.799019 50.70898 
L 52.920895 50.70898 
L 52.920895 49.360272 
L 53.164648 49.301633 
L 53.164648 47.952925 
L 53.286524 47.952925 
L 53.286524 47.073333 
L 53.4084 47.073333 
L 53.4084 46.956054 
L 53.530277 46.956054 
L 53.530277 46.662857 
L 53.652153 46.662857 
L 53.652153 46.135102 
L 53.77403 46.135102 
L 53.77403 45.490068 
L 53.895906 45.490068 
L 53.895906 44.610476 
L 54.017782 44.610476 
L 54.017782 43.08585 
L 54.139659 43.08585 
L 54.139659 42.792653 
L 54.261535 42.792653 
L 54.261535 42.264898 
L 54.383412 42.264898 
L 54.383412 42.08898 
L 54.505288 42.08898 
L 54.505288 41.971701 
L 54.749041 41.971701 
L 54.749041 41.678503 
L 54.992793 41.619864 
L 54.992793 40.91619 
L 55.11467 40.91619 
L 55.11467 40.095238 
L 55.236546 40.095238 
L 55.236546 39.743401 
L 55.480299 39.743401 
L 55.480299 39.567483 
L 55.602175 39.567483 
L 55.602175 39.391565 
L 55.967804 39.391565 
L 55.967804 39.274286 
L 56.089681 39.274286 
L 56.089681 39.157007 
L 56.211557 39.157007 
L 56.211557 38.922449 
L 56.333434 38.922449 
L 56.333434 38.453333 
L 56.45531 38.453333 
L 56.45531 37.632381 
L 56.577186 37.632381 
L 56.577186 37.515102 
L 56.820939 37.515102 
L 56.820939 36.928707 
L 56.942815 36.928707 
L 56.942815 36.576871 
L 57.064692 36.576871 
L 57.064692 36.400952 
L 57.186568 36.400952 
L 57.186568 36.166395 
L 57.430321 36.107755 
L 57.430321 35.755918 
L 57.552197 35.755918 
L 57.552197 34.817687 
L 57.674074 34.817687 
L 57.674074 34.52449 
L 57.917826 34.46585 
L 57.917826 34.348571 
L 58.039703 34.348571 
L 58.039703 34.114014 
L 58.161579 34.114014 
L 58.161579 33.644898 
L 58.283456 33.644898 
L 58.283456 33.293061 
L 58.527208 33.234422 
L 58.527208 33.175782 
L 58.649085 33.175782 
L 58.649085 33.058503 
L 58.770961 33.058503 
L 58.770961 32.882585 
L 58.892837 32.882585 
L 58.892837 32.589388 
L 59.014714 32.589388 
L 59.014714 32.413469 
L 59.13659 32.413469 
L 59.13659 32.29619 
L 59.380343 32.237551 
L 59.380343 32.178912 
L 59.624096 32.178912 
L 59.624096 32.002993 
L 59.745972 32.002993 
L 59.745972 31.885714 
L 59.867849 31.885714 
L 59.867849 31.768435 
L 60.355354 31.709796 
L 60.355354 31.533878 
L 60.47723 31.533878 
L 60.47723 31.416599 
L 60.599107 31.416599 
L 60.599107 31.064762 
L 61.086612 31.006122 
L 61.086612 30.888844 
L 61.208489 30.888844 
L 61.208489 30.771565 
L 61.330365 30.771565 
L 61.330365 30.654286 
L 61.695994 30.654286 
L 61.695994 30.478367 
L 61.939747 30.419728 
L 61.939747 30.361088 
L 62.061623 30.361088 
L 62.061623 30.18517 
L 62.549129 30.126531 
L 62.549129 30.009252 
L 62.792882 30.009252 
L 62.792882 29.891973 
L 63.036634 29.891973 
L 63.036634 29.657415 
L 63.158511 29.657415 
L 63.158511 29.540136 
L 63.280387 29.540136 
L 63.280387 28.895102 
L 63.52414 28.895102 
L 63.52414 28.719184 
L 63.767893 28.719184 
L 63.767893 28.601905 
L 64.011645 28.601905 
L 64.011645 28.484626 
L 64.255398 28.425986 
L 64.255398 28.367347 
L 64.499151 28.308707 
L 64.499151 28.250068 
L 64.742904 28.250068 
L 64.742904 28.132789 
L 64.86478 28.132789 
L 64.86478 27.839592 
L 65.108533 27.839592 
L 65.108533 27.546395 
L 65.230409 27.546395 
L 65.230409 27.370476 
L 65.596038 27.311837 
L 65.596038 27.253197 
L 65.961667 27.194558 
L 65.961667 27.135918 
L 66.20542 27.077279 
L 66.20542 26.96 
L 66.449173 26.901361 
L 66.449173 26.549524 
L 66.571049 26.549524 
L 66.571049 26.373605 
L 67.058555 26.373605 
L 67.058555 26.256327 
L 67.302308 26.197687 
L 67.302308 26.139048 
L 67.54606 26.080408 
L 67.54606 25.963129 
L 67.667937 25.963129 
L 67.667937 25.787211 
L 68.277319 25.728571 
L 68.277319 25.669932 
L 68.521071 25.669932 
L 68.521071 25.142177 
L 68.642948 25.142177 
L 68.642948 24.673061 
L 68.764824 24.673061 
L 68.764824 24.555782 
L 68.8867 24.555782 
L 68.8867 24.321224 
L 69.008577 24.321224 
L 69.008577 24.028027 
L 69.496082 23.969388 
L 69.496082 23.910748 
L 69.739835 23.852109 
L 69.739835 23.793469 
L 69.983588 23.793469 
L 69.983588 23.67619 
L 70.105464 23.67619 
L 70.105464 23.265714 
L 70.349217 23.265714 
L 70.349217 23.148435 
L 70.836723 23.148435 
L 70.836723 23.031156 
L 71.324228 22.972517 
L 71.324228 22.913878 
L 71.567981 22.855238 
L 71.567981 22.737959 
L 72.299239 22.67932 
L 72.299239 22.62068 
L 73.761756 22.562041 
L 73.761756 22.503401 
L 74.249261 22.503401 
L 74.249261 22.268844 
L 74.736767 22.268844 
L 74.736767 21.975646 
L 74.980519 21.917007 
L 74.980519 21.799728 
L 75.224272 21.741088 
L 75.224272 21.62381 
L 75.95553 21.56517 
L 75.95553 21.447891 
L 76.930541 21.389252 
L 76.930541 21.330612 
L 78.149305 21.271973 
L 78.149305 21.213333 
L 78.271182 21.213333 
L 78.271182 21.096054 
L 79.489945 21.037415 
L 79.489945 20.978776 
L 80.34308 20.920136 
L 80.34308 20.802857 
L 80.708709 20.744218 
L 80.708709 20.685578 
L 81.074338 20.685578 
L 81.074338 20.50966 
L 81.439967 20.45102 
L 81.439967 20.392381 
L 81.805597 20.333741 
L 81.805597 20.216463 
L 81.927473 20.216463 
L 81.927473 19.981905 
L 82.293102 19.923265 
L 82.293102 19.864626 
L 82.780608 19.805986 
L 82.780608 19.688707 
L 83.389989 19.688707 
L 83.389989 19.512789 
L 85.461888 19.45415 
L 85.461888 19.39551 
L 88.508797 19.336871 
L 88.508797 19.278231 
L 89.849437 19.219592 
L 89.849437 19.160952 
L 90.09319 19.102313 
L 90.09319 19.043673 
L 90.336943 18.985034 
L 90.336943 18.926395 
L 90.580696 18.926395 
L 90.580696 18.809116 
L 91.555707 18.750476 
L 91.555707 18.691837 
L 93.749482 18.633197 
L 93.749482 18.574558 
L 94.968245 18.515918 
L 94.968245 18.457279 
L 95.090122 18.457279 
L 95.090122 18.34 
L 95.699504 18.34 
L 95.699504 18.105442 
L 97.649526 18.046803 
L 97.649526 17.988163 
L 100.940188 17.929524 
L 100.940188 17.812245 
L 101.915199 17.753605 
L 101.915199 17.694966 
L 103.255839 17.636327 
L 103.255839 17.577687 
L 104.718356 17.519048 
L 104.718356 17.28449 
L 105.937119 17.22585 
L 105.937119 17.167211 
L 107.521512 17.108571 
L 107.521512 16.991293 
L 111.177804 16.932653 
L 111.177804 16.874014 
L 112.274691 16.815374 
L 112.274691 16.756735 
L 112.396567 16.756735 
L 112.396567 16.639456 
L 113.737207 16.580816 
L 113.737207 16.463537 
L 115.443477 16.404898 
L 115.443477 16.287619 
L 117.02787 16.22898 
L 117.02787 16.17034 
L 117.881004 16.111701 
L 117.881004 15.994422 
L 122.268554 15.935782 
L 122.268554 15.877143 
L 127.631115 15.818503 
L 127.631115 15.759864 
L 135.18745 15.701224 
L 135.18745 15.642585 
L 140.428134 15.583946 
L 140.428134 15.525306 
L 141.281269 15.466667 
L 141.281269 15.408027 
L 147.740717 15.349388 
L 147.740717 15.290748 
L 151.397008 15.290748 
L 151.397008 15.173469 
L 152.737648 15.11483 
L 152.737648 15.05619 
L 155.0533 14.997551 
L 155.0533 14.938912 
L 157.003322 14.880272 
L 157.003322 14.821633 
L 161.147118 14.762993 
L 161.147118 14.704354 
L 162.122129 14.645714 
L 162.122129 14.587075 
L 166.022174 14.528435 
L 166.022174 14.469796 
L 167.48469 14.411156 
L 167.48469 14.352517 
L 171.140981 14.293878 
L 171.140981 14.235238 
L 172.969127 14.176599 
L 172.969127 14.05932 
L 173.456633 14.00068 
L 173.456633 13.942041 
L 174.55352 13.883401 
L 174.55352 13.824762 
L 174.797273 13.824762 
L 174.797273 13.824762 
" clip-path="url(#pa386e12e05)" style="fill: none; stroke: #000000; stroke-width: 1.5; stroke-linecap: square"/>
   </g>
   <g id="patch_3">
    <path d="M 42.86 95.92 
L 42.86 9.72 
" style="fill: none; stroke: #000000; stroke-width: 0.8; stroke-linejoin: miter; stroke-linecap: square"/>
   </g>
   <g id="patch_4">
    <path d="M 181.08 95.92 
L 181.08 9.72 
" style="fill: none; stroke: #000000; stroke-width: 0.8; stroke-linejoin: miter; stroke-linecap: square"/>
   </g>
   <g id="patch_5">
    <path d="M 42.86 95.92 
L 181.08 95.92 
" style="fill: none; stroke: #000000; stroke-width: 0.8; stroke-linejoin: miter; stroke-linecap: square"/>
   </g>
   <g id="patch_6">
    <path d="M 42.86 9.72 
L 181.08 9.72 
" style="fill: none; stroke: #000000; stroke-width: 0.8; stroke-linejoin: miter; stroke-linecap: square"/>
   </g>
   <g id="text_13">
    <!-- 0.1 -->
    <g transform="translate(42.595703 83.055737) scale(0.09 -0.09)">
     <use xlink:href="#DejaVuSans-30"/>
     <use xlink:href="#DejaVuSans-2e" x="63.623047"/>
     <use xlink:href="#DejaVuSans-31" x="95.410156"/>
    </g>
   </g>
   <g id="text_14">
    <!-- 0.11 -->
    <g transform="translate(41.195094 63.880635) scale(0.09 -0.09)">
     <use xlink:href="#DejaVuSans-30"/>
     <use xlink:href="#DejaVuSans-2e" x="63.623047"/>
     <use xlink:href="#DejaVuSans-31" x="95.410156"/>
     <use xlink:href="#DejaVuSans-31" x="159.033203"/>
    </g>
   </g>
   <g id="text_15">
    <!-- 0.17 -->
    <g transform="translate(45.095139 46.933832) scale(0.09 -0.09)">
     <use xlink:href="#DejaVuSans-30"/>
     <use xlink:href="#DejaVuSans-2e" x="63.623047"/>
     <use xlink:href="#DejaVuSans-31" x="95.410156"/>
     <use xlink:href="#DejaVuSans-37" x="159.033203"/>
    </g>
   </g>
   <g id="text_16">
    <!-- 0.43 -->
    <g transform="translate(57.648405 32.625805) scale(0.09 -0.09)">
     <defs>
      <path id="DejaVuSans-34" d="M 2419 4116 
L 825 1625 
L 2419 1625 
L 2419 4116 
z
M 2253 4666 
L 3047 4666 
L 3047 1625 
L 3713 1625 
L 3713 1100 
L 3047 1100 
L 3047 0 
L 2419 0 
L 2419 1100 
L 313 1100 
L 313 1709 
L 2253 4666 
z
" transform="scale(0.015625)"/>
      <path id="DejaVuSans-33" d="M 2597 2516 
Q 3050 2419 3304 2112 
Q 3559 1806 3559 1356 
Q 3559 666 3084 287 
Q 2609 -91 1734 -91 
Q 1441 -91 1130 -33 
Q 819 25 488 141 
L 488 750 
Q 750 597 1062 519 
Q 1375 441 1716 441 
Q 2309 441 2620 675 
Q 2931 909 2931 1356 
Q 2931 1769 2642 2001 
Q 2353 2234 1838 2234 
L 1294 2234 
L 1294 2753 
L 1863 2753 
Q 2328 2753 2575 2939 
Q 2822 3125 2822 3475 
Q 2822 3834 2567 4026 
Q 2313 4219 1838 4219 
Q 1578 4219 1281 4162 
Q 984 4106 628 3988 
L 628 4550 
Q 988 4650 1302 4700 
Q 1616 4750 1894 4750 
Q 2613 4750 3031 4423 
Q 3450 4097 3450 3541 
Q 3450 3153 3228 2886 
Q 3006 2619 2597 2516 
z
" transform="scale(0.015625)"/>
     </defs>
     <use xlink:href="#DejaVuSans-30"/>
     <use xlink:href="#DejaVuSans-2e" x="63.623047"/>
     <use xlink:href="#DejaVuSans-34" x="95.410156"/>
     <use xlink:href="#DejaVuSans-33" x="159.033203"/>
    </g>
   </g>
   <g id="text_17">
    <!-- 0.66 -->
    <g transform="translate(80.561164 25.764988) scale(0.09 -0.09)">
     <defs>
      <path id="DejaVuSans-36" d="M 2113 2584 
Q 1688 2584 1439 2293 
Q 1191 2003 1191 1497 
Q 1191 994 1439 701 
Q 1688 409 2113 409 
Q 2538 409 2786 701 
Q 3034 994 3034 1497 
Q 3034 2003 2786 2293 
Q 2538 2584 2113 2584 
z
M 3366 4563 
L 3366 3988 
Q 3128 4100 2886 4159 
Q 2644 4219 2406 4219 
Q 1781 4219 1451 3797 
Q 1122 3375 1075 2522 
Q 1259 2794 1537 2939 
Q 1816 3084 2150 3084 
Q 2853 3084 3261 2657 
Q 3669 2231 3669 1497 
Q 3669 778 3244 343 
Q 2819 -91 2113 -91 
Q 1303 -91 875 529 
Q 447 1150 447 2328 
Q 447 3434 972 4092 
Q 1497 4750 2381 4750 
Q 2619 4750 2861 4703 
Q 3103 4656 3366 4563 
z
" transform="scale(0.015625)"/>
     </defs>
     <use xlink:href="#DejaVuSans-30"/>
     <use xlink:href="#DejaVuSans-2e" x="63.623047"/>
     <use xlink:href="#DejaVuSans-36" x="95.410156"/>
     <use xlink:href="#DejaVuSans-36" x="159.033203"/>
    </g>
   </g>
   <g id="text_18">
    <!-- 0.82 -->
    <g transform="translate(105.423946 23.243492) scale(0.09 -0.09)">
     <defs>
      <path id="DejaVuSans-38" d="M 2034 2216 
Q 1584 2216 1326 1975 
Q 1069 1734 1069 1313 
Q 1069 891 1326 650 
Q 1584 409 2034 409 
Q 2484 409 2743 651 
Q 3003 894 3003 1313 
Q 3003 1734 2745 1975 
Q 2488 2216 2034 2216 
z
M 1403 2484 
Q 997 2584 770 2862 
Q 544 3141 544 3541 
Q 544 4100 942 4425 
Q 1341 4750 2034 4750 
Q 2731 4750 3128 4425 
Q 3525 4100 3525 3541 
Q 3525 3141 3298 2862 
Q 3072 2584 2669 2484 
Q 3125 2378 3379 2068 
Q 3634 1759 3634 1313 
Q 3634 634 3220 271 
Q 2806 -91 2034 -91 
Q 1263 -91 848 271 
Q 434 634 434 1313 
Q 434 1759 690 2068 
Q 947 2378 1403 2484 
z
M 1172 3481 
Q 1172 3119 1398 2916 
Q 1625 2713 2034 2713 
Q 2441 2713 2670 2916 
Q 2900 3119 2900 3481 
Q 2900 3844 2670 4047 
Q 2441 4250 2034 4250 
Q 1625 4250 1398 4047 
Q 1172 3844 1172 3481 
z
" transform="scale(0.015625)"/>
     </defs>
     <use xlink:href="#DejaVuSans-30"/>
     <use xlink:href="#DejaVuSans-2e" x="63.623047"/>
     <use xlink:href="#DejaVuSans-38" x="95.410156"/>
     <use xlink:href="#DejaVuSans-32" x="159.033203"/>
    </g>
   </g>
   <g id="text_19">
    <!-- 0.9 -->
    <g transform="translate(133.393604 22.3639) scale(0.09 -0.09)">
     <defs>
      <path id="DejaVuSans-39" d="M 703 97 
L 703 672 
Q 941 559 1184 500 
Q 1428 441 1663 441 
Q 2288 441 2617 861 
Q 2947 1281 2994 2138 
Q 2813 1869 2534 1725 
Q 2256 1581 1919 1581 
Q 1219 1581 811 2004 
Q 403 2428 403 3163 
Q 403 3881 828 4315 
Q 1253 4750 1959 4750 
Q 2769 4750 3195 4129 
Q 3622 3509 3622 2328 
Q 3622 1225 3098 567 
Q 2575 -91 1691 -91 
Q 1453 -91 1209 -44 
Q 966 3 703 97 
z
M 1959 2075 
Q 2384 2075 2632 2365 
Q 2881 2656 2881 3163 
Q 2881 3666 2632 3958 
Q 2384 4250 1959 4250 
Q 1534 4250 1286 3958 
Q 1038 3666 1038 3163 
Q 1038 2656 1286 2365 
Q 1534 2075 1959 2075 
z
" transform="scale(0.015625)"/>
     </defs>
     <use xlink:href="#DejaVuSans-30"/>
     <use xlink:href="#DejaVuSans-2e" x="63.623047"/>
     <use xlink:href="#DejaVuSans-39" x="95.410156"/>
    </g>
   </g>
   <g id="legend_1">
    <g id="patch_7">
     <path d="M 93.650625 91.42 
L 174.78 91.42 
Q 176.58 91.42 176.58 89.62 
L 176.58 77.309688 
Q 176.58 75.509688 174.78 75.509688 
L 93.650625 75.509688 
Q 91.850625 75.509688 91.850625 77.309688 
L 91.850625 89.62 
Q 91.850625 91.42 93.650625 91.42 
z
" style="fill: #ffffff; opacity: 0.8; stroke: #cccccc; stroke-linejoin: miter"/>
    </g>
    <g id="line2d_12">
     <path d="M 95.450625 82.798281 
L 104.450625 82.798281 
L 113.450625 82.798281 
" style="fill: none; stroke: #000000; stroke-width: 1.5; stroke-linecap: square"/>
    </g>
    <g id="text_20">
     <!-- AUC = 0.92 -->
     <g transform="translate(120.650625 85.948281) scale(0.09 -0.09)">
      <defs>
       <path id="DejaVuSans-41" d="M 2188 4044 
L 1331 1722 
L 3047 1722 
L 2188 4044 
z
M 1831 4666 
L 2547 4666 
L 4325 0 
L 3669 0 
L 3244 1197 
L 1141 1197 
L 716 0 
L 50 0 
L 1831 4666 
z
" transform="scale(0.015625)"/>
       <path id="DejaVuSans-55" d="M 556 4666 
L 1191 4666 
L 1191 1831 
Q 1191 1081 1462 751 
Q 1734 422 2344 422 
Q 2950 422 3222 751 
Q 3494 1081 3494 1831 
L 3494 4666 
L 4128 4666 
L 4128 1753 
Q 4128 841 3676 375 
Q 3225 -91 2344 -91 
Q 1459 -91 1007 375 
Q 556 841 556 1753 
L 556 4666 
z
" transform="scale(0.015625)"/>
       <path id="DejaVuSans-43" d="M 4122 4306 
L 4122 3641 
Q 3803 3938 3442 4084 
Q 3081 4231 2675 4231 
Q 1875 4231 1450 3742 
Q 1025 3253 1025 2328 
Q 1025 1406 1450 917 
Q 1875 428 2675 428 
Q 3081 428 3442 575 
Q 3803 722 4122 1019 
L 4122 359 
Q 3791 134 3420 21 
Q 3050 -91 2638 -91 
Q 1578 -91 968 557 
Q 359 1206 359 2328 
Q 359 3453 968 4101 
Q 1578 4750 2638 4750 
Q 3056 4750 3426 4639 
Q 3797 4528 4122 4306 
z
" transform="scale(0.015625)"/>
       <path id="DejaVuSans-20" transform="scale(0.015625)"/>
       <path id="DejaVuSans-3d" d="M 678 2906 
L 4684 2906 
L 4684 2381 
L 678 2381 
L 678 2906 
z
M 678 1631 
L 4684 1631 
L 4684 1100 
L 678 1100 
L 678 1631 
z
" transform="scale(0.015625)"/>
      </defs>
      <use xlink:href="#DejaVuSans-41"/>
      <use xlink:href="#DejaVuSans-55" x="68.408203"/>
      <use xlink:href="#DejaVuSans-43" x="141.601562"/>
      <use xlink:href="#DejaVuSans-20" x="211.425781"/>
      <use xlink:href="#DejaVuSans-3d" x="243.212891"/>
      <use xlink:href="#DejaVuSans-20" x="327.001953"/>
      <use xlink:href="#DejaVuSans-30" x="358.789062"/>
      <use xlink:href="#DejaVuSans-2e" x="422.412109"/>
      <use xlink:href="#DejaVuSans-39" x="454.199219"/>
      <use xlink:href="#DejaVuSans-32" x="517.822266"/>
     </g>
    </g>
   </g>
  </g>
 </g>
 <defs>
  <clipPath id="pa386e12e05">
   <rect x="42.86" y="9.72" width="138.22" height="86.2"/>
  </clipPath>
 </defs>
</svg>
