<?xml version="1.0" encoding="utf-8" standalone="no"?>
<!DOCTYPE svg PUBLIC "-//W3C//DTD SVG 1.1//EN"
  "http://www.w3.org/Graphics/SVG/1.1/DTD/svg11.dtd">
<svg xmlns:xlink="http://www.w3.org/1999/xlink" width="216pt" height="216pt" viewBox="0 0 216 216" xmlns="http://www.w3.org/2000/svg" version="1.1">
 <metadata>
  <rdf:RDF xmlns:dc="http://purl.org/dc/elements/1.1/" xmlns:cc="http://creativecommons.org/ns#" xmlns:rdf="http://www.w3.org/1999/02/22-rdf-syntax-ns#">
   <cc:Work>
    <dc:type rdf:resource="http://purl.org/dc/dcmitype/StillImage"/>
    <dc:date>2024-03-05T08:53:03.065821</dc:date>
    <dc:format>image/svg+xml</dc:format>
    <dc:creator>
     <cc:Agent>
      <dc:title>Matplotlib v3.7.4, https://matplotlib.org/</dc:title>
     </cc:Agent>
    </dc:creator>
   </cc:Work>
  </rdf:RDF>
 </metadata>
 <defs>
  <style type="text/css">*{stroke-linejoin: round; stroke-linecap: butt}</style>
 </defs>
 <g id="figure_1">
  <g id="patch_1">
   <path d="M 0 216 
L 216 216 
L 216 0 
L 0 0 
z
" style="fill: #ffffff"/>
  </g>
  <g id="axes_1">
   <g id="patch_2">
    <path d="M 49.61 178.72 
L 201.910836 178.72 
L 201.910836 9.72 
L 49.61 9.72 
z
" style="fill: #ffffff"/>
   </g>
   <g id="PathCollection_1">
    <defs>
     <path id="C0_0_a01eda589d" d="M 0 3 
C 0.795609 3 1.55874 2.683901 2.12132 2.12132 
C 2.683901 1.55874 3 0.795609 3 -0 
C 3 -0.795609 2.683901 -1.55874 2.12132 -2.12132 
C 1.55874 -2.683901 0.795609 -3 0 -3 
C -0.795609 -3 -1.55874 -2.683901 -2.12132 -2.12132 
C -2.683901 -1.55874 -3 -0.795609 -3 0 
C -3 0.795609 -2.683901 1.55874 -2.12132 2.12132 
C -1.55874 2.683901 -0.795609 3 0 3 
z
"/>
    </defs>
    <g clip-path="url(#p089004c633)">
     <use xlink:href="#C0_0_a01eda589d" x="170.221676" y="84.354144" style="fill: #ff9896; stroke: #d62728"/>
    </g>
    <g clip-path="url(#p089004c633)">
     <use xlink:href="#C0_0_a01eda589d" x="75.96825" y="30.136185" style="fill: #c5b0d5; stroke: #9467bd"/>
    </g>
    <g clip-path="url(#p089004c633)">
     <use xlink:href="#C0_0_a01eda589d" x="76.613587" y="85.964865" style="fill: #c5b0d5; stroke: #9467bd"/>
    </g>
    <g clip-path="url(#p089004c633)">
     <use xlink:href="#C0_0_a01eda589d" x="66.877815" y="125.517688" style="fill: #aec7e8; stroke: #1f77b4"/>
    </g>
    <g clip-path="url(#p089004c633)">
     <use xlink:href="#C0_0_a01eda589d" x="62.569689" y="139.406632" style="fill: #aec7e8; stroke: #1f77b4"/>
    </g>
    <g clip-path="url(#p089004c633)">
     <use xlink:href="#C0_0_a01eda589d" x="60.312677" y="163.235699" style="fill: #aec7e8; stroke: #1f77b4"/>
    </g>
    <g clip-path="url(#p089004c633)">
     <use xlink:href="#C0_0_a01eda589d" x="97.902684" y="50.764992" style="fill: #c5b0d5; stroke: #9467bd"/>
    </g>
    <g clip-path="url(#p089004c633)">
     <use xlink:href="#C0_0_a01eda589d" x="125.818031" y="168.667565" style="fill: #ff9896; stroke: #d62728"/>
    </g>
    <g clip-path="url(#p089004c633)">
     <use xlink:href="#C0_0_a01eda589d" x="83.25218" y="148.960117" style="fill: #aec7e8; stroke: #1f77b4"/>
    </g>
    <g clip-path="url(#p089004c633)">
     <use xlink:href="#C0_0_a01eda589d" x="165.246086" y="75.978975" style="fill: #ff9896; stroke: #d62728"/>
    </g>
    <g clip-path="url(#p089004c633)">
     <use xlink:href="#C0_0_a01eda589d" x="75.96825" y="30.136185" style="fill: #c5b0d5; stroke: #9467bd"/>
    </g>
    <g clip-path="url(#p089004c633)">
     <use xlink:href="#C0_0_a01eda589d" x="126.928037" y="170.995035" style="fill: #ff9896; stroke: #d62728"/>
    </g>
    <g clip-path="url(#p089004c633)">
     <use xlink:href="#C0_0_a01eda589d" x="76.806308" y="34.543584" style="fill: #c5b0d5; stroke: #9467bd"/>
    </g>
    <g clip-path="url(#p089004c633)">
     <use xlink:href="#C0_0_a01eda589d" x="83.25218" y="148.960117" style="fill: #aec7e8; stroke: #1f77b4"/>
    </g>
    <g clip-path="url(#p089004c633)">
     <use xlink:href="#C0_0_a01eda589d" x="148.714067" y="158.507031" style="fill: #ff9896; stroke: #d62728"/>
    </g>
    <g clip-path="url(#p089004c633)">
     <use xlink:href="#C0_0_a01eda589d" x="168.713954" y="128.022199" style="fill: #ff9896; stroke: #d62728"/>
    </g>
    <g clip-path="url(#p089004c633)">
     <use xlink:href="#C0_0_a01eda589d" x="60.312677" y="163.235699" style="fill: #aec7e8; stroke: #1f77b4"/>
    </g>
    <g clip-path="url(#p089004c633)">
     <use xlink:href="#C0_0_a01eda589d" x="86.122827" y="130.556347" style="fill: #aec7e8; stroke: #1f77b4"/>
    </g>
    <g clip-path="url(#p089004c633)">
     <use xlink:href="#C0_0_a01eda589d" x="165.246086" y="75.978975" style="fill: #ff9896; stroke: #d62728"/>
    </g>
    <g clip-path="url(#p089004c633)">
     <use xlink:href="#C0_0_a01eda589d" x="62.218101" y="151.44603" style="fill: #aec7e8; stroke: #1f77b4"/>
    </g>
    <g clip-path="url(#p089004c633)">
     <use xlink:href="#C0_0_a01eda589d" x="93.259387" y="70.862067" style="fill: #c5b0d5; stroke: #9467bd"/>
    </g>
    <g clip-path="url(#p089004c633)">
     <use xlink:href="#C0_0_a01eda589d" x="75.96825" y="30.136185" style="fill: #c5b0d5; stroke: #9467bd"/>
    </g>
   </g>
   <g id="matplotlib.axis_1">
    <g id="xtick_1">
     <g id="line2d_1">
      <defs>
       <path id="m1921ad2eb1" d="M 0 0 
L 0 3.5 
" style="stroke: #000000; stroke-width: 0.8"/>
      </defs>
      <g>
       <use xlink:href="#m1921ad2eb1" x="72.173087" y="178.72" style="stroke: #000000; stroke-width: 0.8"/>
      </g>
     </g>
     <g id="text_1">
      <!-- −0.25 -->
      <g transform="translate(59.914962 191.79875) scale(0.08 -0.08)">
       <defs>
        <path id="DejaVuSans-2212" d="M 678 2272 
L 4684 2272 
L 4684 1741 
L 678 1741 
L 678 2272 
z
" transform="scale(0.015625)"/>
        <path id="DejaVuSans-30" d="M 2034 4250 
Q 1547 4250 1301 3770 
Q 1056 3291 1056 2328 
Q 1056 1369 1301 889 
Q 1547 409 2034 409 
Q 2525 409 2770 889 
Q 3016 1369 3016 2328 
Q 3016 3291 2770 3770 
Q 2525 4250 2034 4250 
z
M 2034 4750 
Q 2819 4750 3233 4129 
Q 3647 3509 3647 2328 
Q 3647 1150 3233 529 
Q 2819 -91 2034 -91 
Q 1250 -91 836 529 
Q 422 1150 422 2328 
Q 422 3509 836 4129 
Q 1250 4750 2034 4750 
z
" transform="scale(0.015625)"/>
        <path id="DejaVuSans-2e" d="M 684 794 
L 1344 794 
L 1344 0 
L 684 0 
L 684 794 
z
" transform="scale(0.015625)"/>
        <path id="DejaVuSans-32" d="M 1228 531 
L 3431 531 
L 3431 0 
L 469 0 
L 469 531 
Q 828 903 1448 1529 
Q 2069 2156 2228 2338 
Q 2531 2678 2651 2914 
Q 2772 3150 2772 3378 
Q 2772 3750 2511 3984 
Q 2250 4219 1831 4219 
Q 1534 4219 1204 4116 
Q 875 4013 500 3803 
L 500 4441 
Q 881 4594 1212 4672 
Q 1544 4750 1819 4750 
Q 2544 4750 2975 4387 
Q 3406 4025 3406 3419 
Q 3406 3131 3298 2873 
Q 3191 2616 2906 2266 
Q 2828 2175 2409 1742 
Q 1991 1309 1228 531 
z
" transform="scale(0.015625)"/>
        <path id="DejaVuSans-35" d="M 691 4666 
L 3169 4666 
L 3169 4134 
L 1269 4134 
L 1269 2991 
Q 1406 3038 1543 3061 
Q 1681 3084 1819 3084 
Q 2600 3084 3056 2656 
Q 3513 2228 3513 1497 
Q 3513 744 3044 326 
Q 2575 -91 1722 -91 
Q 1428 -91 1123 -41 
Q 819 9 494 109 
L 494 744 
Q 775 591 1075 516 
Q 1375 441 1709 441 
Q 2250 441 2565 725 
Q 2881 1009 2881 1497 
Q 2881 1984 2565 2268 
Q 2250 2553 1709 2553 
Q 1456 2553 1204 2497 
Q 953 2441 691 2322 
L 691 4666 
z
" transform="scale(0.015625)"/>
       </defs>
       <use xlink:href="#DejaVuSans-2212"/>
       <use xlink:href="#DejaVuSans-30" x="83.789062"/>
       <use xlink:href="#DejaVuSans-2e" x="147.412109"/>
       <use xlink:href="#DejaVuSans-32" x="179.199219"/>
       <use xlink:href="#DejaVuSans-35" x="242.822266"/>
      </g>
     </g>
    </g>
    <g id="xtick_2">
     <g id="line2d_2">
      <g>
       <use xlink:href="#m1921ad2eb1" x="100.376945" y="178.72" style="stroke: #000000; stroke-width: 0.8"/>
      </g>
     </g>
     <g id="text_2">
      <!-- 0.00 -->
      <g transform="translate(91.470695 191.79875) scale(0.08 -0.08)">
       <use xlink:href="#DejaVuSans-30"/>
       <use xlink:href="#DejaVuSans-2e" x="63.623047"/>
       <use xlink:href="#DejaVuSans-30" x="95.410156"/>
       <use xlink:href="#DejaVuSans-30" x="159.033203"/>
      </g>
     </g>
    </g>
    <g id="xtick_3">
     <g id="line2d_3">
      <g>
       <use xlink:href="#m1921ad2eb1" x="128.580804" y="178.72" style="stroke: #000000; stroke-width: 0.8"/>
      </g>
     </g>
     <g id="text_3">
      <!-- 0.25 -->
      <g transform="translate(119.674554 191.79875) scale(0.08 -0.08)">
       <use xlink:href="#DejaVuSans-30"/>
       <use xlink:href="#DejaVuSans-2e" x="63.623047"/>
       <use xlink:href="#DejaVuSans-32" x="95.410156"/>
       <use xlink:href="#DejaVuSans-35" x="159.033203"/>
      </g>
     </g>
    </g>
    <g id="xtick_4">
     <g id="line2d_4">
      <g>
       <use xlink:href="#m1921ad2eb1" x="156.784662" y="178.72" style="stroke: #000000; stroke-width: 0.8"/>
      </g>
     </g>
     <g id="text_4">
      <!-- 0.50 -->
      <g transform="translate(147.878412 191.79875) scale(0.08 -0.08)">
       <use xlink:href="#DejaVuSans-30"/>
       <use xlink:href="#DejaVuSans-2e" x="63.623047"/>
       <use xlink:href="#DejaVuSans-35" x="95.410156"/>
       <use xlink:href="#DejaVuSans-30" x="159.033203"/>
      </g>
     </g>
    </g>
    <g id="xtick_5">
     <g id="line2d_5">
      <g>
       <use xlink:href="#m1921ad2eb1" x="184.988521" y="178.72" style="stroke: #000000; stroke-width: 0.8"/>
      </g>
     </g>
     <g id="text_5">
      <!-- 0.75 -->
      <g transform="translate(176.082271 191.79875) scale(0.08 -0.08)">
       <defs>
        <path id="DejaVuSans-37" d="M 525 4666 
L 3525 4666 
L 3525 4397 
L 1831 0 
L 1172 0 
L 2766 4134 
L 525 4134 
L 525 4666 
z
" transform="scale(0.015625)"/>
       </defs>
       <use xlink:href="#DejaVuSans-30"/>
       <use xlink:href="#DejaVuSans-2e" x="63.623047"/>
       <use xlink:href="#DejaVuSans-37" x="95.410156"/>
       <use xlink:href="#DejaVuSans-35" x="159.033203"/>
      </g>
     </g>
    </g>
    <g id="text_6">
     <!-- PC1 -->
     <g transform="translate(117.041668 204.301094) scale(0.09 -0.09)">
      <defs>
       <path id="DejaVuSans-50" d="M 1259 4147 
L 1259 2394 
L 2053 2394 
Q 2494 2394 2734 2622 
Q 2975 2850 2975 3272 
Q 2975 3691 2734 3919 
Q 2494 4147 2053 4147 
L 1259 4147 
z
M 628 4666 
L 2053 4666 
Q 2838 4666 3239 4311 
Q 3641 3956 3641 3272 
Q 3641 2581 3239 2228 
Q 2838 1875 2053 1875 
L 1259 1875 
L 1259 0 
L 628 0 
L 628 4666 
z
" transform="scale(0.015625)"/>
       <path id="DejaVuSans-43" d="M 4122 4306 
L 4122 3641 
Q 3803 3938 3442 4084 
Q 3081 4231 2675 4231 
Q 1875 4231 1450 3742 
Q 1025 3253 1025 2328 
Q 1025 1406 1450 917 
Q 1875 428 2675 428 
Q 3081 428 3442 575 
Q 3803 722 4122 1019 
L 4122 359 
Q 3791 134 3420 21 
Q 3050 -91 2638 -91 
Q 1578 -91 968 557 
Q 359 1206 359 2328 
Q 359 3453 968 4101 
Q 1578 4750 2638 4750 
Q 3056 4750 3426 4639 
Q 3797 4528 4122 4306 
z
" transform="scale(0.015625)"/>
       <path id="DejaVuSans-31" d="M 794 531 
L 1825 531 
L 1825 4091 
L 703 3866 
L 703 4441 
L 1819 4666 
L 2450 4666 
L 2450 531 
L 3481 531 
L 3481 0 
L 794 0 
L 794 531 
z
" transform="scale(0.015625)"/>
      </defs>
      <use xlink:href="#DejaVuSans-50"/>
      <use xlink:href="#DejaVuSans-43" x="60.302734"/>
      <use xlink:href="#DejaVuSans-31" x="130.126953"/>
     </g>
    </g>
   </g>
   <g id="matplotlib.axis_2">
    <g id="ytick_1">
     <g id="line2d_6">
      <defs>
       <path id="me218aafed8" d="M 0 0 
L -3.5 0 
" style="stroke: #000000; stroke-width: 0.8"/>
      </defs>
      <g>
       <use xlink:href="#me218aafed8" x="49.61" y="178.72" style="stroke: #000000; stroke-width: 0.8"/>
      </g>
     </g>
     <g id="text_7">
      <!-- −0.4 -->
      <g transform="translate(23.18375 181.759375) scale(0.08 -0.08)">
       <defs>
        <path id="DejaVuSans-34" d="M 2419 4116 
L 825 1625 
L 2419 1625 
L 2419 4116 
z
M 2253 4666 
L 3047 4666 
L 3047 1625 
L 3713 1625 
L 3713 1100 
L 3047 1100 
L 3047 0 
L 2419 0 
L 2419 1100 
L 313 1100 
L 313 1709 
L 2253 4666 
z
" transform="scale(0.015625)"/>
       </defs>
       <use xlink:href="#DejaVuSans-2212"/>
       <use xlink:href="#DejaVuSans-30" x="83.789062"/>
       <use xlink:href="#DejaVuSans-2e" x="147.412109"/>
       <use xlink:href="#DejaVuSans-34" x="179.199219"/>
      </g>
     </g>
    </g>
    <g id="ytick_2">
     <g id="line2d_7">
      <g>
       <use xlink:href="#me218aafed8" x="49.61" y="143.141053" style="stroke: #000000; stroke-width: 0.8"/>
      </g>
     </g>
     <g id="text_8">
      <!-- −0.2 -->
      <g transform="translate(23.18375 146.180428) scale(0.08 -0.08)">
       <use xlink:href="#DejaVuSans-2212"/>
       <use xlink:href="#DejaVuSans-30" x="83.789062"/>
       <use xlink:href="#DejaVuSans-2e" x="147.412109"/>
       <use xlink:href="#DejaVuSans-32" x="179.199219"/>
      </g>
     </g>
    </g>
    <g id="ytick_3">
     <g id="line2d_8">
      <g>
       <use xlink:href="#me218aafed8" x="49.61" y="107.562105" style="stroke: #000000; stroke-width: 0.8"/>
      </g>
     </g>
     <g id="text_9">
      <!-- 0.0 -->
      <g transform="translate(29.8875 110.60148) scale(0.08 -0.08)">
       <use xlink:href="#DejaVuSans-30"/>
       <use xlink:href="#DejaVuSans-2e" x="63.623047"/>
       <use xlink:href="#DejaVuSans-30" x="95.410156"/>
      </g>
     </g>
    </g>
    <g id="ytick_4">
     <g id="line2d_9">
      <g>
       <use xlink:href="#me218aafed8" x="49.61" y="71.983158" style="stroke: #000000; stroke-width: 0.8"/>
      </g>
     </g>
     <g id="text_10">
      <!-- 0.2 -->
      <g transform="translate(29.8875 75.022533) scale(0.08 -0.08)">
       <use xlink:href="#DejaVuSans-30"/>
       <use xlink:href="#DejaVuSans-2e" x="63.623047"/>
       <use xlink:href="#DejaVuSans-32" x="95.410156"/>
      </g>
     </g>
    </g>
    <g id="ytick_5">
     <g id="line2d_10">
      <g>
       <use xlink:href="#me218aafed8" x="49.61" y="36.404211" style="stroke: #000000; stroke-width: 0.8"/>
      </g>
     </g>
     <g id="text_11">
      <!-- 0.4 -->
      <g transform="translate(29.8875 39.443586) scale(0.08 -0.08)">
       <use xlink:href="#DejaVuSans-30"/>
       <use xlink:href="#DejaVuSans-2e" x="63.623047"/>
       <use xlink:href="#DejaVuSans-34" x="95.410156"/>
      </g>
     </g>
    </g>
    <g id="text_12">
     <!-- PC2 -->
     <g transform="translate(17.312031 102.93875) rotate(-90) scale(0.09 -0.09)">
      <use xlink:href="#DejaVuSans-50"/>
      <use xlink:href="#DejaVuSans-43" x="60.302734"/>
      <use xlink:href="#DejaVuSans-32" x="130.126953"/>
     </g>
    </g>
   </g>
   <g id="patch_3">
    <path d="M 49.61 178.72 
L 49.61 9.72 
" style="fill: none; stroke: #000000; stroke-width: 0.8; stroke-linejoin: miter; stroke-linecap: square"/>
   </g>
   <g id="patch_4">
    <path d="M 201.910836 178.72 
L 201.910836 9.72 
" style="fill: none; stroke: #000000; stroke-width: 0.8; stroke-linejoin: miter; stroke-linecap: square"/>
   </g>
   <g id="patch_5">
    <path d="M 49.61 178.72 
L 201.910836 178.72 
" style="fill: none; stroke: #000000; stroke-width: 0.8; stroke-linejoin: miter; stroke-linecap: square"/>
   </g>
   <g id="patch_6">
    <path d="M 49.61 9.72 
L 201.910836 9.72 
" style="fill: none; stroke: #000000; stroke-width: 0.8; stroke-linejoin: miter; stroke-linecap: square"/>
   </g>
   <g id="text_13">
    <!-- C*04:01 -->
    <g transform="translate(172.477984 80.796249) scale(0.09 -0.09)">
     <defs>
      <path id="DejaVuSans-2a" d="M 3009 3897 
L 1888 3291 
L 3009 2681 
L 2828 2375 
L 1778 3009 
L 1778 1831 
L 1422 1831 
L 1422 3009 
L 372 2375 
L 191 2681 
L 1313 3291 
L 191 3897 
L 372 4206 
L 1422 3572 
L 1422 4750 
L 1778 4750 
L 1778 3572 
L 2828 4206 
L 3009 3897 
z
" transform="scale(0.015625)"/>
      <path id="DejaVuSans-3a" d="M 750 794 
L 1409 794 
L 1409 0 
L 750 0 
L 750 794 
z
M 750 3309 
L 1409 3309 
L 1409 2516 
L 750 2516 
L 750 3309 
z
" transform="scale(0.015625)"/>
     </defs>
     <use xlink:href="#DejaVuSans-43"/>
     <use xlink:href="#DejaVuSans-2a" x="69.824219"/>
     <use xlink:href="#DejaVuSans-30" x="119.824219"/>
     <use xlink:href="#DejaVuSans-34" x="183.447266"/>
     <use xlink:href="#DejaVuSans-3a" x="247.070312"/>
     <use xlink:href="#DejaVuSans-30" x="280.761719"/>
     <use xlink:href="#DejaVuSans-31" x="344.384766"/>
    </g>
   </g>
   <g id="text_14">
    <!-- C*07:01 -->
    <g transform="translate(78.224559 26.57829) scale(0.09 -0.09)">
     <use xlink:href="#DejaVuSans-43"/>
     <use xlink:href="#DejaVuSans-2a" x="69.824219"/>
     <use xlink:href="#DejaVuSans-30" x="119.824219"/>
     <use xlink:href="#DejaVuSans-37" x="183.447266"/>
     <use xlink:href="#DejaVuSans-3a" x="247.070312"/>
     <use xlink:href="#DejaVuSans-30" x="280.761719"/>
     <use xlink:href="#DejaVuSans-31" x="344.384766"/>
    </g>
   </g>
   <g id="text_15">
    <!-- C*12:03 -->
    <g transform="translate(78.869896 82.40697) scale(0.09 -0.09)">
     <defs>
      <path id="DejaVuSans-33" d="M 2597 2516 
Q 3050 2419 3304 2112 
Q 3559 1806 3559 1356 
Q 3559 666 3084 287 
Q 2609 -91 1734 -91 
Q 1441 -91 1130 -33 
Q 819 25 488 141 
L 488 750 
Q 750 597 1062 519 
Q 1375 441 1716 441 
Q 2309 441 2620 675 
Q 2931 909 2931 1356 
Q 2931 1769 2642 2001 
Q 2353 2234 1838 2234 
L 1294 2234 
L 1294 2753 
L 1863 2753 
Q 2328 2753 2575 2939 
Q 2822 3125 2822 3475 
Q 2822 3834 2567 4026 
Q 2313 4219 1838 4219 
Q 1578 4219 1281 4162 
Q 984 4106 628 3988 
L 628 4550 
Q 988 4650 1302 4700 
Q 1616 4750 1894 4750 
Q 2613 4750 3031 4423 
Q 3450 4097 3450 3541 
Q 3450 3153 3228 2886 
Q 3006 2619 2597 2516 
z
" transform="scale(0.015625)"/>
     </defs>
     <use xlink:href="#DejaVuSans-43"/>
     <use xlink:href="#DejaVuSans-2a" x="69.824219"/>
     <use xlink:href="#DejaVuSans-31" x="119.824219"/>
     <use xlink:href="#DejaVuSans-32" x="183.447266"/>
     <use xlink:href="#DejaVuSans-3a" x="247.070312"/>
     <use xlink:href="#DejaVuSans-30" x="280.761719"/>
     <use xlink:href="#DejaVuSans-33" x="344.384766"/>
    </g>
   </g>
   <g id="text_16">
    <!-- C*16:01 -->
    <g transform="translate(69.134124 121.959794) scale(0.09 -0.09)">
     <defs>
      <path id="DejaVuSans-36" d="M 2113 2584 
Q 1688 2584 1439 2293 
Q 1191 2003 1191 1497 
Q 1191 994 1439 701 
Q 1688 409 2113 409 
Q 2538 409 2786 701 
Q 3034 994 3034 1497 
Q 3034 2003 2786 2293 
Q 2538 2584 2113 2584 
z
M 3366 4563 
L 3366 3988 
Q 3128 4100 2886 4159 
Q 2644 4219 2406 4219 
Q 1781 4219 1451 3797 
Q 1122 3375 1075 2522 
Q 1259 2794 1537 2939 
Q 1816 3084 2150 3084 
Q 2853 3084 3261 2657 
Q 3669 2231 3669 1497 
Q 3669 778 3244 343 
Q 2819 -91 2113 -91 
Q 1303 -91 875 529 
Q 447 1150 447 2328 
Q 447 3434 972 4092 
Q 1497 4750 2381 4750 
Q 2619 4750 2861 4703 
Q 3103 4656 3366 4563 
z
" transform="scale(0.015625)"/>
     </defs>
     <use xlink:href="#DejaVuSans-43"/>
     <use xlink:href="#DejaVuSans-2a" x="69.824219"/>
     <use xlink:href="#DejaVuSans-31" x="119.824219"/>
     <use xlink:href="#DejaVuSans-36" x="183.447266"/>
     <use xlink:href="#DejaVuSans-3a" x="247.070312"/>
     <use xlink:href="#DejaVuSans-30" x="280.761719"/>
     <use xlink:href="#DejaVuSans-31" x="344.384766"/>
    </g>
   </g>
   <g id="text_17">
    <!-- C*03:02 -->
    <g transform="translate(64.825998 135.848737) scale(0.09 -0.09)">
     <use xlink:href="#DejaVuSans-43"/>
     <use xlink:href="#DejaVuSans-2a" x="69.824219"/>
     <use xlink:href="#DejaVuSans-30" x="119.824219"/>
     <use xlink:href="#DejaVuSans-33" x="183.447266"/>
     <use xlink:href="#DejaVuSans-3a" x="247.070312"/>
     <use xlink:href="#DejaVuSans-30" x="280.761719"/>
     <use xlink:href="#DejaVuSans-32" x="344.384766"/>
    </g>
   </g>
   <g id="text_18">
    <!-- C*03:04 -->
    <g transform="translate(62.568985 159.677804) scale(0.09 -0.09)">
     <use xlink:href="#DejaVuSans-43"/>
     <use xlink:href="#DejaVuSans-2a" x="69.824219"/>
     <use xlink:href="#DejaVuSans-30" x="119.824219"/>
     <use xlink:href="#DejaVuSans-33" x="183.447266"/>
     <use xlink:href="#DejaVuSans-3a" x="247.070312"/>
     <use xlink:href="#DejaVuSans-30" x="280.761719"/>
     <use xlink:href="#DejaVuSans-34" x="344.384766"/>
    </g>
   </g>
   <g id="text_19">
    <!-- C*06:02 -->
    <g transform="translate(100.158992 47.207097) scale(0.09 -0.09)">
     <use xlink:href="#DejaVuSans-43"/>
     <use xlink:href="#DejaVuSans-2a" x="69.824219"/>
     <use xlink:href="#DejaVuSans-30" x="119.824219"/>
     <use xlink:href="#DejaVuSans-36" x="183.447266"/>
     <use xlink:href="#DejaVuSans-3a" x="247.070312"/>
     <use xlink:href="#DejaVuSans-30" x="280.761719"/>
     <use xlink:href="#DejaVuSans-32" x="344.384766"/>
    </g>
   </g>
   <g id="text_20">
    <!-- C*08:04 -->
    <g transform="translate(128.074339 165.10967) scale(0.09 -0.09)">
     <defs>
      <path id="DejaVuSans-38" d="M 2034 2216 
Q 1584 2216 1326 1975 
Q 1069 1734 1069 1313 
Q 1069 891 1326 650 
Q 1584 409 2034 409 
Q 2484 409 2743 651 
Q 3003 894 3003 1313 
Q 3003 1734 2745 1975 
Q 2488 2216 2034 2216 
z
M 1403 2484 
Q 997 2584 770 2862 
Q 544 3141 544 3541 
Q 544 4100 942 4425 
Q 1341 4750 2034 4750 
Q 2731 4750 3128 4425 
Q 3525 4100 3525 3541 
Q 3525 3141 3298 2862 
Q 3072 2584 2669 2484 
Q 3125 2378 3379 2068 
Q 3634 1759 3634 1313 
Q 3634 634 3220 271 
Q 2806 -91 2034 -91 
Q 1263 -91 848 271 
Q 434 634 434 1313 
Q 434 1759 690 2068 
Q 947 2378 1403 2484 
z
M 1172 3481 
Q 1172 3119 1398 2916 
Q 1625 2713 2034 2713 
Q 2441 2713 2670 2916 
Q 2900 3119 2900 3481 
Q 2900 3844 2670 4047 
Q 2441 4250 2034 4250 
Q 1625 4250 1398 4047 
Q 1172 3844 1172 3481 
z
" transform="scale(0.015625)"/>
     </defs>
     <use xlink:href="#DejaVuSans-43"/>
     <use xlink:href="#DejaVuSans-2a" x="69.824219"/>
     <use xlink:href="#DejaVuSans-30" x="119.824219"/>
     <use xlink:href="#DejaVuSans-38" x="183.447266"/>
     <use xlink:href="#DejaVuSans-3a" x="247.070312"/>
     <use xlink:href="#DejaVuSans-30" x="280.761719"/>
     <use xlink:href="#DejaVuSans-34" x="344.384766"/>
    </g>
   </g>
   <g id="text_21">
    <!-- C*02:10 -->
    <g transform="translate(85.508488 145.402222) scale(0.09 -0.09)">
     <use xlink:href="#DejaVuSans-43"/>
     <use xlink:href="#DejaVuSans-2a" x="69.824219"/>
     <use xlink:href="#DejaVuSans-30" x="119.824219"/>
     <use xlink:href="#DejaVuSans-32" x="183.447266"/>
     <use xlink:href="#DejaVuSans-3a" x="247.070312"/>
     <use xlink:href="#DejaVuSans-31" x="280.761719"/>
     <use xlink:href="#DejaVuSans-30" x="344.384766"/>
    </g>
   </g>
   <g id="text_22">
    <!-- C*18:02 -->
    <g transform="translate(167.502394 72.42108) scale(0.09 -0.09)">
     <use xlink:href="#DejaVuSans-43"/>
     <use xlink:href="#DejaVuSans-2a" x="69.824219"/>
     <use xlink:href="#DejaVuSans-31" x="119.824219"/>
     <use xlink:href="#DejaVuSans-38" x="183.447266"/>
     <use xlink:href="#DejaVuSans-3a" x="247.070312"/>
     <use xlink:href="#DejaVuSans-30" x="280.761719"/>
     <use xlink:href="#DejaVuSans-32" x="344.384766"/>
    </g>
   </g>
   <g id="text_23">
    <!-- C*07:18 -->
    <g transform="translate(78.224559 26.57829) scale(0.09 -0.09)">
     <use xlink:href="#DejaVuSans-43"/>
     <use xlink:href="#DejaVuSans-2a" x="69.824219"/>
     <use xlink:href="#DejaVuSans-30" x="119.824219"/>
     <use xlink:href="#DejaVuSans-37" x="183.447266"/>
     <use xlink:href="#DejaVuSans-3a" x="247.070312"/>
     <use xlink:href="#DejaVuSans-31" x="280.761719"/>
     <use xlink:href="#DejaVuSans-38" x="344.384766"/>
    </g>
   </g>
   <g id="text_24">
    <!-- C*08:02 -->
    <g transform="translate(129.184345 167.43714) scale(0.09 -0.09)">
     <use xlink:href="#DejaVuSans-43"/>
     <use xlink:href="#DejaVuSans-2a" x="69.824219"/>
     <use xlink:href="#DejaVuSans-30" x="119.824219"/>
     <use xlink:href="#DejaVuSans-38" x="183.447266"/>
     <use xlink:href="#DejaVuSans-3a" x="247.070312"/>
     <use xlink:href="#DejaVuSans-30" x="280.761719"/>
     <use xlink:href="#DejaVuSans-32" x="344.384766"/>
    </g>
   </g>
   <g id="text_25">
    <!-- C*07:02 -->
    <g transform="translate(79.062616 30.98569) scale(0.09 -0.09)">
     <use xlink:href="#DejaVuSans-43"/>
     <use xlink:href="#DejaVuSans-2a" x="69.824219"/>
     <use xlink:href="#DejaVuSans-30" x="119.824219"/>
     <use xlink:href="#DejaVuSans-37" x="183.447266"/>
     <use xlink:href="#DejaVuSans-3a" x="247.070312"/>
     <use xlink:href="#DejaVuSans-30" x="280.761719"/>
     <use xlink:href="#DejaVuSans-32" x="344.384766"/>
    </g>
   </g>
   <g id="text_26">
    <!-- C*02:02 -->
    <g transform="translate(85.508488 145.402222) scale(0.09 -0.09)">
     <use xlink:href="#DejaVuSans-43"/>
     <use xlink:href="#DejaVuSans-2a" x="69.824219"/>
     <use xlink:href="#DejaVuSans-30" x="119.824219"/>
     <use xlink:href="#DejaVuSans-32" x="183.447266"/>
     <use xlink:href="#DejaVuSans-3a" x="247.070312"/>
     <use xlink:href="#DejaVuSans-30" x="280.761719"/>
     <use xlink:href="#DejaVuSans-32" x="344.384766"/>
    </g>
   </g>
   <g id="text_27">
    <!-- C*05:01 -->
    <g transform="translate(150.970375 154.949136) scale(0.09 -0.09)">
     <use xlink:href="#DejaVuSans-43"/>
     <use xlink:href="#DejaVuSans-2a" x="69.824219"/>
     <use xlink:href="#DejaVuSans-30" x="119.824219"/>
     <use xlink:href="#DejaVuSans-35" x="183.447266"/>
     <use xlink:href="#DejaVuSans-3a" x="247.070312"/>
     <use xlink:href="#DejaVuSans-30" x="280.761719"/>
     <use xlink:href="#DejaVuSans-31" x="344.384766"/>
    </g>
   </g>
   <g id="text_28">
    <!-- C*17:01 -->
    <g transform="translate(170.970263 124.464305) scale(0.09 -0.09)">
     <use xlink:href="#DejaVuSans-43"/>
     <use xlink:href="#DejaVuSans-2a" x="69.824219"/>
     <use xlink:href="#DejaVuSans-31" x="119.824219"/>
     <use xlink:href="#DejaVuSans-37" x="183.447266"/>
     <use xlink:href="#DejaVuSans-3a" x="247.070312"/>
     <use xlink:href="#DejaVuSans-30" x="280.761719"/>
     <use xlink:href="#DejaVuSans-31" x="344.384766"/>
    </g>
   </g>
   <g id="text_29">
    <!-- C*03:03 -->
    <g transform="translate(62.568985 159.677804) scale(0.09 -0.09)">
     <use xlink:href="#DejaVuSans-43"/>
     <use xlink:href="#DejaVuSans-2a" x="69.824219"/>
     <use xlink:href="#DejaVuSans-30" x="119.824219"/>
     <use xlink:href="#DejaVuSans-33" x="183.447266"/>
     <use xlink:href="#DejaVuSans-3a" x="247.070312"/>
     <use xlink:href="#DejaVuSans-30" x="280.761719"/>
     <use xlink:href="#DejaVuSans-33" x="344.384766"/>
    </g>
   </g>
   <g id="text_30">
    <!-- C*14:02 -->
    <g transform="translate(88.379135 126.998453) scale(0.09 -0.09)">
     <use xlink:href="#DejaVuSans-43"/>
     <use xlink:href="#DejaVuSans-2a" x="69.824219"/>
     <use xlink:href="#DejaVuSans-31" x="119.824219"/>
     <use xlink:href="#DejaVuSans-34" x="183.447266"/>
     <use xlink:href="#DejaVuSans-3a" x="247.070312"/>
     <use xlink:href="#DejaVuSans-30" x="280.761719"/>
     <use xlink:href="#DejaVuSans-32" x="344.384766"/>
    </g>
   </g>
   <g id="text_31">
    <!-- C*18:01 -->
    <g transform="translate(167.502394 72.42108) scale(0.09 -0.09)">
     <use xlink:href="#DejaVuSans-43"/>
     <use xlink:href="#DejaVuSans-2a" x="69.824219"/>
     <use xlink:href="#DejaVuSans-31" x="119.824219"/>
     <use xlink:href="#DejaVuSans-38" x="183.447266"/>
     <use xlink:href="#DejaVuSans-3a" x="247.070312"/>
     <use xlink:href="#DejaVuSans-30" x="280.761719"/>
     <use xlink:href="#DejaVuSans-31" x="344.384766"/>
    </g>
   </g>
   <g id="text_32">
    <!-- C*01:02 -->
    <g transform="translate(64.474409 147.888135) scale(0.09 -0.09)">
     <use xlink:href="#DejaVuSans-43"/>
     <use xlink:href="#DejaVuSans-2a" x="69.824219"/>
     <use xlink:href="#DejaVuSans-30" x="119.824219"/>
     <use xlink:href="#DejaVuSans-31" x="183.447266"/>
     <use xlink:href="#DejaVuSans-3a" x="247.070312"/>
     <use xlink:href="#DejaVuSans-30" x="280.761719"/>
     <use xlink:href="#DejaVuSans-32" x="344.384766"/>
    </g>
   </g>
   <g id="text_33">
    <!-- C*07:04 -->
    <g transform="translate(95.515695 67.304172) scale(0.09 -0.09)">
     <use xlink:href="#DejaVuSans-43"/>
     <use xlink:href="#DejaVuSans-2a" x="69.824219"/>
     <use xlink:href="#DejaVuSans-30" x="119.824219"/>
     <use xlink:href="#DejaVuSans-37" x="183.447266"/>
     <use xlink:href="#DejaVuSans-3a" x="247.070312"/>
     <use xlink:href="#DejaVuSans-30" x="280.761719"/>
     <use xlink:href="#DejaVuSans-34" x="344.384766"/>
    </g>
   </g>
   <g id="text_34">
    <!-- C*07:06 -->
    <g transform="translate(78.224559 26.57829) scale(0.09 -0.09)">
     <use xlink:href="#DejaVuSans-43"/>
     <use xlink:href="#DejaVuSans-2a" x="69.824219"/>
     <use xlink:href="#DejaVuSans-30" x="119.824219"/>
     <use xlink:href="#DejaVuSans-37" x="183.447266"/>
     <use xlink:href="#DejaVuSans-3a" x="247.070312"/>
     <use xlink:href="#DejaVuSans-30" x="280.761719"/>
     <use xlink:href="#DejaVuSans-36" x="344.384766"/>
    </g>
   </g>
  </g>
 </g>
 <defs>
  <clipPath id="p089004c633">
   <rect x="49.61" y="9.72" width="152.300836" height="169"/>
  </clipPath>
 </defs>
</svg>
