<?xml version="1.0" encoding="utf-8" standalone="no"?>
<!DOCTYPE svg PUBLIC "-//W3C//DTD SVG 1.1//EN"
  "http://www.w3.org/Graphics/SVG/1.1/DTD/svg11.dtd">
<svg xmlns:xlink="http://www.w3.org/1999/xlink" width="360pt" height="144pt" viewBox="0 0 360 144" xmlns="http://www.w3.org/2000/svg" version="1.1">
 <metadata>
  <rdf:RDF xmlns:dc="http://purl.org/dc/elements/1.1/" xmlns:cc="http://creativecommons.org/ns#" xmlns:rdf="http://www.w3.org/1999/02/22-rdf-syntax-ns#">
   <cc:Work>
    <dc:type rdf:resource="http://purl.org/dc/dcmitype/StillImage"/>
    <dc:date>2024-03-06T13:57:09.733396</dc:date>
    <dc:format>image/svg+xml</dc:format>
    <dc:creator>
     <cc:Agent>
      <dc:title>Matplotlib v3.7.4, https://matplotlib.org/</dc:title>
     </cc:Agent>
    </dc:creator>
   </cc:Work>
  </rdf:RDF>
 </metadata>
 <defs>
  <style type="text/css">*{stroke-linejoin: round; stroke-linecap: butt}</style>
 </defs>
 <g id="figure_1">
  <g id="patch_1">
   <path d="M 0 144 
L 360 144 
L 360 0 
L 0 0 
z
" style="fill: #ffffff"/>
  </g>
  <g id="axes_1">
   <g id="patch_2">
    <path d="M 40.16 106.72 
L 116.7 106.72 
L 116.7 22.92 
L 40.16 22.92 
z
" style="fill: #ffffff"/>
   </g>
   <g id="PolyCollection_1">
    <defs>
     <path id="m09d6d3b7d9" d="M 58.940996 -55.373182 
L 46.892337 -55.373182 
L 46.618434 -55.998411 
L 46.348371 -56.623641 
L 46.083295 -57.248871 
L 45.82431 -57.8741 
L 45.572463 -58.49933 
L 45.328731 -59.124559 
L 45.094014 -59.749789 
L 44.869124 -60.375018 
L 44.654777 -61.000248 
L 44.451585 -61.625478 
L 44.260054 -62.250707 
L 44.080574 -62.875937 
L 43.913424 -63.501166 
L 43.758762 -64.126396 
L 43.616632 -64.751625 
L 43.486965 -65.376855 
L 43.369579 -66.002084 
L 43.264186 -66.627314 
L 43.170398 -67.252544 
L 43.087734 -67.877773 
L 43.015631 -68.503003 
L 42.953454 -69.128232 
L 42.900507 -69.753462 
L 42.856046 -70.378691 
L 42.819295 -71.003921 
L 42.789462 -71.629151 
L 42.765749 -72.25438 
L 42.747377 -72.87961 
L 42.733594 -73.504839 
L 42.723699 -74.130069 
L 42.71705 -74.755298 
L 42.713086 -75.380528 
L 42.711333 -76.005758 
L 42.711424 -76.630987 
L 42.713101 -77.256217 
L 42.716227 -77.881446 
L 42.72079 -78.506676 
L 42.726902 -79.131905 
L 42.734802 -79.757135 
L 42.744849 -80.382365 
L 42.757513 -81.007594 
L 42.773369 -81.632824 
L 42.79308 -82.258053 
L 42.817381 -82.883283 
L 42.847064 -83.508512 
L 42.882955 -84.133742 
L 42.925894 -84.758972 
L 42.976715 -85.384201 
L 43.036218 -86.009431 
L 43.105158 -86.63466 
L 43.184211 -87.25989 
L 43.273967 -87.885119 
L 43.374905 -88.510349 
L 43.487382 -89.135579 
L 43.611618 -89.760808 
L 43.747692 -90.386038 
L 43.895532 -91.011267 
L 44.054913 -91.636497 
L 44.225461 -92.261726 
L 44.406655 -92.886956 
L 44.597837 -93.512185 
L 44.798218 -94.137415 
L 45.006896 -94.762645 
L 45.222866 -95.387874 
L 45.445042 -96.013104 
L 45.672273 -96.638333 
L 45.903358 -97.263563 
L 46.137072 -97.888792 
L 46.372184 -98.514022 
L 46.607471 -99.139252 
L 46.841742 -99.764481 
L 47.073852 -100.389711 
L 47.302721 -101.01494 
L 47.527342 -101.64017 
L 47.746799 -102.265399 
L 47.960276 -102.890629 
L 48.167062 -103.515859 
L 48.36656 -104.141088 
L 48.55829 -104.766318 
L 48.741889 -105.391547 
L 48.917115 -106.016777 
L 49.083838 -106.642006 
L 49.242042 -107.267236 
L 49.391816 -107.892466 
L 49.533346 -108.517695 
L 49.666908 -109.142925 
L 49.792858 -109.768154 
L 49.91162 -110.393384 
L 50.023675 -111.018613 
L 50.129547 -111.643843 
L 50.229796 -112.269073 
L 50.324999 -112.894302 
L 50.415743 -113.519532 
L 50.50261 -114.144761 
L 50.586168 -114.769991 
L 50.666959 -115.39522 
L 50.745492 -116.02045 
L 50.822233 -116.64568 
L 50.897598 -117.270909 
L 54.935736 -117.270909 
L 54.935736 -117.270909 
L 55.011101 -116.64568 
L 55.087841 -116.02045 
L 55.166374 -115.39522 
L 55.247165 -114.769991 
L 55.330723 -114.144761 
L 55.41759 -113.519532 
L 55.508334 -112.894302 
L 55.603537 -112.269073 
L 55.703786 -111.643843 
L 55.809659 -111.018613 
L 55.921713 -110.393384 
L 56.040475 -109.768154 
L 56.166425 -109.142925 
L 56.299988 -108.517695 
L 56.441518 -107.892466 
L 56.591291 -107.267236 
L 56.749496 -106.642006 
L 56.916219 -106.016777 
L 57.091444 -105.391547 
L 57.275044 -104.766318 
L 57.466773 -104.141088 
L 57.666271 -103.515859 
L 57.873057 -102.890629 
L 58.086534 -102.265399 
L 58.305992 -101.64017 
L 58.530613 -101.01494 
L 58.759481 -100.389711 
L 58.991592 -99.764481 
L 59.225863 -99.139252 
L 59.46115 -98.514022 
L 59.696261 -97.888792 
L 59.929976 -97.263563 
L 60.161061 -96.638333 
L 60.388291 -96.013104 
L 60.610467 -95.387874 
L 60.826438 -94.762645 
L 61.035115 -94.137415 
L 61.235496 -93.512185 
L 61.426678 -92.886956 
L 61.607873 -92.261726 
L 61.778421 -91.636497 
L 61.937802 -91.011267 
L 62.085641 -90.386038 
L 62.221715 -89.760808 
L 62.345952 -89.135579 
L 62.458428 -88.510349 
L 62.559366 -87.885119 
L 62.649122 -87.25989 
L 62.728176 -86.63466 
L 62.797115 -86.009431 
L 62.856619 -85.384201 
L 62.907439 -84.758972 
L 62.950378 -84.133742 
L 62.986269 -83.508512 
L 63.015952 -82.883283 
L 63.040253 -82.258053 
L 63.059964 -81.632824 
L 63.07582 -81.007594 
L 63.088484 -80.382365 
L 63.098531 -79.757135 
L 63.106431 -79.131905 
L 63.112543 -78.506676 
L 63.117106 -77.881446 
L 63.120232 -77.256217 
L 63.121909 -76.630987 
L 63.122 -76.005758 
L 63.120248 -75.380528 
L 63.116283 -74.755298 
L 63.109634 -74.130069 
L 63.099739 -73.504839 
L 63.085957 -72.87961 
L 63.067584 -72.25438 
L 63.043872 -71.629151 
L 63.014038 -71.003921 
L 62.977287 -70.378691 
L 62.932826 -69.753462 
L 62.879879 -69.128232 
L 62.817702 -68.503003 
L 62.745599 -67.877773 
L 62.662936 -67.252544 
L 62.569147 -66.627314 
L 62.463754 -66.002084 
L 62.346368 -65.376855 
L 62.216701 -64.751625 
L 62.074572 -64.126396 
L 61.91991 -63.501166 
L 61.752759 -62.875937 
L 61.573279 -62.250707 
L 61.381748 -61.625478 
L 61.178556 -61.000248 
L 60.964209 -60.375018 
L 60.739319 -59.749789 
L 60.504602 -59.124559 
L 60.26087 -58.49933 
L 60.009023 -57.8741 
L 59.750038 -57.248871 
L 59.484963 -56.623641 
L 59.2149 -55.998411 
L 58.940996 -55.373182 
z
" style="stroke: #494949; stroke-width: 1.25"/>
    </defs>
    <g clip-path="url(#pea61e5461e)">
     <use xlink:href="#m09d6d3b7d9" x="0" y="144" style="fill: #cb5e28; stroke: #494949; stroke-width: 1.25"/>
    </g>
   </g>
   <g id="PolyCollection_2">
    <defs>
     <path id="m3a282e2860" d="M 83.136107 -41.089091 
L 73.723893 -41.089091 
L 73.49892 -41.81051 
L 73.274194 -42.531928 
L 73.050409 -43.253347 
L 72.828244 -43.974766 
L 72.608351 -44.696185 
L 72.391353 -45.417603 
L 72.177834 -46.139022 
L 71.968338 -46.860441 
L 71.763363 -47.58186 
L 71.563359 -48.303278 
L 71.368727 -49.024697 
L 71.179816 -49.746116 
L 70.996925 -50.467534 
L 70.8203 -51.188953 
L 70.650142 -51.910372 
L 70.486606 -52.631791 
L 70.329804 -53.353209 
L 70.179812 -54.074628 
L 70.036671 -54.796047 
L 69.900393 -55.517466 
L 69.77097 -56.238884 
L 69.648373 -56.960303 
L 69.53256 -57.681722 
L 69.423481 -58.40314 
L 69.321078 -59.124559 
L 69.225293 -59.845978 
L 69.136068 -60.567397 
L 69.053344 -61.288815 
L 68.977066 -62.010234 
L 68.907177 -62.731653 
L 68.843621 -63.453072 
L 68.786337 -64.17449 
L 68.735255 -64.895909 
L 68.690293 -65.617328 
L 68.651352 -66.338747 
L 68.61831 -67.060165 
L 68.591014 -67.781584 
L 68.569279 -68.503003 
L 68.552879 -69.224421 
L 68.541544 -69.94584 
L 68.534956 -70.667259 
L 68.532746 -71.388678 
L 68.534494 -72.110096 
L 68.539729 -72.831515 
L 68.54793 -73.552934 
L 68.558531 -74.274353 
L 68.570928 -74.995771 
L 68.584484 -75.71719 
L 68.598542 -76.438609 
L 68.612431 -77.160028 
L 68.625485 -77.881446 
L 68.63705 -78.602865 
L 68.646504 -79.324284 
L 68.653271 -80.045702 
L 68.656832 -80.767121 
L 68.656745 -81.48854 
L 68.65266 -82.209959 
L 68.644328 -82.931377 
L 68.631614 -83.652796 
L 68.61451 -84.374215 
L 68.59314 -85.095634 
L 68.567769 -85.817052 
L 68.538799 -86.538471 
L 68.506777 -87.25989 
L 68.472384 -87.981309 
L 68.436438 -88.702727 
L 68.399875 -89.424146 
L 68.363745 -90.145565 
L 68.329193 -90.866983 
L 68.297445 -91.588402 
L 68.269786 -92.309821 
L 68.247541 -93.03124 
L 68.232055 -93.752658 
L 68.224667 -94.474077 
L 68.226687 -95.195496 
L 68.239379 -95.916915 
L 68.263928 -96.638333 
L 68.301431 -97.359752 
L 68.352869 -98.081171 
L 68.419092 -98.80259 
L 68.500805 -99.524008 
L 68.598553 -100.245427 
L 68.712712 -100.966846 
L 68.843483 -101.688264 
L 68.990889 -102.409683 
L 69.15477 -103.131102 
L 69.334789 -103.852521 
L 69.530436 -104.573939 
L 69.741038 -105.295358 
L 69.965767 -106.016777 
L 70.203652 -106.738196 
L 70.453597 -107.459614 
L 70.714395 -108.181033 
L 70.984748 -108.902452 
L 71.263283 -109.623871 
L 71.54857 -110.345289 
L 71.839147 -111.066708 
L 72.13353 -111.788127 
L 72.430242 -112.509545 
L 84.429758 -112.509545 
L 84.429758 -112.509545 
L 84.72647 -111.788127 
L 85.020853 -111.066708 
L 85.31143 -110.345289 
L 85.596717 -109.623871 
L 85.875252 -108.902452 
L 86.145605 -108.181033 
L 86.406403 -107.459614 
L 86.656348 -106.738196 
L 86.894233 -106.016777 
L 87.118962 -105.295358 
L 87.329564 -104.573939 
L 87.525211 -103.852521 
L 87.70523 -103.131102 
L 87.869111 -102.409683 
L 88.016517 -101.688264 
L 88.147288 -100.966846 
L 88.261447 -100.245427 
L 88.359195 -99.524008 
L 88.440908 -98.80259 
L 88.507131 -98.081171 
L 88.558569 -97.359752 
L 88.596072 -96.638333 
L 88.620621 -95.916915 
L 88.633313 -95.195496 
L 88.635333 -94.474077 
L 88.627945 -93.752658 
L 88.612459 -93.03124 
L 88.590214 -92.309821 
L 88.562555 -91.588402 
L 88.530807 -90.866983 
L 88.496255 -90.145565 
L 88.460125 -89.424146 
L 88.423562 -88.702727 
L 88.387616 -87.981309 
L 88.353223 -87.25989 
L 88.321201 -86.538471 
L 88.292231 -85.817052 
L 88.26686 -85.095634 
L 88.24549 -84.374215 
L 88.228386 -83.652796 
L 88.215672 -82.931377 
L 88.20734 -82.209959 
L 88.203255 -81.48854 
L 88.203168 -80.767121 
L 88.206729 -80.045702 
L 88.213496 -79.324284 
L 88.22295 -78.602865 
L 88.234515 -77.881446 
L 88.247569 -77.160028 
L 88.261458 -76.438609 
L 88.275516 -75.71719 
L 88.289072 -74.995771 
L 88.301469 -74.274353 
L 88.31207 -73.552934 
L 88.320271 -72.831515 
L 88.325506 -72.110096 
L 88.327254 -71.388678 
L 88.325044 -70.667259 
L 88.318456 -69.94584 
L 88.307121 -69.224421 
L 88.290721 -68.503003 
L 88.268986 -67.781584 
L 88.24169 -67.060165 
L 88.208648 -66.338747 
L 88.169707 -65.617328 
L 88.124745 -64.895909 
L 88.073663 -64.17449 
L 88.016379 -63.453072 
L 87.952823 -62.731653 
L 87.882934 -62.010234 
L 87.806656 -61.288815 
L 87.723932 -60.567397 
L 87.634707 -59.845978 
L 87.538922 -59.124559 
L 87.436519 -58.40314 
L 87.32744 -57.681722 
L 87.211627 -56.960303 
L 87.08903 -56.238884 
L 86.959607 -55.517466 
L 86.823329 -54.796047 
L 86.680188 -54.074628 
L 86.530196 -53.353209 
L 86.373394 -52.631791 
L 86.209858 -51.910372 
L 86.0397 -51.188953 
L 85.863075 -50.467534 
L 85.680184 -49.746116 
L 85.491273 -49.024697 
L 85.296641 -48.303278 
L 85.096637 -47.58186 
L 84.891662 -46.860441 
L 84.682166 -46.139022 
L 84.468647 -45.417603 
L 84.251649 -44.696185 
L 84.031756 -43.974766 
L 83.809591 -43.253347 
L 83.585806 -42.531928 
L 83.36108 -41.81051 
L 83.136107 -41.089091 
z
" style="stroke: #494949; stroke-width: 1.25"/>
    </defs>
    <g clip-path="url(#pea61e5461e)">
     <use xlink:href="#m3a282e2860" x="0" y="144" style="fill: #e59154; stroke: #494949; stroke-width: 1.25"/>
    </g>
   </g>
   <g id="PolyCollection_3">
    <defs>
     <path id="m259c6e46a0" d="M 107.351467 -41.089091 
L 100.5352 -41.089091 
L 100.303313 -41.858604 
L 100.062344 -42.628118 
L 99.812696 -43.397631 
L 99.554877 -44.167144 
L 99.28951 -44.936657 
L 99.017335 -45.706171 
L 98.739209 -46.475684 
L 98.45611 -47.245197 
L 98.169125 -48.014711 
L 97.879455 -48.784224 
L 97.588401 -49.553737 
L 97.297356 -50.323251 
L 97.007794 -51.092764 
L 96.721255 -51.862277 
L 96.439329 -52.631791 
L 96.163637 -53.401304 
L 95.895814 -54.170817 
L 95.637487 -54.940331 
L 95.390255 -55.709844 
L 95.155666 -56.479357 
L 94.935196 -57.248871 
L 94.730231 -58.018384 
L 94.542044 -58.787897 
L 94.371777 -59.55741 
L 94.220426 -60.326924 
L 94.088826 -61.096437 
L 93.977639 -61.86595 
L 93.887344 -62.635464 
L 93.818231 -63.404977 
L 93.770398 -64.17449 
L 93.743749 -64.944004 
L 93.738 -65.713517 
L 93.75268 -66.48303 
L 93.787142 -67.252544 
L 93.840572 -68.022057 
L 93.912003 -68.79157 
L 94.000331 -69.561084 
L 94.104329 -70.330597 
L 94.222665 -71.10011 
L 94.353922 -71.869624 
L 94.496617 -72.639137 
L 94.649218 -73.40865 
L 94.810166 -74.178163 
L 94.977891 -74.947677 
L 95.150833 -75.71719 
L 95.327453 -76.486703 
L 95.506255 -77.256217 
L 95.685795 -78.02573 
L 95.864698 -78.795243 
L 96.041662 -79.564757 
L 96.215476 -80.33427 
L 96.385021 -81.103783 
L 96.549278 -81.873297 
L 96.707333 -82.64281 
L 96.858382 -83.412323 
L 97.001727 -84.181837 
L 97.136784 -84.95135 
L 97.263076 -85.720863 
L 97.380236 -86.490376 
L 97.488002 -87.25989 
L 97.586215 -88.029403 
L 97.674817 -88.798916 
L 97.753844 -89.56843 
L 97.823425 -90.337943 
L 97.883774 -91.107456 
L 97.935188 -91.87697 
L 97.978042 -92.646483 
L 98.01278 -93.415996 
L 98.039914 -94.18551 
L 98.06002 -94.955023 
L 98.073727 -95.724536 
L 98.081715 -96.49405 
L 98.084711 -97.263563 
L 98.083481 -98.033076 
L 98.078826 -98.80259 
L 98.071573 -99.572103 
L 98.062575 -100.341616 
L 98.052698 -101.111129 
L 98.042819 -101.880643 
L 98.033819 -102.650156 
L 98.026574 -103.419669 
L 98.021949 -104.189183 
L 98.02079 -104.958696 
L 98.02392 -105.728209 
L 98.032126 -106.497723 
L 98.046152 -107.267236 
L 98.066695 -108.036749 
L 98.094395 -108.806263 
L 98.129827 -109.575776 
L 98.173493 -110.345289 
L 98.225817 -111.114803 
L 98.28714 -111.884316 
L 98.357712 -112.653829 
L 98.437689 -113.423343 
L 98.527129 -114.192856 
L 98.625993 -114.962369 
L 98.734138 -115.731882 
L 98.851325 -116.501396 
L 98.977215 -117.270909 
L 108.909452 -117.270909 
L 108.909452 -117.270909 
L 109.035341 -116.501396 
L 109.152528 -115.731882 
L 109.260674 -114.962369 
L 109.359537 -114.192856 
L 109.448978 -113.423343 
L 109.528955 -112.653829 
L 109.599527 -111.884316 
L 109.66085 -111.114803 
L 109.713174 -110.345289 
L 109.75684 -109.575776 
L 109.792271 -108.806263 
L 109.819971 -108.036749 
L 109.840515 -107.267236 
L 109.854541 -106.497723 
L 109.862746 -105.728209 
L 109.865876 -104.958696 
L 109.864718 -104.189183 
L 109.860093 -103.419669 
L 109.852848 -102.650156 
L 109.843848 -101.880643 
L 109.833969 -101.111129 
L 109.824092 -100.341616 
L 109.815094 -99.572103 
L 109.807841 -98.80259 
L 109.803186 -98.033076 
L 109.801956 -97.263563 
L 109.804952 -96.49405 
L 109.81294 -95.724536 
L 109.826647 -94.955023 
L 109.846752 -94.18551 
L 109.873887 -93.415996 
L 109.908625 -92.646483 
L 109.951478 -91.87697 
L 110.002893 -91.107456 
L 110.063242 -90.337943 
L 110.132823 -89.56843 
L 110.21185 -88.798916 
L 110.300452 -88.029403 
L 110.398665 -87.25989 
L 110.50643 -86.490376 
L 110.62359 -85.720863 
L 110.749882 -84.95135 
L 110.884939 -84.181837 
L 111.028285 -83.412323 
L 111.179334 -82.64281 
L 111.337389 -81.873297 
L 111.501646 -81.103783 
L 111.671191 -80.33427 
L 111.845005 -79.564757 
L 112.021969 -78.795243 
L 112.200871 -78.02573 
L 112.380412 -77.256217 
L 112.559214 -76.486703 
L 112.735834 -75.71719 
L 112.908775 -74.947677 
L 113.076501 -74.178163 
L 113.237449 -73.40865 
L 113.39005 -72.639137 
L 113.532744 -71.869624 
L 113.664001 -71.10011 
L 113.782337 -70.330597 
L 113.886335 -69.561084 
L 113.974663 -68.79157 
L 114.046095 -68.022057 
L 114.099525 -67.252544 
L 114.133987 -66.48303 
L 114.148667 -65.713517 
L 114.142918 -64.944004 
L 114.116269 -64.17449 
L 114.068436 -63.404977 
L 113.999323 -62.635464 
L 113.909028 -61.86595 
L 113.797841 -61.096437 
L 113.666241 -60.326924 
L 113.51489 -59.55741 
L 113.344623 -58.787897 
L 113.156435 -58.018384 
L 112.95147 -57.248871 
L 112.731001 -56.479357 
L 112.496411 -55.709844 
L 112.249179 -54.940331 
L 111.990852 -54.170817 
L 111.72303 -53.401304 
L 111.447338 -52.631791 
L 111.165411 -51.862277 
L 110.878872 -51.092764 
L 110.589311 -50.323251 
L 110.298266 -49.553737 
L 110.007212 -48.784224 
L 109.717542 -48.014711 
L 109.430557 -47.245197 
L 109.147457 -46.475684 
L 108.869332 -45.706171 
L 108.597157 -44.936657 
L 108.33179 -44.167144 
L 108.073971 -43.397631 
L 107.824322 -42.628118 
L 107.583354 -41.858604 
L 107.351467 -41.089091 
z
" style="stroke: #494949; stroke-width: 1.25"/>
    </defs>
    <g clip-path="url(#pea61e5461e)">
     <use xlink:href="#m259c6e46a0" x="0" y="144" style="fill: #ebb07d; stroke: #494949; stroke-width: 1.25"/>
    </g>
   </g>
   <g id="matplotlib.axis_1">
    <g id="xtick_1">
     <g id="line2d_1">
      <defs>
       <path id="mb2c7047cbf" d="M 0 0 
L 0 3.5 
" style="stroke: #000000; stroke-width: 0.8"/>
      </defs>
      <g>
       <use xlink:href="#mb2c7047cbf" x="52.916667" y="106.72" style="stroke: #000000; stroke-width: 0.8"/>
      </g>
     </g>
     <g id="text_1">
      <!-- 0 -->
      <g transform="translate(50.371667 119.79875) scale(0.08 -0.08)">
       <defs>
        <path id="DejaVuSans-30" d="M 2034 4250 
Q 1547 4250 1301 3770 
Q 1056 3291 1056 2328 
Q 1056 1369 1301 889 
Q 1547 409 2034 409 
Q 2525 409 2770 889 
Q 3016 1369 3016 2328 
Q 3016 3291 2770 3770 
Q 2525 4250 2034 4250 
z
M 2034 4750 
Q 2819 4750 3233 4129 
Q 3647 3509 3647 2328 
Q 3647 1150 3233 529 
Q 2819 -91 2034 -91 
Q 1250 -91 836 529 
Q 422 1150 422 2328 
Q 422 3509 836 4129 
Q 1250 4750 2034 4750 
z
" transform="scale(0.015625)"/>
       </defs>
       <use xlink:href="#DejaVuSans-30"/>
      </g>
     </g>
    </g>
    <g id="xtick_2">
     <g id="line2d_2">
      <g>
       <use xlink:href="#mb2c7047cbf" x="78.43" y="106.72" style="stroke: #000000; stroke-width: 0.8"/>
      </g>
     </g>
     <g id="text_2">
      <!-- 1 -->
      <g transform="translate(75.885 119.79875) scale(0.08 -0.08)">
       <defs>
        <path id="DejaVuSans-31" d="M 794 531 
L 1825 531 
L 1825 4091 
L 703 3866 
L 703 4441 
L 1819 4666 
L 2450 4666 
L 2450 531 
L 3481 531 
L 3481 0 
L 794 0 
L 794 531 
z
" transform="scale(0.015625)"/>
       </defs>
       <use xlink:href="#DejaVuSans-31"/>
      </g>
     </g>
    </g>
    <g id="xtick_3">
     <g id="line2d_3">
      <g>
       <use xlink:href="#mb2c7047cbf" x="103.943333" y="106.72" style="stroke: #000000; stroke-width: 0.8"/>
      </g>
     </g>
     <g id="text_3">
      <!-- 2 -->
      <g transform="translate(101.398333 119.79875) scale(0.08 -0.08)">
       <defs>
        <path id="DejaVuSans-32" d="M 1228 531 
L 3431 531 
L 3431 0 
L 469 0 
L 469 531 
Q 828 903 1448 1529 
Q 2069 2156 2228 2338 
Q 2531 2678 2651 2914 
Q 2772 3150 2772 3378 
Q 2772 3750 2511 3984 
Q 2250 4219 1831 4219 
Q 1534 4219 1204 4116 
Q 875 4013 500 3803 
L 500 4441 
Q 881 4594 1212 4672 
Q 1544 4750 1819 4750 
Q 2544 4750 2975 4387 
Q 3406 4025 3406 3419 
Q 3406 3131 3298 2873 
Q 3191 2616 2906 2266 
Q 2828 2175 2409 1742 
Q 1991 1309 1228 531 
z
" transform="scale(0.015625)"/>
       </defs>
       <use xlink:href="#DejaVuSans-32"/>
      </g>
     </g>
    </g>
    <g id="text_4">
     <!-- Alleles (#) -->
     <g transform="translate(55.006797 132.301094) scale(0.09 -0.09)">
      <defs>
       <path id="DejaVuSans-41" d="M 2188 4044 
L 1331 1722 
L 3047 1722 
L 2188 4044 
z
M 1831 4666 
L 2547 4666 
L 4325 0 
L 3669 0 
L 3244 1197 
L 1141 1197 
L 716 0 
L 50 0 
L 1831 4666 
z
" transform="scale(0.015625)"/>
       <path id="DejaVuSans-6c" d="M 603 4863 
L 1178 4863 
L 1178 0 
L 603 0 
L 603 4863 
z
" transform="scale(0.015625)"/>
       <path id="DejaVuSans-65" d="M 3597 1894 
L 3597 1613 
L 953 1613 
Q 991 1019 1311 708 
Q 1631 397 2203 397 
Q 2534 397 2845 478 
Q 3156 559 3463 722 
L 3463 178 
Q 3153 47 2828 -22 
Q 2503 -91 2169 -91 
Q 1331 -91 842 396 
Q 353 884 353 1716 
Q 353 2575 817 3079 
Q 1281 3584 2069 3584 
Q 2775 3584 3186 3129 
Q 3597 2675 3597 1894 
z
M 3022 2063 
Q 3016 2534 2758 2815 
Q 2500 3097 2075 3097 
Q 1594 3097 1305 2825 
Q 1016 2553 972 2059 
L 3022 2063 
z
" transform="scale(0.015625)"/>
       <path id="DejaVuSans-73" d="M 2834 3397 
L 2834 2853 
Q 2591 2978 2328 3040 
Q 2066 3103 1784 3103 
Q 1356 3103 1142 2972 
Q 928 2841 928 2578 
Q 928 2378 1081 2264 
Q 1234 2150 1697 2047 
L 1894 2003 
Q 2506 1872 2764 1633 
Q 3022 1394 3022 966 
Q 3022 478 2636 193 
Q 2250 -91 1575 -91 
Q 1294 -91 989 -36 
Q 684 19 347 128 
L 347 722 
Q 666 556 975 473 
Q 1284 391 1588 391 
Q 1994 391 2212 530 
Q 2431 669 2431 922 
Q 2431 1156 2273 1281 
Q 2116 1406 1581 1522 
L 1381 1569 
Q 847 1681 609 1914 
Q 372 2147 372 2553 
Q 372 3047 722 3315 
Q 1072 3584 1716 3584 
Q 2034 3584 2315 3537 
Q 2597 3491 2834 3397 
z
" transform="scale(0.015625)"/>
       <path id="DejaVuSans-20" transform="scale(0.015625)"/>
       <path id="DejaVuSans-28" d="M 1984 4856 
Q 1566 4138 1362 3434 
Q 1159 2731 1159 2009 
Q 1159 1288 1364 580 
Q 1569 -128 1984 -844 
L 1484 -844 
Q 1016 -109 783 600 
Q 550 1309 550 2009 
Q 550 2706 781 3412 
Q 1013 4119 1484 4856 
L 1984 4856 
z
" transform="scale(0.015625)"/>
       <path id="DejaVuSans-23" d="M 3272 2816 
L 2363 2816 
L 2100 1772 
L 3016 1772 
L 3272 2816 
z
M 2803 4594 
L 2478 3297 
L 3391 3297 
L 3719 4594 
L 4219 4594 
L 3897 3297 
L 4872 3297 
L 4872 2816 
L 3775 2816 
L 3519 1772 
L 4513 1772 
L 4513 1294 
L 3397 1294 
L 3072 0 
L 2572 0 
L 2894 1294 
L 1978 1294 
L 1656 0 
L 1153 0 
L 1478 1294 
L 494 1294 
L 494 1772 
L 1594 1772 
L 1856 2816 
L 850 2816 
L 850 3297 
L 1978 3297 
L 2297 4594 
L 2803 4594 
z
" transform="scale(0.015625)"/>
       <path id="DejaVuSans-29" d="M 513 4856 
L 1013 4856 
Q 1481 4119 1714 3412 
Q 1947 2706 1947 2009 
Q 1947 1309 1714 600 
Q 1481 -109 1013 -844 
L 513 -844 
Q 928 -128 1133 580 
Q 1338 1288 1338 2009 
Q 1338 2731 1133 3434 
Q 928 4138 513 4856 
z
" transform="scale(0.015625)"/>
      </defs>
      <use xlink:href="#DejaVuSans-41"/>
      <use xlink:href="#DejaVuSans-6c" x="68.408203"/>
      <use xlink:href="#DejaVuSans-6c" x="96.191406"/>
      <use xlink:href="#DejaVuSans-65" x="123.974609"/>
      <use xlink:href="#DejaVuSans-6c" x="185.498047"/>
      <use xlink:href="#DejaVuSans-65" x="213.28125"/>
      <use xlink:href="#DejaVuSans-73" x="274.804688"/>
      <use xlink:href="#DejaVuSans-20" x="326.904297"/>
      <use xlink:href="#DejaVuSans-28" x="358.691406"/>
      <use xlink:href="#DejaVuSans-23" x="397.705078"/>
      <use xlink:href="#DejaVuSans-29" x="481.494141"/>
     </g>
    </g>
   </g>
   <g id="matplotlib.axis_2">
    <g id="ytick_1">
     <g id="line2d_4">
      <defs>
       <path id="m4a6911aa1b" d="M 0 0 
L -3.5 0 
" style="stroke: #000000; stroke-width: 0.8"/>
      </defs>
      <g>
       <use xlink:href="#m4a6911aa1b" x="40.16" y="102.910909" style="stroke: #000000; stroke-width: 0.8"/>
      </g>
     </g>
     <g id="text_5">
      <!-- 0 -->
      <g transform="translate(28.07 105.950284) scale(0.08 -0.08)">
       <use xlink:href="#DejaVuSans-30"/>
      </g>
     </g>
    </g>
    <g id="ytick_2">
     <g id="line2d_5">
      <g>
       <use xlink:href="#m4a6911aa1b" x="40.16" y="79.104091" style="stroke: #000000; stroke-width: 0.8"/>
      </g>
     </g>
     <g id="text_6">
      <!-- 5 -->
      <g transform="translate(28.07 82.143466) scale(0.08 -0.08)">
       <defs>
        <path id="DejaVuSans-35" d="M 691 4666 
L 3169 4666 
L 3169 4134 
L 1269 4134 
L 1269 2991 
Q 1406 3038 1543 3061 
Q 1681 3084 1819 3084 
Q 2600 3084 3056 2656 
Q 3513 2228 3513 1497 
Q 3513 744 3044 326 
Q 2575 -91 1722 -91 
Q 1428 -91 1123 -41 
Q 819 9 494 109 
L 494 744 
Q 775 591 1075 516 
Q 1375 441 1709 441 
Q 2250 441 2565 725 
Q 2881 1009 2881 1497 
Q 2881 1984 2565 2268 
Q 2250 2553 1709 2553 
Q 1456 2553 1204 2497 
Q 953 2441 691 2322 
L 691 4666 
z
" transform="scale(0.015625)"/>
       </defs>
       <use xlink:href="#DejaVuSans-35"/>
      </g>
     </g>
    </g>
    <g id="ytick_3">
     <g id="line2d_6">
      <g>
       <use xlink:href="#m4a6911aa1b" x="40.16" y="55.297273" style="stroke: #000000; stroke-width: 0.8"/>
      </g>
     </g>
     <g id="text_7">
      <!-- 10 -->
      <g transform="translate(22.98 58.336648) scale(0.08 -0.08)">
       <use xlink:href="#DejaVuSans-31"/>
       <use xlink:href="#DejaVuSans-30" x="63.623047"/>
      </g>
     </g>
    </g>
    <g id="ytick_4">
     <g id="line2d_7">
      <g>
       <use xlink:href="#m4a6911aa1b" x="40.16" y="31.490455" style="stroke: #000000; stroke-width: 0.8"/>
      </g>
     </g>
     <g id="text_8">
      <!-- 15 -->
      <g transform="translate(22.98 34.52983) scale(0.08 -0.08)">
       <use xlink:href="#DejaVuSans-31"/>
       <use xlink:href="#DejaVuSans-35" x="63.623047"/>
      </g>
     </g>
    </g>
    <g id="text_9">
     <!-- SOFA -->
     <g transform="translate(17.108281 76.475) rotate(-90) scale(0.09 -0.09)">
      <defs>
       <path id="DejaVuSans-53" d="M 3425 4513 
L 3425 3897 
Q 3066 4069 2747 4153 
Q 2428 4238 2131 4238 
Q 1616 4238 1336 4038 
Q 1056 3838 1056 3469 
Q 1056 3159 1242 3001 
Q 1428 2844 1947 2747 
L 2328 2669 
Q 3034 2534 3370 2195 
Q 3706 1856 3706 1288 
Q 3706 609 3251 259 
Q 2797 -91 1919 -91 
Q 1588 -91 1214 -16 
Q 841 59 441 206 
L 441 856 
Q 825 641 1194 531 
Q 1563 422 1919 422 
Q 2459 422 2753 634 
Q 3047 847 3047 1241 
Q 3047 1584 2836 1778 
Q 2625 1972 2144 2069 
L 1759 2144 
Q 1053 2284 737 2584 
Q 422 2884 422 3419 
Q 422 4038 858 4394 
Q 1294 4750 2059 4750 
Q 2388 4750 2728 4690 
Q 3069 4631 3425 4513 
z
" transform="scale(0.015625)"/>
       <path id="DejaVuSans-4f" d="M 2522 4238 
Q 1834 4238 1429 3725 
Q 1025 3213 1025 2328 
Q 1025 1447 1429 934 
Q 1834 422 2522 422 
Q 3209 422 3611 934 
Q 4013 1447 4013 2328 
Q 4013 3213 3611 3725 
Q 3209 4238 2522 4238 
z
M 2522 4750 
Q 3503 4750 4090 4092 
Q 4678 3434 4678 2328 
Q 4678 1225 4090 567 
Q 3503 -91 2522 -91 
Q 1538 -91 948 565 
Q 359 1222 359 2328 
Q 359 3434 948 4092 
Q 1538 4750 2522 4750 
z
" transform="scale(0.015625)"/>
       <path id="DejaVuSans-46" d="M 628 4666 
L 3309 4666 
L 3309 4134 
L 1259 4134 
L 1259 2759 
L 3109 2759 
L 3109 2228 
L 1259 2228 
L 1259 0 
L 628 0 
L 628 4666 
z
" transform="scale(0.015625)"/>
      </defs>
      <use xlink:href="#DejaVuSans-53"/>
      <use xlink:href="#DejaVuSans-4f" x="63.476562"/>
      <use xlink:href="#DejaVuSans-46" x="142.1875"/>
      <use xlink:href="#DejaVuSans-41" x="190.582031"/>
     </g>
    </g>
   </g>
   <g id="line2d_8">
    <path d="M 52.916667 88.626818 
L 52.916667 26.729091 
" clip-path="url(#pea61e5461e)" style="fill: none; stroke: #494949; stroke-width: 1.875; stroke-linecap: square"/>
   </g>
   <g id="line2d_9">
    <path d="M 52.916667 75.533068 
L 52.916667 54.106932 
" clip-path="url(#pea61e5461e)" style="fill: none; stroke: #494949; stroke-width: 5.625; stroke-linecap: square"/>
   </g>
   <g id="line2d_10">
    <path d="M 52.916667 64.82 
" clip-path="url(#pea61e5461e)" style="fill: none; stroke: #494949; stroke-width: 1.5; stroke-linecap: square"/>
    <defs>
     <path id="m3a9613f49d" d="M 2.34375 0 
L -2.34375 -0 
" style="stroke: #ffffff; stroke-width: 1.125"/>
    </defs>
    <g clip-path="url(#pea61e5461e)">
     <use xlink:href="#m3a9613f49d" x="52.916667" y="64.82" style="fill: #ffffff; stroke: #ffffff; stroke-width: 1.125"/>
    </g>
   </g>
   <g id="line2d_11">
    <path d="M 78.43 102.910909 
L 78.43 31.490455 
" clip-path="url(#pea61e5461e)" style="fill: none; stroke: #494949; stroke-width: 1.875; stroke-linecap: square"/>
   </g>
   <g id="line2d_12">
    <path d="M 78.43 82.675114 
L 78.43 45.774545 
" clip-path="url(#pea61e5461e)" style="fill: none; stroke: #494949; stroke-width: 5.625; stroke-linecap: square"/>
   </g>
   <g id="line2d_13">
    <path d="M 78.43 67.200682 
" clip-path="url(#pea61e5461e)" style="fill: none; stroke: #494949; stroke-width: 1.5; stroke-linecap: square"/>
    <g clip-path="url(#pea61e5461e)">
     <use xlink:href="#m3a9613f49d" x="78.43" y="67.200682" style="fill: #ffffff; stroke: #ffffff; stroke-width: 1.125"/>
    </g>
   </g>
   <g id="line2d_14">
    <path d="M 103.943333 102.910909 
L 103.943333 26.729091 
" clip-path="url(#pea61e5461e)" style="fill: none; stroke: #494949; stroke-width: 1.875; stroke-linecap: square"/>
   </g>
   <g id="line2d_15">
    <path d="M 103.943333 82.675114 
L 103.943333 42.203523 
" clip-path="url(#pea61e5461e)" style="fill: none; stroke: #494949; stroke-width: 5.625; stroke-linecap: square"/>
   </g>
   <g id="line2d_16">
    <path d="M 103.943333 71.962045 
" clip-path="url(#pea61e5461e)" style="fill: none; stroke: #494949; stroke-width: 1.5; stroke-linecap: square"/>
    <g clip-path="url(#pea61e5461e)">
     <use xlink:href="#m3a9613f49d" x="103.943333" y="71.962045" style="fill: #ffffff; stroke: #ffffff; stroke-width: 1.125"/>
    </g>
   </g>
   <g id="patch_3">
    <path d="M 40.16 106.72 
L 40.16 22.92 
" style="fill: none; stroke: #000000; stroke-width: 0.8; stroke-linejoin: miter; stroke-linecap: square"/>
   </g>
   <g id="patch_4">
    <path d="M 116.7 106.72 
L 116.7 22.92 
" style="fill: none; stroke: #000000; stroke-width: 0.8; stroke-linejoin: miter; stroke-linecap: square"/>
   </g>
   <g id="patch_5">
    <path d="M 40.16 106.72 
L 116.7 106.72 
" style="fill: none; stroke: #000000; stroke-width: 0.8; stroke-linejoin: miter; stroke-linecap: square"/>
   </g>
   <g id="patch_6">
    <path d="M 40.16 22.92 
L 116.7 22.92 
" style="fill: none; stroke: #000000; stroke-width: 0.8; stroke-linejoin: miter; stroke-linecap: square"/>
   </g>
   <g id="PathCollection_1">
    <defs>
     <path id="C0_0_742e9eb365" d="M 0 2.5 
C 0.663008 2.5 1.29895 2.236584 1.767767 1.767767 
C 2.236584 1.29895 2.5 0.663008 2.5 -0 
C 2.5 -0.663008 2.236584 -1.29895 1.767767 -1.767767 
C 1.29895 -2.236584 0.663008 -2.5 0 -2.5 
C -0.663008 -2.5 -1.29895 -2.236584 -1.767767 -1.767767 
C -2.236584 -1.29895 -2.5 -0.663008 -2.5 0 
C -2.5 0.663008 -2.236584 1.29895 -1.767767 1.767767 
C -1.29895 2.236584 -0.663008 2.5 0 2.5 
z
"/>
    </defs>
    <g clip-path="url(#pea61e5461e)">
     <use xlink:href="#C0_0_742e9eb365" x="52.916667" y="50.535909" style="fill: #fd8d3c; stroke: #000000"/>
    </g>
    <g clip-path="url(#pea61e5461e)">
     <use xlink:href="#C0_0_742e9eb365" x="52.916667" y="60.058636" style="fill: #fd8d3c; stroke: #000000"/>
    </g>
    <g clip-path="url(#pea61e5461e)">
     <use xlink:href="#C0_0_742e9eb365" x="49.083172" y="74.342727" style="fill: #fd8d3c; stroke: #000000"/>
    </g>
    <g clip-path="url(#pea61e5461e)">
     <use xlink:href="#C0_0_742e9eb365" x="56.750161" y="74.342727" style="fill: #fd8d3c; stroke: #000000"/>
    </g>
    <g clip-path="url(#pea61e5461e)">
     <use xlink:href="#C0_0_742e9eb365" x="49.083172" y="83.865455" style="fill: #fd8d3c; stroke: #000000"/>
    </g>
    <g clip-path="url(#pea61e5461e)">
     <use xlink:href="#C0_0_742e9eb365" x="46.616667" y="60.058636" style="fill: #fd8d3c; stroke: #000000"/>
    </g>
    <g clip-path="url(#pea61e5461e)">
     <use xlink:href="#C0_0_742e9eb365" x="46.616667" y="50.535909" style="fill: #fd8d3c; stroke: #000000"/>
    </g>
    <g clip-path="url(#pea61e5461e)">
     <use xlink:href="#C0_0_742e9eb365" x="52.916667" y="26.729091" style="fill: #fd8d3c; stroke: #000000"/>
    </g>
    <g clip-path="url(#pea61e5461e)">
     <use xlink:href="#C0_0_742e9eb365" x="52.916667" y="41.013182" style="fill: #fd8d3c; stroke: #000000"/>
    </g>
    <g clip-path="url(#pea61e5461e)">
     <use xlink:href="#C0_0_742e9eb365" x="56.750161" y="55.297273" style="fill: #fd8d3c; stroke: #000000"/>
    </g>
    <g clip-path="url(#pea61e5461e)">
     <use xlink:href="#C0_0_742e9eb365" x="52.916667" y="69.581364" style="fill: #fd8d3c; stroke: #000000"/>
    </g>
    <g clip-path="url(#pea61e5461e)">
     <use xlink:href="#C0_0_742e9eb365" x="63.050161" y="55.297273" style="fill: #fd8d3c; stroke: #000000"/>
    </g>
    <g clip-path="url(#pea61e5461e)">
     <use xlink:href="#C0_0_742e9eb365" x="56.750161" y="83.865455" style="fill: #fd8d3c; stroke: #000000"/>
    </g>
    <g clip-path="url(#pea61e5461e)">
     <use xlink:href="#C0_0_742e9eb365" x="45.249677" y="69.581364" style="fill: #fd8d3c; stroke: #000000"/>
    </g>
    <g clip-path="url(#pea61e5461e)">
     <use xlink:href="#C0_0_742e9eb365" x="52.916667" y="79.104091" style="fill: #fd8d3c; stroke: #000000"/>
    </g>
    <g clip-path="url(#pea61e5461e)">
     <use xlink:href="#C0_0_742e9eb365" x="52.916667" y="88.626818" style="fill: #fd8d3c; stroke: #000000"/>
    </g>
   </g>
   <g id="PathCollection_2">
    <defs>
     <path id="C1_0_e3c743ad57" d="M 0 2.5 
C 0.663008 2.5 1.29895 2.236584 1.767767 1.767767 
C 2.236584 1.29895 2.5 0.663008 2.5 -0 
C 2.5 -0.663008 2.236584 -1.29895 1.767767 -1.767767 
C 1.29895 -2.236584 0.663008 -2.5 0 -2.5 
C -0.663008 -2.5 -1.29895 -2.236584 -1.767767 -1.767767 
C -2.236584 -1.29895 -2.5 -0.663008 -2.5 0 
C -2.5 0.663008 -2.236584 1.29895 -1.767767 1.767767 
C -1.29895 2.236584 -0.663008 2.5 0 2.5 
z
"/>
    </defs>
    <g clip-path="url(#pea61e5461e)">
     <use xlink:href="#C1_0_e3c743ad57" x="88.563495" y="69.581364" style="fill: #fdae6b; stroke: #000000"/>
    </g>
    <g clip-path="url(#pea61e5461e)">
     <use xlink:href="#C1_0_e3c743ad57" x="74.596505" y="50.535909" style="fill: #fdae6b; stroke: #000000"/>
    </g>
    <g clip-path="url(#pea61e5461e)">
     <use xlink:href="#C1_0_e3c743ad57" x="78.43" y="102.910909" style="fill: #fdae6b; stroke: #000000"/>
    </g>
    <g clip-path="url(#pea61e5461e)">
     <use xlink:href="#C1_0_e3c743ad57" x="78.43" y="36.251818" style="fill: #fdae6b; stroke: #000000"/>
    </g>
    <g clip-path="url(#pea61e5461e)">
     <use xlink:href="#C1_0_e3c743ad57" x="84.73" y="74.342727" style="fill: #fdae6b; stroke: #000000"/>
    </g>
    <g clip-path="url(#pea61e5461e)">
     <use xlink:href="#C1_0_e3c743ad57" x="74.596505" y="60.058636" style="fill: #fdae6b; stroke: #000000"/>
    </g>
    <g clip-path="url(#pea61e5461e)">
     <use xlink:href="#C1_0_e3c743ad57" x="74.596505" y="31.490455" style="fill: #fdae6b; stroke: #000000"/>
    </g>
    <g clip-path="url(#pea61e5461e)">
     <use xlink:href="#C1_0_e3c743ad57" x="78.43" y="83.865455" style="fill: #fdae6b; stroke: #000000"/>
    </g>
    <g clip-path="url(#pea61e5461e)">
     <use xlink:href="#C1_0_e3c743ad57" x="82.263495" y="88.626818" style="fill: #fdae6b; stroke: #000000"/>
    </g>
    <g clip-path="url(#pea61e5461e)">
     <use xlink:href="#C1_0_e3c743ad57" x="70.763011" y="45.774545" style="fill: #fdae6b; stroke: #000000"/>
    </g>
    <g clip-path="url(#pea61e5461e)">
     <use xlink:href="#C1_0_e3c743ad57" x="78.43" y="55.297273" style="fill: #fdae6b; stroke: #000000"/>
    </g>
    <g clip-path="url(#pea61e5461e)">
     <use xlink:href="#C1_0_e3c743ad57" x="78.43" y="45.774545" style="fill: #fdae6b; stroke: #000000"/>
    </g>
    <g clip-path="url(#pea61e5461e)">
     <use xlink:href="#C1_0_e3c743ad57" x="74.596505" y="69.581364" style="fill: #fdae6b; stroke: #000000"/>
    </g>
    <g clip-path="url(#pea61e5461e)">
     <use xlink:href="#C1_0_e3c743ad57" x="84.73" y="45.774545" style="fill: #fdae6b; stroke: #000000"/>
    </g>
    <g clip-path="url(#pea61e5461e)">
     <use xlink:href="#C1_0_e3c743ad57" x="74.596505" y="98.149545" style="fill: #fdae6b; stroke: #000000"/>
    </g>
    <g clip-path="url(#pea61e5461e)">
     <use xlink:href="#C1_0_e3c743ad57" x="78.43" y="74.342727" style="fill: #fdae6b; stroke: #000000"/>
    </g>
    <g clip-path="url(#pea61e5461e)">
     <use xlink:href="#C1_0_e3c743ad57" x="78.43" y="64.82" style="fill: #fdae6b; stroke: #000000"/>
    </g>
    <g clip-path="url(#pea61e5461e)">
     <use xlink:href="#C1_0_e3c743ad57" x="74.596505" y="88.626818" style="fill: #fdae6b; stroke: #000000"/>
    </g>
    <g clip-path="url(#pea61e5461e)">
     <use xlink:href="#C1_0_e3c743ad57" x="74.596505" y="41.013182" style="fill: #fdae6b; stroke: #000000"/>
    </g>
    <g clip-path="url(#pea61e5461e)">
     <use xlink:href="#C1_0_e3c743ad57" x="88.563495" y="41.013182" style="fill: #fdae6b; stroke: #000000"/>
    </g>
    <g clip-path="url(#pea61e5461e)">
     <use xlink:href="#C1_0_e3c743ad57" x="78.43" y="93.388182" style="fill: #fdae6b; stroke: #000000"/>
    </g>
    <g clip-path="url(#pea61e5461e)">
     <use xlink:href="#C1_0_e3c743ad57" x="74.596505" y="79.104091" style="fill: #fdae6b; stroke: #000000"/>
    </g>
   </g>
   <g id="PathCollection_3">
    <defs>
     <path id="C2_0_c0cd15d199" d="M 0 2.5 
C 0.663008 2.5 1.29895 2.236584 1.767767 1.767767 
C 2.236584 1.29895 2.5 0.663008 2.5 -0 
C 2.5 -0.663008 2.236584 -1.29895 1.767767 -1.767767 
C 1.29895 -2.236584 0.663008 -2.5 0 -2.5 
C -0.663008 -2.5 -1.29895 -2.236584 -1.767767 -1.767767 
C -2.236584 -1.29895 -2.5 -0.663008 -2.5 0 
C -2.5 0.663008 -2.236584 1.29895 -1.767767 1.767767 
C -1.29895 2.236584 -0.663008 2.5 0 2.5 
z
"/>
    </defs>
    <g clip-path="url(#pea61e5461e)">
     <use xlink:href="#C2_0_c0cd15d199" x="103.943333" y="31.490455" style="fill: #fdd0a2; stroke: #000000"/>
    </g>
    <g clip-path="url(#pea61e5461e)">
     <use xlink:href="#C2_0_c0cd15d199" x="100.109839" y="55.297273" style="fill: #fdd0a2; stroke: #000000"/>
    </g>
    <g clip-path="url(#pea61e5461e)">
     <use xlink:href="#C2_0_c0cd15d199" x="93.809839" y="74.342727" style="fill: #fdd0a2; stroke: #000000"/>
    </g>
    <g clip-path="url(#pea61e5461e)">
     <use xlink:href="#C2_0_c0cd15d199" x="93.809839" y="26.729091" style="fill: #fdd0a2; stroke: #000000"/>
    </g>
    <g clip-path="url(#pea61e5461e)">
     <use xlink:href="#C2_0_c0cd15d199" x="107.776828" y="26.729091" style="fill: #fdd0a2; stroke: #000000"/>
    </g>
    <g clip-path="url(#pea61e5461e)">
     <use xlink:href="#C2_0_c0cd15d199" x="93.738" y="79.104091" style="fill: #fdd0a2; stroke: #000000"/>
    </g>
    <g clip-path="url(#pea61e5461e)">
     <use xlink:href="#C2_0_c0cd15d199" x="100.109839" y="41.013182" style="fill: #fdd0a2; stroke: #000000"/>
    </g>
    <g clip-path="url(#pea61e5461e)">
     <use xlink:href="#C2_0_c0cd15d199" x="100.109839" y="26.729091" style="fill: #fdd0a2; stroke: #000000"/>
    </g>
    <g clip-path="url(#pea61e5461e)">
     <use xlink:href="#C2_0_c0cd15d199" x="107.776828" y="41.013182" style="fill: #fdd0a2; stroke: #000000"/>
    </g>
    <g clip-path="url(#pea61e5461e)">
     <use xlink:href="#C2_0_c0cd15d199" x="103.943333" y="79.104091" style="fill: #fdd0a2; stroke: #000000"/>
    </g>
    <g clip-path="url(#pea61e5461e)">
     <use xlink:href="#C2_0_c0cd15d199" x="107.776828" y="83.865455" style="fill: #fdd0a2; stroke: #000000"/>
    </g>
    <g clip-path="url(#pea61e5461e)">
     <use xlink:href="#C2_0_c0cd15d199" x="107.776828" y="74.342727" style="fill: #fdd0a2; stroke: #000000"/>
    </g>
    <g clip-path="url(#pea61e5461e)">
     <use xlink:href="#C2_0_c0cd15d199" x="103.943333" y="45.774545" style="fill: #fdd0a2; stroke: #000000"/>
    </g>
    <g clip-path="url(#pea61e5461e)">
     <use xlink:href="#C2_0_c0cd15d199" x="103.943333" y="69.581364" style="fill: #fdd0a2; stroke: #000000"/>
    </g>
    <g clip-path="url(#pea61e5461e)">
     <use xlink:href="#C2_0_c0cd15d199" x="103.943333" y="60.058636" style="fill: #fdd0a2; stroke: #000000"/>
    </g>
    <g clip-path="url(#pea61e5461e)">
     <use xlink:href="#C2_0_c0cd15d199" x="100.109839" y="64.82" style="fill: #fdd0a2; stroke: #000000"/>
    </g>
    <g clip-path="url(#pea61e5461e)">
     <use xlink:href="#C2_0_c0cd15d199" x="103.943333" y="88.626818" style="fill: #fdd0a2; stroke: #000000"/>
    </g>
    <g clip-path="url(#pea61e5461e)">
     <use xlink:href="#C2_0_c0cd15d199" x="103.943333" y="102.910909" style="fill: #fdd0a2; stroke: #000000"/>
    </g>
    <g clip-path="url(#pea61e5461e)">
     <use xlink:href="#C2_0_c0cd15d199" x="97.643333" y="79.104091" style="fill: #fdd0a2; stroke: #000000"/>
    </g>
    <g clip-path="url(#pea61e5461e)">
     <use xlink:href="#C2_0_c0cd15d199" x="93.809839" y="83.865455" style="fill: #fdd0a2; stroke: #000000"/>
    </g>
    <g clip-path="url(#pea61e5461e)">
     <use xlink:href="#C2_0_c0cd15d199" x="97.643333" y="88.626818" style="fill: #fdd0a2; stroke: #000000"/>
    </g>
    <g clip-path="url(#pea61e5461e)">
     <use xlink:href="#C2_0_c0cd15d199" x="114.076828" y="83.865455" style="fill: #fdd0a2; stroke: #000000"/>
    </g>
   </g>
   <g id="text_10">
    <!-- C1 -->
    <g style="fill: #e6550d" transform="translate(71.996406 16.92) scale(0.09 -0.09)">
     <defs>
      <path id="DejaVuSans-Bold-43" d="M 4288 256 
Q 3956 84 3597 -3 
Q 3238 -91 2847 -91 
Q 1681 -91 1000 561 
Q 319 1213 319 2328 
Q 319 3447 1000 4098 
Q 1681 4750 2847 4750 
Q 3238 4750 3597 4662 
Q 3956 4575 4288 4403 
L 4288 3438 
Q 3953 3666 3628 3772 
Q 3303 3878 2944 3878 
Q 2300 3878 1931 3465 
Q 1563 3053 1563 2328 
Q 1563 1606 1931 1193 
Q 2300 781 2944 781 
Q 3303 781 3628 887 
Q 3953 994 4288 1222 
L 4288 256 
z
" transform="scale(0.015625)"/>
      <path id="DejaVuSans-Bold-31" d="M 750 831 
L 1813 831 
L 1813 3847 
L 722 3622 
L 722 4441 
L 1806 4666 
L 2950 4666 
L 2950 831 
L 4013 831 
L 4013 0 
L 750 0 
L 750 831 
z
" transform="scale(0.015625)"/>
     </defs>
     <use xlink:href="#DejaVuSans-Bold-43"/>
     <use xlink:href="#DejaVuSans-Bold-31" x="73.388672"/>
    </g>
   </g>
  </g>
  <g id="axes_2">
   <g id="patch_7">
    <path d="M 156.95 106.72 
L 233.49 106.72 
L 233.49 22.92 
L 156.95 22.92 
z
" style="fill: #ffffff"/>
   </g>
   <g id="PolyCollection_4">
    <defs>
     <path id="ma3432a3a00" d="M 173.1148 -41.089091 
L 166.298533 -41.089091 
L 166.066646 -41.858604 
L 165.825678 -42.628118 
L 165.576029 -43.397631 
L 165.31821 -44.167144 
L 165.052843 -44.936657 
L 164.780668 -45.706171 
L 164.502543 -46.475684 
L 164.219443 -47.245197 
L 163.932458 -48.014711 
L 163.642788 -48.784224 
L 163.351734 -49.553737 
L 163.060689 -50.323251 
L 162.771128 -51.092764 
L 162.484589 -51.862277 
L 162.202662 -52.631791 
L 161.92697 -53.401304 
L 161.659148 -54.170817 
L 161.400821 -54.940331 
L 161.153589 -55.709844 
L 160.918999 -56.479357 
L 160.69853 -57.248871 
L 160.493565 -58.018384 
L 160.305377 -58.787897 
L 160.13511 -59.55741 
L 159.983759 -60.326924 
L 159.852159 -61.096437 
L 159.740972 -61.86595 
L 159.650677 -62.635464 
L 159.581564 -63.404977 
L 159.533731 -64.17449 
L 159.507082 -64.944004 
L 159.501333 -65.713517 
L 159.516013 -66.48303 
L 159.550475 -67.252544 
L 159.603905 -68.022057 
L 159.675337 -68.79157 
L 159.763665 -69.561084 
L 159.867663 -70.330597 
L 159.985999 -71.10011 
L 160.117256 -71.869624 
L 160.25995 -72.639137 
L 160.412551 -73.40865 
L 160.573499 -74.178163 
L 160.741225 -74.947677 
L 160.914166 -75.71719 
L 161.090786 -76.486703 
L 161.269588 -77.256217 
L 161.449129 -78.02573 
L 161.628031 -78.795243 
L 161.804995 -79.564757 
L 161.978809 -80.33427 
L 162.148354 -81.103783 
L 162.312611 -81.873297 
L 162.470666 -82.64281 
L 162.621715 -83.412323 
L 162.765061 -84.181837 
L 162.900118 -84.95135 
L 163.02641 -85.720863 
L 163.14357 -86.490376 
L 163.251335 -87.25989 
L 163.349548 -88.029403 
L 163.43815 -88.798916 
L 163.517177 -89.56843 
L 163.586758 -90.337943 
L 163.647107 -91.107456 
L 163.698522 -91.87697 
L 163.741375 -92.646483 
L 163.776113 -93.415996 
L 163.803248 -94.18551 
L 163.823353 -94.955023 
L 163.83706 -95.724536 
L 163.845048 -96.49405 
L 163.848044 -97.263563 
L 163.846814 -98.033076 
L 163.842159 -98.80259 
L 163.834906 -99.572103 
L 163.825908 -100.341616 
L 163.816031 -101.111129 
L 163.806152 -101.880643 
L 163.797152 -102.650156 
L 163.789907 -103.419669 
L 163.785282 -104.189183 
L 163.784124 -104.958696 
L 163.787254 -105.728209 
L 163.795459 -106.497723 
L 163.809485 -107.267236 
L 163.830029 -108.036749 
L 163.857729 -108.806263 
L 163.89316 -109.575776 
L 163.936826 -110.345289 
L 163.98915 -111.114803 
L 164.050473 -111.884316 
L 164.121045 -112.653829 
L 164.201022 -113.423343 
L 164.290463 -114.192856 
L 164.389326 -114.962369 
L 164.497472 -115.731882 
L 164.614659 -116.501396 
L 164.740548 -117.270909 
L 174.672785 -117.270909 
L 174.672785 -117.270909 
L 174.798675 -116.501396 
L 174.915862 -115.731882 
L 175.024007 -114.962369 
L 175.122871 -114.192856 
L 175.212311 -113.423343 
L 175.292288 -112.653829 
L 175.36286 -111.884316 
L 175.424183 -111.114803 
L 175.476507 -110.345289 
L 175.520173 -109.575776 
L 175.555605 -108.806263 
L 175.583305 -108.036749 
L 175.603848 -107.267236 
L 175.617874 -106.497723 
L 175.62608 -105.728209 
L 175.62921 -104.958696 
L 175.628051 -104.189183 
L 175.623426 -103.419669 
L 175.616181 -102.650156 
L 175.607181 -101.880643 
L 175.597302 -101.111129 
L 175.587425 -100.341616 
L 175.578427 -99.572103 
L 175.571174 -98.80259 
L 175.566519 -98.033076 
L 175.565289 -97.263563 
L 175.568285 -96.49405 
L 175.576273 -95.724536 
L 175.58998 -94.955023 
L 175.610086 -94.18551 
L 175.63722 -93.415996 
L 175.671958 -92.646483 
L 175.714812 -91.87697 
L 175.766226 -91.107456 
L 175.826575 -90.337943 
L 175.896156 -89.56843 
L 175.975183 -88.798916 
L 176.063785 -88.029403 
L 176.161998 -87.25989 
L 176.269764 -86.490376 
L 176.386924 -85.720863 
L 176.513216 -84.95135 
L 176.648273 -84.181837 
L 176.791618 -83.412323 
L 176.942667 -82.64281 
L 177.100722 -81.873297 
L 177.264979 -81.103783 
L 177.434524 -80.33427 
L 177.608338 -79.564757 
L 177.785302 -78.795243 
L 177.964205 -78.02573 
L 178.143745 -77.256217 
L 178.322547 -76.486703 
L 178.499167 -75.71719 
L 178.672109 -74.947677 
L 178.839834 -74.178163 
L 179.000782 -73.40865 
L 179.153383 -72.639137 
L 179.296078 -71.869624 
L 179.427335 -71.10011 
L 179.545671 -70.330597 
L 179.649669 -69.561084 
L 179.737997 -68.79157 
L 179.809428 -68.022057 
L 179.862858 -67.252544 
L 179.89732 -66.48303 
L 179.912 -65.713517 
L 179.906251 -64.944004 
L 179.879602 -64.17449 
L 179.831769 -63.404977 
L 179.762656 -62.635464 
L 179.672361 -61.86595 
L 179.561174 -61.096437 
L 179.429574 -60.326924 
L 179.278223 -59.55741 
L 179.107956 -58.787897 
L 178.919769 -58.018384 
L 178.714804 -57.248871 
L 178.494334 -56.479357 
L 178.259745 -55.709844 
L 178.012513 -54.940331 
L 177.754186 -54.170817 
L 177.486363 -53.401304 
L 177.210671 -52.631791 
L 176.928745 -51.862277 
L 176.642206 -51.092764 
L 176.352644 -50.323251 
L 176.061599 -49.553737 
L 175.770545 -48.784224 
L 175.480875 -48.014711 
L 175.19389 -47.245197 
L 174.910791 -46.475684 
L 174.632665 -45.706171 
L 174.36049 -44.936657 
L 174.095123 -44.167144 
L 173.837304 -43.397631 
L 173.587656 -42.628118 
L 173.346687 -41.858604 
L 173.1148 -41.089091 
z
" style="stroke: #404040; stroke-width: 1.25"/>
    </defs>
    <g clip-path="url(#pf5d320658f)">
     <use xlink:href="#ma3432a3a00" x="0" y="144" style="fill: #3f955a; stroke: #404040; stroke-width: 1.25"/>
    </g>
   </g>
   <g id="PolyCollection_5">
    <defs>
     <path id="ma7a3bc26f7" d="M 199.926107 -41.089091 
L 190.513893 -41.089091 
L 190.28892 -41.81051 
L 190.064194 -42.531928 
L 189.840409 -43.253347 
L 189.618244 -43.974766 
L 189.398351 -44.696185 
L 189.181353 -45.417603 
L 188.967834 -46.139022 
L 188.758338 -46.860441 
L 188.553363 -47.58186 
L 188.353359 -48.303278 
L 188.158727 -49.024697 
L 187.969816 -49.746116 
L 187.786925 -50.467534 
L 187.6103 -51.188953 
L 187.440142 -51.910372 
L 187.276606 -52.631791 
L 187.119804 -53.353209 
L 186.969812 -54.074628 
L 186.826671 -54.796047 
L 186.690393 -55.517466 
L 186.56097 -56.238884 
L 186.438373 -56.960303 
L 186.32256 -57.681722 
L 186.213481 -58.40314 
L 186.111078 -59.124559 
L 186.015293 -59.845978 
L 185.926068 -60.567397 
L 185.843344 -61.288815 
L 185.767066 -62.010234 
L 185.697177 -62.731653 
L 185.633621 -63.453072 
L 185.576337 -64.17449 
L 185.525255 -64.895909 
L 185.480293 -65.617328 
L 185.441352 -66.338747 
L 185.40831 -67.060165 
L 185.381014 -67.781584 
L 185.359279 -68.503003 
L 185.342879 -69.224421 
L 185.331544 -69.94584 
L 185.324956 -70.667259 
L 185.322746 -71.388678 
L 185.324494 -72.110096 
L 185.329729 -72.831515 
L 185.33793 -73.552934 
L 185.348531 -74.274353 
L 185.360928 -74.995771 
L 185.374484 -75.71719 
L 185.388542 -76.438609 
L 185.402431 -77.160028 
L 185.415485 -77.881446 
L 185.42705 -78.602865 
L 185.436504 -79.324284 
L 185.443271 -80.045702 
L 185.446832 -80.767121 
L 185.446745 -81.48854 
L 185.44266 -82.209959 
L 185.434328 -82.931377 
L 185.421614 -83.652796 
L 185.40451 -84.374215 
L 185.38314 -85.095634 
L 185.357769 -85.817052 
L 185.328799 -86.538471 
L 185.296777 -87.25989 
L 185.262384 -87.981309 
L 185.226438 -88.702727 
L 185.189875 -89.424146 
L 185.153745 -90.145565 
L 185.119193 -90.866983 
L 185.087445 -91.588402 
L 185.059786 -92.309821 
L 185.037541 -93.03124 
L 185.022055 -93.752658 
L 185.014667 -94.474077 
L 185.016687 -95.195496 
L 185.029379 -95.916915 
L 185.053928 -96.638333 
L 185.091431 -97.359752 
L 185.142869 -98.081171 
L 185.209092 -98.80259 
L 185.290805 -99.524008 
L 185.388553 -100.245427 
L 185.502712 -100.966846 
L 185.633483 -101.688264 
L 185.780889 -102.409683 
L 185.94477 -103.131102 
L 186.124789 -103.852521 
L 186.320436 -104.573939 
L 186.531038 -105.295358 
L 186.755767 -106.016777 
L 186.993652 -106.738196 
L 187.243597 -107.459614 
L 187.504395 -108.181033 
L 187.774748 -108.902452 
L 188.053283 -109.623871 
L 188.33857 -110.345289 
L 188.629147 -111.066708 
L 188.92353 -111.788127 
L 189.220242 -112.509545 
L 201.219758 -112.509545 
L 201.219758 -112.509545 
L 201.51647 -111.788127 
L 201.810853 -111.066708 
L 202.10143 -110.345289 
L 202.386717 -109.623871 
L 202.665252 -108.902452 
L 202.935605 -108.181033 
L 203.196403 -107.459614 
L 203.446348 -106.738196 
L 203.684233 -106.016777 
L 203.908962 -105.295358 
L 204.119564 -104.573939 
L 204.315211 -103.852521 
L 204.49523 -103.131102 
L 204.659111 -102.409683 
L 204.806517 -101.688264 
L 204.937288 -100.966846 
L 205.051447 -100.245427 
L 205.149195 -99.524008 
L 205.230908 -98.80259 
L 205.297131 -98.081171 
L 205.348569 -97.359752 
L 205.386072 -96.638333 
L 205.410621 -95.916915 
L 205.423313 -95.195496 
L 205.425333 -94.474077 
L 205.417945 -93.752658 
L 205.402459 -93.03124 
L 205.380214 -92.309821 
L 205.352555 -91.588402 
L 205.320807 -90.866983 
L 205.286255 -90.145565 
L 205.250125 -89.424146 
L 205.213562 -88.702727 
L 205.177616 -87.981309 
L 205.143223 -87.25989 
L 205.111201 -86.538471 
L 205.082231 -85.817052 
L 205.05686 -85.095634 
L 205.03549 -84.374215 
L 205.018386 -83.652796 
L 205.005672 -82.931377 
L 204.99734 -82.209959 
L 204.993255 -81.48854 
L 204.993168 -80.767121 
L 204.996729 -80.045702 
L 205.003496 -79.324284 
L 205.01295 -78.602865 
L 205.024515 -77.881446 
L 205.037569 -77.160028 
L 205.051458 -76.438609 
L 205.065516 -75.71719 
L 205.079072 -74.995771 
L 205.091469 -74.274353 
L 205.10207 -73.552934 
L 205.110271 -72.831515 
L 205.115506 -72.110096 
L 205.117254 -71.388678 
L 205.115044 -70.667259 
L 205.108456 -69.94584 
L 205.097121 -69.224421 
L 205.080721 -68.503003 
L 205.058986 -67.781584 
L 205.03169 -67.060165 
L 204.998648 -66.338747 
L 204.959707 -65.617328 
L 204.914745 -64.895909 
L 204.863663 -64.17449 
L 204.806379 -63.453072 
L 204.742823 -62.731653 
L 204.672934 -62.010234 
L 204.596656 -61.288815 
L 204.513932 -60.567397 
L 204.424707 -59.845978 
L 204.328922 -59.124559 
L 204.226519 -58.40314 
L 204.11744 -57.681722 
L 204.001627 -56.960303 
L 203.87903 -56.238884 
L 203.749607 -55.517466 
L 203.613329 -54.796047 
L 203.470188 -54.074628 
L 203.320196 -53.353209 
L 203.163394 -52.631791 
L 202.999858 -51.910372 
L 202.8297 -51.188953 
L 202.653075 -50.467534 
L 202.470184 -49.746116 
L 202.281273 -49.024697 
L 202.086641 -48.303278 
L 201.886637 -47.58186 
L 201.681662 -46.860441 
L 201.472166 -46.139022 
L 201.258647 -45.417603 
L 201.041649 -44.696185 
L 200.821756 -43.974766 
L 200.599591 -43.253347 
L 200.375806 -42.531928 
L 200.15108 -41.81051 
L 199.926107 -41.089091 
z
" style="stroke: #404040; stroke-width: 1.25"/>
    </defs>
    <g clip-path="url(#pf5d320658f)">
     <use xlink:href="#ma7a3bc26f7" x="0" y="144" style="fill: #7eba80; stroke: #404040; stroke-width: 1.25"/>
    </g>
   </g>
   <g id="PolyCollection_6">
    <defs>
     <path id="mb2469ebd43" d="M 226.757663 -55.373182 
L 214.709004 -55.373182 
L 214.4351 -55.998411 
L 214.165037 -56.623641 
L 213.899962 -57.248871 
L 213.640977 -57.8741 
L 213.38913 -58.49933 
L 213.145398 -59.124559 
L 212.910681 -59.749789 
L 212.685791 -60.375018 
L 212.471444 -61.000248 
L 212.268252 -61.625478 
L 212.076721 -62.250707 
L 211.897241 -62.875937 
L 211.73009 -63.501166 
L 211.575428 -64.126396 
L 211.433299 -64.751625 
L 211.303632 -65.376855 
L 211.186246 -66.002084 
L 211.080853 -66.627314 
L 210.987064 -67.252544 
L 210.904401 -67.877773 
L 210.832298 -68.503003 
L 210.770121 -69.128232 
L 210.717174 -69.753462 
L 210.672713 -70.378691 
L 210.635962 -71.003921 
L 210.606128 -71.629151 
L 210.582416 -72.25438 
L 210.564043 -72.87961 
L 210.550261 -73.504839 
L 210.540366 -74.130069 
L 210.533717 -74.755298 
L 210.529752 -75.380528 
L 210.528 -76.005758 
L 210.528091 -76.630987 
L 210.529768 -77.256217 
L 210.532894 -77.881446 
L 210.537457 -78.506676 
L 210.543569 -79.131905 
L 210.551469 -79.757135 
L 210.561516 -80.382365 
L 210.57418 -81.007594 
L 210.590036 -81.632824 
L 210.609747 -82.258053 
L 210.634048 -82.883283 
L 210.663731 -83.508512 
L 210.699622 -84.133742 
L 210.742561 -84.758972 
L 210.793381 -85.384201 
L 210.852885 -86.009431 
L 210.921824 -86.63466 
L 211.000878 -87.25989 
L 211.090634 -87.885119 
L 211.191572 -88.510349 
L 211.304048 -89.135579 
L 211.428285 -89.760808 
L 211.564359 -90.386038 
L 211.712198 -91.011267 
L 211.871579 -91.636497 
L 212.042127 -92.261726 
L 212.223322 -92.886956 
L 212.414504 -93.512185 
L 212.614885 -94.137415 
L 212.823562 -94.762645 
L 213.039533 -95.387874 
L 213.261709 -96.013104 
L 213.488939 -96.638333 
L 213.720024 -97.263563 
L 213.953739 -97.888792 
L 214.18885 -98.514022 
L 214.424137 -99.139252 
L 214.658408 -99.764481 
L 214.890519 -100.389711 
L 215.119387 -101.01494 
L 215.344008 -101.64017 
L 215.563466 -102.265399 
L 215.776943 -102.890629 
L 215.983729 -103.515859 
L 216.183227 -104.141088 
L 216.374956 -104.766318 
L 216.558556 -105.391547 
L 216.733781 -106.016777 
L 216.900504 -106.642006 
L 217.058709 -107.267236 
L 217.208482 -107.892466 
L 217.350012 -108.517695 
L 217.483575 -109.142925 
L 217.609525 -109.768154 
L 217.728287 -110.393384 
L 217.840341 -111.018613 
L 217.946214 -111.643843 
L 218.046463 -112.269073 
L 218.141666 -112.894302 
L 218.23241 -113.519532 
L 218.319277 -114.144761 
L 218.402835 -114.769991 
L 218.483626 -115.39522 
L 218.562159 -116.02045 
L 218.638899 -116.64568 
L 218.714264 -117.270909 
L 222.752402 -117.270909 
L 222.752402 -117.270909 
L 222.827767 -116.64568 
L 222.904508 -116.02045 
L 222.983041 -115.39522 
L 223.063832 -114.769991 
L 223.14739 -114.144761 
L 223.234257 -113.519532 
L 223.325001 -112.894302 
L 223.420204 -112.269073 
L 223.520453 -111.643843 
L 223.626325 -111.018613 
L 223.73838 -110.393384 
L 223.857142 -109.768154 
L 223.983092 -109.142925 
L 224.116654 -108.517695 
L 224.258184 -107.892466 
L 224.407958 -107.267236 
L 224.566162 -106.642006 
L 224.732885 -106.016777 
L 224.908111 -105.391547 
L 225.09171 -104.766318 
L 225.28344 -104.141088 
L 225.482938 -103.515859 
L 225.689724 -102.890629 
L 225.903201 -102.265399 
L 226.122658 -101.64017 
L 226.347279 -101.01494 
L 226.576148 -100.389711 
L 226.808258 -99.764481 
L 227.042529 -99.139252 
L 227.277816 -98.514022 
L 227.512928 -97.888792 
L 227.746642 -97.263563 
L 227.977727 -96.638333 
L 228.204958 -96.013104 
L 228.427134 -95.387874 
L 228.643104 -94.762645 
L 228.851782 -94.137415 
L 229.052163 -93.512185 
L 229.243345 -92.886956 
L 229.424539 -92.261726 
L 229.595087 -91.636497 
L 229.754468 -91.011267 
L 229.902308 -90.386038 
L 230.038382 -89.760808 
L 230.162618 -89.135579 
L 230.275095 -88.510349 
L 230.376033 -87.885119 
L 230.465789 -87.25989 
L 230.544842 -86.63466 
L 230.613782 -86.009431 
L 230.673285 -85.384201 
L 230.724106 -84.758972 
L 230.767045 -84.133742 
L 230.802936 -83.508512 
L 230.832619 -82.883283 
L 230.85692 -82.258053 
L 230.876631 -81.632824 
L 230.892487 -81.007594 
L 230.905151 -80.382365 
L 230.915198 -79.757135 
L 230.923098 -79.131905 
L 230.92921 -78.506676 
L 230.933773 -77.881446 
L 230.936899 -77.256217 
L 230.938576 -76.630987 
L 230.938667 -76.005758 
L 230.936914 -75.380528 
L 230.93295 -74.755298 
L 230.926301 -74.130069 
L 230.916406 -73.504839 
L 230.902623 -72.87961 
L 230.884251 -72.25438 
L 230.860538 -71.629151 
L 230.830705 -71.003921 
L 230.793954 -70.378691 
L 230.749493 -69.753462 
L 230.696546 -69.128232 
L 230.634369 -68.503003 
L 230.562266 -67.877773 
L 230.479602 -67.252544 
L 230.385814 -66.627314 
L 230.280421 -66.002084 
L 230.163035 -65.376855 
L 230.033368 -64.751625 
L 229.891238 -64.126396 
L 229.736576 -63.501166 
L 229.569426 -62.875937 
L 229.389946 -62.250707 
L 229.198415 -61.625478 
L 228.995223 -61.000248 
L 228.780876 -60.375018 
L 228.555986 -59.749789 
L 228.321269 -59.124559 
L 228.077537 -58.49933 
L 227.82569 -57.8741 
L 227.566705 -57.248871 
L 227.301629 -56.623641 
L 227.031566 -55.998411 
L 226.757663 -55.373182 
z
" style="stroke: #404040; stroke-width: 1.25"/>
    </defs>
    <g clip-path="url(#pf5d320658f)">
     <use xlink:href="#mb2469ebd43" x="0" y="144" style="fill: #a7d1a3; stroke: #404040; stroke-width: 1.25"/>
    </g>
   </g>
   <g id="matplotlib.axis_3">
    <g id="xtick_4">
     <g id="line2d_17">
      <g>
       <use xlink:href="#mb2c7047cbf" x="169.706667" y="106.72" style="stroke: #000000; stroke-width: 0.8"/>
      </g>
     </g>
     <g id="text_11">
      <!-- 0 -->
      <g transform="translate(167.161667 119.79875) scale(0.08 -0.08)">
       <use xlink:href="#DejaVuSans-30"/>
      </g>
     </g>
    </g>
    <g id="xtick_5">
     <g id="line2d_18">
      <g>
       <use xlink:href="#mb2c7047cbf" x="195.22" y="106.72" style="stroke: #000000; stroke-width: 0.8"/>
      </g>
     </g>
     <g id="text_12">
      <!-- 1 -->
      <g transform="translate(192.675 119.79875) scale(0.08 -0.08)">
       <use xlink:href="#DejaVuSans-31"/>
      </g>
     </g>
    </g>
    <g id="xtick_6">
     <g id="line2d_19">
      <g>
       <use xlink:href="#mb2c7047cbf" x="220.733333" y="106.72" style="stroke: #000000; stroke-width: 0.8"/>
      </g>
     </g>
     <g id="text_13">
      <!-- 2 -->
      <g transform="translate(218.188333 119.79875) scale(0.08 -0.08)">
       <use xlink:href="#DejaVuSans-32"/>
      </g>
     </g>
    </g>
    <g id="text_14">
     <!-- Alleles (#) -->
     <g transform="translate(171.796797 132.301094) scale(0.09 -0.09)">
      <use xlink:href="#DejaVuSans-41"/>
      <use xlink:href="#DejaVuSans-6c" x="68.408203"/>
      <use xlink:href="#DejaVuSans-6c" x="96.191406"/>
      <use xlink:href="#DejaVuSans-65" x="123.974609"/>
      <use xlink:href="#DejaVuSans-6c" x="185.498047"/>
      <use xlink:href="#DejaVuSans-65" x="213.28125"/>
      <use xlink:href="#DejaVuSans-73" x="274.804688"/>
      <use xlink:href="#DejaVuSans-20" x="326.904297"/>
      <use xlink:href="#DejaVuSans-28" x="358.691406"/>
      <use xlink:href="#DejaVuSans-23" x="397.705078"/>
      <use xlink:href="#DejaVuSans-29" x="481.494141"/>
     </g>
    </g>
   </g>
   <g id="matplotlib.axis_4">
    <g id="ytick_5">
     <g id="line2d_20">
      <g>
       <use xlink:href="#m4a6911aa1b" x="156.95" y="102.910909" style="stroke: #000000; stroke-width: 0.8"/>
      </g>
     </g>
     <g id="text_15">
      <!-- 0 -->
      <g transform="translate(144.86 105.950284) scale(0.08 -0.08)">
       <use xlink:href="#DejaVuSans-30"/>
      </g>
     </g>
    </g>
    <g id="ytick_6">
     <g id="line2d_21">
      <g>
       <use xlink:href="#m4a6911aa1b" x="156.95" y="79.104091" style="stroke: #000000; stroke-width: 0.8"/>
      </g>
     </g>
     <g id="text_16">
      <!-- 5 -->
      <g transform="translate(144.86 82.143466) scale(0.08 -0.08)">
       <use xlink:href="#DejaVuSans-35"/>
      </g>
     </g>
    </g>
    <g id="ytick_7">
     <g id="line2d_22">
      <g>
       <use xlink:href="#m4a6911aa1b" x="156.95" y="55.297273" style="stroke: #000000; stroke-width: 0.8"/>
      </g>
     </g>
     <g id="text_17">
      <!-- 10 -->
      <g transform="translate(139.77 58.336648) scale(0.08 -0.08)">
       <use xlink:href="#DejaVuSans-31"/>
       <use xlink:href="#DejaVuSans-30" x="63.623047"/>
      </g>
     </g>
    </g>
    <g id="ytick_8">
     <g id="line2d_23">
      <g>
       <use xlink:href="#m4a6911aa1b" x="156.95" y="31.490455" style="stroke: #000000; stroke-width: 0.8"/>
      </g>
     </g>
     <g id="text_18">
      <!-- 15 -->
      <g transform="translate(139.77 34.52983) scale(0.08 -0.08)">
       <use xlink:href="#DejaVuSans-31"/>
       <use xlink:href="#DejaVuSans-35" x="63.623047"/>
      </g>
     </g>
    </g>
   </g>
   <g id="line2d_24">
    <path d="M 169.706667 102.910909 
L 169.706667 26.729091 
" clip-path="url(#pf5d320658f)" style="fill: none; stroke: #404040; stroke-width: 1.875; stroke-linecap: square"/>
   </g>
   <g id="line2d_25">
    <path d="M 169.706667 82.675114 
L 169.706667 42.203523 
" clip-path="url(#pf5d320658f)" style="fill: none; stroke: #404040; stroke-width: 5.625; stroke-linecap: square"/>
   </g>
   <g id="line2d_26">
    <path d="M 169.706667 71.962045 
" clip-path="url(#pf5d320658f)" style="fill: none; stroke: #404040; stroke-width: 1.5; stroke-linecap: square"/>
    <g clip-path="url(#pf5d320658f)">
     <use xlink:href="#m3a9613f49d" x="169.706667" y="71.962045" style="fill: #ffffff; stroke: #ffffff; stroke-width: 1.125"/>
    </g>
   </g>
   <g id="line2d_27">
    <path d="M 195.22 102.910909 
L 195.22 31.490455 
" clip-path="url(#pf5d320658f)" style="fill: none; stroke: #404040; stroke-width: 1.875; stroke-linecap: square"/>
   </g>
   <g id="line2d_28">
    <path d="M 195.22 82.675114 
L 195.22 45.774545 
" clip-path="url(#pf5d320658f)" style="fill: none; stroke: #404040; stroke-width: 5.625; stroke-linecap: square"/>
   </g>
   <g id="line2d_29">
    <path d="M 195.22 67.200682 
" clip-path="url(#pf5d320658f)" style="fill: none; stroke: #404040; stroke-width: 1.5; stroke-linecap: square"/>
    <g clip-path="url(#pf5d320658f)">
     <use xlink:href="#m3a9613f49d" x="195.22" y="67.200682" style="fill: #ffffff; stroke: #ffffff; stroke-width: 1.125"/>
    </g>
   </g>
   <g id="line2d_30">
    <path d="M 220.733333 88.626818 
L 220.733333 26.729091 
" clip-path="url(#pf5d320658f)" style="fill: none; stroke: #404040; stroke-width: 1.875; stroke-linecap: square"/>
   </g>
   <g id="line2d_31">
    <path d="M 220.733333 75.533068 
L 220.733333 54.106932 
" clip-path="url(#pf5d320658f)" style="fill: none; stroke: #404040; stroke-width: 5.625; stroke-linecap: square"/>
   </g>
   <g id="line2d_32">
    <path d="M 220.733333 64.82 
" clip-path="url(#pf5d320658f)" style="fill: none; stroke: #404040; stroke-width: 1.5; stroke-linecap: square"/>
    <g clip-path="url(#pf5d320658f)">
     <use xlink:href="#m3a9613f49d" x="220.733333" y="64.82" style="fill: #ffffff; stroke: #ffffff; stroke-width: 1.125"/>
    </g>
   </g>
   <g id="patch_8">
    <path d="M 156.95 106.72 
L 156.95 22.92 
" style="fill: none; stroke: #000000; stroke-width: 0.8; stroke-linejoin: miter; stroke-linecap: square"/>
   </g>
   <g id="patch_9">
    <path d="M 233.49 106.72 
L 233.49 22.92 
" style="fill: none; stroke: #000000; stroke-width: 0.8; stroke-linejoin: miter; stroke-linecap: square"/>
   </g>
   <g id="patch_10">
    <path d="M 156.95 106.72 
L 233.49 106.72 
" style="fill: none; stroke: #000000; stroke-width: 0.8; stroke-linejoin: miter; stroke-linecap: square"/>
   </g>
   <g id="patch_11">
    <path d="M 156.95 22.92 
L 233.49 22.92 
" style="fill: none; stroke: #000000; stroke-width: 0.8; stroke-linejoin: miter; stroke-linecap: square"/>
   </g>
   <g id="PathCollection_4">
    <defs>
     <path id="C3_0_0c7203d535" d="M 0 2.5 
C 0.663008 2.5 1.29895 2.236584 1.767767 1.767767 
C 2.236584 1.29895 2.5 0.663008 2.5 -0 
C 2.5 -0.663008 2.236584 -1.29895 1.767767 -1.767767 
C 1.29895 -2.236584 0.663008 -2.5 0 -2.5 
C -0.663008 -2.5 -1.29895 -2.236584 -1.767767 -1.767767 
C -2.236584 -1.29895 -2.5 -0.663008 -2.5 0 
C -2.5 0.663008 -2.236584 1.29895 -1.767767 1.767767 
C -1.29895 2.236584 -0.663008 2.5 0 2.5 
z
"/>
    </defs>
    <g clip-path="url(#pf5d320658f)">
     <use xlink:href="#C3_0_0c7203d535" x="169.706667" y="31.490455" style="fill: #74c476; stroke: #000000"/>
    </g>
    <g clip-path="url(#pf5d320658f)">
     <use xlink:href="#C3_0_0c7203d535" x="165.873172" y="55.297273" style="fill: #74c476; stroke: #000000"/>
    </g>
    <g clip-path="url(#pf5d320658f)">
     <use xlink:href="#C3_0_0c7203d535" x="159.573172" y="74.342727" style="fill: #74c476; stroke: #000000"/>
    </g>
    <g clip-path="url(#pf5d320658f)">
     <use xlink:href="#C3_0_0c7203d535" x="159.573172" y="26.729091" style="fill: #74c476; stroke: #000000"/>
    </g>
    <g clip-path="url(#pf5d320658f)">
     <use xlink:href="#C3_0_0c7203d535" x="173.540161" y="26.729091" style="fill: #74c476; stroke: #000000"/>
    </g>
    <g clip-path="url(#pf5d320658f)">
     <use xlink:href="#C3_0_0c7203d535" x="159.501333" y="79.104091" style="fill: #74c476; stroke: #000000"/>
    </g>
    <g clip-path="url(#pf5d320658f)">
     <use xlink:href="#C3_0_0c7203d535" x="165.873172" y="41.013182" style="fill: #74c476; stroke: #000000"/>
    </g>
    <g clip-path="url(#pf5d320658f)">
     <use xlink:href="#C3_0_0c7203d535" x="165.873172" y="26.729091" style="fill: #74c476; stroke: #000000"/>
    </g>
    <g clip-path="url(#pf5d320658f)">
     <use xlink:href="#C3_0_0c7203d535" x="173.540161" y="41.013182" style="fill: #74c476; stroke: #000000"/>
    </g>
    <g clip-path="url(#pf5d320658f)">
     <use xlink:href="#C3_0_0c7203d535" x="169.706667" y="79.104091" style="fill: #74c476; stroke: #000000"/>
    </g>
    <g clip-path="url(#pf5d320658f)">
     <use xlink:href="#C3_0_0c7203d535" x="173.540161" y="83.865455" style="fill: #74c476; stroke: #000000"/>
    </g>
    <g clip-path="url(#pf5d320658f)">
     <use xlink:href="#C3_0_0c7203d535" x="173.540161" y="74.342727" style="fill: #74c476; stroke: #000000"/>
    </g>
    <g clip-path="url(#pf5d320658f)">
     <use xlink:href="#C3_0_0c7203d535" x="169.706667" y="45.774545" style="fill: #74c476; stroke: #000000"/>
    </g>
    <g clip-path="url(#pf5d320658f)">
     <use xlink:href="#C3_0_0c7203d535" x="169.706667" y="69.581364" style="fill: #74c476; stroke: #000000"/>
    </g>
    <g clip-path="url(#pf5d320658f)">
     <use xlink:href="#C3_0_0c7203d535" x="169.706667" y="60.058636" style="fill: #74c476; stroke: #000000"/>
    </g>
    <g clip-path="url(#pf5d320658f)">
     <use xlink:href="#C3_0_0c7203d535" x="165.873172" y="64.82" style="fill: #74c476; stroke: #000000"/>
    </g>
    <g clip-path="url(#pf5d320658f)">
     <use xlink:href="#C3_0_0c7203d535" x="169.706667" y="88.626818" style="fill: #74c476; stroke: #000000"/>
    </g>
    <g clip-path="url(#pf5d320658f)">
     <use xlink:href="#C3_0_0c7203d535" x="169.706667" y="102.910909" style="fill: #74c476; stroke: #000000"/>
    </g>
    <g clip-path="url(#pf5d320658f)">
     <use xlink:href="#C3_0_0c7203d535" x="163.406667" y="79.104091" style="fill: #74c476; stroke: #000000"/>
    </g>
    <g clip-path="url(#pf5d320658f)">
     <use xlink:href="#C3_0_0c7203d535" x="159.573172" y="83.865455" style="fill: #74c476; stroke: #000000"/>
    </g>
    <g clip-path="url(#pf5d320658f)">
     <use xlink:href="#C3_0_0c7203d535" x="163.406667" y="88.626818" style="fill: #74c476; stroke: #000000"/>
    </g>
    <g clip-path="url(#pf5d320658f)">
     <use xlink:href="#C3_0_0c7203d535" x="179.840161" y="83.865455" style="fill: #74c476; stroke: #000000"/>
    </g>
   </g>
   <g id="PathCollection_5">
    <defs>
     <path id="C4_0_0e3351cf57" d="M 0 2.5 
C 0.663008 2.5 1.29895 2.236584 1.767767 1.767767 
C 2.236584 1.29895 2.5 0.663008 2.5 -0 
C 2.5 -0.663008 2.236584 -1.29895 1.767767 -1.767767 
C 1.29895 -2.236584 0.663008 -2.5 0 -2.5 
C -0.663008 -2.5 -1.29895 -2.236584 -1.767767 -1.767767 
C -2.236584 -1.29895 -2.5 -0.663008 -2.5 0 
C -2.5 0.663008 -2.236584 1.29895 -1.767767 1.767767 
C -1.29895 2.236584 -0.663008 2.5 0 2.5 
z
"/>
    </defs>
    <g clip-path="url(#pf5d320658f)">
     <use xlink:href="#C4_0_0e3351cf57" x="205.353495" y="69.581364" style="fill: #a1d99b; stroke: #000000"/>
    </g>
    <g clip-path="url(#pf5d320658f)">
     <use xlink:href="#C4_0_0e3351cf57" x="191.386505" y="50.535909" style="fill: #a1d99b; stroke: #000000"/>
    </g>
    <g clip-path="url(#pf5d320658f)">
     <use xlink:href="#C4_0_0e3351cf57" x="195.22" y="102.910909" style="fill: #a1d99b; stroke: #000000"/>
    </g>
    <g clip-path="url(#pf5d320658f)">
     <use xlink:href="#C4_0_0e3351cf57" x="195.22" y="36.251818" style="fill: #a1d99b; stroke: #000000"/>
    </g>
    <g clip-path="url(#pf5d320658f)">
     <use xlink:href="#C4_0_0e3351cf57" x="201.52" y="74.342727" style="fill: #a1d99b; stroke: #000000"/>
    </g>
    <g clip-path="url(#pf5d320658f)">
     <use xlink:href="#C4_0_0e3351cf57" x="191.386505" y="60.058636" style="fill: #a1d99b; stroke: #000000"/>
    </g>
    <g clip-path="url(#pf5d320658f)">
     <use xlink:href="#C4_0_0e3351cf57" x="191.386505" y="31.490455" style="fill: #a1d99b; stroke: #000000"/>
    </g>
    <g clip-path="url(#pf5d320658f)">
     <use xlink:href="#C4_0_0e3351cf57" x="195.22" y="83.865455" style="fill: #a1d99b; stroke: #000000"/>
    </g>
    <g clip-path="url(#pf5d320658f)">
     <use xlink:href="#C4_0_0e3351cf57" x="199.053495" y="88.626818" style="fill: #a1d99b; stroke: #000000"/>
    </g>
    <g clip-path="url(#pf5d320658f)">
     <use xlink:href="#C4_0_0e3351cf57" x="187.553011" y="45.774545" style="fill: #a1d99b; stroke: #000000"/>
    </g>
    <g clip-path="url(#pf5d320658f)">
     <use xlink:href="#C4_0_0e3351cf57" x="195.22" y="55.297273" style="fill: #a1d99b; stroke: #000000"/>
    </g>
    <g clip-path="url(#pf5d320658f)">
     <use xlink:href="#C4_0_0e3351cf57" x="195.22" y="45.774545" style="fill: #a1d99b; stroke: #000000"/>
    </g>
    <g clip-path="url(#pf5d320658f)">
     <use xlink:href="#C4_0_0e3351cf57" x="191.386505" y="69.581364" style="fill: #a1d99b; stroke: #000000"/>
    </g>
    <g clip-path="url(#pf5d320658f)">
     <use xlink:href="#C4_0_0e3351cf57" x="201.52" y="45.774545" style="fill: #a1d99b; stroke: #000000"/>
    </g>
    <g clip-path="url(#pf5d320658f)">
     <use xlink:href="#C4_0_0e3351cf57" x="191.386505" y="98.149545" style="fill: #a1d99b; stroke: #000000"/>
    </g>
    <g clip-path="url(#pf5d320658f)">
     <use xlink:href="#C4_0_0e3351cf57" x="195.22" y="74.342727" style="fill: #a1d99b; stroke: #000000"/>
    </g>
    <g clip-path="url(#pf5d320658f)">
     <use xlink:href="#C4_0_0e3351cf57" x="195.22" y="64.82" style="fill: #a1d99b; stroke: #000000"/>
    </g>
    <g clip-path="url(#pf5d320658f)">
     <use xlink:href="#C4_0_0e3351cf57" x="191.386505" y="88.626818" style="fill: #a1d99b; stroke: #000000"/>
    </g>
    <g clip-path="url(#pf5d320658f)">
     <use xlink:href="#C4_0_0e3351cf57" x="191.386505" y="41.013182" style="fill: #a1d99b; stroke: #000000"/>
    </g>
    <g clip-path="url(#pf5d320658f)">
     <use xlink:href="#C4_0_0e3351cf57" x="205.353495" y="41.013182" style="fill: #a1d99b; stroke: #000000"/>
    </g>
    <g clip-path="url(#pf5d320658f)">
     <use xlink:href="#C4_0_0e3351cf57" x="195.22" y="93.388182" style="fill: #a1d99b; stroke: #000000"/>
    </g>
    <g clip-path="url(#pf5d320658f)">
     <use xlink:href="#C4_0_0e3351cf57" x="191.386505" y="79.104091" style="fill: #a1d99b; stroke: #000000"/>
    </g>
   </g>
   <g id="PathCollection_6">
    <defs>
     <path id="C5_0_51ac57d66a" d="M 0 2.5 
C 0.663008 2.5 1.29895 2.236584 1.767767 1.767767 
C 2.236584 1.29895 2.5 0.663008 2.5 -0 
C 2.5 -0.663008 2.236584 -1.29895 1.767767 -1.767767 
C 1.29895 -2.236584 0.663008 -2.5 0 -2.5 
C -0.663008 -2.5 -1.29895 -2.236584 -1.767767 -1.767767 
C -2.236584 -1.29895 -2.5 -0.663008 -2.5 0 
C -2.5 0.663008 -2.236584 1.29895 -1.767767 1.767767 
C -1.29895 2.236584 -0.663008 2.5 0 2.5 
z
"/>
    </defs>
    <g clip-path="url(#pf5d320658f)">
     <use xlink:href="#C5_0_51ac57d66a" x="220.733333" y="50.535909" style="fill: #c7e9c0; stroke: #000000"/>
    </g>
    <g clip-path="url(#pf5d320658f)">
     <use xlink:href="#C5_0_51ac57d66a" x="220.733333" y="60.058636" style="fill: #c7e9c0; stroke: #000000"/>
    </g>
    <g clip-path="url(#pf5d320658f)">
     <use xlink:href="#C5_0_51ac57d66a" x="216.899839" y="74.342727" style="fill: #c7e9c0; stroke: #000000"/>
    </g>
    <g clip-path="url(#pf5d320658f)">
     <use xlink:href="#C5_0_51ac57d66a" x="224.566828" y="74.342727" style="fill: #c7e9c0; stroke: #000000"/>
    </g>
    <g clip-path="url(#pf5d320658f)">
     <use xlink:href="#C5_0_51ac57d66a" x="216.899839" y="83.865455" style="fill: #c7e9c0; stroke: #000000"/>
    </g>
    <g clip-path="url(#pf5d320658f)">
     <use xlink:href="#C5_0_51ac57d66a" x="214.433333" y="60.058636" style="fill: #c7e9c0; stroke: #000000"/>
    </g>
    <g clip-path="url(#pf5d320658f)">
     <use xlink:href="#C5_0_51ac57d66a" x="214.433333" y="50.535909" style="fill: #c7e9c0; stroke: #000000"/>
    </g>
    <g clip-path="url(#pf5d320658f)">
     <use xlink:href="#C5_0_51ac57d66a" x="220.733333" y="26.729091" style="fill: #c7e9c0; stroke: #000000"/>
    </g>
    <g clip-path="url(#pf5d320658f)">
     <use xlink:href="#C5_0_51ac57d66a" x="220.733333" y="41.013182" style="fill: #c7e9c0; stroke: #000000"/>
    </g>
    <g clip-path="url(#pf5d320658f)">
     <use xlink:href="#C5_0_51ac57d66a" x="224.566828" y="55.297273" style="fill: #c7e9c0; stroke: #000000"/>
    </g>
    <g clip-path="url(#pf5d320658f)">
     <use xlink:href="#C5_0_51ac57d66a" x="220.733333" y="69.581364" style="fill: #c7e9c0; stroke: #000000"/>
    </g>
    <g clip-path="url(#pf5d320658f)">
     <use xlink:href="#C5_0_51ac57d66a" x="210.599839" y="55.297273" style="fill: #c7e9c0; stroke: #000000"/>
    </g>
    <g clip-path="url(#pf5d320658f)">
     <use xlink:href="#C5_0_51ac57d66a" x="224.566828" y="83.865455" style="fill: #c7e9c0; stroke: #000000"/>
    </g>
    <g clip-path="url(#pf5d320658f)">
     <use xlink:href="#C5_0_51ac57d66a" x="213.066344" y="69.581364" style="fill: #c7e9c0; stroke: #000000"/>
    </g>
    <g clip-path="url(#pf5d320658f)">
     <use xlink:href="#C5_0_51ac57d66a" x="220.733333" y="79.104091" style="fill: #c7e9c0; stroke: #000000"/>
    </g>
    <g clip-path="url(#pf5d320658f)">
     <use xlink:href="#C5_0_51ac57d66a" x="220.733333" y="88.626818" style="fill: #c7e9c0; stroke: #000000"/>
    </g>
   </g>
   <g id="text_19">
    <!-- C2 -->
    <g style="fill: #31a354" transform="translate(188.786406 16.92) scale(0.09 -0.09)">
     <defs>
      <path id="DejaVuSans-Bold-32" d="M 1844 884 
L 3897 884 
L 3897 0 
L 506 0 
L 506 884 
L 2209 2388 
Q 2438 2594 2547 2791 
Q 2656 2988 2656 3200 
Q 2656 3528 2436 3728 
Q 2216 3928 1850 3928 
Q 1569 3928 1234 3808 
Q 900 3688 519 3450 
L 519 4475 
Q 925 4609 1322 4679 
Q 1719 4750 2100 4750 
Q 2938 4750 3402 4381 
Q 3866 4013 3866 3353 
Q 3866 2972 3669 2642 
Q 3472 2313 2841 1759 
L 1844 884 
z
" transform="scale(0.015625)"/>
     </defs>
     <use xlink:href="#DejaVuSans-Bold-43"/>
     <use xlink:href="#DejaVuSans-Bold-32" x="73.388672"/>
    </g>
   </g>
  </g>
  <g id="axes_3">
   <g id="patch_12">
    <path d="M 273.74 106.72 
L 350.28 106.72 
L 350.28 22.92 
L 273.74 22.92 
z
" style="fill: #ffffff"/>
   </g>
   <g id="patch_13">
    <path d="M 277.219091 106.72 
L 297.09961 106.72 
L 297.09961 101.833703 
L 277.219091 101.833703 
z
" clip-path="url(#p78ac960a19)" style="fill: #fd8d3c; stroke: #000000; stroke-linejoin: miter"/>
   </g>
   <g id="patch_14">
    <path d="M 302.06974 106.72 
L 321.95026 106.72 
L 321.95026 64.372089 
L 302.06974 64.372089 
z
" clip-path="url(#p78ac960a19)" style="fill: #fd8d3c; stroke: #000000; stroke-linejoin: miter"/>
   </g>
   <g id="patch_15">
    <path d="M 326.92039 106.72 
L 346.800909 106.72 
L 346.800909 46.455666 
L 326.92039 46.455666 
z
" clip-path="url(#p78ac960a19)" style="fill: #fd8d3c; stroke: #000000; stroke-linejoin: miter"/>
   </g>
   <g id="patch_16">
    <path d="M 277.219091 101.833703 
L 297.09961 101.833703 
L 297.09961 48.084431 
L 277.219091 48.084431 
z
" clip-path="url(#p78ac960a19)" style="fill: #74c476; stroke: #000000; stroke-linejoin: miter"/>
   </g>
   <g id="patch_17">
    <path d="M 302.06974 64.372089 
L 321.95026 64.372089 
L 321.95026 49.713197 
L 302.06974 49.713197 
z
" clip-path="url(#p78ac960a19)" style="fill: #74c476; stroke: #000000; stroke-linejoin: miter"/>
   </g>
   <g id="patch_18">
    <path d="M 326.92039 46.455666 
L 346.800909 46.455666 
L 346.800909 26.910476 
L 326.92039 26.910476 
z
" clip-path="url(#p78ac960a19)" style="fill: #74c476; stroke: #000000; stroke-linejoin: miter"/>
   </g>
   <g id="matplotlib.axis_5">
    <g id="xtick_7">
     <g id="line2d_33">
      <g>
       <use xlink:href="#mb2c7047cbf" x="287.159351" y="106.72" style="stroke: #000000; stroke-width: 0.8"/>
      </g>
     </g>
     <g id="text_20">
      <!-- 1 -->
      <g transform="translate(284.614351 119.79875) scale(0.08 -0.08)">
       <use xlink:href="#DejaVuSans-31"/>
      </g>
     </g>
    </g>
    <g id="xtick_8">
     <g id="line2d_34">
      <g>
       <use xlink:href="#mb2c7047cbf" x="312.01" y="106.72" style="stroke: #000000; stroke-width: 0.8"/>
      </g>
     </g>
     <g id="text_21">
      <!-- 2 -->
      <g transform="translate(309.465 119.79875) scale(0.08 -0.08)">
       <use xlink:href="#DejaVuSans-32"/>
      </g>
     </g>
    </g>
    <g id="xtick_9">
     <g id="line2d_35">
      <g>
       <use xlink:href="#mb2c7047cbf" x="336.860649" y="106.72" style="stroke: #000000; stroke-width: 0.8"/>
      </g>
     </g>
     <g id="text_22">
      <!-- 3 -->
      <g transform="translate(334.315649 119.79875) scale(0.08 -0.08)">
       <defs>
        <path id="DejaVuSans-33" d="M 2597 2516 
Q 3050 2419 3304 2112 
Q 3559 1806 3559 1356 
Q 3559 666 3084 287 
Q 2609 -91 1734 -91 
Q 1441 -91 1130 -33 
Q 819 25 488 141 
L 488 750 
Q 750 597 1062 519 
Q 1375 441 1716 441 
Q 2309 441 2620 675 
Q 2931 909 2931 1356 
Q 2931 1769 2642 2001 
Q 2353 2234 1838 2234 
L 1294 2234 
L 1294 2753 
L 1863 2753 
Q 2328 2753 2575 2939 
Q 2822 3125 2822 3475 
Q 2822 3834 2567 4026 
Q 2313 4219 1838 4219 
Q 1578 4219 1281 4162 
Q 984 4106 628 3988 
L 628 4550 
Q 988 4650 1302 4700 
Q 1616 4750 1894 4750 
Q 2613 4750 3031 4423 
Q 3450 4097 3450 3541 
Q 3450 3153 3228 2886 
Q 3006 2619 2597 2516 
z
" transform="scale(0.015625)"/>
       </defs>
       <use xlink:href="#DejaVuSans-33"/>
      </g>
     </g>
    </g>
    <g id="text_23">
     <!-- Cluster -->
     <g transform="translate(296.038516 132.301094) scale(0.09 -0.09)">
      <defs>
       <path id="DejaVuSans-43" d="M 4122 4306 
L 4122 3641 
Q 3803 3938 3442 4084 
Q 3081 4231 2675 4231 
Q 1875 4231 1450 3742 
Q 1025 3253 1025 2328 
Q 1025 1406 1450 917 
Q 1875 428 2675 428 
Q 3081 428 3442 575 
Q 3803 722 4122 1019 
L 4122 359 
Q 3791 134 3420 21 
Q 3050 -91 2638 -91 
Q 1578 -91 968 557 
Q 359 1206 359 2328 
Q 359 3453 968 4101 
Q 1578 4750 2638 4750 
Q 3056 4750 3426 4639 
Q 3797 4528 4122 4306 
z
" transform="scale(0.015625)"/>
       <path id="DejaVuSans-75" d="M 544 1381 
L 544 3500 
L 1119 3500 
L 1119 1403 
Q 1119 906 1312 657 
Q 1506 409 1894 409 
Q 2359 409 2629 706 
Q 2900 1003 2900 1516 
L 2900 3500 
L 3475 3500 
L 3475 0 
L 2900 0 
L 2900 538 
Q 2691 219 2414 64 
Q 2138 -91 1772 -91 
Q 1169 -91 856 284 
Q 544 659 544 1381 
z
M 1991 3584 
L 1991 3584 
z
" transform="scale(0.015625)"/>
       <path id="DejaVuSans-74" d="M 1172 4494 
L 1172 3500 
L 2356 3500 
L 2356 3053 
L 1172 3053 
L 1172 1153 
Q 1172 725 1289 603 
Q 1406 481 1766 481 
L 2356 481 
L 2356 0 
L 1766 0 
Q 1100 0 847 248 
Q 594 497 594 1153 
L 594 3053 
L 172 3053 
L 172 3500 
L 594 3500 
L 594 4494 
L 1172 4494 
z
" transform="scale(0.015625)"/>
       <path id="DejaVuSans-72" d="M 2631 2963 
Q 2534 3019 2420 3045 
Q 2306 3072 2169 3072 
Q 1681 3072 1420 2755 
Q 1159 2438 1159 1844 
L 1159 0 
L 581 0 
L 581 3500 
L 1159 3500 
L 1159 2956 
Q 1341 3275 1631 3429 
Q 1922 3584 2338 3584 
Q 2397 3584 2469 3576 
Q 2541 3569 2628 3553 
L 2631 2963 
z
" transform="scale(0.015625)"/>
      </defs>
      <use xlink:href="#DejaVuSans-43"/>
      <use xlink:href="#DejaVuSans-6c" x="69.824219"/>
      <use xlink:href="#DejaVuSans-75" x="97.607422"/>
      <use xlink:href="#DejaVuSans-73" x="160.986328"/>
      <use xlink:href="#DejaVuSans-74" x="213.085938"/>
      <use xlink:href="#DejaVuSans-65" x="252.294922"/>
      <use xlink:href="#DejaVuSans-72" x="313.818359"/>
     </g>
    </g>
   </g>
   <g id="matplotlib.axis_6">
    <g id="ytick_9">
     <g id="line2d_36">
      <g>
       <use xlink:href="#m4a6911aa1b" x="273.74" y="106.72" style="stroke: #000000; stroke-width: 0.8"/>
      </g>
     </g>
     <g id="text_24">
      <!-- 0 -->
      <g transform="translate(261.65 109.759375) scale(0.08 -0.08)">
       <use xlink:href="#DejaVuSans-30"/>
      </g>
     </g>
    </g>
    <g id="ytick_10">
     <g id="line2d_37">
      <g>
       <use xlink:href="#m4a6911aa1b" x="273.74" y="74.144684" style="stroke: #000000; stroke-width: 0.8"/>
      </g>
     </g>
     <g id="text_25">
      <!-- 20 -->
      <g transform="translate(256.56 77.184059) scale(0.08 -0.08)">
       <use xlink:href="#DejaVuSans-32"/>
       <use xlink:href="#DejaVuSans-30" x="63.623047"/>
      </g>
     </g>
    </g>
    <g id="ytick_11">
     <g id="line2d_38">
      <g>
       <use xlink:href="#m4a6911aa1b" x="273.74" y="41.569368" style="stroke: #000000; stroke-width: 0.8"/>
      </g>
     </g>
     <g id="text_26">
      <!-- 40 -->
      <g transform="translate(256.56 44.608743) scale(0.08 -0.08)">
       <defs>
        <path id="DejaVuSans-34" d="M 2419 4116 
L 825 1625 
L 2419 1625 
L 2419 4116 
z
M 2253 4666 
L 3047 4666 
L 3047 1625 
L 3713 1625 
L 3713 1100 
L 3047 1100 
L 3047 0 
L 2419 0 
L 2419 1100 
L 313 1100 
L 313 1709 
L 2253 4666 
z
" transform="scale(0.015625)"/>
       </defs>
       <use xlink:href="#DejaVuSans-34"/>
       <use xlink:href="#DejaVuSans-30" x="63.623047"/>
      </g>
     </g>
    </g>
    <g id="text_27">
     <!-- Count (#) -->
     <g transform="translate(250.688281 86.896016) rotate(-90) scale(0.09 -0.09)">
      <defs>
       <path id="DejaVuSans-6f" d="M 1959 3097 
Q 1497 3097 1228 2736 
Q 959 2375 959 1747 
Q 959 1119 1226 758 
Q 1494 397 1959 397 
Q 2419 397 2687 759 
Q 2956 1122 2956 1747 
Q 2956 2369 2687 2733 
Q 2419 3097 1959 3097 
z
M 1959 3584 
Q 2709 3584 3137 3096 
Q 3566 2609 3566 1747 
Q 3566 888 3137 398 
Q 2709 -91 1959 -91 
Q 1206 -91 779 398 
Q 353 888 353 1747 
Q 353 2609 779 3096 
Q 1206 3584 1959 3584 
z
" transform="scale(0.015625)"/>
       <path id="DejaVuSans-6e" d="M 3513 2113 
L 3513 0 
L 2938 0 
L 2938 2094 
Q 2938 2591 2744 2837 
Q 2550 3084 2163 3084 
Q 1697 3084 1428 2787 
Q 1159 2491 1159 1978 
L 1159 0 
L 581 0 
L 581 3500 
L 1159 3500 
L 1159 2956 
Q 1366 3272 1645 3428 
Q 1925 3584 2291 3584 
Q 2894 3584 3203 3211 
Q 3513 2838 3513 2113 
z
" transform="scale(0.015625)"/>
      </defs>
      <use xlink:href="#DejaVuSans-43"/>
      <use xlink:href="#DejaVuSans-6f" x="69.824219"/>
      <use xlink:href="#DejaVuSans-75" x="131.005859"/>
      <use xlink:href="#DejaVuSans-6e" x="194.384766"/>
      <use xlink:href="#DejaVuSans-74" x="257.763672"/>
      <use xlink:href="#DejaVuSans-20" x="296.972656"/>
      <use xlink:href="#DejaVuSans-28" x="328.759766"/>
      <use xlink:href="#DejaVuSans-23" x="367.773438"/>
      <use xlink:href="#DejaVuSans-29" x="451.5625"/>
     </g>
    </g>
   </g>
   <g id="patch_19">
    <path d="M 273.74 106.72 
L 273.74 22.92 
" style="fill: none; stroke: #000000; stroke-width: 0.8; stroke-linejoin: miter; stroke-linecap: square"/>
   </g>
   <g id="patch_20">
    <path d="M 350.28 106.72 
L 350.28 22.92 
" style="fill: none; stroke: #000000; stroke-width: 0.8; stroke-linejoin: miter; stroke-linecap: square"/>
   </g>
   <g id="patch_21">
    <path d="M 273.74 106.72 
L 350.28 106.72 
" style="fill: none; stroke: #000000; stroke-width: 0.8; stroke-linejoin: miter; stroke-linecap: square"/>
   </g>
   <g id="patch_22">
    <path d="M 273.74 22.92 
L 350.28 22.92 
" style="fill: none; stroke: #000000; stroke-width: 0.8; stroke-linejoin: miter; stroke-linecap: square"/>
   </g>
   <g id="legend_1">
    <g id="patch_23">
     <path d="M 280.04 56.540625 
L 320.850781 56.540625 
Q 322.650781 56.540625 322.650781 54.740625 
L 322.650781 29.22 
Q 322.650781 27.42 320.850781 27.42 
L 280.04 27.42 
Q 278.24 27.42 278.24 29.22 
L 278.24 54.740625 
Q 278.24 56.540625 280.04 56.540625 
z
" style="fill: #ffffff; opacity: 0.8; stroke: #cccccc; stroke-linejoin: miter"/>
    </g>
    <g id="patch_24">
     <path d="M 281.84 37.858594 
L 299.84 37.858594 
L 299.84 31.558594 
L 281.84 31.558594 
z
" style="fill: #fd8d3c; stroke: #000000; stroke-linejoin: miter"/>
    </g>
    <g id="text_28">
     <!-- C1 -->
     <g transform="translate(307.04 37.858594) scale(0.09 -0.09)">
      <use xlink:href="#DejaVuSans-43"/>
      <use xlink:href="#DejaVuSans-31" x="69.824219"/>
     </g>
    </g>
    <g id="patch_25">
     <path d="M 281.84 51.068906 
L 299.84 51.068906 
L 299.84 44.768906 
L 281.84 44.768906 
z
" style="fill: #74c476; stroke: #000000; stroke-linejoin: miter"/>
    </g>
    <g id="text_29">
     <!-- C2 -->
     <g transform="translate(307.04 51.068906) scale(0.09 -0.09)">
      <use xlink:href="#DejaVuSans-43"/>
      <use xlink:href="#DejaVuSans-32" x="69.824219"/>
     </g>
    </g>
   </g>
  </g>
 </g>
 <defs>
  <clipPath id="pea61e5461e">
   <rect x="40.16" y="22.92" width="76.54" height="83.8"/>
  </clipPath>
  <clipPath id="pf5d320658f">
   <rect x="156.95" y="22.92" width="76.54" height="83.8"/>
  </clipPath>
  <clipPath id="p78ac960a19">
   <rect x="273.74" y="22.92" width="76.54" height="83.8"/>
  </clipPath>
 </defs>
</svg>
